<?xml version="1.0" encoding="utf-8"?>
<!-- Generator: Adobe Illustrator 26.0.2, SVG Export Plug-In . SVG Version: 6.00 Build 0)  -->
<svg version="1.1" id="Layer_1" xmlns="http://www.w3.org/2000/svg" xmlns:xlink="http://www.w3.org/1999/xlink" x="0px" y="0px"
	 viewBox="0 0 150 28" style="enable-background:new 0 0 150 28;" xml:space="preserve">
<style type="text/css">
	.st0{fill:#FFFFFF;}
</style>
<path class="st0" d="M15.7,12.8C15.4,8.9,12.3,6.5,8,6.5C4,6.5,0.3,9,0.3,13c0,2.3,1.3,4.3,6.4,5.9c3,0.9,3.7,1.5,3.7,2.6
	c0,0.9-1,1.5-2.1,1.5c-1.2,0-2.1-0.6-2.3-1.8H0c0.4,4.1,3.6,6.6,8.1,6.6c4.5,0,8.1-2.6,8.1-6.8c0-2.9-1.5-4.8-6.3-6.1
	c-2.8-0.7-3.7-1.3-3.7-2.3c0-0.8,0.7-1.3,1.7-1.3c1,0,1.8,0.4,1.8,1.5H15.7z"/>
<path class="st0" d="M38.2,19c0.1-0.5,0.1-1,0.1-1.6c0-6.2-4.6-10.9-10.5-10.9c-5.9,0-10.5,5-10.5,10.7c0,5.9,4.8,10.6,10.6,10.6
	c4.2,0,7.8-2.6,9.8-6.9h-6.1c-1,1.3-2,1.9-3.6,1.9c-2.4,0-4.4-1.5-4.7-3.8H38.2z M23.3,14.9c0.5-2.1,2.3-3.4,4.5-3.4
	c2.3,0,4.1,1.4,4.6,3.4H23.3z"/>
<path class="st0" d="M46.7,27.1V0l-6,0v27.1H46.7z"/>
<path class="st0" d="M56.3,27.1V11.7h2.5V7.2h-2.5V6.6c0-1.7,0.8-2.1,2.3-2.1h0.2V0H58c-6.4,0-7.7,3-7.7,6.3v0.8h-2.2v4.5h2.2v15.4
	H56.3z"/>
<path class="st0" d="M66.3,27.1V25h0.1c0.9,1.7,3.3,2.8,5.7,2.8c6.2,0,10.1-4.6,10.1-10.8c0-6.7-4.8-10.5-9.9-10.5
	c-2.1,0-4.1,0.6-5.7,2.3V0.1l-6-0.1v27.1H66.3z M71.2,22.2c-2.8,0-4.9-2.2-4.9-5.1c0-2.8,2.2-5,4.9-5c2.9,0,4.9,2.4,4.9,5.1
	C76.2,20,74,22.2,71.2,22.2z"/>
<path class="st0" d="M105.2,17.1c0-6-4.8-10.5-10.8-10.5c-6,0-10.8,4.4-10.8,10.6c0,6.1,4.7,10.6,10.8,10.6
	C100.5,27.8,105.2,23.3,105.2,17.1z M94.4,22.2c-2.7,0-4.8-2.3-4.8-5s2.1-5,4.8-5c2.8,0,4.8,2.4,4.8,5S97.3,22.2,94.4,22.2z"/>
<path class="st0" d="M128.3,17.1c0-6-4.8-10.5-10.8-10.5c-6,0-10.8,4.4-10.8,10.6c0,6.1,4.7,10.6,10.8,10.6
	C123.5,27.8,128.3,23.3,128.3,17.1z M117.5,22.2c-2.7,0-4.8-2.3-4.8-5s2.1-5,4.8-5c2.8,0,4.8,2.4,4.8,5S120.3,22.2,117.5,22.2z"/>
<path class="st0" d="M149.1,27.1l-7.3-11.2l7.5-8.8h-7.1l-5.5,7.2h-0.1V0l-6,0.1v27h6v-9.6h0.1l5.7,9.6H149.1z"/>
</svg>
