<svg width="178" height="71" viewBox="0 0 178 71" fill="none" xmlns="http://www.w3.org/2000/svg">
<g filter="url(#filter0_b_1609_2338)">
<path fill-rule="evenodd" clip-rule="evenodd" d="M144.972 70.2285C144.954 70.2288 144.936 70.229 144.919 70.229H3.5858C2.02395 70.229 0.757812 68.9628 0.757812 67.401V3.27253C0.757812 1.71067 2.02394 0.444537 3.5858 0.444537H119.052C119.073 0.444078 119.093 0.443848 119.114 0.443848L156.135 0.443849C157.145 0.443849 158.079 0.9828 158.584 1.8577L177.097 33.919C177.602 34.794 177.602 35.8721 177.097 36.7471L158.584 68.8144C158.079 69.6894 157.145 70.2285 156.135 70.2285H144.972Z" fill="url(#paint0_linear_1609_2338)" fill-opacity="0.49"/>
</g>
<defs>
<filter id="filter0_b_1609_2338" x="-5.91625" y="-6.23021" width="190.067" height="83.1333" filterUnits="userSpaceOnUse" color-interpolation-filters="sRGB">
<feFlood flood-opacity="0" result="BackgroundImageFix"/>
<feGaussianBlur in="BackgroundImageFix" stdDeviation="3.33703"/>
<feComposite in2="SourceAlpha" operator="in" result="effect1_backgroundBlur_1609_2338"/>
<feBlend mode="normal" in="SourceGraphic" in2="effect1_backgroundBlur_1609_2338" result="shape"/>
</filter>
<linearGradient id="paint0_linear_1609_2338" x1="-114.933" y1="35.3362" x2="266.45" y2="49.0975" gradientUnits="userSpaceOnUse">
<stop stop-color="white"/>
<stop offset="1" stop-color="white" stop-opacity="0"/>
</linearGradient>
</defs>
</svg>
