<?xml version="1.0" encoding="utf-8"?>
<!-- Generator: Adobe Illustrator 25.2.3, SVG Export Plug-In . SVG Version: 6.00 Build 0)  -->
<svg version="1.1" id="Layer_1" xmlns="http://www.w3.org/2000/svg" xmlns:xlink="http://www.w3.org/1999/xlink" x="0px" y="0px"
	 viewBox="0 0 300 70" style="enable-background:new 0 0 300 70;" xml:space="preserve">
<style type="text/css">
	.st0{fill:#FFFFFF;}
</style>
<g id="Layer_2_1_">
	<g id="Layer_1-2">
		<g id="x7yRl5.tif">
			<path class="st0" d="M53.4,69.9c-1.4-0.2-2.7-0.5-4-1c-5.9-2.5-9.3-6.9-10.2-13.3c0-0.5-0.1-1,0-1.4c0-12.8,0-25.7,0-38.5
				c0.1-7.2,5.1-13.5,12.2-15.2c0.6-0.1,1.2-0.3,1.7-0.4h4.1c2.1,0.3,4.1,1,6,2.1c4.6,2.6,7.6,7.4,7.9,12.7c0.1,1.2,0.1,2.4,0.1,3.6
				c0,11.7,0,23.3,0,34.9c0,2.9-0.7,5.7-2.1,8.2c-2.4,4.5-6.8,7.5-11.9,8.2c-0.1,0-0.3,0.1-0.4,0.1H53.4z M59.6,35v-2.7
				c0-5.5,0-10.9,0-16.4c-0.1-2.4-2.2-4.2-4.6-4.1c-2.3,0.1-4.1,2-4.1,4.3c0,12.6,0,25.1,0,37.7v0.3c0.2,2.4,2.3,4.2,4.7,4.1
				c0.1,0,0.3,0,0.4,0c2.2-0.3,3.7-2.2,3.7-4.4C59.6,47.5,59.6,41.3,59.6,35L59.6,35z"/>
			<path class="st0" d="M190,69.9c-2-0.3-3.8-0.8-5.6-1.7c-5.1-2.8-8-7-8.6-12.8c-0.1-0.8-0.1-1.7-0.1-2.5V2.4c0-0.3,0-0.5,0-0.8
				c0-0.4,0.2-0.6,0.6-0.6c3.5,0,7,0,10.5,0c0.4,0,0.6,0.2,0.6,0.6c0,0.2,0,0.5,0,0.8c0,17.1,0,34.1,0,51.2c0,1.8,0.6,3.2,2.1,4.2
				c2.1,1.2,4.8,0.5,6-1.6c0.4-0.6,0.6-1.3,0.6-2.1c0-0.3,0-0.6,0-0.9V2.4c0-0.2,0-0.5,0-0.7C196,1.2,196.3,1,196.8,1
				c3.4,0,6.8,0,10.2,0c0.7,0,0.7,0.4,0.7,0.9c0,8,0,15.9,0,23.9c0,9.3-0.1,18.6,0,27.9c0,7.9-5.7,14.7-13.4,16l-0.9,0.1H190V69.9z"
				/>
			<path class="st0" d="M300,68.9c-0.3,0-0.5,0-0.8,0H273c-1,0-1,0-1-1V2c0-1,0-1,1-1h26.2c0.3,0,0.5,0,0.8,0.1v11.5
				c-0.3,0-0.6,0-1,0c-4.9,0-9.8,0-14.6,0c-0.6,0-0.9,0.2-0.9,0.8c0,4.6,0,9.3,0,13.9c0,0.7,0.2,0.8,0.9,0.8c2.9,0,5.9,0,8.9,0
				c1,0,1,0,1,0.9c0,3.3,0,6.5,0,9.8c0,0.9-0.1,0.9-0.9,0.9h-8.9c-0.9,0-0.9,0-0.9,0.9v15.6c0,0.9,0,0.9,0.9,0.9H299
				c0.3,0,0.6,0,1,0V68.9z"/>
			<path class="st0" d="M0,1.1C0.3,1.1,0.5,1,0.8,1h26.4c1,0,1,0,1,1c0,3.3,0,6.5,0,9.8c0,0.7-0.2,0.9-0.9,0.9c-4.9,0-9.9,0-14.8,0
				c-0.7,0-0.9,0.2-0.9,0.9c0,4.6,0,9.2,0,13.8c0,0.9,0,0.9,0.9,0.9c3,0,6,0,8.9,0c0.7,0,0.9,0.2,0.9,0.9c0,3.3,0,6.7,0,10
				c0,0.6-0.2,0.8-0.8,0.8c-3,0-6,0-9,0c-0.7,0-0.9,0.2-0.9,0.9c0,9,0,18.1,0,27.1c0,1,0,1-1,1H0.8c-0.3,0-0.5,0-0.8,0V1.1z"/>
			<path class="st0" d="M245.3,36.9V2.4c0-0.3,0-0.5,0-0.8c0-0.4,0.2-0.6,0.6-0.6c3.5,0,7,0,10.4,0c0.5,0,0.7,0.2,0.6,0.7
				c0,0.2,0,0.4,0,0.6v65.4c0,1.2,0,1.2-1.2,1.2c-3.6,0-7.1,0-10.7,0c-0.6,0.1-1.2-0.3-1.3-1l0,0c-3.2-10.3-6.4-20.6-9.6-30.9
				c0-0.2-0.1-0.3-0.2-0.5v31.2c0,1.1,0,1.1-1.1,1.1c-3.2,0-6.5,0-9.7,0c-0.7,0-0.9-0.2-0.9-0.9c0-22.1,0-44.1,0-66.2
				c0-0.7,0.2-0.9,0.9-0.9c3.3,0,6.6,0,9.9,0c0.6-0.1,1.1,0.3,1.2,0.9l0,0c3.6,11.5,7.2,23,10.8,34.5c0.1,0.2,0.1,0.4,0.2,0.6
				L245.3,36.9z"/>
			<path class="st0" d="M86.2,35V2.1c0-1.1,0-1.1,1.1-1.1c5.1,0,10.3,0,15.4,0c7.4,0.2,13.7,5.4,15.2,12.6c0.3,1.4,0.4,2.7,0.4,4.1
				c0,2.5,0,4.9,0,7.4c0.1,2.8-0.2,5.6-0.8,8.3c-0.8,3.2-2.5,6-5,8.2c-0.3,0.3-0.4,0.7-0.2,1.1l6.7,23.1c0.2,0.8,0.5,1.6,0.7,2.4
				c0.1,0.5,0.1,0.7-0.5,0.7c-3.6,0-7.2,0-10.8,0c-0.5,0-0.7-0.3-0.8-0.7c-1.1-4.4-2.3-8.8-3.5-13.1c-1.5-5.9-3.1-11.7-4.6-17.6
				c-0.2-0.7-0.1-0.9,0.6-1.2c3.5-1.1,5.8-3.5,6.4-7.2c0-0.3,0.1-0.7,0.1-1c0-3.7,0-7.4,0-11.1c0-2.4-1.9-4.3-4.2-4.3c0,0,0,0-0.1,0
				c-1.2,0-2.5,0-3.7,0c-0.6,0-0.7,0.2-0.7,0.7c0,0.2,0,0.4,0,0.6v53.6c0,0.2,0,0.5,0,0.8c0,0.4-0.2,0.6-0.6,0.6c-0.8,0-1.6,0-2.4,0
				h-7.7c-0.9,0-0.9,0-0.9-0.9L86.2,35z"/>
			<path class="st0" d="M140.8,40.8v-27c0-1.1,0-1.1-1.1-1.1c-2.7,0-5.5,0-8.2,0c-0.6,0-0.8-0.2-0.8-0.8c0-3.3,0-6.7,0-10
				c0-0.6,0.2-0.8,0.8-0.8c10.2,0,20.3,0,30.5,0c0.6,0,0.8,0.2,0.8,0.8c0,3.4,0,6.7,0,10.1c0,0.6-0.2,0.8-0.8,0.8
				c-2.7,0-5.5,0-8.2,0c-1.2,0-1.2,0-1.2,1.2v50.3c0,1.3,0,2.7,0,4c0,0.6-0.2,0.8-0.8,0.8c-3.4,0-6.7,0-10.1,0
				c-0.7,0-0.8-0.3-0.8-0.9c0-3.1,0-6.3,0-9.4L140.8,40.8z"/>
		</g>
	</g>
</g>
</svg>
