<?xml version="1.0" encoding="utf-8"?>
<!-- Generator: Adobe Illustrator 25.2.3, SVG Export Plug-In . SVG Version: 6.00 Build 0)  -->
<svg version="1.1" id="Layer_1" xmlns="http://www.w3.org/2000/svg" xmlns:xlink="http://www.w3.org/1999/xlink" x="0px" y="0px"
	 viewBox="0 0 209.8 40" style="enable-background:new 0 0 209.8 40;" xml:space="preserve">
<style type="text/css">
	.st0{fill:#FFFFFF;}
</style>
<path class="st0" d="M67.3,30.3c-0.3,0-0.3-0.1-0.4-0.3l-3.2-11.3h-0.1L60.3,30c-0.1,0.3-0.1,0.3-0.4,0.3h-3.8
	c-0.3,0-0.3-0.1-0.4-0.3l-5.5-19.7c0-0.1,0-0.3,0.3-0.3h5c0.1,0,0.4,0.1,0.4,0.3l2.6,11.9h0.1l3.1-11.9C61.8,10,61.8,10,62,10h3.1
	c0.3,0,0.3,0.1,0.4,0.3l3.2,11.9h0.1l2.6-11.9c0-0.1,0.1-0.3,0.4-0.3h5c0.1,0,0.3,0.1,0.3,0.3L71.6,30c-0.1,0.3-0.1,0.3-0.4,0.3
	H67.3z M80.9,30.3c-0.1,0-0.3-0.1-0.3-0.3V10.3c0-0.1,0.1-0.3,0.3-0.3H89c5,0,7.6,2.8,7.6,6.8S94,23.5,89,23.5h-3
	c-0.1,0-0.1,0.1-0.1,0.1v6.2c0,0.1-0.1,0.3-0.3,0.3C85.7,30.1,80.9,30.3,80.9,30.3z M91.3,16.8c0-1.4-0.9-2.3-2.6-2.3H86
	c-0.1,0-0.1,0.1-0.1,0.1v4.2c0,0.1,0.1,0.1,0.1,0.1h2.7c1.2,0.1,2.4-0.7,2.6-1.9V16.8z M103.6,25.3c-0.4-1.6-0.7-3.4-0.5-5.1
	c0-1.8,0.1-3.4,0.5-5.1c1.2-3.8,5.3-5.7,8.9-4.5c2.2,0.7,3.8,2.4,4.5,4.5c0.4,1.5,0.7,3.1,0.5,4.7c0,0.3-0.1,0.4-0.4,0.4h-12.8
	c-0.1,0-0.3,0.1-0.3,0.3c0,1.5,0.1,3,0.4,4.3c0.7,2.6,3.1,4.3,5.8,4.2c2.3,0.1,4.5-0.9,5.8-2.7c0.1-0.1,0.3-0.3,0.4-0.1
	c0,0,0.1,0,0.1,0.1l0.3,0.3c0.1,0.1,0.3,0.3,0.1,0.4c0,0,0,0.1-0.1,0.1c-1.5,2-4.1,3.2-6.6,3.2C107.4,30.4,104.4,28.4,103.6,25.3
	L103.6,25.3z M116.3,19.2c0.1,0,0.3,0,0.3-0.1c0-1.1-0.1-2.3-0.4-3.4c-0.7-2.6-3-4.3-5.7-4.2c-2.7-0.1-5,1.6-5.7,4.2
	c-0.4,1.1-0.5,2.2-0.4,3.4c0,0.1,0,0.3,0.1,0.3h11.7C116.3,19.3,116.3,19.2,116.3,19.2z M135.8,29.9c-0.3,0-0.4-0.1-0.4-0.4V18
	c0-4.6-1.9-6.5-5.5-6.5c-3.1-0.1-5.8,2.3-5.9,5.4v12.7c0,0.3-0.1,0.4-0.4,0.4h-0.4c-0.3,0-0.4-0.1-0.4-0.4V11.2
	c0-0.3,0.1-0.4,0.4-0.4h0.4c0.3,0,0.4,0.1,0.4,0.4v2.7h0.1c1.1-2.3,3.4-3.6,5.9-3.5c4.3,0,6.8,2.4,6.8,7.4v11.7
	c0,0.3-0.1,0.4-0.4,0.4H135.8L135.8,29.9z M142.4,34.7c-0.1-0.3-0.1-0.4,0.1-0.5l0.3-0.3c0.3-0.1,0.4-0.1,0.5,0.1
	c1.2,1.5,3.1,2.4,5.1,2.3c3.6,0,5.9-1.8,5.9-6.5v-3.2h-0.1c-0.9,2.4-3.4,3.9-5.9,3.6c-3,0.1-5.5-1.8-6.3-4.6
	c-0.5-1.8-0.7-3.6-0.7-5.4s0.1-3.6,0.7-5.4c0.8-2.8,3.4-4.7,6.3-4.6c2.6-0.3,5,1.2,5.9,3.6h0.1v-2.7c0-0.3,0.1-0.4,0.4-0.4h0.4
	c0.3,0,0.4,0.1,0.4,0.4V30c0,5.3-2.8,7.6-7.2,7.6C146,37.7,143.7,36.6,142.4,34.7L142.4,34.7z M153.7,25.3c0.4-1.6,0.7-3.4,0.5-5
	c0.1-1.8-0.1-3.4-0.5-5c-0.7-2.4-2.8-4.1-5.3-3.8c-2.4-0.1-4.6,1.4-5.3,3.8c-0.4,1.6-0.7,3.4-0.7,5c0,1.8,0.1,3.4,0.7,5
	c0.7,2.3,2.8,3.9,5.3,3.8C150.9,29.3,153.2,27.7,153.7,25.3z M162.1,4.9c-0.3,0-0.4-0.1-0.4-0.4V2.9c0-0.3,0.1-0.4,0.4-0.4h0.9
	c0.3,0,0.4,0.1,0.4,0.4v1.6c0,0.3-0.1,0.4-0.4,0.4H162.1z M162.4,29.9c-0.3,0-0.4-0.1-0.4-0.4V11.2c0-0.3,0.1-0.4,0.4-0.4h0.4
	c0.3,0,0.4,0.1,0.4,0.4v18.2c0,0.3-0.1,0.4-0.4,0.4C162.8,29.9,162.4,29.9,162.4,29.9z M182.6,29.9c-0.3,0-0.4-0.1-0.4-0.4V18
	c0-4.6-1.9-6.5-5.5-6.5c-3.1-0.1-5.8,2.3-5.9,5.4v12.7c0,0.3-0.1,0.4-0.4,0.4h-0.3c-0.3,0-0.4-0.1-0.4-0.4V11.2
	c0-0.3,0.1-0.4,0.4-0.4h0.4c0.3,0,0.4,0.1,0.4,0.4v2.7h0.1c1.1-2.3,3.4-3.6,5.8-3.5c4.3,0,6.8,2.4,6.8,7.4v11.7
	c0,0.3-0.1,0.4-0.4,0.4H182.6z M188.8,25.3c-0.4-1.6-0.7-3.4-0.5-5.1c0-1.8,0.1-3.4,0.5-5.1c1.2-3.8,5.3-5.7,8.9-4.5
	c2.2,0.7,3.8,2.4,4.5,4.5c0.4,1.5,0.7,3.1,0.5,4.7c0,0.3-0.1,0.4-0.4,0.4h-12.8c-0.1,0-0.3,0.1-0.3,0.3c0,1.5,0.1,3,0.4,4.3
	c0.7,2.6,3.1,4.3,5.8,4.2c2.3,0.1,4.5-0.9,5.8-2.7c0.1-0.1,0.3-0.3,0.4-0.1c0,0,0.1,0,0.1,0.1l0.3,0.3c0.1,0.1,0.3,0.3,0.1,0.4
	c0,0,0,0.1-0.1,0.1c-1.5,2-4.1,3.2-6.6,3.2C192.6,30.5,189.6,28.4,188.8,25.3L188.8,25.3z M201.5,19.2c0.1,0,0.3,0,0.3-0.1
	c0-1.1-0.1-2.3-0.4-3.4c-0.7-2.6-3-4.3-5.7-4.2c-2.7-0.1-5,1.6-5.7,4.2c-0.4,1.1-0.5,2.2-0.4,3.4c0,0.1,0,0.3,0.1,0.3h11.7
	L201.5,19.2L201.5,19.2z M205.2,12.7c0-1.4,1.1-2.3,2.3-2.3c1.4,0,2.3,1.1,2.3,2.3s-1.1,2.3-2.3,2.3S205.3,14.1,205.2,12.7z
	 M209.5,12.7c0-1.1-0.8-1.9-2-1.9c-1.1,0-1.9,0.8-1.9,2c0,1.1,0.8,1.9,1.9,1.9c1.1,0,1.9-0.8,2-1.8V12.7z M206.8,14.1
	C206.7,14.1,206.7,14.1,206.8,14.1l-0.1-2.6c0-0.1,0-0.1,0.1-0.1h0.9c0.4,0,0.8,0.3,0.8,0.7v0.1c0,0.4-0.3,0.7-0.5,0.7l0.5,1.1
	c0.1,0.1,0,0.1-0.1,0.1h-0.3c-0.1,0-0.1-0.1-0.1-0.1l-0.5-1.1H207v0.9c0,0,0,0.1-0.1,0.1L206.8,14.1L206.8,14.1z M208.1,12.2
	c0-0.3-0.1-0.4-0.4-0.4H207v0.8h0.7C208,12.6,208.1,12.4,208.1,12.2z"/>
<path class="st0" d="M15.2,39.7h12.5v-9.5l-3-3h-6.5l-3,3C15.2,30.2,15.2,39.7,15.2,39.7z M31.4,14l-3,3v6.6l3,3h9.5V14.2h-9.5
	C31.4,14.2,31.4,14,31.4,14z M27.8,0.7H15.2v9.5l3,3h6.5l3-3L27.8,0.7L27.8,0.7z M41.1,39.7v-9.5l-3-3h-9.5v12.5
	C28.5,39.7,41.1,39.7,41.1,39.7z M5.1,0.7l-3,3v9.5h12.5V0.7H5.1z M28.5,0.7v9.5l3,3H41V0.7H28.5z M21.6,22.1
	c-0.9,0-1.7-0.8-1.7-1.7c0-0.9,0.8-1.7,1.7-1.7c0.9,0,1.7,0.8,1.7,1.7C23.3,21.3,22.5,22.1,21.6,22.1z M14.6,14H2.1v12.5h9.5l3-3V14
	z M14.6,30.2l-3-3H2.1v12.5h9.5l3-3V30.2z"/>
</svg>
