<?xml version="1.0" encoding="utf-8"?>
<!-- Generator: Adobe Illustrator 27.0.0, SVG Export Plug-In . SVG Version: 6.00 Build 0)  -->
<svg version="1.1" id="Layer_1" xmlns="http://www.w3.org/2000/svg" xmlns:xlink="http://www.w3.org/1999/xlink" x="0px" y="0px"
	 viewBox="0 0 1094.7 110.7" style="enable-background:new 0 0 1094.7 110.7;" xml:space="preserve">
<style type="text/css">
	.st0{fill:#FFFFFF;}
	.st1{fill-rule:evenodd;clip-rule:evenodd;fill:#FFFFFF;}
</style>
<g>
	<path class="st0" d="M377.7,23.7v11.4H345v13.2h30V59h-30v15.2h33.3v11.4h-46.9V23.7H377.7z"/>
	<path class="st0" d="M397.9,40.8V47h0.3c1.6-2.6,3.6-4.5,6.1-5.7c2.5-1.2,5-1.8,7.6-1.8c3.3,0,6,0.4,8.1,1.3c2.1,0.9,3.8,2.1,5,3.7
		c1.2,1.6,2.1,3.5,2.6,5.8c0.5,2.3,0.7,4.8,0.7,7.6v27.5H416V60.3c0-3.7-0.6-6.5-1.7-8.3c-1.2-1.8-3.2-2.7-6.1-2.7
		c-3.3,0-5.8,1-7.3,3c-1.5,2-2.3,5.3-2.3,9.8v23.5h-12.3V40.8H397.9z"/>
	<path class="st0" d="M462.2,40.8V49h-9v22.2c0,2.1,0.3,3.5,1,4.2c0.7,0.7,2.1,1,4.2,1c0.7,0,1.4,0,2-0.1c0.6-0.1,1.2-0.1,1.8-0.3
		v9.5c-1,0.2-2.2,0.3-3.5,0.3c-1.3,0.1-2.5,0.1-3.7,0.1c-1.9,0-3.7-0.1-5.4-0.4c-1.7-0.3-3.2-0.8-4.5-1.5c-1.3-0.8-2.3-1.8-3.1-3.2
		c-0.8-1.4-1.1-3.2-1.1-5.5V49h-7.4v-8.2h7.4V27.4h12.3v13.4H462.2z"/>
	<path class="st0" d="M481.2,74.8c1.8,1.8,4.5,2.7,8,2.7c2.5,0,4.6-0.6,6.4-1.9c1.8-1.2,2.9-2.6,3.3-3.9h10.8
		c-1.7,5.4-4.4,9.2-8,11.5c-3.6,2.3-7.9,3.5-13,3.5c-3.5,0-6.7-0.6-9.5-1.7c-2.8-1.1-5.2-2.7-7.2-4.8c-2-2.1-3.5-4.6-4.5-7.4
		c-1.1-2.9-1.6-6.1-1.6-9.5c0-3.3,0.5-6.5,1.6-9.4s2.7-5.4,4.7-7.5c2-2.1,4.4-3.8,7.2-5c2.8-1.2,5.9-1.8,9.3-1.8
		c3.8,0,7.1,0.7,10,2.2c2.8,1.5,5.2,3.5,7,5.9c1.8,2.5,3.1,5.3,3.9,8.5c0.8,3.2,1.1,6.5,0.9,10h-32.3
		C478.4,70.1,479.4,73,481.2,74.8z M495.1,51.3c-1.5-1.6-3.7-2.4-6.7-2.4c-2,0-3.6,0.3-4.9,1c-1.3,0.7-2.3,1.5-3.1,2.5
		c-0.8,1-1.3,2-1.6,3.1c-0.3,1.1-0.5,2.1-0.6,2.9h20C497.6,55.2,496.6,52.9,495.1,51.3z"/>
	<path class="st0" d="M529.5,40.8v8.3h0.2c0.6-1.4,1.4-2.7,2.3-3.9c1-1.2,2.1-2.2,3.4-3c1.3-0.8,2.6-1.5,4.1-1.9
		c1.4-0.5,2.9-0.7,4.5-0.7c0.8,0,1.7,0.1,2.7,0.4v11.4c-0.6-0.1-1.3-0.2-2.1-0.3c-0.8-0.1-1.6-0.1-2.3-0.1c-2.3,0-4.2,0.4-5.7,1.1
		c-1.6,0.8-2.8,1.8-3.8,3.1c-1,1.3-1.6,2.8-2,4.5c-0.4,1.7-0.6,3.6-0.6,5.6v20.2h-12.3V40.8H529.5z"/>
	<path class="st0" d="M563.2,40.8v5.7h0.2c1.5-2.4,3.4-4.2,5.7-5.3c2.3-1.1,4.8-1.6,7.6-1.6c3.5,0,6.6,0.7,9.1,2
		c2.5,1.3,4.6,3.1,6.3,5.3c1.7,2.2,2.9,4.7,3.7,7.7c0.8,2.9,1.2,6,1.2,9.1c0,3-0.4,5.9-1.2,8.7c-0.8,2.8-2,5.2-3.7,7.4
		c-1.6,2.1-3.7,3.8-6.1,5.1c-2.5,1.3-5.3,1.9-8.6,1.9c-2.8,0-5.3-0.6-7.7-1.7c-2.3-1.1-4.3-2.8-5.8-5h-0.2v21.2h-12.3V40.8H563.2z
		 M579.1,76.3c1.4-0.8,2.5-1.9,3.3-3.2c0.8-1.3,1.4-2.8,1.8-4.5c0.3-1.7,0.5-3.5,0.5-5.3c0-1.8-0.2-3.5-0.6-5.3
		c-0.4-1.7-1-3.3-1.9-4.6c-0.9-1.4-2-2.5-3.3-3.3c-1.4-0.8-3-1.3-5-1.3c-2,0-3.7,0.4-5.1,1.3c-1.4,0.8-2.5,1.9-3.3,3.2
		c-0.8,1.3-1.4,2.9-1.8,4.6c-0.3,1.7-0.5,3.5-0.5,5.4c0,1.8,0.2,3.6,0.6,5.3c0.4,1.7,1,3.2,1.8,4.5c0.8,1.3,1.9,2.4,3.3,3.2
		c1.4,0.8,3.1,1.2,5,1.2C576.1,77.5,577.8,77.1,579.1,76.3z"/>
	<path class="st0" d="M616.1,40.8v8.3h0.2c0.6-1.4,1.4-2.7,2.3-3.9c1-1.2,2.1-2.2,3.4-3c1.3-0.8,2.6-1.5,4.1-1.9
		c1.4-0.5,2.9-0.7,4.5-0.7c0.8,0,1.7,0.1,2.7,0.4v11.4c-0.6-0.1-1.3-0.2-2.1-0.3c-0.8-0.1-1.6-0.1-2.3-0.1c-2.3,0-4.2,0.4-5.7,1.1
		c-1.6,0.8-2.8,1.8-3.8,3.1c-1,1.3-1.6,2.8-2,4.5c-0.4,1.7-0.6,3.6-0.6,5.6v20.2h-12.3V40.8H616.1z"/>
	<path class="st0" d="M638.4,33.9V23.7h12.3v10.1H638.4z M650.7,40.8v44.8h-12.3V40.8H650.7z"/>
	<path class="st0" d="M670.8,74.4c0.5,1,1.3,1.7,2.1,2.3c0.9,0.6,1.9,1.1,3,1.3c1.1,0.3,2.3,0.4,3.5,0.4c0.9,0,1.8-0.1,2.7-0.3
		c1-0.2,1.8-0.5,2.6-1c0.8-0.4,1.4-1,1.9-1.7c0.5-0.7,0.8-1.6,0.8-2.7c0-1.8-1.2-3.2-3.7-4.2c-2.5-0.9-5.9-1.8-10.3-2.8
		c-1.8-0.4-3.5-0.9-5.2-1.4c-1.7-0.5-3.2-1.3-4.5-2.2c-1.3-0.9-2.4-2-3.2-3.4c-0.8-1.4-1.2-3-1.2-5c0-2.9,0.6-5.3,1.7-7.1
		c1.1-1.8,2.6-3.3,4.5-4.4c1.8-1.1,3.9-1.8,6.2-2.3c2.3-0.4,4.7-0.6,7.1-0.6s4.8,0.2,7.1,0.7c2.3,0.5,4.3,1.2,6.1,2.3
		c1.8,1.1,3.3,2.6,4.5,4.4c1.2,1.8,1.9,4.1,2.1,6.9h-11.7c-0.2-2.4-1.1-4-2.7-4.8c-1.6-0.8-3.5-1.3-5.7-1.3c-0.7,0-1.4,0-2.3,0.1
		c-0.8,0.1-1.5,0.3-2.2,0.6c-0.7,0.3-1.2,0.7-1.7,1.3c-0.5,0.5-0.7,1.3-0.7,2.2c0,1.1,0.4,2,1.2,2.7c0.8,0.7,1.9,1.3,3.2,1.7
		s2.8,0.8,4.5,1.2c1.7,0.3,3.4,0.7,5.1,1.1c1.8,0.4,3.5,0.9,5.2,1.5c1.7,0.6,3.2,1.3,4.5,2.3s2.4,2.1,3.2,3.6
		c0.8,1.4,1.2,3.2,1.2,5.2c0,2.9-0.6,5.4-1.8,7.4c-1.2,2-2.7,3.6-4.6,4.8c-1.9,1.2-4.1,2.1-6.5,2.6c-2.5,0.5-5,0.7-7.5,0.7
		c-2.6,0-5.1-0.3-7.6-0.8c-2.5-0.5-4.7-1.4-6.6-2.6c-1.9-1.2-3.5-2.8-4.8-4.8c-1.2-2-1.9-4.5-2-7.5h11.7
		C669.9,72.3,670.2,73.5,670.8,74.4z"/>
	<path class="st0" d="M720.1,74.8c1.8,1.8,4.5,2.7,8,2.7c2.5,0,4.6-0.6,6.4-1.9c1.8-1.2,2.9-2.6,3.3-3.9h10.8
		c-1.7,5.4-4.4,9.2-8,11.5c-3.6,2.3-7.9,3.5-13,3.5c-3.5,0-6.7-0.6-9.5-1.7c-2.8-1.1-5.2-2.7-7.2-4.8c-2-2.1-3.5-4.6-4.5-7.4
		c-1.1-2.9-1.6-6.1-1.6-9.5c0-3.3,0.5-6.5,1.6-9.4s2.7-5.4,4.7-7.5c2-2.1,4.4-3.8,7.2-5c2.8-1.2,5.9-1.8,9.3-1.8
		c3.8,0,7.1,0.7,10,2.2c2.8,1.5,5.2,3.5,7,5.9c1.8,2.5,3.1,5.3,3.9,8.5c0.8,3.2,1.1,6.5,0.9,10H717C717.2,70.1,718.2,73,720.1,74.8z
		 M734,51.3c-1.5-1.6-3.7-2.4-6.7-2.4c-2,0-3.6,0.3-4.9,1c-1.3,0.7-2.3,1.5-3.1,2.5c-0.8,1-1.3,2-1.6,3.1c-0.3,1.1-0.5,2.1-0.6,2.9
		h20C736.5,55.2,735.4,52.9,734,51.3z"/>
	<path class="st0" d="M809.9,23.7c3.9,0,7.2,0.6,9.9,1.7c2.7,1.1,4.9,2.6,6.6,4.5c1.7,1.8,2.9,4,3.7,6.3s1.2,4.8,1.2,7.4
		c0,2.5-0.4,4.9-1.2,7.3s-2,4.5-3.7,6.4c-1.7,1.8-3.9,3.3-6.6,4.5c-2.7,1.1-6,1.7-9.9,1.7h-14.3v22.2H782V23.7H809.9z M806.1,52.8
		c1.6,0,3.1-0.1,4.5-0.3c1.4-0.2,2.7-0.7,3.8-1.3c1.1-0.7,2-1.6,2.6-2.8c0.7-1.2,1-2.8,1-4.8c0-2-0.3-3.6-1-4.8
		c-0.7-1.2-1.5-2.2-2.6-2.8c-1.1-0.7-2.4-1.1-3.8-1.3c-1.4-0.2-2.9-0.3-4.5-0.3h-10.6v18.5H806.1z"/>
	<path class="st0" d="M837.9,54.5c0.2-2.9,0.9-5.3,2.2-7.2c1.3-1.9,2.9-3.4,4.8-4.6c2-1.2,4.2-2,6.6-2.5c2.5-0.5,4.9-0.7,7.4-0.7
		c2.3,0,4.5,0.2,6.8,0.5c2.3,0.3,4.4,0.9,6.3,1.9c1.9,0.9,3.5,2.2,4.7,3.9c1.2,1.6,1.8,3.8,1.8,6.5v23.3c0,2,0.1,4,0.3,5.8
		c0.2,1.8,0.6,3.2,1.2,4.2h-12.5c-0.2-0.7-0.4-1.4-0.6-2.1c-0.1-0.7-0.2-1.5-0.3-2.2c-2,2-4.3,3.4-6.9,4.2c-2.7,0.8-5.4,1.2-8.1,1.2
		c-2.1,0-4.1-0.3-6-0.8c-1.8-0.5-3.5-1.3-4.8-2.4c-1.4-1.1-2.5-2.5-3.2-4.2c-0.8-1.7-1.2-3.7-1.2-6c0-2.5,0.4-4.6,1.3-6.3
		c0.9-1.6,2-3,3.5-3.9c1.4-1,3-1.7,4.8-2.2c1.8-0.5,3.7-0.9,5.5-1.2c1.8-0.3,3.7-0.5,5.5-0.7c1.8-0.2,3.4-0.4,4.8-0.8
		c1.4-0.3,2.5-0.9,3.3-1.5c0.8-0.7,1.2-1.6,1.1-2.9c0-1.3-0.2-2.4-0.6-3.2s-1-1.4-1.7-1.8s-1.6-0.7-2.5-0.9c-1-0.1-2-0.2-3.1-0.2
		c-2.4,0-4.3,0.5-5.7,1.6c-1.4,1-2.2,2.8-2.4,5.2H837.9z M866.3,63.6c-0.5,0.5-1.2,0.8-1.9,1.1s-1.6,0.5-2.5,0.6
		c-0.9,0.2-1.8,0.3-2.8,0.4c-1,0.1-2,0.3-2.9,0.4c-0.9,0.2-1.8,0.4-2.7,0.7c-0.9,0.3-1.7,0.7-2.3,1.2c-0.7,0.5-1.2,1.1-1.6,1.9
		c-0.4,0.8-0.6,1.7-0.6,2.9c0,1.1,0.2,2,0.6,2.8c0.4,0.8,1,1.3,1.6,1.8c0.7,0.4,1.5,0.7,2.4,0.9c0.9,0.2,1.9,0.3,2.9,0.3
		c2.4,0,4.3-0.4,5.6-1.2c1.3-0.8,2.3-1.8,2.9-2.9c0.6-1.1,1-2.3,1.2-3.4c0.1-1.2,0.2-2.1,0.2-2.8V63.6z"/>
	<path class="st0" d="M899.8,40.8v8.3h0.2c0.6-1.4,1.4-2.7,2.3-3.9c1-1.2,2.1-2.2,3.4-3c1.3-0.8,2.6-1.5,4.1-1.9
		c1.4-0.5,2.9-0.7,4.5-0.7c0.8,0,1.7,0.1,2.7,0.4v11.4c-0.6-0.1-1.3-0.2-2.1-0.3c-0.8-0.1-1.6-0.1-2.3-0.1c-2.3,0-4.2,0.4-5.7,1.1
		c-1.6,0.8-2.8,1.8-3.8,3.1c-1,1.3-1.6,2.8-2,4.5c-0.4,1.7-0.6,3.6-0.6,5.6v20.2h-12.3V40.8H899.8z"/>
	<path class="st0" d="M946.4,40.8V49h-9v22.2c0,2.1,0.3,3.5,1,4.2c0.7,0.7,2.1,1,4.2,1c0.7,0,1.4,0,2-0.1c0.6-0.1,1.2-0.1,1.8-0.3
		v9.5c-1,0.2-2.2,0.3-3.5,0.3c-1.3,0.1-2.5,0.1-3.7,0.1c-1.9,0-3.7-0.1-5.4-0.4c-1.7-0.3-3.2-0.8-4.5-1.5c-1.3-0.8-2.3-1.8-3.1-3.2
		c-0.8-1.4-1.1-3.2-1.1-5.5V49h-7.4v-8.2h7.4V27.4h12.3v13.4H946.4z"/>
	<path class="st0" d="M964,40.8V47h0.3c1.6-2.6,3.6-4.5,6.1-5.7c2.5-1.2,5-1.8,7.6-1.8c3.3,0,6,0.4,8.1,1.3c2.1,0.9,3.8,2.1,5,3.7
		c1.2,1.6,2.1,3.5,2.6,5.8c0.5,2.3,0.7,4.8,0.7,7.6v27.5H982V60.3c0-3.7-0.6-6.5-1.7-8.3c-1.2-1.8-3.2-2.7-6.1-2.7
		c-3.3,0-5.8,1-7.3,3c-1.5,2-2.3,5.3-2.3,9.8v23.5h-12.3V40.8H964z"/>
	<path class="st0" d="M1016.8,74.8c1.8,1.8,4.5,2.7,8,2.7c2.5,0,4.6-0.6,6.4-1.9c1.8-1.2,2.9-2.6,3.3-3.9h10.8
		c-1.7,5.4-4.4,9.2-8,11.5c-3.6,2.3-7.9,3.5-13,3.5c-3.5,0-6.7-0.6-9.5-1.7c-2.8-1.1-5.2-2.7-7.2-4.8c-2-2.1-3.5-4.6-4.5-7.4
		c-1.1-2.9-1.6-6.1-1.6-9.5c0-3.3,0.5-6.5,1.6-9.4s2.7-5.4,4.7-7.5c2-2.1,4.4-3.8,7.2-5c2.8-1.2,5.9-1.8,9.3-1.8
		c3.8,0,7.1,0.7,10,2.2c2.8,1.5,5.2,3.5,7,5.9c1.8,2.5,3.1,5.3,3.9,8.5c0.8,3.2,1.1,6.5,0.9,10h-32.3C1014,70.1,1015,73,1016.8,74.8
		z M1030.7,51.3c-1.5-1.6-3.7-2.4-6.7-2.4c-2,0-3.6,0.3-4.9,1c-1.3,0.7-2.3,1.5-3.1,2.5c-0.8,1-1.3,2-1.6,3.1
		c-0.3,1.1-0.5,2.1-0.6,2.9h20C1033.2,55.2,1032.2,52.9,1030.7,51.3z"/>
	<path class="st0" d="M1065.1,40.8v8.3h0.2c0.6-1.4,1.4-2.7,2.3-3.9c1-1.2,2.1-2.2,3.4-3c1.3-0.8,2.6-1.5,4.1-1.9
		c1.4-0.5,2.9-0.7,4.5-0.7c0.8,0,1.7,0.1,2.7,0.4v11.4c-0.6-0.1-1.3-0.2-2.1-0.3c-0.8-0.1-1.6-0.1-2.3-0.1c-2.3,0-4.2,0.4-5.7,1.1
		c-1.6,0.8-2.8,1.8-3.8,3.1c-1,1.3-1.6,2.8-2,4.5c-0.4,1.7-0.6,3.6-0.6,5.6v20.2h-12.3V40.8H1065.1z"/>
</g>
<g>
	<path class="st1" d="M242.5,58.1c0-16.2-7.8-28.9-22.8-28.9c-15,0-24.1,12.8-24.1,28.8c0,19,10.7,28.6,26.2,28.6
		c7.5,0,13.2-1.7,17.5-4.1V69.9c-4.3,2.1-9.2,3.5-15.5,3.5c-6.1,0-11.6-2.1-12.3-9.6h30.9C242.4,63,242.5,59.7,242.5,58.1z
		 M211.3,52.1c0-7.1,4.4-10.1,8.3-10.1c3.9,0,8,3,8,10.1H211.3z"/>
	<path class="st1" d="M171.2,29.2c-6.2,0-10.2,2.9-12.4,4.9l-0.8-3.9H144v73.7l15.8-3.3l0.1-17.9c2.3,1.6,5.6,4,11.2,4
		c11.3,0,21.6-9.1,21.6-29.1C192.6,39.2,182.2,29.2,171.2,29.2z M167.4,72.7c-3.7,0-5.9-1.3-7.5-3l-0.1-23.4
		c1.6-1.8,3.9-3.1,7.5-3.1c5.8,0,9.7,6.4,9.7,14.7C177.1,66.4,173.2,72.7,167.4,72.7z"/>
	<polygon class="st1" points="122.3,25.5 138.2,22.1 138.2,9.2 122.3,12.6 	"/>
	<rect x="122.3" y="30.3" class="st1" width="15.9" height="55.3"/>
	<path class="st1" d="M105.3,35l-1-4.7H90.6v55.3h15.8V48.1c3.7-4.9,10-4,12-3.3V30.3C116.4,29.5,109,28.1,105.3,35z"/>
	<path class="st1" d="M73.7,16.6l-15.4,3.3l-0.1,50.6c0,9.4,7,16.2,16.4,16.2c5.2,0,9-0.9,11.1-2.1V71.8c-2,0.8-12,3.7-12-5.6V43.7
		h12V30.3h-12L73.7,16.6z"/>
	<path class="st1" d="M31,46.3c0-2.5,2-3.4,5.4-3.4c4.8,0,10.9,1.5,15.7,4V32.1c-5.2-2.1-10.4-2.9-15.7-2.9
		C23.5,29.2,15,35.9,15,47.1c0,17.4,24,14.7,24,22.2c0,2.9-2.5,3.9-6.1,3.9c-5.2,0-11.9-2.1-17.3-5.1v15c5.9,2.5,11.8,3.6,17.3,3.6
		c13.1,0,22.2-6.5,22.2-17.8C55.1,50.1,31,53.4,31,46.3z"/>
</g>
<rect x="283.7" class="st1" width="4.6" height="110.7"/>
</svg>
