<?xml version="1.0" encoding="utf-8"?>
<!-- Generator: Adobe Illustrator 25.2.3, SVG Export Plug-In . SVG Version: 6.00 Build 0)  -->
<svg version="1.1" id="Layer_1" xmlns="http://www.w3.org/2000/svg" xmlns:xlink="http://www.w3.org/1999/xlink" x="0px" y="0px"
	 viewBox="0 0 500 70.4" style="enable-background:new 0 0 500 70.4;" xml:space="preserve">
<style type="text/css">
	.st0{fill:#FFFFFF;}
</style>
<g transform="translate(-694.835 -499.354)">
	<path class="st0" d="M719.8,548.3c-2,3.4-6.1,4.8-9.9,4.8c-8.7,0-13.6-6.3-13.6-14.1v-22.7h9.7V537c0,4,2,7.2,6.6,7.2
		c4.3,0,6.8-2.9,6.8-7.1v-20.9h9.7v29.4c0,2.2,0.1,4.3,0.4,6.5h-9.3C719.9,550.9,719.8,549.6,719.8,548.3"/>
	<path class="st0" d="M758.9,525.9c-1-0.2-1.9-0.3-2.9-0.3c-5,0-9.3,2.4-9.3,10.1v16.4H737v-35.9h9.4v5.3c2.2-4.7,7.1-5.6,10.2-5.6
		c0.8,0,1.5,0.1,2.3,0.1L758.9,525.9z"/>
	<path class="st0" d="M784.1,524c-4.9,0-9,3.6-9,10.1c0,6.5,4.1,10.2,9,10.2c5,0,8.9-3.6,8.9-10.2S789.1,524,784.1,524 M765.8,552.1
		v-52.8h9.6v20.9c1.6-2.6,5.5-4.9,10.9-4.9c10.5,0,16.6,8.1,16.6,18.7c0,10.9-6.7,19-16.9,19c-5,0-8.8-2.2-10.6-5.2v4.4L765.8,552.1
		z"/>
	<path class="st0" d="M830.4,537.6V536l-8.1,1.2c-2.5,0.4-4.4,1.8-4.4,4.5c0,2.1,1.5,4.2,4.7,4.2C826.7,545.9,830.4,544,830.4,537.6
		 M818.9,531.5l8.8-1.3c2-0.3,2.7-1.3,2.7-2.6c0-2.6-2-4.7-6.1-4.7c-4.2,0-6.6,2.7-6.9,5.8l-8.6-1.8c0.6-5.6,5.8-11.8,15.4-11.8
		c11.4,0,15.6,6.4,15.6,13.6v17.6c0,1.9,0.2,3.8,0.4,5.7h-8.9c-0.2-1.4-0.4-2.9-0.4-4.3c-1.8,2.8-5.3,5.3-10.6,5.3
		c-7.7,0-12.3-5.2-12.3-10.8C808.2,536,812.9,532.4,818.9,531.5"/>
	<path class="st0" d="M857.5,552.1h-9.7v-35.9h9.4v4.4c2.2-3.7,6.5-5.4,10.4-5.4c8.9,0,13,6.3,13,14.2v22.6h-9.7v-20.9
		c0-4-2-7.1-6.6-7.1c-4.2,0-6.7,3.3-6.7,7.4L857.5,552.1z"/>
	<path class="st0" d="M908.4,552.1v-35.9h9.3v4.4c2-3.5,6.6-5.4,10.5-5.4c4.9,0,8.8,2.1,10.6,6c2.8-4.4,6.6-6,11.4-6
		c6.6,0,13,4,13,13.6v23.3h-9.4v-21.3c0-3.9-1.9-6.8-6.3-6.8c-4.2,0-6.6,3.2-6.6,7.1v21h-9.6v-21.3c0-3.9-2-6.8-6.3-6.8
		c-4.2,0-6.7,3.1-6.7,7.1v21L908.4,552.1z"/>
	<path class="st0" d="M991.4,537.6V536l-8.1,1.2c-2.5,0.4-4.4,1.8-4.4,4.5c0,2.1,1.5,4.2,4.7,4.2C987.6,545.9,991.4,544,991.4,537.6
		 M979.8,531.5l8.8-1.3c2-0.3,2.7-1.3,2.7-2.6c0-2.6-2-4.7-6.1-4.7c-4.2,0-6.6,2.7-6.9,5.8l-8.6-1.8c0.6-5.6,5.8-11.8,15.4-11.8
		c11.4,0,15.6,6.4,15.6,13.6v17.6c0,1.9,0.2,3.8,0.4,5.7h-8.9c-0.2-1.4-0.4-2.9-0.4-4.3c-1.8,2.8-5.3,5.3-10.6,5.3
		c-7.7,0-12.3-5.2-12.3-10.8C969.1,536,973.9,532.4,979.8,531.5"/>
	<path class="st0" d="M1022.8,516.3h7.2v8.6h-7.2v15c0,3.1,1.5,4.2,4.2,4.2c1,0,2-0.1,3-0.3v8c-1.7,0.6-3.6,0.9-5.5,0.9
		c-7,0-11.4-4.2-11.4-11.1v-16.7h-6.5v-8.6h1.8c3.8,0,5.5-2.5,5.5-5.7v-5h8.8L1022.8,516.3z"/>
	<path class="st0" d="M1050.8,516.3h7.2v8.6h-7.2v15c0,3.1,1.5,4.2,4.2,4.2c1,0,2-0.1,3-0.3v8c-1.7,0.6-3.6,0.9-5.5,0.9
		c-7,0-11.4-4.2-11.4-11.1v-16.7h-6.5v-8.6h1.8c3.8,0,5.5-2.5,5.5-5.7v-5h8.8L1050.8,516.3z"/>
	<path class="st0" d="M1087.4,525.9c-1-0.2-1.9-0.3-2.9-0.3c-5,0-9.3,2.4-9.3,10.1v16.4h-9.7v-35.9h9.4v5.3
		c2.2-4.7,7.1-5.6,10.2-5.6c0.8,0,1.5,0.1,2.3,0.1L1087.4,525.9z"/>
	<path class="st0" d="M1117.6,530.1c-0.1-3.6-2.5-7.1-8-7.1c-4.1-0.2-7.7,3-8,7.1H1117.6z M1126.6,541.9
		c-1.8,6.2-7.5,11.4-16.3,11.4c-9.8,0-18.5-7.1-18.5-19.2c0-11.4,8.5-18.9,17.6-18.9c11.1,0,17.7,7.1,17.7,18.6c0,1.4-0.1,2.8-0.1,3
		h-25.7c0.3,4.7,4.3,8.3,9,8.2c4.5,0,7-2.3,8.2-5.5L1126.6,541.9z"/>
	<path class="st0" d="M1140.3,540.3c0.2,2.8,2.3,5.5,6.6,5.5c3.2,0,4.7-1.7,4.7-3.6c0-1.6-1.1-2.9-3.9-3.5l-4.7-1.1
		c-6.9-1.5-10.1-5.7-10.1-10.7c0-6.4,5.7-11.7,13.4-11.7c10.2,0,13.6,6.5,14.1,10.4l-8.1,1.8c-0.3-2.1-1.8-4.8-5.9-4.8
		c-2.6,0-4.6,1.5-4.6,3.6c0,1.8,1.3,2.8,3.3,3.2l5.1,1.1c7.1,1.5,10.6,5.8,10.6,11c0,5.8-4.5,11.8-13.9,11.8
		c-10.8,0-14.5-7-14.9-11.1L1140.3,540.3z"/>
	<path class="st0" d="M1174.3,540.3c0.2,2.8,2.3,5.5,6.6,5.5c3.2,0,4.7-1.7,4.7-3.6c0-1.6-1.1-2.9-3.9-3.5l-4.7-1.1
		c-6.9-1.5-10.1-5.7-10.1-10.7c0-6.4,5.7-11.7,13.4-11.7c10.2,0,13.6,6.5,14.1,10.4l-8.1,1.8c-0.3-2.1-1.8-4.8-5.9-4.8
		c-2.6,0-4.6,1.5-4.6,3.6c0,1.8,1.3,2.8,3.3,3.2l5.1,1.1c7.1,1.5,10.6,5.8,10.6,11c0,5.8-4.5,11.8-13.9,11.8
		c-10.8,0-14.5-7-14.9-11.1L1174.3,540.3z"/>
	<path class="st0" d="M694.8,569.7h498.6v-8.1H694.8"/>
</g>
</svg>
