<?xml version="1.0" encoding="utf-8"?>
<!-- Generator: Adobe Illustrator 26.0.2, SVG Export Plug-In . SVG Version: 6.00 Build 0)  -->
<svg version="1.1" id="Layer_1" xmlns="http://www.w3.org/2000/svg" xmlns:xlink="http://www.w3.org/1999/xlink" x="0px" y="0px"
	 viewBox="0 0 992.2 308.7" style="enable-background:new 0 0 992.2 308.7;" xml:space="preserve">
<style type="text/css">
	.st0{fill:#FFFFFF;}
</style>
<path class="st0" d="M63.4,27.4h126.9V0H63.4V27.4z M643.5,174.1h-88.8v-91h88.8c31.6,0,52.9,18.3,52.9,45.5
	S675.1,174.1,643.5,174.1 M672.9,195.4c30.5-8.7,50.1-34.9,50.1-66.8c0-41.4-32-69.2-79.5-69.2H528V304h26.6V198.2H645L702.5,304
	h28.8l-59.9-108.2L672.9,195.4z M389.7,308.7c65.3,0,111-45.9,111-111.6V59.4h-27.4v135.8c0,50.7-34.4,86.1-83.6,86.1
	c-40.8,0-84.7-26.9-84.7-86.1V59.4h-27.4V197C277.6,262.8,323.7,308.7,389.7,308.7 M867.9,91.3l57.8,126.3H809.7L867.9,91.3z
	 M855,59.4L743.2,304h28.6l27.7-62.7h136.5l27.7,62.7h28.6L880.3,59.4L855,59.4z M126.9,54.8C56.9,54.8,0,111.7,0,181.7
	c0,70,56.9,126.9,126.9,126.9c70,0,126.9-56.9,126.9-126.9C253.9,111.7,196.9,54.8,126.9,54.8 M126.9,281.3
	c-54.9,0-99.6-44.7-99.6-99.6c0-54.9,44.7-99.6,99.6-99.6c54.9,0,99.6,44.7,99.6,99.6C226.5,236.6,181.8,281.3,126.9,281.3"/>
</svg>
