<?xml version="1.0" encoding="UTF-8"?>
<svg id="Layer_1" xmlns="http://www.w3.org/2000/svg" version="1.1" viewBox="0 0 155.6 28">
  <!-- Generator: Adobe Illustrator 29.0.0, SVG Export Plug-In . SVG Version: 2.1.0 Build 186)  -->
  <defs>
    <style>
      .st0 {
        fill-rule: evenodd;
      }

      .st1 {
        fill: #fff;
      }
    </style>
  </defs>
  <rect class="st1" width="155.6" height="28" rx="2.5" ry="2.5"/>
  <path class="st0" d="M31.7,6l-8.2,16h-7.7l3.4-6.6h-.2c-2.8,3.7-7,6.1-13,6.6v-6.5s3.8-.2,6.1-2.6h-6.1v-6.9h6.9v5.6h.2s2.8-5.6,2.8-5.6h5.2v5.6h.2s2.9-5.6,2.9-5.6h7.6Z"/>
  <path d="M36.5,8.9h3.9c.7,0,1.3.1,1.8.4.5.3.9.7,1.2,1.2.3.5.4,1.1.4,1.7s-.1,1.2-.4,1.7c-.3.5-.7.9-1.2,1.2-.5.3-1.2.4-1.9.4h-2.7v-1.6h2.4c.4,0,.7,0,1-.2.3-.1.5-.3.6-.6.1-.3.2-.6.2-.9,0-.3,0-.6-.2-.9-.1-.3-.4-.5-.6-.6-.3-.1-.6-.2-1-.2h-1.8v8.5h-1.9v-10.1ZM45.2,11.4h1.7v1.6h-.3c0-.3.2-.6.4-.9.2-.3.5-.5.8-.6.3-.1.6-.2,1-.2s.1,0,.2,0c0,0,.1,0,.2,0v1.7s-.1,0-.2,0c0,0-.2,0-.3,0-.3,0-.6,0-.9.2-.3.1-.5.3-.6.6-.1.3-.2.6-.2.9v4.4h-1.8v-7.6ZM53.6,19.2c-.8,0-1.4-.2-2-.5-.6-.3-1-.8-1.4-1.4-.3-.6-.5-1.3-.5-2.1s.2-1.4.5-2c.3-.6.8-1.1,1.4-1.4.6-.3,1.2-.5,2-.5s1.5.2,2,.5c.6.3,1,.8,1.4,1.5.3.7.4,1.5.4,2.4h-6.8v-1.2h5.4s-.5.2-.5.2c0-.4,0-.7-.2-1-.2-.3-.4-.5-.7-.7-.3-.2-.6-.2-1-.2s-.7,0-1,.3c-.3.2-.5.4-.7.8-.2.3-.3.7-.2,1.1v.7c0,.4,0,.8.2,1.2.2.3.4.6.7.8.3.2.7.3,1,.3.3,0,.5,0,.8-.1.2,0,.4-.2.6-.4.2-.2.3-.4.4-.6h1.9c-.1.5-.3,1-.7,1.3-.3.4-.8.7-1.3.9-.5.2-1.1.3-1.7.3ZM58.7,11.4h1.8v1.8h-.3c0-.4.2-.8.5-1,.2-.3.5-.5.9-.7.4-.2.7-.2,1.1-.2.4,0,.8,0,1.1.2.3.2.6.4.8.7.2.3.3.6.4,1h-.4c0-.4.2-.7.5-1s.6-.5.9-.6c.4-.2.8-.2,1.2-.2.5,0,1,.1,1.4.3.4.2.7.5.9.9.2.4.3.9.3,1.4v5.1h-1.8v-4.8c0-.3,0-.6-.2-.8-.1-.2-.3-.4-.5-.5-.2-.1-.5-.2-.7-.2s-.5,0-.8.2c-.2.1-.4.3-.5.5-.1.2-.2.5-.2.8v4.7h-1.8v-4.9c0-.3,0-.5-.2-.7-.1-.2-.3-.4-.5-.5-.2-.1-.4-.2-.7-.2s-.5,0-.8.2c-.2.1-.4.3-.5.6-.1.3-.2.5-.2.8v4.6h-1.8v-7.6ZM71.4,11.4h1.8v7.6h-1.8v-7.6ZM71.4,8.5h1.9v1.9h-1.9v-1.9ZM79.8,11.4h1.8v7.6h-1.8v-1.6h.3c0,.2-.3.6-.5.8-.2.3-.5.5-.9.7-.4.2-.7.2-1.1.2-.5,0-1-.1-1.4-.3-.4-.2-.7-.6-.9-1-.2-.4-.3-.9-.3-1.5v-4.9h1.8v4.5c0,.3,0,.6.2.9.1.2.3.4.5.6s.5.2.8.2.6,0,.8-.2.4-.4.6-.6c.1-.3.2-.6.2-.9v-4.4ZM83.3,11.4h1.8v1.8h-.3c0-.4.2-.8.5-1,.2-.3.5-.5.9-.7.4-.2.7-.2,1.1-.2.4,0,.8,0,1.1.2.3.2.6.4.8.7.2.3.3.6.4,1h-.4c0-.4.2-.7.5-1s.6-.5.9-.6c.4-.2.8-.2,1.2-.2.5,0,1,.1,1.4.3.4.2.7.5.9.9.2.4.3.9.3,1.4v5.1h-1.8v-4.8c0-.3,0-.6-.2-.8-.1-.2-.3-.4-.5-.5-.2-.1-.5-.2-.7-.2s-.5,0-.8.2c-.2.1-.4.3-.5.5-.1.2-.2.5-.2.8v4.7h-1.8v-4.9c0-.3,0-.5-.2-.7-.1-.2-.3-.4-.5-.5-.2-.1-.4-.2-.7-.2s-.5,0-.8.2c-.2.1-.4.3-.5.6-.1.3-.2.5-.2.8v4.6h-1.8v-7.6ZM99.4,8.9h3.9c.7,0,1.3.1,1.8.4.5.3.9.7,1.2,1.2.3.5.4,1.1.4,1.7s-.1,1.2-.4,1.7c-.3.5-.7.9-1.2,1.2-.5.3-1.2.4-1.9.4h-2.7v-1.6h2.4c.4,0,.7,0,1-.2.3-.1.5-.3.6-.6.1-.3.2-.6.2-.9,0-.3,0-.6-.2-.9-.1-.3-.4-.5-.6-.6-.3-.1-.6-.2-1-.2h-1.8v8.5h-1.9v-10.1ZM111.1,19.1c-.7,0-1.3-.2-1.8-.5-.5-.3-.9-.8-1.2-1.4-.3-.6-.4-1.3-.4-2.1,0-.8.1-1.5.4-2.1.3-.6.7-1.1,1.2-1.4.5-.3,1.1-.5,1.8-.5.4,0,.9,0,1.2.2.4.2.7.4.9.7.2.3.4.6.5.9h-.3v-1.7h1.8v7.6h-1.8v-1.5l.3-.2c-.1.3-.3.6-.6.9-.3.3-.6.5-1,.7-.4.2-.8.2-1.2.2ZM111.5,17.6c.4,0,.7-.1,1.1-.3.3-.2.5-.5.7-.9.2-.4.3-.8.3-1.3,0-.5,0-.9-.3-1.3-.2-.4-.4-.6-.7-.8-.3-.2-.7-.3-1.1-.3s-.7.1-1,.3c-.3.2-.5.5-.7.9-.2.4-.2.8-.2,1.3s0,.9.2,1.3c.2.4.4.6.7.9.3.2.6.3,1,.3ZM116.9,11.4h1.7v1.6h-.3c0-.3.2-.6.4-.9.2-.3.5-.5.8-.6.3-.1.6-.2,1-.2s.1,0,.2,0c0,0,.1,0,.2,0v1.7s-.1,0-.2,0c0,0-.2,0-.3,0-.3,0-.7,0-.9.2-.3.1-.5.3-.6.6-.1.3-.2.6-.2.9v4.4h-1.8v-7.6ZM123.3,9.5h1.8v9.5h-1.8v-9.5ZM121.9,11.4h4.6v1.5h-4.6v-1.5ZM129.3,19h-1.8v-7.6h1.8v1.6h-.3c0-.2.3-.6.5-.8.2-.3.5-.5.9-.6.4-.2.7-.2,1.1-.2.5,0,1,.1,1.4.3.4.2.7.6.9,1,.2.4.3.9.3,1.5v4.9h-1.8v-4.5c0-.3,0-.6-.2-.9-.1-.2-.3-.4-.5-.6-.2-.1-.5-.2-.8-.2s-.6,0-.8.2c-.2.2-.4.4-.6.6-.1.3-.2.6-.2.9v4.4ZM139.4,19.2c-.8,0-1.4-.2-2-.5-.6-.3-1-.8-1.4-1.4-.3-.6-.5-1.3-.5-2.1s.2-1.4.5-2c.3-.6.8-1.1,1.4-1.4.6-.3,1.2-.5,2-.5s1.5.2,2,.5c.6.3,1,.8,1.4,1.5.3.7.4,1.5.4,2.4h-6.8v-1.2h5.4s-.5.2-.5.2c0-.4,0-.7-.2-1-.2-.3-.4-.5-.7-.7-.3-.2-.6-.2-1-.2s-.7,0-1,.3c-.3.2-.5.4-.7.8-.2.3-.3.7-.2,1.1v.7c0,.4,0,.8.2,1.2.2.3.4.6.7.8.3.2.7.3,1,.3.3,0,.5,0,.8-.1.2,0,.4-.2.6-.4.2-.2.3-.4.4-.6h1.9c-.1.5-.3,1-.7,1.3-.3.4-.8.7-1.3.9-.5.2-1.1.3-1.7.3ZM144.4,11.4h1.7v1.6h-.3c0-.3.2-.6.4-.9.2-.3.5-.5.8-.6.3-.1.6-.2,1-.2s.1,0,.2,0c0,0,.1,0,.2,0v1.7s-.1,0-.2,0c0,0-.2,0-.3,0-.3,0-.6,0-.9.2-.3.1-.5.3-.6.6-.1.3-.2.6-.2.9v4.4h-1.8v-7.6Z"/>
</svg>