<svg width="298" height="334" viewBox="0 0 298 334" fill="none" xmlns="http://www.w3.org/2000/svg">
<path d="M75.7627 31.8064C75.7627 28.3233 73.9046 25.1047 70.8882 23.363L36.3838 3.4392C33.3669 1.69716 29.6497 1.69716 26.6328 3.43921L-7.87159 23.363C-10.888 25.1047 -12.7461 28.3233 -12.7461 31.8065L-12.7461 71.6485C-12.7461 75.1316 -10.888 78.3502 -7.87159 80.0919L26.6328 100.016C29.6497 101.758 33.3669 101.758 36.3838 100.016L70.8882 80.0919C73.9046 78.3502 75.7627 75.1316 75.7627 71.6484L75.7627 31.8064Z" stroke="#2C2C2C" stroke-width="0.5"/>
<path d="M164.536 31.8082C164.536 28.325 162.678 25.1064 159.662 23.3647L125.157 3.44091C122.14 1.69887 118.423 1.69887 115.406 3.44091L80.9018 23.3647C77.8855 25.1064 76.0273 28.325 76.0273 31.8082L76.0273 71.6502C76.0273 75.1333 77.8855 78.3519 80.9018 80.0936L115.406 100.017C118.423 101.759 122.14 101.759 125.157 100.017L159.662 80.0936C162.678 78.3519 164.536 75.1333 164.536 71.6502L164.536 31.8082Z" stroke="#2C2C2C" stroke-width="0.5"/>
<path d="M120.146 108.694C120.146 105.211 118.287 101.992 115.271 100.25L80.7666 80.3267C77.7497 78.5846 74.0325 78.5846 71.0156 80.3267L36.5112 100.25C33.4948 101.992 31.6367 105.211 31.6367 108.694L31.6367 148.536C31.6367 152.019 33.4948 155.238 36.5112 156.979L71.0156 176.903C74.0325 178.645 77.7497 178.645 80.7666 176.903L115.271 156.979C118.287 155.238 120.146 152.019 120.146 148.536L120.146 108.694Z" stroke="#2C2C2C" stroke-width="0.5"/>
<path d="M208.919 108.723C208.919 105.24 207.061 102.022 204.044 100.28L169.54 80.3562C166.523 78.6142 162.806 78.6142 159.789 80.3562L125.285 100.28C122.268 102.022 120.41 105.24 120.41 108.723L120.41 148.565C120.41 152.049 122.268 155.267 125.285 157.009L159.789 176.933C162.806 178.675 166.523 178.675 169.54 176.933L204.044 157.009C207.061 155.267 208.919 152.049 208.919 148.565L208.919 108.723Z" stroke="#2C2C2C" stroke-width="0.5"/>
<path d="M297.692 108.725C297.692 105.242 295.834 102.023 292.818 100.282L258.313 80.3579C255.297 78.6159 251.579 78.6159 248.562 80.3579L214.058 100.282C211.042 102.023 209.184 105.242 209.184 108.725L209.184 148.567C209.184 152.05 211.042 155.269 214.058 157.011L248.563 176.934C251.579 178.676 255.297 178.676 258.313 176.934L292.818 157.011C295.834 155.269 297.692 152.05 297.692 148.567L297.692 108.725Z" stroke="#2C2C2C" stroke-width="0.5"/>
<path d="M253.302 185.611C253.302 182.128 251.444 178.909 248.427 177.167L213.923 157.243C210.906 155.501 207.189 155.501 204.172 157.243L169.667 177.167C166.651 178.909 164.793 182.128 164.793 185.611L164.793 225.453C164.793 228.936 166.651 232.154 169.667 233.896L204.172 253.82C207.189 255.562 210.906 255.562 213.923 253.82L248.427 233.896C251.444 232.154 253.302 228.936 253.302 225.453L253.302 185.611Z" stroke="#2C2C2C" stroke-width="0.5"/>
<path d="M75.5166 185.465C75.5166 181.982 73.6585 178.763 70.6421 177.021L36.1377 157.097C33.1208 155.355 29.4036 155.355 26.3867 157.097L-8.11768 177.021C-11.1341 178.763 -12.9922 181.982 -12.9922 185.465L-12.9922 225.307C-12.9922 228.79 -11.1341 232.008 -8.11768 233.75L26.3867 253.674C29.4036 255.416 33.1208 255.416 36.1377 253.674L70.6421 233.75C73.6585 232.008 75.5166 228.79 75.5166 225.307L75.5166 185.465Z" stroke="#2C2C2C" stroke-width="0.5"/>
<path d="M164.29 185.466C164.29 181.983 162.432 178.765 159.416 177.023L124.911 157.099C121.894 155.357 118.177 155.357 115.16 157.099L80.6558 177.023C77.6394 178.765 75.7812 181.983 75.7812 185.466L75.7812 225.308C75.7812 228.792 77.6394 232.01 80.6558 233.752L115.16 253.676C118.177 255.418 121.894 255.418 124.911 253.676L159.416 233.752C162.432 232.01 164.29 228.791 164.29 225.308L164.29 185.466Z" stroke="#2C2C2C" stroke-width="0.5"/>
<path d="M119.899 262.352C119.899 258.869 118.041 255.65 115.025 253.908L80.5205 233.985C77.5036 232.243 73.7864 232.243 70.7695 233.985L36.2651 253.908C33.2487 255.65 31.3906 258.869 31.3906 262.352L31.3906 302.194C31.3906 305.677 33.2487 308.896 36.2651 310.637L70.7695 330.561C73.7864 332.303 77.5036 332.303 80.5205 330.561L115.025 310.637C118.041 308.896 119.899 305.677 119.899 302.194L119.899 262.352Z" stroke="#2C2C2C" stroke-width="0.5"/>
</svg>
