<?xml version="1.0" encoding="UTF-8"?>
<svg id="Layer_1" xmlns="http://www.w3.org/2000/svg" version="1.1" viewBox="0 0 2500 212">
  <!-- Generator: Adobe Illustrator 29.0.0, SVG Export Plug-In . SVG Version: 2.1.0 Build 186)  -->
  <defs>
    <style>
      .st0 {
        fill: #fff;
      }
    </style>
  </defs>
  <path class="st0" d="M365.8,210.5h-106.6v-7.8h5.7c7.1,0,11.2-3.4,11.2-12V21.9c0-8.6-4.2-11.9-11.2-11.9h-5.7V2.1h106.5v71.6h-7.1v-.8c0-42.4-12.9-61.7-36.4-61.7h-17.5v86.4h4.5c13.3,0,19.5-12.7,19.5-39.6v-.8h7.1v90.2h-7.1v-.5c0-26.3-6-39.9-19.5-39.9h-4.5v94.3h16.4c23.3,0,37.5-22.7,37.5-61.4v-.8h7.1v71.4h0ZM252.5,210.5h-62.5v-7.8h5.5c7,0,11.5-3.4,11.5-12v-81.8h-45.6v81.8c0,8.6,4.4,12,11.5,12h5.5v7.8h-62.5v-7.8h5.5c7.1,0,11.5-3.4,11.5-12V21.9c0-8.6-4.4-11.9-11.5-11.9h-5.5V2.1h62.5v7.9h-5.5c-7,0-11.5,3.3-11.5,11.9v75.8h45.6V21.9c0-8.6-4.5-11.9-11.5-11.9h-5.5V2.1h62.5v7.9h-5.5c-7,0-11.5,3.3-11.5,11.9v168.8c0,8.6,4.4,12,11.5,12h5.5v7.8ZM112.3,74.2h-7v-.8c0-33.5-12.7-62.2-27.6-62.2h-6.3v179.4c0,8.6,4.5,11.9,11.5,11.9h6.5v7.8H25.1v-7.8h6.2c7,0,11.4-3.4,11.4-11.9V11.3h-5.5c-14.9,0-27.6,26.9-27.6,62.2v.8H2.6V2.1h109.6v72.1h.1ZM900.4,210.5h-103.4v-7.8h5.7c7.1,0,11.5-3.1,11.5-11.7V21.6c0-8.6-4.4-11.7-11.5-11.7h-5.7V2.1h62.5v7.9h-5.5c-7,0-11.5,3.1-11.5,11.7v179.7h15.5c28,0,35.4-32,35.4-61.7v-.8h7.1v71.6ZM604.8,10h-2.1c-10,0-15.2,1.8-18.7,19l-38,183.1h-11.8l-23.7-119.9h-.3l-24.2,119.8h-11.7l-37.3-187.8c-2.4-11.9-5.8-14.3-16.4-14.3h-.8V2.1h56.2v7.9h-1.1c-8.1,0-10.1,2.3-10.1,7.8s.2,3.7.5,5.2l23.7,127.1h.5l15.5-83.7-8-42.2c-2-10.4-4.4-14.3-12.8-14.3h-1.3V2.1h55.7v7.9h-1c-9.9,0-12.5,3.5-12.5,10.6s.3,4.1.8,6.5l23.7,121.4h.5l22.4-121.7c.3-1.8.5-4.2.5-5.7,0-7.5-2.8-11.1-13.8-11.1h-1.6V2.1h47.2v7.9h0ZM793.1,210.5h-158.9v-7.8h1.3c10.8,0,14.1-2.9,14.1-8.8s-.3-3.9-.8-6.3l-5-27.5h-35.4l-4.9,27.5c-.5,2.6-.8,4.5-.8,6.3,0,6.5,2.5,8.8,13.3,8.8h1v7.8h-44.5v-7.8h2.3c9.1,0,14.3-2.1,16.7-14.4L627.7,0h13.3l37.3,187.5c2.2,11.3,8.1,15.1,13,15.1h4.2c7,0,11.5-3.1,11.5-11.7V21.6c0-8.6-4.4-11.7-11.5-11.7h-5.5V2.1h62.5v7.9h-5.7c-7,0-11.5,3.1-11.5,11.7v179.7h15.4c28.1,0,35.4-31.8,35.4-61.9v-.8h7.1v71.8h-.1ZM641.8,150.3l-15.6-92.2h-.5l-15.7,92.2h31.8ZM1639.3,74.2h-7.1v-.8c0-33.5-12.7-62.2-27.6-62.2h-6.2v179.4c0,8.6,4.4,12,11.5,12h5.8v7.8h-63.3v-7.8h6c7.1,0,11.5-3.4,11.5-12V11.3h-5.5c-14.9,0-27.6,26.9-27.6,62.2v.8h-7.1V2.1h109.7v72.1h-.1ZM1520.6,210.4h-106.6v-7.8h5.7c7,0,11.2-3.4,11.2-12V21.9c0-8.6-4.2-12-11.2-12h-5.7V2.1h106.5v71.6h-7v-.8c0-42.4-12.9-61.7-36.5-61.7h-17.5v86.4h4.4c13.3,0,19.5-12.8,19.5-39.6v-.8h7v90.2h-7v-.4c0-26.4-6-39.9-19.5-39.9h-4.4v94.3h16.4c23.3,0,37.5-22.7,37.5-61.4v-.8h7v71.2h.2ZM1407,210.4h-106.5v-7.8h5.7c7,0,11.2-3.4,11.2-12V21.9c0-8.6-4.2-12-11.2-12h-5.7V2.1h106.5v71.6h-7.1v-.8c0-42.4-12.9-61.7-36.5-61.7h-17.4v86.4h4.4c13.3,0,19.6-12.8,19.6-39.6v-.8h7v90.2h-7v-.4c0-26.4-6-39.9-19.6-39.9h-4.4v94.3h16.4c23.3,0,37.5-22.7,37.5-61.4v-.8h7.1v71.2ZM1167.1,74.2h-7v-.8c0-33.5-12.7-62.2-27.6-62.2h-6.2v179.4c0,8.6,4.4,12,11.4,12h5.5v7.8h-63v-7.8h6c7.1,0,11.5-3.4,11.5-12V11.3h-5.5c-14.9,0-27.6,26.9-27.6,62.2v.8h-7V2.1h109.6v72.1h-.1ZM1057.2,160c0,36.8-22.3,52-48.5,52s-27.6-6.2-36.7-12.5l-4.9,10.9h-5.5v-71.5h7v2.1c0,50.2,25.3,61.7,38,61.7,18.5,0,27.8-13.6,27.8-33.1s-15-41.4-36.7-57.7c-19.6-14.9-37.7-33.2-37.7-63.5S979.3.7,1002.4.7s28.2,7.9,33.3,12.3l5.2-10.2h5.2v71.9h-7v-2.1c0-39-11.7-62.5-34.9-62.5-13.9-.1-22.2,10.2-22.2,26.7s11.6,30.7,33.1,47.3c23.8,18.5,42.1,38,42.1,75.9M1298.9,182c0,17.5-6.7,30-23.7,30s-24.3-12.6-25.5-38.5l-1.8-38.8c-1-20.4-8.8-26.1-20.6-26.1h-7.6v82.1c0,8.6,3.4,12,10.4,12h6.8v7.8h-63v-7.8h6c7,0,11.5-3.4,11.5-12V21.9c0-8.6-4.4-12-11.5-12h-6V2.1h57c34.5,0,56,17.7,56,50.6s-23.9,47.4-45.1,51.5v.5c17.3,1.8,33.1,14.8,34.1,34.5l2.4,45.5c.4,9.1,1.5,11.8,6,11.8s6.5-3.9,6.5-17.5v-7.5h8.1v10.5h0ZM1257,53.2c0-32.6-12.9-41.9-30.5-41.9h-6.8v87.7h7.8c18.4,0,29.5-12.5,29.5-45.8M2497.3,197.7c0,7.9-5.8,14.3-12,14.3s-11.9-6.4-11.9-14.3,5.8-14.1,11.9-14.1c6.2,0,12,6.3,12,14.1M2251.2,10h-5.6c-6.5,0-11.7,4.9-11.7,15.1v186.2h-10.2l-65.1-164h-.5v140.3c0,10.2,5.2,15.2,11.7,15.2h5.5v7.8h-43.8v-7.8h5.5c6.5,0,11.7-5,11.7-15.2V22.9c0-7.3-2.8-13-10.2-13h-7V2.1h39.6l52.8,134.1h.5V25c0-10.3-5.2-15.1-11.6-15.1h-5.5V2.1h43.8v7.9h.1ZM1776.9,10h-5.7c-7.1,0-11.5,3.3-11.5,12v145.3c0,32.6-20.5,44.8-46.6,44.8s-37.5-15.3-37.5-44.8,9.8-22.6,17.7-22.6,14.1,5.8,14.1,15.6-7.3,17.9-16.9,19.2c0,10.8,8.2,23.2,22.3,23.2s18.3-7.5,18.3-30V21.9c0-8.6-4.1-12-11.2-12h-6.5V2.1h63.5v7.9h0ZM2461.2,210.4h-159.3v-7.8h1.6c10.8,0,14.1-2.9,14.1-8.9s-.4-3.9-.8-6.3l-4.9-27.5h-35.4l-4.9,27.5c-.5,2.6-.8,4.5-.8,6.3,0,6.4,2.5,8.9,13.2,8.9h1.1v7.8h-44.6v-7.8h2.3c9.2,0,14.4-2.1,16.8-14.4L2295.7,0h13.2l37.3,187.5c2.2,11.4,8.1,15.2,13.1,15.2h4.2c7,0,11.4-3.1,11.4-11.7V21.7c0-8.6-4.4-11.7-11.4-11.7h-5.7V2.1h62.8v7.9h-6c-7,0-11.5,3.1-11.5,11.7v179.7h15.4c28.1,0,35.4-31.8,35.4-61.6v-.8h7.2v71.4h.1ZM2309.7,150.3l-15.6-92.2h-.5l-15.6,92.2h31.7ZM2130.6,182c0,17.5-6.6,30-23.7,30s-24.3-12.6-25.5-38.5l-1.8-38.8c-1-20.5-8.8-26.1-20.5-26.1h-7.6v82.1c0,8.6,3.4,12,10.5,12h6.4v7.8h-62.7v-7.8h6c7,0,11.4-3.4,11.4-12V21.9c0-8.5-4.3-12-11.1-12h-11c-6.5,0-10.4,5.5-10.4,15.1v138.8c0,27.7-9.2,48.2-39,48.2s-50.3-19.5-50.3-48.2V21.9c0-8.6-4.2-12-11.2-12h-5.8V2.1h62.8v7.9h-5.7c-7.1,0-11.2,3.4-11.2,12v143.7c0,23.4,9.2,35.9,25,35.9s25.7-10.3,25.7-35.9V25c0-9.6-3.6-15.1-10.2-15.1h-6.5V2.1h98.5c34.4,0,56,17.7,56,50.6s-24,47.4-45.1,51.5v.5c17.3,1.8,33.1,14.7,34.2,34.5l2.3,45.5c.4,9.1,1.6,11.8,6,11.8s6.5-3.9,6.5-17.5v-7.5h8v10.5ZM2088.7,53.2c0-32.6-12.9-41.9-30.5-41.9h-6.8v87.7h7.8c18.4,0,29.5-12.5,29.5-45.8M1884.7,105.8c0,59.2-19.4,106.2-55,106.2s-54.1-47-54.1-106.2S1794.2.6,1829.7.6c35.2-.1,55,46,55,105.2M1852.4,155.3V56.8c0-36-8-46.9-22.7-46.9s-22.1,10.3-22.1,47.4v97.7c0,34.7,6.6,47.7,22.1,47.7s22.7-13.8,22.7-47.4"/>
</svg>