<?xml version="1.0" encoding="utf-8"?>
<!-- Generator: Adobe Illustrator 25.2.3, SVG Export Plug-In . SVG Version: 6.00 Build 0)  -->
<svg version="1.1" id="Layer_1" xmlns="http://www.w3.org/2000/svg" xmlns:xlink="http://www.w3.org/1999/xlink" x="0px" y="0px"
	 viewBox="0 0 67 25" style="enable-background:new 0 0 67 25;" xml:space="preserve">
<style type="text/css">
	.st0{fill:#FFFFFF;}
</style>
<g transform="translate(-.82 -2.29)">
	<path class="st0" d="M5.3,20.5c-0.8,0-1.7-0.2-2.4-0.7s-1.2-1.1-1.6-1.9c-0.4-1-0.6-2-0.5-3c0-1.1,0.2-2.1,0.6-3.1
		C1.7,11,2.3,10.3,3,9.9c0.7-0.5,1.5-0.7,2.4-0.7s1.7,0.3,2.4,0.9c0.6,0.6,1,1.4,1.2,2.3l-0.3,0.5v-8h3.7v15.5H9l-0.2-3.7L9.2,17
		c-0.1,0.7-0.3,1.3-0.7,1.8c-0.3,0.5-0.8,1-1.3,1.3C6.6,20.4,5.9,20.5,5.3,20.5z M6.6,17.8c0.4,0,0.7-0.1,1-0.3
		c0.3-0.3,0.6-0.6,0.7-1c0.2-0.5,0.3-1.1,0.2-1.6c0-0.5-0.1-1.1-0.2-1.6c-0.1-0.4-0.4-0.7-0.7-1c-0.3-0.2-0.7-0.3-1-0.3
		c-0.6,0-1.1,0.3-1.5,0.7c-0.4,0.7-0.6,1.4-0.6,2.2c-0.1,0.8,0.1,1.6,0.5,2.2C5.5,17.5,6,17.8,6.6,17.8z"/>
	<path class="st0" d="M16.8,8.2c-0.6,0.1-1.2-0.1-1.6-0.4c-0.4-0.3-0.6-0.8-0.5-1.3c0-0.5,0.1-1,0.5-1.4c0.5-0.3,1.1-0.5,1.6-0.4
		c0.6,0,1.2,0.1,1.6,0.4s0.6,0.8,0.5,1.4c0,0.5-0.1,1-0.5,1.3C17.9,8,17.4,8.2,16.8,8.2z M18.6,9.4v10.9h-3.7V9.4H18.6z"/>
	<path class="st0" d="M28.1,17.9c1-0.1,2.1,0.2,2.9,0.8c0.7,0.5,1.1,1.4,1,2.3c0,0.8-0.2,1.6-0.7,2.2s-1.3,1.1-2.1,1.3
		c-1,0.3-2.1,0.5-3.2,0.5c-1.5,0.1-2.9-0.2-4.3-0.7c-0.8-0.4-1.3-1.1-1.3-2c0-0.6,0.3-1.1,0.7-1.5c0.7-0.4,1.6-0.7,2.5-0.6l-0.1,0.4
		c-0.7,0-1.4-0.3-2-0.8c-0.4-0.4-0.7-1-0.7-1.6c0-0.7,0.3-1.3,0.8-1.7c0.6-0.5,1.4-0.7,2.2-0.7l1.3,0.6h-0.3c-0.4,0-0.8,0.1-1.2,0.3
		c-0.2,0.1-0.3,0.3-0.3,0.6c0,0.2,0.1,0.4,0.3,0.5c0.3,0.1,0.6,0.2,0.9,0.2L28.1,17.9z M26.1,9.2c1,0,1.9,0.1,2.8,0.4
		c0.7,0.2,1.3,0.7,1.8,1.3c0.4,0.6,0.6,1.3,0.6,2s-0.2,1.4-0.6,2c-0.5,0.6-1.1,1-1.8,1.3c-0.9,0.3-1.9,0.4-2.8,0.4
		c-1.4,0.1-2.7-0.2-3.9-1c-0.9-0.6-1.4-1.6-1.3-2.7c0-0.7,0.2-1.4,0.6-2c0.5-0.6,1.1-1,1.8-1.3C24.2,9.3,25.2,9.2,26.1,9.2z
		 M26,22.6c0.6,0,1.2,0,1.7-0.1c0.4-0.1,0.7-0.2,1-0.4c0.2-0.1,0.3-0.3,0.4-0.6c0-0.2-0.1-0.4-0.2-0.5c-0.3-0.1-0.6-0.2-0.9-0.2
		h-3.9c-0.2,0-0.5,0.1-0.7,0.2s-0.3,0.3-0.2,0.5c0,0.3,0.2,0.6,0.7,0.8C24.6,22.5,25.3,22.6,26,22.6z M26.1,11.3
		c-0.4,0-0.8,0.1-1.2,0.4c-0.3,0.3-0.5,0.7-0.4,1.2c0,0.4,0.1,0.9,0.4,1.1c0.3,0.3,0.7,0.4,1.2,0.4c0.4,0,0.8-0.1,1.2-0.4
		c0.3-0.3,0.5-0.7,0.5-1.1c0-0.4-0.1-0.9-0.5-1.2C27,11.4,26.6,11.3,26.1,11.3z M31.8,6.5L32.1,9c-0.1,0-0.2,0-0.3,0h-0.3
		c-0.5,0-1,0.1-1.4,0.5c-0.3,0.3-0.4,0.7-0.4,1.1L28.4,10c0-0.6,0.1-1.2,0.3-1.7c0.2-0.5,0.6-1,1-1.3c0.5-0.4,1.1-0.5,1.7-0.5h0.2
		C31.7,6.5,31.7,6.5,31.8,6.5z"/>
	<path class="st0" d="M35.3,8.2c-0.6,0.1-1.2-0.1-1.6-0.4c-0.4-0.3-0.6-0.8-0.5-1.3c0-0.5,0.1-1,0.5-1.4c0.5-0.3,1.1-0.5,1.6-0.4
		c0.6,0,1.2,0.1,1.6,0.4c0.4,0.3,0.6,0.8,0.5,1.4c0,0.5-0.1,1-0.5,1.3C36.5,8,35.9,8.2,35.3,8.2z M37.1,9.4v10.9h-3.7V9.4H37.1z"/>
	<path class="st0" d="M47.6,9.4V12h-8.9V9.4H47.6z M44.3,6v10.5c0,0.4,0.1,0.8,0.4,1.1c0.3,0.2,0.7,0.4,1,0.3c0.3,0,0.6,0,0.9-0.1
		c0.2-0.1,0.5-0.2,0.7-0.4l0.4,2.3c-0.4,0.3-0.9,0.5-1.4,0.6c-0.6,0.1-1.1,0.2-1.7,0.2c-0.7,0-1.5-0.1-2.1-0.4
		c-0.6-0.2-1.1-0.6-1.4-1.1c-0.4-0.6-0.5-1.3-0.5-2.1V7L44.3,6z"/>
	<path class="st0" d="M55.5,13.4c0-0.4-0.1-0.9-0.4-1.2c-0.3-0.3-0.7-0.5-1.1-0.4c-0.4,0-0.9,0.1-1.2,0.4c-0.4,0.3-0.6,0.8-0.7,1.3
		L49,12.8c0.2-1,0.8-1.9,1.6-2.5c1.1-0.7,2.4-1,3.7-0.9c0.9,0,1.9,0.1,2.7,0.5c0.7,0.3,1.3,0.8,1.7,1.4c0.4,0.7,0.6,1.5,0.6,2.3v4
		c0,0.6,0.3,0.8,0.8,0.8c0.2,0,0.4,0,0.6-0.1l-0.2,2.1c-0.5,0.2-1,0.3-1.6,0.3c-0.5,0-1-0.1-1.5-0.3c-0.4-0.2-0.8-0.5-1-0.8
		c-0.2-0.4-0.4-0.9-0.3-1.4v-0.1l0.4-0.2c0,0.6-0.2,1.1-0.6,1.6c-0.4,0.4-0.9,0.8-1.4,0.9c-0.6,0.2-1.2,0.3-1.8,0.3
		c-0.7,0-1.3-0.1-1.9-0.4c-0.5-0.2-1-0.6-1.3-1c-0.3-0.5-0.5-1.1-0.4-1.6c0-0.7,0.2-1.4,0.7-1.9c0.6-0.6,1.4-0.9,2.2-1l4.1-0.9v2
		L53.8,16c-0.3,0.1-0.7,0.2-1,0.4c-0.2,0.2-0.3,0.5-0.3,0.8s0.1,0.6,0.4,0.7c0.2,0.2,0.5,0.2,0.8,0.2c0.2,0,0.5,0,0.7-0.1
		s0.4-0.2,0.6-0.3c0.2-0.2,0.3-0.4,0.4-0.6c0.1-0.3,0.1-0.5,0.1-0.8V13.4z"/>
	<path class="st0" d="M65.7,4.8v11.8c0,0.4,0.1,0.7,0.2,1c0.2,0.2,0.5,0.3,0.8,0.3c0.2,0,0.4,0,0.5,0l0.5-0.2L67.6,20
		c-0.3,0.2-0.7,0.3-1,0.4c-0.4,0.1-0.8,0.2-1.2,0.2c-0.9,0.1-1.8-0.2-2.5-0.8c-0.7-0.8-1-1.8-0.9-2.7V4.8H65.7z"/>
</g>
</svg>
