<?xml version="1.0" encoding="utf-8"?>
<!-- Generator: Adobe Illustrator 25.2.3, SVG Export Plug-In . SVG Version: 6.00 Build 0)  -->
<svg version="1.1" id="Layer_1" xmlns="http://www.w3.org/2000/svg" xmlns:xlink="http://www.w3.org/1999/xlink" x="0px" y="0px"
	 viewBox="0 0 190 42.2" style="enable-background:new 0 0 190 42.2;" xml:space="preserve">
<style type="text/css">
	.st0{fill:#FFFFFF;}
</style>
<path class="st0" d="M40.2,0H10.8C0.2,2.6,0,11.6,0,11.6v30.5h11.3V14.3c0-1.4,0.9-2.5,2.3-2.8h26.6V0z M17.9,16.1
	c0,0-2.2-0.2-2.2,1.8v8.9h14.5v2.6c0,0.7-0.5,1.3-1.2,1.3c0,0-0.1,0-0.1,0H15.7v11.5h15.8c0,0,9.6-1.5,9.7-11.5V16.1H17.9z"/>
<path class="st0" d="M73.2,18.3c-0.5,0.3-0.8,0.5-1,0.7c-0.8,0.5-1.6,0.9-2.5,1.3c-0.9,0.4-2,0.7-3,0.7c-2.8,0.1-5.5-0.9-7.5-2.8
	c-2-1.8-3.1-4.5-3-7.2c0-2.7,0.9-5.2,2.7-7.2c1.6-1.9,4.1-3,6.6-3c1.2,0,2.3,0.2,3.5,0.5c1.4,0.4,2.7,1.2,3.8,2.2l-1.7,2
	c-0.8-0.8-1.7-1.3-2.8-1.6c-0.9-0.3-1.8-0.4-2.8-0.4c-1.8,0-3.5,0.8-4.6,2.2c-1.2,1.5-1.9,3.4-1.8,5.4c0,1.9,0.7,3.7,2.1,5
	c1.4,1.4,3.3,2.1,5.3,2.1c1,0,1.9-0.3,2.8-0.9l1.2-0.9v-4.3h-5.8l0.8-2.7h7.7V18.3z M90.8,13.1c0,2-0.7,3.9-2.1,5.4
	c-2.7,2.9-7.2,3-10.1,0.3c-0.1-0.1-0.2-0.2-0.3-0.3c-1.4-1.4-2.2-3.4-2.2-5.4c0-2,0.7-4,2.1-5.4c1.3-1.5,3.2-2.3,5.1-2.3
	c2.1-0.1,4,0.7,5.4,2.2C90.1,9.1,90.8,11.1,90.8,13.1z M88,13.1c0-1.3-0.5-2.6-1.4-3.5c-0.9-1-2.1-1.5-3.4-1.5
	c-1.3,0-2.4,0.5-3.2,1.5c-0.9,0.9-1.3,2.2-1.3,3.5c0,1.3,0.5,2.5,1.3,3.5c0.9,1,2.1,1.5,3.4,1.5c1.2,0,2.4-0.5,3.2-1.4
	C87.5,15.7,88,14.4,88,13.1L88,13.1z M108,13.1c0,2-0.7,3.9-2.2,5.4c-2.7,2.9-7.2,3-10.1,0.3c-0.1-0.1-0.2-0.2-0.3-0.3
	c-1.4-1.4-2.2-3.4-2.2-5.4c0-2,0.7-4,2.1-5.4c1.3-1.5,3.2-2.3,5.1-2.3c2.1-0.1,4,0.7,5.4,2.2C107.4,9.1,108.1,11.1,108,13.1
	L108,13.1z M105.3,13.1c0-1.3-0.5-2.6-1.4-3.5c-0.9-1-2.1-1.5-3.4-1.5c-1.3,0-2.4,0.5-3.2,1.5c-0.9,0.9-1.3,2.2-1.3,3.5
	c0,1.3,0.5,2.5,1.4,3.5c0.9,1,2.1,1.5,3.4,1.5c1.2,0,2.4-0.5,3.2-1.4C104.8,15.7,105.3,14.4,105.3,13.1L105.3,13.1z M124.1,20.3
	l-2.5,0.4v-2.5l-0.5,0.6c-0.5,0.5-1,0.8-1.6,1.1c-0.9,0.4-1.8,0.6-2.7,0.6c-1.9,0-3.7-0.8-5-2.2c-1.3-1.4-2-3.3-2-5.3
	c0-2,0.7-3.9,2-5.4c1.2-1.4,3-2.3,4.9-2.2c1,0,2,0.2,2.9,0.6c0.6,0.3,1.1,0.6,1.5,1.1l0.4,0.6V1.1l2.7-0.4L124.1,20.3L124.1,20.3z
	 M121.8,13.3c0-1.4-0.5-2.7-1.5-3.7c-0.8-1-2-1.5-3.3-1.5c-1.3,0-2.5,0.5-3.4,1.4c-0.8,0.9-1.2,2.1-1.2,3.4
	c-0.1,1.3,0.4,2.7,1.3,3.7c0.8,0.9,2,1.5,3.2,1.4c1.3,0,2.5-0.5,3.4-1.4C121.2,15.8,121.8,14.6,121.8,13.3z M138.2,3.9h-7.5V9h5.8
	v2.7h-5.8v8.6l-2.9,0.4V1.2h9.8L138.2,3.9z M144.2,2.3l-1.8,2.3l-1.7-2.3l1.8-2.3L144.2,2.3z M143.7,20.3l-2.7,0.4V6.2l2.7-0.4V20.3
	z M155.7,5.6l-1.2,3c-0.2,0-0.3,0-0.5,0c-0.3,0-0.5,0-0.8,0.1c-0.3,0.1-0.6,0.2-0.8,0.3c-0.7,0.4-1.2,0.9-1.5,1.6
	c-0.5,0.9-0.7,2-0.7,3v6.7l-2.7,0.4V6.2l2.5-0.5v3c0.3-0.5,0.6-1,1-1.6c0.4-0.5,1-0.9,1.6-1.2c0.6-0.2,1.2-0.3,1.8-0.3
	C154.8,5.6,155.2,5.6,155.7,5.6L155.7,5.6z M175.6,20.3l-2.7,0.4v-10c0.1-0.7-0.1-1.4-0.6-2c-0.5-0.5-1.1-0.7-1.8-0.6
	c-0.9,0-1.7,0.5-2.1,1.2c-0.3,0.5-0.5,1.1-0.5,1.7v9.3l-2.7,0.5v-10c0-0.7-0.2-1.4-0.6-2c-0.4-0.5-1-0.7-1.6-0.7h-0.3
	c-0.8,0-1.6,0.4-2,1.2c-0.3,0.7-0.5,1.5-0.5,2.3v8.7l-2.8,0.5V6.2l2.5-0.4v1.9c0.2-0.4,0.5-0.7,0.8-1c0.7-0.7,1.6-1,2.5-1
	c0.8-0.1,1.6,0.1,2.4,0.5c0.6,0.5,1,1,1.3,1.7c0.8-1.4,2.3-2.3,3.9-2.2c1.4-0.1,2.8,0.5,3.6,1.6c0.7,1.1,1.1,2.5,1,3.9L175.6,20.3z
	 M187.7,15.9c0,1.2-0.5,2.4-1.4,3.3c-0.9,0.9-2.2,1.3-3.5,1.3c-1,0-2-0.3-2.8-0.8c-0.8-0.4-1.4-1-1.9-1.7l1.9-1.7
	c0.1,0.2,0.2,0.3,0.4,0.5c0.6,0.7,1.5,1.1,2.5,1.1c0.6,0,1.2-0.2,1.6-0.5c0.4-0.4,0.6-0.9,0.6-1.5c0-0.7-0.4-1.2-1.4-1.5
	c-1.8-0.6-2.8-0.9-2.9-0.9c-0.7-0.3-1.3-0.8-1.8-1.4c-0.5-0.7-0.7-1.6-0.6-2.4c0-1.2,0.5-2.3,1.4-3.1c0.9-0.8,2-1.3,3.2-1.2
	c0.9,0,1.8,0.2,2.6,0.6c0.7,0.3,1.3,0.8,1.7,1.5l-1.6,1.8c-0.2-0.2-0.5-0.5-0.8-0.7c-0.5-0.4-1.2-0.7-1.8-0.7c-0.5,0-1,0.1-1.4,0.4
	C181.2,8.5,181,9,181,9.5c0,0.5,0.2,1,0.6,1.3c0.7,0.4,1.5,0.6,2.3,0.8c1.1,0.2,2,0.7,2.8,1.5C187.4,13.8,187.8,14.9,187.7,15.9
	L187.7,15.9z"/>
<g>
	<path class="st0" d="M59.4,39.1c-0.1-0.1-0.1-0.1-0.1-0.2v-7.2h-2.4c-0.1,0-0.2,0-0.2-0.1c-0.1-0.1-0.1-0.1-0.1-0.2v-1
		c0-0.1,0-0.2,0.1-0.2c0.1-0.1,0.1-0.1,0.2-0.1h6.6c0.1,0,0.2,0,0.2,0.1c0.1,0.1,0.1,0.1,0.1,0.2v1c0,0.1,0,0.2-0.1,0.2
		c-0.1,0.1-0.1,0.1-0.2,0.1h-2.4v7.2c0,0.1,0,0.2-0.1,0.2c-0.1,0.1-0.1,0.1-0.2,0.1h-1.2C59.5,39.2,59.4,39.2,59.4,39.1z"/>
	<path class="st0" d="M64.2,38.5c-0.6-0.6-0.9-1.4-0.9-2.2v-1.1c0-0.8,0.3-1.6,0.9-2.1c1.4-1.1,3.3-1.1,4.7,0
		c0.6,0.6,0.9,1.3,0.9,2.2c0,0.1,0,0.3,0,0.6s0,0.5,0,0.6c0,0.8-0.3,1.6-0.9,2.2C67.5,39.6,65.6,39.6,64.2,38.5L64.2,38.5z
		 M67.6,37.5c0.3-0.4,0.4-0.8,0.4-1.3c0-0.1,0-0.3,0-0.5s0-0.4,0-0.5c0-0.5-0.1-0.9-0.4-1.3c-0.3-0.3-0.7-0.5-1.1-0.4
		c-0.4,0-0.8,0.1-1.1,0.4c-0.3,0.4-0.4,0.9-0.4,1.3v0.5v0.5c0,0.5,0.1,0.9,0.4,1.3c0.3,0.3,0.7,0.5,1.1,0.4
		C67,38.1,67.4,37.9,67.6,37.5L67.6,37.5z"/>
	<path class="st0" d="M71.1,41.6c-0.1-0.1-0.1-0.1-0.1-0.2v-8.6c0-0.1,0-0.2,0.1-0.2c0.1-0.1,0.1-0.1,0.2-0.1h1c0.1,0,0.2,0,0.2,0.1
		c0.1,0.1,0.1,0.1,0.1,0.2v0.5c0.5-0.7,1.3-1,2.1-1c0.8,0,1.5,0.3,2,0.8c0.5,0.6,0.8,1.4,0.8,2.3c0,0.1,0,0.3,0,0.5s0,0.4,0,0.5
		c0,0.8-0.3,1.6-0.8,2.2c-0.5,0.6-1.2,0.9-2,0.8c-0.8,0-1.5-0.3-2-0.9v3c0,0.1,0,0.2-0.1,0.2c-0.1,0.1-0.1,0.1-0.2,0.1h-1.1
		C71.2,41.7,71.2,41.6,71.1,41.6z M75.8,36.2c0-0.3,0-0.5,0-0.8c-0.1-1.1-0.6-1.7-1.5-1.7c-0.4,0-0.8,0.1-1.1,0.5
		c-0.2,0.3-0.4,0.7-0.4,1.2c0,0.1,0,0.3,0,0.5s0,0.4,0,0.5c0,0.4,0.1,0.8,0.4,1.1c0.3,0.3,0.7,0.5,1.1,0.5
		C75.2,37.9,75.7,37.3,75.8,36.2z"/>
	<path class="st0" d="M82.5,38.8l-1.5-8.3v-0.1c0-0.1,0-0.1,0.1-0.2c0.1-0.1,0.1-0.1,0.2-0.1h1.2c0.1,0,0.2,0,0.2,0.1
		c0.1,0.1,0.1,0.1,0.1,0.2l1.1,5.8l1.2-3.8c0-0.2,0.2-0.3,0.4-0.3h0.7c0.1,0,0.2,0,0.3,0.1c0.1,0.1,0.1,0.1,0.2,0.2l1.2,3.8l1.1-5.8
		c0-0.2,0.1-0.3,0.4-0.3h1.2c0.1,0,0.1,0,0.2,0.1c0.1,0,0.1,0.1,0.1,0.2c0,0,0,0.1,0,0.1L89,38.8c0,0.1-0.1,0.2-0.2,0.3
		c-0.1,0.1-0.2,0.1-0.3,0.1h-0.9c-0.1,0-0.2,0-0.3-0.1c-0.1-0.1-0.1-0.1-0.2-0.2l-1.4-4.3l-1.5,4.3c-0.1,0.2-0.2,0.3-0.5,0.3H83
		C82.7,39.2,82.5,39,82.5,38.8z"/>
	<path class="st0" d="M92,38.5c-0.6-0.6-0.9-1.5-0.9-2.4v-0.3c-0.1-0.9,0.2-1.8,0.8-2.6c1.3-1.3,3.4-1.3,4.8,0
		c0.6,0.7,0.9,1.6,0.8,2.5V36c0,0.1,0,0.2-0.1,0.2c-0.1,0.1-0.1,0.1-0.2,0.1h-4.3v0.1c0,0.4,0.1,0.9,0.4,1.2c0.2,0.3,0.6,0.5,1,0.5
		c0.5,0,0.9-0.2,1.2-0.6c0.1-0.1,0.1-0.1,0.2-0.2c0.1,0,0.1,0,0.2,0H97c0.1,0,0.1,0,0.2,0.1c0.1,0,0.1,0.1,0.1,0.2
		c0,0.3-0.2,0.5-0.4,0.7c-0.3,0.3-0.7,0.6-1.1,0.7c-0.5,0.2-1.1,0.3-1.6,0.3C93.4,39.4,92.6,39.1,92,38.5z M95.7,35.2L95.7,35.2
		c0-0.4-0.1-0.9-0.4-1.2c-0.2-0.3-0.6-0.5-1-0.5c-0.4,0-0.8,0.2-1,0.5c-0.3,0.4-0.4,0.8-0.4,1.2l0,0H95.7z"/>
	<path class="st0" d="M100.3,38.4v0.5c0,0.1,0,0.2-0.1,0.2c-0.1,0.1-0.1,0.1-0.2,0.1h-1c-0.1,0-0.2,0-0.2-0.1
		c-0.1-0.1-0.1-0.1-0.1-0.2v-8.6c0-0.1,0-0.2,0.1-0.2c0.1-0.1,0.1-0.1,0.2-0.1h1.1c0.2,0,0.3,0.1,0.3,0.2c0,0,0,0,0,0.1v2.9
		c1.1-1.1,2.8-1.1,3.9-0.1c0,0,0,0,0.1,0.1c0.5,0.6,0.8,1.4,0.8,2.2c0,0.1,0,0.2,0,0.4s0,0.3,0,0.4c0,0.8-0.3,1.6-0.8,2.2
		c-1.1,1.1-2.9,1.1-4,0C100.4,38.4,100.4,38.4,100.3,38.4L100.3,38.4z M103.4,36.2c0-0.1,0-0.2,0-0.4s0-0.3,0-0.4
		c-0.1-1.1-0.6-1.7-1.5-1.7c-0.4,0-0.8,0.1-1.1,0.5c-0.3,0.3-0.4,0.7-0.4,1.1c0,0.1,0,0.3,0,0.5s0,0.4,0,0.5c0,0.4,0.1,0.8,0.4,1.2
		c0.3,0.3,0.7,0.5,1.1,0.5C102.8,37.9,103.3,37.3,103.4,36.2z"/>
	<path class="st0" d="M109.3,39.1c-0.1-0.1-0.1-0.1-0.1-0.2v-8.5c0-0.1,0-0.2,0.1-0.2c0.1-0.1,0.1-0.1,0.2-0.1h3.2
		c2.6,0,3.9,1.2,3.9,3.5c0,0.5,0,0.8,0,1s0,0.5,0,1c0,1-0.3,2-1,2.7c-0.8,0.6-1.8,0.9-2.9,0.9h-3.2
		C109.4,39.2,109.3,39.1,109.3,39.1z M112.7,37.7c0.6,0.1,1.1-0.1,1.6-0.5c0.4-0.4,0.5-1,0.5-1.6c0-0.5,0-0.8,0-1s0-0.5,0-1
		c0-0.6-0.2-1.1-0.5-1.6c-0.4-0.4-1-0.5-1.6-0.5H111v6.1L112.7,37.7z"/>
	<path class="st0" d="M118.5,38.5c-0.6-0.6-0.9-1.5-0.9-2.4v-0.3c-0.1-0.9,0.2-1.8,0.9-2.6c1.3-1.3,3.4-1.3,4.7,0
		c0.6,0.7,0.9,1.6,0.8,2.5V36c0,0.1,0,0.2-0.1,0.2c-0.1,0.1-0.1,0.1-0.2,0.1h-4.3v0.1c0,0.4,0.1,0.9,0.4,1.2c0.2,0.3,0.6,0.5,1,0.5
		c0.5,0,0.9-0.2,1.2-0.6c0-0.1,0.1-0.1,0.2-0.2c0.1,0,0.1,0,0.2,0h1.1c0.1,0,0.2,0,0.2,0.1c0.1,0,0.1,0.1,0.1,0.2
		c0,0.3-0.2,0.5-0.4,0.7c-0.3,0.3-0.7,0.6-1.1,0.7c-0.5,0.2-1.1,0.3-1.6,0.3C120,39.4,119.2,39.1,118.5,38.5z M122.3,35.2
		L122.3,35.2c0-0.4-0.1-0.9-0.4-1.2c-0.3-0.3-0.6-0.5-1.1-0.5c-0.4,0-0.8,0.2-1,0.5c-0.3,0.4-0.4,0.8-0.4,1.2l0,0H122.3z"/>
	<path class="st0" d="M127,39.1c-0.1-0.1-0.1-0.1-0.2-0.2l-2.4-6c0,0,0-0.1,0-0.1c0-0.1,0-0.2,0.1-0.2c0.1,0,0.1-0.1,0.2-0.1h1.1
		c0.2,0,0.3,0.1,0.4,0.2l1.7,4.5l1.7-4.5c0-0.1,0.1-0.1,0.1-0.2c0.1-0.1,0.1-0.1,0.2-0.1h1.1c0.1,0,0.1,0,0.2,0.1
		c0.1,0.1,0.1,0.1,0.1,0.2c0,0,0,0.1,0,0.1l-2.4,6c-0.1,0.2-0.3,0.3-0.5,0.3h-1C127.2,39.2,127.1,39.2,127,39.1z"/>
	<path class="st0" d="M132.5,38.5c-0.6-0.6-0.9-1.5-0.9-2.4v-0.3c-0.1-0.9,0.3-1.8,0.9-2.6c1.3-1.3,3.4-1.3,4.8,0
		c0.6,0.7,0.9,1.6,0.8,2.5V36c0,0.1,0,0.2-0.1,0.2c-0.1,0.1-0.2,0.1-0.2,0.1h-4.3v0.1c0,0.4,0.1,0.9,0.4,1.2c0.2,0.3,0.6,0.5,1,0.5
		c0.5,0,0.9-0.2,1.2-0.6c0.1-0.1,0.1-0.1,0.2-0.2c0.1,0,0.2,0,0.2,0h1.1c0.1,0,0.1,0,0.2,0.1c0.1,0,0.1,0.1,0.1,0.2
		c0,0.3-0.2,0.5-0.4,0.7c-0.3,0.3-0.7,0.6-1.1,0.7c-0.5,0.2-1.1,0.3-1.6,0.3C134,39.4,133.1,39.1,132.5,38.5z M136.2,35.2
		L136.2,35.2c0-0.4-0.1-0.9-0.4-1.2c-0.2-0.3-0.6-0.5-1-0.5c-0.4,0-0.8,0.2-1,0.5c-0.3,0.4-0.4,0.8-0.4,1.2l0,0H136.2z"/>
	<path class="st0" d="M139.3,39.1c-0.1-0.1-0.1-0.1-0.1-0.2v-8.6c0-0.1,0-0.2,0.1-0.2c0.1-0.1,0.1-0.1,0.2-0.1h1.1
		c0.1,0,0.2,0,0.2,0.1c0.1,0.1,0.1,0.1,0.1,0.2v8.6c0,0.2-0.1,0.3-0.3,0.3c0,0,0,0,0,0h-1.1C139.4,39.2,139.3,39.2,139.3,39.1z"/>
	<path class="st0" d="M143,38.5c-0.6-0.6-0.9-1.3-0.9-2.2v-1.1c0-0.8,0.3-1.6,0.9-2.2c1.4-1.1,3.3-1.1,4.7,0
		c0.6,0.6,0.9,1.3,0.9,2.2c0,0.1,0,0.3,0,0.6s0,0.5,0,0.6c0,0.8-0.3,1.6-0.9,2.2C146.3,39.6,144.4,39.6,143,38.5L143,38.5z
		 M146.4,37.5c0.3-0.4,0.4-0.8,0.4-1.3c0-0.1,0-0.3,0-0.5s0-0.4,0-0.5c0-0.5-0.1-0.9-0.4-1.3c-0.3-0.3-0.7-0.5-1.1-0.4
		c-0.4,0-0.8,0.1-1.1,0.4c-0.3,0.4-0.4,0.8-0.4,1.3v0.5v0.5c0,0.5,0.1,0.9,0.4,1.3C144.9,38.1,145.8,38.1,146.4,37.5z"/>
	<path class="st0" d="M149.9,41.6c-0.1-0.1-0.1-0.1-0.1-0.2v-8.6c0-0.1,0-0.2,0.1-0.2c0.1-0.1,0.1-0.1,0.2-0.1h1
		c0.1,0,0.2,0,0.2,0.1c0.1,0.1,0.1,0.1,0.1,0.2v0.5c0.5-0.7,1.3-1,2.1-1c0.8,0,1.5,0.3,2,0.8c0.5,0.6,0.8,1.4,0.8,2.2
		c0,0.1,0,0.3,0,0.5s0,0.4,0,0.5c0,0.8-0.3,1.6-0.8,2.2c-0.5,0.6-1.2,0.9-2,0.8c-0.8,0-1.5-0.3-2-0.9v3c0,0.1,0,0.2-0.1,0.2
		c-0.1,0.1-0.1,0.1-0.2,0.1h-1.1C150,41.6,150,41.6,149.9,41.6z M154.6,36.2c0-0.1,0-0.2,0-0.4s0-0.3,0-0.4
		c-0.1-1.1-0.6-1.7-1.5-1.7c-0.4,0-0.8,0.1-1.1,0.5c-0.2,0.3-0.4,0.7-0.4,1.2c0,0.1,0,0.3,0,0.5s0,0.4,0,0.5c0,0.4,0.1,0.8,0.4,1.1
		c0.3,0.3,0.7,0.5,1.1,0.5C154,37.9,154.5,37.3,154.6,36.2z"/>
	<path class="st0" d="M158.1,38.5c-0.6-0.6-0.9-1.5-0.9-2.4v-0.3c-0.1-0.9,0.3-1.8,0.9-2.6c1.3-1.3,3.4-1.3,4.7,0
		c0.6,0.7,0.9,1.6,0.8,2.5V36c0,0.1,0,0.2-0.1,0.2c-0.1,0.1-0.2,0.1-0.2,0.1H159v0.1c0,0.4,0.1,0.9,0.4,1.2c0.2,0.3,0.6,0.5,1,0.5
		c0.5,0,0.9-0.2,1.2-0.6c0.1-0.1,0.1-0.1,0.2-0.2c0.1,0,0.1,0,0.2,0h1.2c0.1,0,0.1,0,0.2,0.1c0.1,0,0.1,0.1,0.1,0.2
		c0,0.3-0.2,0.5-0.4,0.7c-0.3,0.3-0.7,0.6-1.1,0.7c-0.5,0.2-1.1,0.3-1.6,0.3C159.6,39.4,158.8,39.1,158.1,38.5z M161.9,35.2
		L161.9,35.2c0-0.4-0.1-0.9-0.4-1.2c-0.2-0.3-0.6-0.5-1-0.5c-0.4,0-0.8,0.2-1,0.5c-0.3,0.4-0.4,0.8-0.4,1.2l0,0H161.9z"/>
	<path class="st0" d="M164.9,39.1c-0.1-0.1-0.1-0.1-0.1-0.2v-6.1c0-0.1,0-0.2,0.1-0.2c0.1-0.1,0.1-0.1,0.2-0.1h1.1
		c0.1,0,0.2,0,0.2,0.1c0.1,0.1,0.1,0.2,0.1,0.2v0.5c0.4-0.6,1.1-0.9,1.9-0.9h0.6c0.2,0,0.3,0.1,0.3,0.2c0,0,0,0,0,0.1v1
		c0,0.1,0,0.2-0.1,0.2c-0.1,0.1-0.1,0.1-0.2,0.1h-1c-0.4,0-0.7,0.1-1,0.3c-0.2,0.3-0.4,0.6-0.4,1V39c0,0.2-0.1,0.3-0.3,0.3h-1.2
		C165,39.3,164.9,39.2,164.9,39.1z"/>
</g>
</svg>
