<svg width="1838" height="476" viewBox="0 0 1838 476" fill="none" xmlns="http://www.w3.org/2000/svg">
<mask id="mask0_1702_1637" style="mask-type:alpha" maskUnits="userSpaceOnUse" x="0" y="0" width="1838" height="476">
<rect width="1838" height="476" fill="#D9D9D9"/>
</mask>
<g mask="url(#mask0_1702_1637)">
<path d="M-0.195312 9.72269V898.207C-0.195312 903.729 4.28184 908.207 9.80469 908.207L659.278 908.206C662.288 908.206 665.138 906.85 667.037 904.514L737.253 818.138C739.152 815.802 742.002 814.446 745.013 814.446L1828.12 814.446C1833.64 814.446 1838.12 809.969 1838.12 804.446V125.797C1838.12 120.274 1833.64 115.797 1828.12 115.797L1441.21 115.797C1439.27 115.797 1437.38 115.236 1435.75 114.181L1262.2 1.33889C1260.58 0.284096 1258.68 -0.277344 1256.75 -0.277344L9.80469 -0.27733C4.28184 -0.27733 -0.195312 4.19984 -0.195312 9.72269Z" fill="#101010"/>
</g>
</svg>
