<svg width="23" height="19" viewBox="0 0 23 19" fill="none" xmlns="http://www.w3.org/2000/svg">
<path d="M0.0625 16.259C2.54605 16.4128 4.7936 15.8591 6.83258 14.4186C4.69206 14.2366 3.28152 13.2266 2.49392 11.3759C3.19096 11.3759 3.84134 11.3759 4.49173 11.3759C4.49996 11.3452 4.5082 11.3144 4.51369 11.2836C3.46264 11.0324 2.58721 10.5249 1.91761 9.73541C1.24802 8.94592 0.90498 8.04364 0.891259 6.98243C1.54714 7.26952 2.19204 7.48484 2.91926 7.49253C0.943402 5.87252 0.334174 3.99106 1.54713 1.68153C4.07734 4.44477 7.225 5.993 11.0587 6.2237C11.0587 5.74436 11.0258 5.29835 11.0642 4.85746C11.2591 2.58381 13.331 0.845898 15.7734 0.889474C17.0028 0.912543 18.0593 1.3278 18.9485 2.11729C19.0692 2.22495 19.168 2.25571 19.3354 2.21726C20.2026 2.01733 21.0313 1.73536 21.8134 1.33549C21.8683 1.30729 21.926 1.28678 22.0522 1.23296C21.6872 2.25315 21.0451 2.99907 20.1614 3.60657C20.4331 3.55787 20.7048 3.51429 20.9737 3.45534C21.2509 3.39382 21.528 3.32204 21.7997 3.24002C22.0687 3.16056 22.3321 3.06571 22.6614 2.95549C22.2608 3.55018 21.8162 4.02951 21.3195 4.46527C21.0697 4.68315 20.8118 4.89334 20.5374 5.08559C20.3837 5.19069 20.3398 5.29835 20.3453 5.47265C20.5099 10.2763 17.505 15.0209 12.8891 16.9819C8.59439 18.8095 4.34354 18.5814 0.238134 16.3692C0.180505 16.3385 0.122874 16.2975 0.0625 16.259Z" fill="white"/>
</svg>
