<svg width="20" height="15" viewBox="0 0 20 15" fill="none" xmlns="http://www.w3.org/2000/svg">
<path d="M10.094 0.945312C11.9036 1.00015 13.6858 1.05499 15.4954 1.13724C16.0438 1.16466 16.5922 1.2195 17.1406 1.32917C18.2921 1.5211 19.005 2.23398 19.2244 3.38556C19.526 5.0581 19.5808 6.73063 19.526 8.40316C19.4985 9.28055 19.4163 10.1579 19.334 11.0079C19.3066 11.3918 19.2244 11.7756 19.1147 12.1595C18.8405 13.1192 18.0454 13.7224 17.0035 13.8595C15.1116 14.1062 13.2197 14.1062 11.3004 14.1336C9.10691 14.1611 6.91343 14.1062 4.74736 13.9965C4.19899 13.9691 3.6232 13.8869 3.07483 13.8046C1.95067 13.6401 1.21037 12.9546 1.01844 11.8305C0.881346 11.0353 0.771671 10.2128 0.744253 9.39023C0.689416 8.15639 0.689416 6.92256 0.744253 5.71614C0.771671 4.86617 0.881346 3.98877 1.04586 3.16622C1.29262 2.12431 2.1426 1.41143 3.21192 1.27434C5.04897 1.05499 6.91343 1.02757 8.77789 1.00015C9.21659 1.00015 9.65528 1.00015 10.1214 1.00015C10.094 0.972731 10.094 0.972731 10.094 0.945312ZM8.25694 4.75649C8.25694 6.64837 8.25694 8.48542 8.25694 10.3773C9.87463 9.44507 11.4923 8.51283 13.1374 7.5806C11.4923 6.62095 9.90205 5.71614 8.25694 4.75649Z" fill="white"/>
</svg>
