<svg width="103" height="119" viewBox="0 0 103 119" fill="none" xmlns="http://www.w3.org/2000/svg">
<path d="M97.5317 91.8703C100.559 90.1222 102.424 86.8918 102.424 83.3959V35.5753C102.424 32.079 100.559 28.8483 97.5307 27.1003L56.116 3.19327C53.0886 1.44566 49.3589 1.44566 46.3315 3.19327L4.91685 27.1003C1.88883 28.8483 0.0234375 32.079 0.0234375 35.5753V83.3959C0.0234375 86.8918 1.88838 90.1222 4.91584 91.8703L46.3305 115.784C49.3584 117.532 53.0891 117.532 56.1171 115.784L97.5317 91.8703Z" fill="url(#paint0_linear_1702_1694)"/>
<path d="M37.4496 71.4824V46.9032H41.7056V71.9773H33.2266L23.4279 47.398V71.9773H19.1719V46.9032H27.6509L37.4496 71.4824Z" fill="white"/>
<path d="M49.7367 71.9773H45.2827L56.3681 46.9032H60.7891L49.7367 71.9773Z" fill="white"/>
<path d="M67.9054 71.4164L67.8724 71.5484C66.4207 70.8886 65.233 69.9648 64.3092 68.7441C63.3854 67.5233 62.8245 66.1047 62.5936 64.4551H67.0146C67.2125 65.9397 67.8394 67.0615 68.8951 67.8533C69.9509 68.6451 71.2706 69.041 72.8542 69.041C74.1409 69.041 75.2626 68.876 76.1864 68.5461C77.1102 68.2162 77.836 67.7543 78.3309 67.1604C78.8258 66.5666 79.0567 65.8737 79.0567 65.1149C79.0567 64.3561 78.8588 63.7292 78.4629 63.2673C78.067 62.8055 77.5061 62.4425 76.7473 62.1786C75.9885 61.9147 74.9327 61.6177 73.547 61.3208L70.1818 60.595C68.0373 60.1331 66.3547 59.3413 65.134 58.2195C63.9133 57.0978 63.3194 55.6131 63.3194 53.7656C63.3194 52.4129 63.7483 51.1922 64.5731 50.1034C65.3979 49.0147 66.5197 48.1569 67.9383 47.53C69.357 46.9032 70.9406 46.5732 72.6892 46.5732C74.5698 46.5732 76.2194 46.8702 77.6381 47.464C79.0567 48.0579 80.1785 48.8827 81.0363 49.9385C81.8941 50.9942 82.455 52.2149 82.6859 53.6006H78.2649C77.902 52.3799 77.2422 51.4891 76.2854 50.9282C75.3286 50.3674 74.1409 50.0704 72.7222 50.0704C71.7655 50.0704 70.9077 50.2024 70.1158 50.4663C69.324 50.7303 68.6972 51.1262 68.2353 51.6211C67.7734 52.1159 67.5424 52.7098 67.5424 53.3697C67.5424 54.0625 67.7074 54.6234 68.0373 55.0523C68.3672 55.4812 68.8951 55.8441 69.621 56.141C70.3468 56.4379 71.3695 56.7349 72.6892 57.0318L76.0215 57.7576C77.7041 58.1205 79.0567 58.5824 80.1125 59.1763C81.1683 59.7702 81.9601 60.496 82.4879 61.3868C83.0158 62.2776 83.2798 63.3663 83.2798 64.653C83.2798 66.2037 82.8509 67.5563 81.9931 68.7441C81.1353 69.9318 79.9145 70.8226 78.3309 71.4494C76.7473 72.0763 74.8997 72.4062 72.8212 72.4062C71.0066 72.4062 69.357 72.0763 67.9054 71.4164Z" fill="white"/>
<defs>
<linearGradient id="paint0_linear_1702_1694" x1="42.2671" y1="-19.5583" x2="186.33" y2="12.0489" gradientUnits="userSpaceOnUse">
<stop stop-color="#B58153"/>
<stop offset="1" stop-color="#FFEBBF"/>
</linearGradient>
</defs>
</svg>
