<svg width="19" height="19" viewBox="0 0 19 19" fill="none" xmlns="http://www.w3.org/2000/svg">
<path d="M18.4056 7.50362C18.4056 6.6878 18.4056 5.87198 18.4056 5.05874C18.4031 3.03077 17.1571 1.31421 15.2277 0.686262C14.9723 0.603908 14.6989 0.567878 14.4332 0.508686C14.3945 0.500965 14.3584 0.48295 14.3197 0.472656C10.9792 0.472656 7.63871 0.472656 4.30081 0.472656C4.16926 0.498392 4.03771 0.521554 3.90616 0.549863C2.4771 0.861264 1.40917 1.65392 0.717854 2.94327C0.462482 3.41938 0.310304 3.93152 0.248395 4.46939C0.245816 4.49513 0.225162 4.52087 0.214844 4.5466C0.214844 7.87936 0.214844 11.2121 0.214844 14.5423C0.240639 14.6736 0.263863 14.8048 0.292238 14.9361C0.60178 16.3567 1.39369 17.4221 2.68087 18.1093C3.36187 18.4721 4.09444 18.6214 4.86572 18.6188C7.83217 18.6137 10.7986 18.6291 13.7651 18.6111C15.7513 18.6008 17.1726 17.6589 18.0264 15.878C18.305 15.2964 18.4082 14.6684 18.4056 14.0224C18.4056 11.8504 18.4056 9.67828 18.4056 7.50362ZM16.8785 14.1949C16.8734 15.6078 15.7178 16.8817 14.3145 17.0618C14.1804 17.0798 14.0437 17.0953 13.9095 17.0953C10.8141 17.0953 7.71609 17.103 4.62067 17.0901C3.23546 17.085 1.94572 15.9063 1.77805 14.5346C1.75483 14.3416 1.74192 14.146 1.74192 13.953C1.73934 12.4809 1.73935 11.0114 1.73935 9.53931H1.74192C1.74192 7.97973 1.73161 6.42015 1.74451 4.86058C1.75483 3.47857 2.92335 2.19437 4.30081 2.01937C4.43495 2.00135 4.57165 1.98591 4.70579 1.98591C7.80121 1.98334 10.8992 1.97819 13.9946 1.98848C15.3927 1.99363 16.6722 3.15945 16.8476 4.55175C16.8631 4.68043 16.8811 4.8091 16.8811 4.93778C16.8837 8.02863 16.8889 11.1118 16.8785 14.1949Z" fill="white"/>
<path d="M9.31025 5.00727C6.7978 5.00727 4.76255 7.03781 4.76255 9.54445C4.76255 12.0511 6.7978 14.0816 9.31025 14.0816C11.8201 14.0816 13.8579 12.0485 13.8579 9.54445C13.8579 7.03781 11.8227 5.00727 9.31025 5.00727ZM9.31798 12.5607C7.63871 12.5632 6.28189 11.2147 6.28447 9.53673C6.28705 7.86907 7.63614 6.5231 9.31025 6.52567C10.9844 6.52567 12.3308 7.87164 12.3334 9.53931C12.3386 11.2095 10.9921 12.5581 9.31798 12.5607Z" fill="white"/>
<path d="M14.2449 3.48887C13.6232 3.48372 13.1047 3.99843 13.1047 4.62638C13.1021 5.2569 13.6103 5.76132 14.2423 5.75875C14.8717 5.75617 15.3902 5.23889 15.3824 4.61866C15.3721 4.00615 14.8614 3.49659 14.2449 3.48887Z" fill="white"/>
</svg>
