<svg width="19" height="19" viewBox="0 0 19 19" fill="none" xmlns="http://www.w3.org/2000/svg">
<path d="M10.5037 18.6056C9.25915 18.6056 8.01464 18.6056 6.77013 18.6056C6.77013 14.5849 6.77013 10.5642 6.77013 6.51154C7.95082 6.51154 9.16341 6.51154 10.376 6.51154C10.376 7.05402 10.376 7.56459 10.376 8.10707C10.4079 8.07516 10.4398 8.07516 10.4398 8.07516C11.2695 6.76683 12.514 6.22435 14.0138 6.19244C14.9073 6.19244 15.737 6.32008 16.5347 6.76683C17.4282 7.2774 17.9069 8.07516 18.1622 9.03247C18.3855 9.79832 18.4494 10.5961 18.4813 11.3619C18.5132 13.6914 18.4813 16.0528 18.4813 18.3822C18.4813 18.4141 18.4813 18.4461 18.4813 18.5099C17.2368 18.5099 15.9923 18.5099 14.7158 18.5099C14.7158 18.4141 14.7158 18.3503 14.7158 18.2546C14.7158 16.4038 14.7158 14.5849 14.7158 12.7341C14.7158 12.0959 14.6839 11.4896 14.5563 10.8833C14.3329 9.76641 13.5671 9.35157 12.4821 9.47922C11.3652 9.60686 10.7589 10.2132 10.5994 11.3938C10.5356 11.8087 10.5037 12.2235 10.5037 12.6384C10.5037 14.5211 10.5037 16.4038 10.5037 18.2865C10.5037 18.4141 10.5037 18.5099 10.5037 18.6056Z" fill="white"/>
<path d="M0.643323 18.6056C0.643323 14.5849 0.643323 10.5642 0.643323 6.51154C1.88783 6.51154 3.13234 6.51154 4.37685 6.51154C4.37685 10.5323 4.37685 14.553 4.37685 18.6056C3.13234 18.6056 1.88783 18.6056 0.643323 18.6056Z" fill="white"/>
<path d="M2.49413 4.8522C1.31344 4.8522 0.324219 3.86298 0.324219 2.65038C0.324219 1.46969 1.31344 0.480469 2.52604 0.480469C3.70673 0.480469 4.72786 1.46969 4.69595 2.68229C4.66404 3.86298 3.70673 4.8522 2.49413 4.8522Z" fill="white"/>
</svg>
