<svg width="11" height="21" viewBox="0 0 11 21" fill="none" xmlns="http://www.w3.org/2000/svg">
<path d="M3.23277 20.351C4.53115 20.351 5.80499 20.351 7.10338 20.351C7.10338 17.3725 7.10338 14.4069 7.10338 11.4182C8.18082 11.4182 9.23645 11.4182 10.3084 11.4182C10.4694 10.2462 10.6303 9.09206 10.794 7.90986C9.55013 7.90986 8.33085 7.90986 7.10611 7.90986C7.10611 7.04105 7.0761 6.19771 7.11429 5.35692C7.15248 4.50849 7.65165 4.06771 8.55997 4.03204C9.26918 4.00402 9.98111 4.00657 10.693 3.99637C10.764 3.99637 10.8376 3.99637 10.9058 3.99637C10.9058 2.93902 10.9058 1.90715 10.9058 0.872722C10.6739 0.854887 10.4557 0.837052 10.2375 0.819217C9.89109 0.793739 9.54467 0.765713 9.19825 0.740234C8.62271 0.740234 8.04989 0.740234 7.47435 0.740234C7.40888 0.752974 7.34615 0.773356 7.27795 0.781C6.35599 0.885461 5.5104 1.16318 4.79574 1.73389C3.75103 2.56704 3.31733 3.67535 3.25459 4.91615C3.20822 5.83337 3.23277 6.75569 3.22731 7.67546C3.22731 7.74934 3.22731 7.82578 3.22731 7.92515C2.13896 7.92515 1.07788 7.92515 0.0195312 7.92515C0.0195312 9.10225 0.0195312 10.2539 0.0195312 11.4284C1.09152 11.4284 2.14714 11.4284 3.22731 11.4284C3.23277 14.4119 3.23277 17.3776 3.23277 20.351Z" fill="white"/>
</svg>
