<svg width="165" height="25" viewBox="0 0 165 25" fill="none" xmlns="http://www.w3.org/2000/svg">
<path d="M12.377 0.697871C12.6259 0.176231 13.3684 0.17623 13.6173 0.697871L16.8641 7.50197C16.9643 7.7119 17.1639 7.8569 17.3945 7.8873L24.8689 8.87257C25.4419 8.9481 25.6713 9.65428 25.2521 10.0522L19.7844 15.2426C19.6157 15.4028 19.5394 15.6374 19.5818 15.8661L20.9544 23.2791C21.0597 23.8475 20.459 24.2839 19.951 24.0082L13.325 20.412C13.1205 20.301 12.8738 20.301 12.6694 20.412L6.04336 24.0082C5.53537 24.2839 4.93466 23.8475 5.0399 23.2791L6.41257 15.8661C6.45492 15.6374 6.37869 15.4028 6.20998 15.2426L0.742207 10.0522C0.323016 9.65428 0.552467 8.9481 1.1255 8.87257L8.59988 7.8873C8.83049 7.8569 9.03007 7.7119 9.13025 7.50197L12.377 0.697871Z" fill="url(#paint0_linear_1030_2015)"/>
<path d="M47.2158 0.697999C47.4647 0.176358 48.2072 0.176357 48.4561 0.697998L51.7029 7.50209C51.8031 7.71203 52.0026 7.85703 52.2333 7.88743L59.7076 8.87269C60.2807 8.94823 60.5101 9.65441 60.0909 10.0523L54.6231 15.2428C54.4544 15.4029 54.3782 15.6375 54.4206 15.8663L55.7932 23.2793C55.8985 23.8476 55.2978 24.284 54.7898 24.0083L48.1637 20.4121C47.9593 20.3011 47.7126 20.3011 47.5082 20.4121L40.8821 24.0083C40.3742 24.284 39.7734 23.8476 39.8787 23.2793L41.2514 15.8663C41.2937 15.6375 41.2175 15.4029 41.0488 15.2428L35.581 10.0523C35.1618 9.65441 35.3913 8.94823 35.9643 8.87269L43.4387 7.88743C43.6693 7.85703 43.8689 7.71203 43.969 7.50209L47.2158 0.697999Z" fill="url(#paint1_linear_1030_2015)"/>
<path d="M82.0546 0.697999C82.3035 0.176358 83.046 0.176357 83.2949 0.697998L86.5417 7.50209C86.6418 7.71203 86.8414 7.85703 87.072 7.88743L94.5464 8.87269C95.1194 8.94823 95.3489 9.65441 94.9297 10.0523L89.4619 15.2428C89.2932 15.4029 89.217 15.6375 89.2594 15.8663L90.632 23.2793C90.7373 23.8476 90.1366 24.284 89.6286 24.0083L83.0025 20.4121C82.7981 20.3011 82.5514 20.3011 82.347 20.4121L75.7209 24.0083C75.213 24.284 74.6122 23.8476 74.7175 23.2793L76.0901 15.8663C76.1325 15.6375 76.0563 15.4029 75.8876 15.2428L70.4198 10.0523C70.0006 9.65441 70.23 8.94823 70.8031 8.87269L78.2774 7.88743C78.5081 7.85703 78.7076 7.71203 78.8078 7.50209L82.0546 0.697999Z" fill="url(#paint2_linear_1030_2015)"/>
<path d="M116.893 0.697999C117.142 0.176358 117.885 0.176357 118.134 0.697998L121.381 7.50209C121.481 7.71203 121.68 7.85703 121.911 7.88743L129.385 8.87269C129.958 8.94823 130.188 9.65441 129.769 10.0523L124.301 15.2428C124.132 15.4029 124.056 15.6375 124.098 15.8663L125.471 23.2793C125.576 23.8476 124.975 24.284 124.467 24.0083L117.841 20.4121C117.637 20.3011 117.39 20.3011 117.186 20.4121L110.56 24.0083C110.052 24.284 109.451 23.8476 109.556 23.2793L110.929 15.8663C110.971 15.6375 110.895 15.4029 110.726 15.2428L105.259 10.0523C104.839 9.65441 105.069 8.94823 105.642 8.87269L113.116 7.88743C113.347 7.85703 113.547 7.71203 113.647 7.50209L116.893 0.697999Z" fill="url(#paint3_linear_1030_2015)"/>
<path d="M151.732 0.697999C151.981 0.176358 152.724 0.176357 152.973 0.697998L156.219 7.50209C156.32 7.71203 156.519 7.85703 156.75 7.88743L164.224 8.87269C164.797 8.94823 165.027 9.65441 164.607 10.0523L159.14 15.2428C158.971 15.4029 158.895 15.6375 158.937 15.8663L160.31 23.2793C160.415 23.8476 159.814 24.284 159.306 24.0083L152.68 20.4121C152.476 20.3011 152.229 20.3011 152.025 20.4121L145.399 24.0083C144.891 24.284 144.29 23.8476 144.395 23.2793L145.768 15.8663C145.81 15.6375 145.734 15.4029 145.565 15.2428L140.097 10.0523C139.678 9.65441 139.908 8.94823 140.481 8.87269L147.955 7.88743C148.186 7.85703 148.385 7.71203 148.486 7.50209L151.732 0.697999Z" fill="url(#paint4_linear_1030_2015)"/>
<defs>
<linearGradient id="paint0_linear_1030_2015" x1="111.881" y1="38.6535" x2="68.5158" y2="7.59336" gradientUnits="userSpaceOnUse">
<stop stop-color="#B58153"/>
<stop offset="1" stop-color="#FFEBBF"/>
</linearGradient>
<linearGradient id="paint1_linear_1030_2015" x1="111.881" y1="38.6535" x2="68.5158" y2="7.59336" gradientUnits="userSpaceOnUse">
<stop stop-color="#B58153"/>
<stop offset="1" stop-color="#FFEBBF"/>
</linearGradient>
<linearGradient id="paint2_linear_1030_2015" x1="111.881" y1="38.6535" x2="68.5158" y2="7.59336" gradientUnits="userSpaceOnUse">
<stop stop-color="#B58153"/>
<stop offset="1" stop-color="#FFEBBF"/>
</linearGradient>
<linearGradient id="paint3_linear_1030_2015" x1="111.881" y1="38.6535" x2="68.5158" y2="7.59336" gradientUnits="userSpaceOnUse">
<stop stop-color="#B58153"/>
<stop offset="1" stop-color="#FFEBBF"/>
</linearGradient>
<linearGradient id="paint4_linear_1030_2015" x1="111.881" y1="38.6535" x2="68.5158" y2="7.59336" gradientUnits="userSpaceOnUse">
<stop stop-color="#B58153"/>
<stop offset="1" stop-color="#FFEBBF"/>
</linearGradient>
</defs>
</svg>
