<svg width="249" height="37" viewBox="0 0 249 37" fill="none" xmlns="http://www.w3.org/2000/svg">
<path d="M22.6918 6.42485H7.19715V14.9225H20.7159V21.1613H7.19715V29.9817H22.6918V36.2205H0.59375V0.186035H22.6918V6.42485Z" fill="white"/>
<path d="M28.6996 36.2205V0.186035H36.4989L48.8738 24.9799H49.3938L49.0818 22.5059V0.186035H55.6852V36.2205H47.8859L35.511 11.4267H34.9911L35.3031 13.9007V36.2205H28.6996Z" fill="white"/>
<path d="M63.1526 36.2205V0.186035H71.8878L80.2071 19.7092H80.675L88.8903 0.186035H97.4175V36.2205H90.8141V13.4166L91.1261 10.9426H90.6061L82.7549 28.7447H77.8153L69.964 10.9426H69.4441L69.756 13.4166V36.2205H63.1526Z" fill="white"/>
<path d="M112.723 12.4123C110.049 12.4123 108.295 10.7387 108.295 8.20182V4.39653C108.295 1.85966 110.049 0.186039 112.723 0.186039C115.38 0.186039 117.134 1.85966 117.134 4.39653V4.83696H114.988V4.44938C114.988 3.11048 114.086 2.24724 112.723 2.24724C111.344 2.24724 110.441 3.11048 110.441 4.44938V8.14897C110.441 9.48787 111.344 10.3511 112.723 10.3511C114.086 10.3511 114.988 9.48787 114.988 8.14897V7.7614H117.134V8.20182C117.134 10.7387 115.38 12.4123 112.723 12.4123Z" fill="white"/>
<path d="M123.262 12.4123C120.537 12.4123 118.749 10.7035 118.749 8.11374V4.48461C118.749 1.8949 120.537 0.186039 123.262 0.186039C125.97 0.186039 127.758 1.8949 127.758 4.48461V8.11374C127.758 10.7035 125.97 12.4123 123.262 12.4123ZM123.262 10.3511C124.676 10.3511 125.612 9.45264 125.612 8.06089V4.53746C125.612 3.14571 124.676 2.24724 123.262 2.24724C121.831 2.24724 120.895 3.14571 120.895 4.53746V8.06089C120.895 9.45264 121.831 10.3511 123.262 10.3511Z" fill="white"/>
<path d="M134.017 12.4123C131.394 12.4123 129.657 10.7739 129.657 8.28991V0.397445H131.82V8.23706C131.82 9.52311 132.688 10.3511 134.017 10.3511C135.311 10.3511 136.18 9.52311 136.18 8.23706V0.397445H138.343V8.28991C138.343 10.7739 136.623 12.4123 134.017 12.4123Z" fill="white"/>
<path d="M140.63 12.2009V0.397445H143.185L147.238 8.51893H147.409L147.306 7.70854V0.397445H149.47V12.2009H146.915L142.861 4.07942H142.691L142.793 4.88981V12.2009H140.63Z" fill="white"/>
<path d="M159.512 0.397445V2.45865H156.395V12.2009H154.249V2.45865H151.132V0.397445H159.512Z" fill="white"/>
<path d="M161.172 12.2009V0.397445H163.335V12.2009H161.172Z" fill="white"/>
<path d="M165.788 12.2009V0.397445H168.342L172.396 8.51893H172.566L172.464 7.70854V0.397445H174.627V12.2009H172.072L168.019 4.07942H167.848L167.951 4.88981V12.2009H165.788Z" fill="white"/>
<path d="M185.521 4.50223H183.375V4.34368C183.375 3.07525 182.472 2.24724 181.11 2.24724C179.73 2.24724 178.827 3.11048 178.827 4.44938V8.25467C178.827 9.59357 179.73 10.4568 181.11 10.4568C182.472 10.4568 183.375 9.62881 183.375 8.36038V7.72616H181.331V5.94683H185.521V8.30752C185.521 10.7915 183.766 12.4123 181.11 12.4123C178.436 12.4123 176.681 10.7387 176.681 8.20182V4.39653C176.681 1.85966 178.436 0.186039 181.11 0.186039C183.766 0.186039 185.521 1.80681 185.521 4.29083V4.50223Z" fill="white"/>
<path d="M194.757 12.4123C192.134 12.4123 190.431 10.9853 190.431 8.88889V8.67748H192.73V8.92412C192.73 9.89306 193.581 10.5449 194.757 10.5449C195.83 10.5449 196.732 10.0164 196.732 9.13553C196.732 6.72199 190.55 7.81425 190.55 3.55091C190.55 1.45447 192.253 0.186039 194.688 0.186039C197.192 0.186039 198.793 1.52494 198.793 3.49806V3.70946H196.528V3.51567C196.528 2.65243 195.744 2.05345 194.654 2.05345C193.667 2.05345 192.849 2.52911 192.849 3.37474C192.849 5.75305 199.014 4.55508 199.014 8.88889C199.014 11.0382 197.328 12.4123 194.757 12.4123Z" fill="white"/>
<path d="M202.958 12.2009V7.47952L199.229 0.397445H201.715L203.997 5.04836H204.151L206.416 0.397445H208.834L205.104 7.44429V12.2009H202.958Z" fill="white"/>
<path d="M213.369 12.4123C210.746 12.4123 209.043 10.9853 209.043 8.88889V8.67748H211.342V8.92412C211.342 9.89306 212.194 10.5449 213.369 10.5449C214.442 10.5449 215.345 10.0164 215.345 9.13553C215.345 6.72199 209.162 7.81425 209.162 3.55091C209.162 1.45447 210.865 0.186039 213.301 0.186039C215.804 0.186039 217.405 1.52494 217.405 3.49806V3.70946H215.14V3.51567C215.14 2.65243 214.357 2.05345 213.267 2.05345C212.279 2.05345 211.461 2.52911 211.461 3.37474C211.461 5.75305 217.627 4.55508 217.627 8.88889C217.627 11.0382 215.941 12.4123 213.369 12.4123Z" fill="white"/>
<path d="M226.909 0.397445V2.45865H223.792V12.2009H221.646V2.45865H218.529V0.397445H226.909Z" fill="white"/>
<path d="M235.807 2.44103H230.732V5.22453H235.16V7.26812H230.732V10.1573H235.807V12.2009H228.569V0.397445H235.807V2.44103Z" fill="white"/>
<path d="M237.775 12.2009V0.397445H240.637L243.362 6.79245H243.515L246.206 0.397445H248.999V12.2009H246.836V4.73125L246.938 3.92087H246.768L244.196 9.75213H242.578L240.006 3.92087H239.836L239.938 4.73125V12.2009H237.775Z" fill="white"/>
<path d="M112.927 24.4208C115.601 24.4208 117.373 26.112 117.373 28.7017V31.9433C117.373 34.533 115.601 36.2242 112.927 36.2242H108.687V24.4208H112.927ZM115.21 31.8728V28.7722C115.21 27.3628 114.307 26.482 112.876 26.482H110.85V34.163H112.876C114.307 34.163 115.21 33.2822 115.21 31.8728Z" fill="white"/>
<path d="M126.662 26.4644H121.586V29.2479H126.014V31.2914H121.586V34.1806H126.662V36.2242H119.423V24.4208H126.662V26.4644Z" fill="white"/>
<path d="M132.291 36.4356C129.668 36.4356 127.965 35.0086 127.965 32.9122V32.7008H130.265V32.9475C130.265 33.9164 131.116 34.5682 132.291 34.5682C133.364 34.5682 134.267 34.0397 134.267 33.1589C134.267 30.7453 128.085 31.8376 128.085 27.5742C128.085 25.4778 129.788 24.2094 132.223 24.2094C134.727 24.2094 136.328 25.5483 136.328 27.5214V27.7328H134.063V27.539C134.063 26.6758 133.279 26.0768 132.189 26.0768C131.201 26.0768 130.384 26.5524 130.384 27.3981C130.384 29.7764 136.549 28.5784 136.549 32.9122C136.549 35.0615 134.863 36.4356 132.291 36.4356Z" fill="white"/>
<path d="M138.335 36.2242V24.4208H140.498V36.2242H138.335Z" fill="white"/>
<path d="M151.398 28.5256H149.252V28.367C149.252 27.0986 148.35 26.2706 146.987 26.2706C145.608 26.2706 144.705 27.1338 144.705 28.4727V32.278C144.705 33.6169 145.608 34.4801 146.987 34.4801C148.35 34.4801 149.252 33.6521 149.252 32.3837V31.7495H147.209V29.9702H151.398V32.3309C151.398 34.8149 149.644 36.4356 146.987 36.4356C144.313 36.4356 142.559 34.762 142.559 32.2251V28.4199C142.559 25.883 144.313 24.2094 146.987 24.2094C149.644 24.2094 151.398 25.8301 151.398 28.3142V28.5256Z" fill="white"/>
<path d="M153.454 36.2242V24.4208H156.009L160.063 32.5423H160.233L160.131 31.7319V24.4208H162.294V36.2242H159.739L155.685 28.1027H155.515L155.617 28.9131V36.2242H153.454Z" fill="white"/>
<path d="M171.978 26.4644H166.903V29.2479H171.331V31.2914H166.903V34.1806H171.978V36.2242H164.74V24.4208H171.978V26.4644Z" fill="white"/>
<path d="M180.282 36.2242L178.238 32.278H176.109V36.2242H173.946V24.4208H178.868C181.116 24.4208 182.598 25.9358 182.598 28.2965C182.598 30.0759 181.764 31.4324 180.401 31.9961L182.803 36.2242H180.282ZM176.109 26.482V30.2168H178.647C179.754 30.2168 180.452 29.4945 180.452 28.3494C180.452 27.2043 179.754 26.482 178.647 26.482H176.109Z" fill="white"/>
<path d="M188.178 36.4356C185.555 36.4356 183.852 35.0086 183.852 32.9122V32.7008H186.151V32.9475C186.151 33.9164 187.003 34.5682 188.178 34.5682C189.251 34.5682 190.154 34.0397 190.154 33.1589C190.154 30.7453 183.971 31.8376 183.971 27.5742C183.971 25.4778 185.675 24.2094 188.11 24.2094C190.614 24.2094 192.215 25.5483 192.215 27.5214V27.7328H189.949V27.539C189.949 26.6758 189.166 26.0768 188.076 26.0768C187.088 26.0768 186.271 26.5524 186.271 27.3981C186.271 29.7764 192.436 28.5784 192.436 32.9122C192.436 35.0615 190.75 36.4356 188.178 36.4356Z" fill="white"/>
</svg>
