<svg width="203" height="51" viewBox="0 0 203 51" fill="none" xmlns="http://www.w3.org/2000/svg">
<path d="M21.6062 50.8586C19.1885 49.7219 16.9728 48.2505 14.9071 46.5483C7.29067 40.259 2.73233 32.1752 0.909 22.5161C0.407006 19.8792 0.135814 17.225 0.153124 14.5304C0.187745 9.93741 0.164664 5.33868 0.164664 0.745729C0.164664 0.572628 0.164664 0.393757 0.164664 0.186035H42.8168C42.8284 0.266816 42.8515 0.359136 42.8515 0.451457C42.8399 6.17534 42.9034 11.8992 42.7938 17.6231C42.7072 22.268 41.5301 26.6994 39.6606 30.9461C37.0756 36.8143 33.2155 41.7188 28.3802 45.8963C26.2568 47.7312 23.9834 49.3641 21.6004 50.8643L21.6062 50.8586ZM21.4273 38.4991C22.1601 38.4183 22.8005 38.3029 23.441 38.2972C24.5431 38.2856 25.6452 38.3433 26.7473 38.3549C27.0185 38.3549 27.2896 38.326 27.5493 38.2568C28.0513 38.1241 28.2013 37.8933 28.2013 37.374C28.2013 36.6527 28.1955 35.9372 28.2013 35.216C28.2244 32.4579 28.2475 29.6998 28.2763 26.9417C28.2763 26.4167 28.0975 26.307 27.5955 26.4974C27.2031 26.6475 26.7992 26.8321 26.3953 26.8494C25.4721 26.884 24.5489 26.8321 23.6257 26.809C23.1525 26.7975 22.6794 26.7513 22.2005 26.7513C21.8716 26.7513 21.5023 26.9013 21.4677 27.2302C21.4042 27.888 21.335 28.5804 21.4907 29.2094C21.8312 30.5711 22.3274 31.8982 22.7255 33.2484C22.9102 33.8716 22.9679 34.5466 23.718 34.8178C23.366 35.1237 22.6736 35.1525 22.2062 34.9159C22.3447 34.2928 22.2812 33.7215 21.837 33.2253C21.4273 33.3753 21.2946 33.6004 21.3061 34.0273C21.3523 35.3833 21.3407 36.7393 21.358 38.101C21.358 38.2683 21.41 38.4357 21.4215 38.4991H21.4273ZM19.2058 34.9044L19.1654 34.8005C19.9444 34.362 19.9444 33.5427 20.1694 32.8445C20.354 32.279 20.4868 31.6962 20.6426 31.1192C20.8272 30.4153 21.0465 29.7287 20.9426 28.9728C20.8676 28.465 20.9426 27.9399 20.9253 27.4264C20.9137 26.9994 20.6656 26.6878 20.2675 26.6821C19.402 26.6705 18.5307 26.7225 17.6652 26.7109C16.7593 26.6936 15.8246 26.8956 14.9533 26.457C14.6244 26.2955 14.4686 26.4397 14.4744 26.8206C14.4975 27.813 14.509 28.7997 14.5148 29.7921C14.5148 30.5538 14.4917 31.3154 14.4859 32.0713C14.4744 33.8081 14.4686 35.5506 14.4513 37.2874C14.4455 38.0029 14.6129 38.2106 15.3283 38.2568C16.0727 38.3029 16.8228 38.3318 17.5671 38.3607C18.5711 38.3953 19.5693 38.4126 20.5733 38.453C20.8445 38.4645 20.9368 38.3491 20.9426 38.101C20.9599 36.5835 20.9888 35.0602 20.9945 33.5427C20.9945 33.4273 20.856 33.3119 20.7868 33.1965C20.6829 33.2657 20.5098 33.3176 20.481 33.41C20.3829 33.7388 20.2733 34.0793 20.2848 34.4139C20.3021 34.9044 20.1579 35.1006 19.6732 35.0313C19.5174 35.0083 19.3674 34.9506 19.2174 34.9102L19.2058 34.9044ZM34.6118 18.3097C35.2235 18.2174 35.8408 18.1136 36.4525 18.0443C36.7814 18.0097 36.8564 17.8251 36.8621 17.5539C36.9141 13.9245 36.9718 10.2952 37.0237 6.67156C37.0237 6.30805 36.9256 6.26189 36.5736 6.35998C36.1986 6.46384 35.812 6.57347 35.4312 6.58501C34.5368 6.61386 33.6367 6.57347 32.7366 6.59655C32.0269 6.61386 31.8884 6.79274 31.8768 7.47937C31.8364 10.4683 31.8018 13.4629 31.7499 16.4518C31.7383 16.9826 31.6691 17.5077 31.6229 18.0386C31.6056 18.2347 31.6403 18.4425 31.8941 18.3559C32.7885 18.0443 33.6944 18.1655 34.6118 18.3155V18.3097ZM11.4682 12.5974C11.4682 12.5974 11.4336 12.5974 11.4163 12.5974C11.3701 14.363 11.3239 16.1287 11.2835 17.8943C11.2835 18.1136 11.2316 18.3328 11.6067 18.2751C12.2067 18.1886 12.8126 18.102 13.4185 18.1078C14.3128 18.1193 15.2014 18.2405 16.09 17.9924C16.4593 17.8885 16.5285 17.7097 16.5343 17.3923C16.5862 13.8206 16.6381 10.249 16.6901 6.67734C16.6958 6.22727 16.5804 6.1638 16.1535 6.29651C15.8246 6.40037 15.4726 6.49269 15.1322 6.50423C14.4513 6.53308 13.7704 6.50423 13.0953 6.50423C12.7549 6.50423 12.4145 6.52154 12.0856 6.58501C11.5778 6.68311 11.4797 6.81582 11.4797 7.33512C11.4797 9.08921 11.4797 10.8375 11.4797 12.5916L11.4682 12.5974ZM10.7238 18.1828C10.7412 17.9405 10.77 17.7154 10.7758 17.4904C10.8335 14.94 10.8969 12.3839 10.9373 9.83355C10.9489 8.95073 10.92 8.06792 10.8854 7.1851C10.8623 6.61386 10.6142 6.40037 10.0545 6.44076C8.90051 6.52731 7.75227 6.60809 6.62134 6.25035C6.31553 6.15226 6.14243 6.26189 6.13666 6.63117C6.09627 10.1624 6.04434 13.6937 5.99241 17.225C5.98664 17.7097 6.18859 17.9578 6.67904 18.0097C7.08295 18.0501 7.49262 18.0386 7.89652 18.0443C8.80819 18.0674 9.7314 17.9001 10.7181 18.1828H10.7238ZM31.0517 18.0559C31.0633 17.9866 31.1036 17.8078 31.1094 17.6231C31.1729 14.4957 31.2306 11.3684 31.2825 8.24679C31.2883 7.82557 31.2652 7.40436 31.219 6.98315C31.1671 6.53308 30.919 6.32536 30.4689 6.36575C29.2861 6.46961 28.109 6.49846 26.9377 6.23304C26.6607 6.16957 26.4818 6.26766 26.4761 6.61386C26.4357 10.1509 26.3837 13.6822 26.3376 17.2192C26.3318 17.7039 26.5338 17.9578 27.0242 18.0039C27.4281 18.0443 27.8378 18.0386 28.2475 18.0386C29.1591 18.0443 30.0766 18.0501 31.0575 18.0501L31.0517 18.0559ZM29.8977 32.4637C29.8977 32.4637 29.8804 32.4637 29.8746 32.4637C29.8746 32.7637 29.8746 33.0637 29.8746 33.3638C29.8515 35.1987 29.84 37.0335 29.7938 38.8626C29.7938 39.0934 29.69 39.4281 29.5227 39.5204C29.2168 39.6935 28.8302 39.7916 28.4783 39.7974C26.6145 39.8378 24.7508 39.8435 22.8871 39.8666C22.7544 39.8666 22.5986 39.8551 22.489 39.9186C22.3736 39.982 22.3101 40.1321 22.2235 40.2417C22.3447 40.3282 22.4717 40.484 22.5928 40.484C24.1969 40.4609 25.801 40.409 27.405 40.3744C28.1667 40.3571 28.9283 40.3744 29.69 40.3744C30.4112 40.3744 30.5901 40.1551 30.5728 39.4281C30.5613 38.9954 30.642 38.5626 30.6363 38.1298C30.6305 37.7548 30.8094 37.6163 31.144 37.5932C31.4441 37.5702 31.7441 37.5644 32.0384 37.5355C32.3096 37.5067 32.5058 37.3797 32.5115 37.0797C32.5115 36.797 32.3788 36.6123 32.0846 36.5892C31.8307 36.5662 31.571 36.5546 31.3114 36.5489C30.6882 36.5489 30.5209 36.3758 30.5209 35.741C30.5209 34.0677 30.5209 32.3944 30.5209 30.7269C30.5209 30.3057 30.6997 30.0518 31.121 29.9941C31.4037 29.9537 31.698 29.9941 31.9691 29.9133C32.1249 29.8671 32.2923 29.694 32.3557 29.5383C32.3846 29.4632 32.2173 29.244 32.0961 29.1805C31.923 29.094 31.7037 29.0593 31.5075 29.0709C30.5728 29.1343 30.4747 28.5343 30.5613 27.9111C30.5959 27.6688 30.6536 27.4264 30.642 27.1898C30.6074 26.5955 30.4516 26.5032 29.8631 26.584C29.5746 26.6244 29.5746 26.7167 29.6958 26.959C29.8112 27.1956 29.9035 27.4726 29.9035 27.7322C29.9208 29.3074 29.915 30.8884 29.915 32.4637H29.8977ZM24.1796 13.284C24.1796 13.284 24.1334 13.284 24.1103 13.284C24.1103 14.0745 24.0988 14.8593 24.1103 15.6498C24.1219 16.3364 23.9949 16.4749 23.3083 16.5268C23.0314 16.5499 22.7313 16.596 22.489 16.7172C22.1312 16.8961 22.1312 17.2596 22.489 17.4385C22.7198 17.5539 23.0025 17.5943 23.2679 17.6058C23.8218 17.6289 24.1565 17.9347 24.1738 18.4886C24.1854 18.8406 24.1738 19.1926 24.1738 19.5503C24.1738 20.0754 24.3469 20.2542 24.8778 20.2658C25.3798 20.2773 25.8818 20.2658 26.3895 20.2658C27.5608 20.2658 28.7264 20.2658 29.8977 20.2658C30.1054 20.2658 30.3708 20.2658 30.3362 19.9946C30.3247 19.8792 30.0593 19.7811 29.8977 19.6946C29.8458 19.6657 29.765 19.683 29.6958 19.683C28.334 19.6657 26.9781 19.6426 25.6163 19.6311C25.1605 19.6311 24.9297 19.458 24.8547 19.0195C24.8258 18.8464 24.8258 18.6675 24.8258 18.4944C24.8258 15.2632 24.8085 12.0262 24.8258 8.79494C24.8258 8.17755 24.9874 7.56592 25.0682 6.94853C25.0855 6.82736 25.1086 6.61963 25.0682 6.60232C24.947 6.55616 24.7797 6.54462 24.6585 6.58501C24.3931 6.68311 24.2084 6.85044 24.2373 7.19664C24.2661 7.54861 24.2604 7.90635 24.2373 8.25256C24.2027 8.75455 23.9834 8.92765 23.4814 8.96804C23.1871 8.99112 22.8929 9.06036 22.6101 9.14114C22.3851 9.20461 22.1774 9.36618 22.3043 9.61429C22.3793 9.77008 22.5928 9.90279 22.7717 9.94895C23.0833 10.0355 23.4122 10.0355 23.7295 10.1047C24.0526 10.174 24.1911 10.3817 24.1796 10.7279C24.1623 11.5819 24.1738 12.4416 24.1738 13.2956L24.1796 13.284ZM7.10026 20.3235C7.97153 20.3235 8.84281 20.335 9.71409 20.312C9.84103 20.312 9.9622 20.1677 10.0891 20.0927C9.97951 19.9831 9.87565 19.8561 9.74871 19.7696C9.67947 19.7234 9.56407 19.7465 9.46598 19.7407C8.05231 19.7003 6.63865 19.6542 5.21922 19.6311C4.86725 19.6253 4.64222 19.4753 4.55567 19.1464C4.50374 18.9387 4.48643 18.7194 4.48643 18.5002C4.50374 15.2228 4.51528 11.9454 4.55567 8.668C4.56144 8.10254 4.70569 7.54284 4.7807 6.97738C4.79801 6.84467 4.80378 6.70619 4.81532 6.57347C4.65376 6.57347 4.47489 6.54462 4.32487 6.59655C4.06521 6.69464 3.9325 6.89083 3.93827 7.19664C3.93827 7.60054 3.91519 8.01022 3.8748 8.41412C3.83441 8.80648 3.59784 8.99689 3.18817 9.02574C2.86505 9.04882 2.54769 9.12383 2.23611 9.20461C2.02262 9.26231 1.83798 9.42388 1.95338 9.65468C2.02839 9.8047 2.21303 9.94895 2.37459 9.99511C2.62847 10.0701 2.91698 10.0413 3.1824 10.0874C3.72478 10.1913 3.83441 10.3355 3.82864 10.8837C3.80556 12.4993 3.77671 14.1207 3.77094 15.7363C3.77094 16.3941 3.67862 16.521 3.02661 16.5787C2.77272 16.6018 2.5073 16.6364 2.2765 16.7345C2.14379 16.7922 1.988 16.9884 1.988 17.1269C1.988 17.2596 2.13225 17.4615 2.26496 17.5135C2.5073 17.6116 2.78426 17.6462 3.04969 17.6635C3.51706 17.6924 3.8171 17.9578 3.82864 18.4194C3.84018 18.7713 3.82864 19.1291 3.82864 19.4811C3.82864 20.1446 3.97866 20.3004 4.63645 20.3062C5.4558 20.3119 6.26937 20.3062 7.08872 20.3062L7.10026 20.3235ZM18.2076 13.4398C18.1557 13.4398 18.098 13.4398 18.046 13.4398C18.046 14.6342 18.0576 15.8286 18.046 17.0288C18.0403 17.7616 18.0056 18.4944 17.9653 19.2272C17.9537 19.4638 17.9191 19.7119 17.5498 19.7003C16.817 19.6772 16.0784 19.683 15.3457 19.683C14.4628 19.683 13.5742 19.683 12.6914 19.7119C12.5529 19.7119 12.4202 19.908 12.2875 20.0061C12.4318 20.0985 12.576 20.2658 12.7261 20.2658C14.4282 20.2831 16.1246 20.2716 17.8268 20.2658C18.4153 20.2658 18.5884 20.0811 18.6288 19.4868C18.6634 18.9848 18.7038 18.4828 18.7384 17.9809C18.7615 17.675 18.9058 17.5192 19.2289 17.5308C19.5693 17.5366 19.9155 17.5423 20.2444 17.4789C20.3829 17.45 20.5964 17.2365 20.5906 17.1211C20.5733 16.9422 20.4348 16.723 20.279 16.6307C20.1059 16.5268 19.8578 16.5383 19.6443 16.5268C18.9288 16.4806 18.7673 16.3191 18.7731 15.6036C18.7846 13.9303 18.7961 12.2627 18.8134 10.5894C18.8134 10.2721 18.9519 10.0759 19.3097 10.0932C19.6097 10.1047 19.9155 10.1336 20.204 10.0701C20.3771 10.0297 20.631 9.83932 20.6426 9.69507C20.6599 9.5162 20.5041 9.22769 20.3483 9.15268C20.0655 9.01997 19.7251 8.99112 19.4078 8.96227C19.0846 8.93342 18.8942 8.81802 18.9058 8.46605C18.9115 8.09677 18.9115 7.73325 18.9058 7.36397C18.9058 7.19087 18.9231 7.00623 18.8827 6.84467C18.825 6.61386 18.4211 6.44076 18.2076 6.54462C17.9595 6.6658 17.9768 6.85044 18.0518 7.09278C18.1441 7.39859 18.2018 7.73325 18.2018 8.05061C18.2134 9.84509 18.2076 11.6396 18.2076 13.4341V13.4398ZM38.5528 13.4802C38.4951 13.4802 38.4374 13.4802 38.3854 13.4802C38.3854 14.715 38.3912 15.9498 38.3854 17.1904C38.3797 17.8539 38.3508 18.5232 38.3104 19.1868C38.2931 19.4349 38.2873 19.7061 37.895 19.7003C36.3717 19.683 34.8484 19.6888 33.3251 19.683C33.2328 19.683 33.1174 19.6599 33.0424 19.7003C32.8924 19.7811 32.6442 19.908 32.65 20.0004C32.6616 20.2427 32.875 20.3004 33.1116 20.2427C33.2155 20.2196 33.3251 20.2139 33.4347 20.2139C34.9984 20.2139 36.5621 20.2139 38.1258 20.2023C38.8586 20.2023 39.0086 20.0408 39.049 19.2849C39.0721 18.8348 39.1182 18.3905 39.1471 17.9462C39.1702 17.6289 39.3029 17.4442 39.6491 17.4615C39.9203 17.4731 40.1915 17.4615 40.4627 17.4442C40.705 17.4269 40.9473 17.3808 40.9531 17.0692C40.9589 16.7807 40.8435 16.5614 40.5261 16.5153C40.3357 16.4864 40.1511 16.4633 39.9607 16.4518C39.2798 16.4229 39.1067 16.2556 39.1125 15.5978C39.1182 13.9014 39.1298 12.1993 39.1471 10.5029C39.1471 10.2086 39.274 10.0124 39.6145 10.0182C39.926 10.024 40.2492 10.0586 40.5492 9.99511C40.7223 9.96049 40.9531 9.76431 40.9762 9.60852C40.9993 9.45273 40.8492 9.17576 40.6992 9.10075C40.4453 8.96804 40.1338 8.91034 39.8453 8.89303C39.3433 8.86418 39.2394 8.79494 39.2336 8.30449C39.2336 8.12562 39.2336 7.95251 39.2336 7.77364C39.2336 7.50245 39.2683 7.23126 39.2394 6.96007C39.2048 6.66002 38.8413 6.43499 38.5701 6.53308C38.2643 6.64271 38.2989 6.86775 38.3739 7.13894C38.4604 7.45052 38.5297 7.77364 38.5355 8.09677C38.5528 9.89125 38.5412 11.6857 38.5412 13.4744L38.5528 13.4802ZM13.2857 26.9533C12.6857 26.6475 12.5472 26.6994 12.4549 27.2591C12.3972 27.6168 12.3683 27.9861 12.3568 28.3554C12.3279 29.0709 12.126 29.2382 11.422 29.2844C11.07 29.3074 10.7065 29.4229 10.395 29.5844C10.0834 29.746 10.118 30.0633 10.4527 30.1903C10.7238 30.2941 11.0297 30.3287 11.3239 30.3345C12.2529 30.3576 12.3625 30.4557 12.351 31.3674C12.3279 33.0003 12.2933 34.6274 12.2818 36.2604C12.2818 36.8489 12.201 36.9181 11.6067 36.9181C11.2835 36.9181 10.9546 36.9528 10.6488 37.0393C10.4988 37.0797 10.4007 37.2817 10.2738 37.4086C10.4238 37.5471 10.545 37.749 10.7238 37.8125C10.9316 37.8875 11.1797 37.8471 11.4105 37.8471C11.9817 37.8413 12.2529 38.0433 12.3106 38.603C12.3568 39.0184 12.3395 39.4454 12.3741 39.8609C12.4202 40.4379 12.5645 40.5763 13.1357 40.5937C13.707 40.611 14.2782 40.6167 14.8494 40.5994C16.5458 40.5533 18.248 40.5013 19.9444 40.4379C20.0482 40.4379 20.1463 40.3052 20.2444 40.2301C20.1636 40.1436 20.0944 39.9993 19.9963 39.9763C19.7597 39.9186 19.5116 39.8839 19.2693 39.8839C17.2959 39.9013 15.3283 39.9243 13.355 39.959C13.0607 39.959 12.9222 39.8435 12.8761 39.5839C12.853 39.4512 12.8588 39.3127 12.8588 39.18C12.8588 35.6718 12.8588 32.1694 12.853 28.6612C12.853 28.0496 12.8645 27.4668 13.2973 26.9475L13.2857 26.9533ZM17.6883 18.604C17.7114 18.4194 17.7402 18.2751 17.7402 18.1309C17.7921 14.7323 17.8556 11.3338 17.8787 7.9352C17.8787 7.57746 17.6825 7.21395 17.5383 6.86775C17.5036 6.7812 17.3075 6.68887 17.2151 6.71773C17.1113 6.74658 17.0132 6.89083 16.967 7.00046C16.9266 7.10432 16.9497 7.2428 16.9497 7.36397C16.9497 9.72969 16.9497 12.0954 16.9497 14.4611C16.9497 15.4651 16.9497 16.4749 16.9497 17.4789C16.9497 18.0155 17.2036 18.4251 17.6825 18.604H17.6883ZM38.0335 18.6098C38.0565 18.3848 38.0854 18.2001 38.0854 18.0155C38.1373 14.6862 38.1893 11.3568 38.2239 8.02753C38.2239 7.72748 38.1316 7.41013 38.0104 7.13317C37.9354 6.96584 37.7219 6.75235 37.5661 6.75235C37.2545 6.75235 37.2949 7.05816 37.2949 7.28896C37.2949 9.31425 37.2949 11.3395 37.2949 13.3648C37.2949 14.7381 37.2949 16.1114 37.2949 17.4846C37.2949 18.027 37.543 18.4309 38.0277 18.6098H38.0335ZM29.4015 38.8915C29.413 38.7299 29.4361 38.5914 29.4361 38.4472C29.4534 34.9967 29.4765 31.5405 29.4823 28.09C29.4823 27.8245 29.3899 27.536 29.263 27.2995C29.1707 27.1206 28.9514 27.011 28.7899 26.8725C28.7437 27.0744 28.6571 27.2706 28.6514 27.4726C28.6456 30.7096 28.6456 33.9466 28.6456 37.1778C28.6456 37.3278 28.6456 37.4778 28.6341 37.6279C28.5879 38.0779 28.911 38.6434 29.4015 38.8915ZM5.64621 6.85621L5.53081 6.77543C5.39809 6.90814 5.20768 7.012 5.14421 7.16779C5.02881 7.46783 4.92495 7.79095 4.92495 8.10831C4.88456 11.4203 4.86148 14.7323 4.84417 18.0443C4.84417 18.2463 4.90764 18.454 4.9538 18.7194C5.49618 18.3905 5.64044 17.952 5.64044 17.4385C5.66352 14.2592 5.6866 11.0856 5.70391 7.90635C5.70391 7.55438 5.66352 7.20241 5.64044 6.85044L5.64621 6.85621ZM25.299 18.7252C25.8183 18.3963 25.9798 17.9866 25.9798 17.5019C26.0029 14.2823 26.0318 11.0683 26.0491 7.84865C26.0491 7.50822 26.0029 7.16779 25.9798 6.82159C25.9395 6.80428 25.8991 6.78697 25.8529 6.77543C25.7202 6.91391 25.5413 7.02931 25.4721 7.19087C25.3624 7.46206 25.2644 7.7621 25.2586 8.05061C25.2182 11.403 25.2009 14.7554 25.1778 18.1136C25.1778 18.2924 25.2413 18.4713 25.2932 18.7252H25.299ZM13.1934 39.0184C13.6839 38.6722 13.9205 38.2914 13.9262 37.7894C13.9551 34.3389 13.9782 30.8884 13.9955 27.4437C13.9955 27.2879 13.932 27.1321 13.8801 26.9071C13.3492 27.3226 13.2857 27.813 13.28 28.3208C13.2338 31.702 13.1934 35.0833 13.153 38.4645C13.153 38.6203 13.1761 38.7703 13.1934 39.0184ZM29.1822 39.2665C28.8995 38.9434 28.7437 38.7357 28.5591 38.5626C28.4725 38.4818 28.2994 38.4068 28.2129 38.4414C27.3531 38.8165 26.4472 38.828 25.5356 38.8165C24.6412 38.8049 23.7468 38.7415 22.8525 38.7299C22.6217 38.7299 22.3793 38.8049 22.1601 38.8915C22.0447 38.9377 21.9754 39.0877 21.8831 39.1915C22.0158 39.2896 22.137 39.4512 22.2812 39.4685C22.5697 39.5089 22.8756 39.4685 23.1698 39.4685C24.947 39.4512 26.7242 39.4454 28.5071 39.4166C28.6975 39.4166 28.8937 39.33 29.1822 39.2608V39.2665ZM17.2325 39.48V39.532C18.1961 39.532 19.1597 39.532 20.1232 39.532C20.2156 39.532 20.3252 39.5262 20.3944 39.4743C20.4868 39.4108 20.5791 39.3069 20.6022 39.2088C20.6137 39.1511 20.4868 39.03 20.4002 39.0069C20.2213 38.955 20.0309 38.9261 19.8405 38.9203C18.4672 38.8915 17.0997 38.8973 15.7265 38.8453C15.3226 38.828 14.8783 38.7415 14.5263 38.5453C14.1974 38.3664 14.0301 38.4414 13.8454 38.6722C13.7358 38.8049 13.6377 38.9607 13.5627 39.1165C13.4415 39.3646 13.505 39.4916 13.8108 39.4858C14.9475 39.4743 16.09 39.4858 17.2267 39.4858L17.2325 39.48ZM10.3199 19.458C10.4123 19.3887 10.6431 19.3022 10.7008 19.1522C10.7469 19.0425 10.6027 18.8117 10.4815 18.6963C10.3776 18.5982 10.193 18.5579 10.0372 18.5463C9.71409 18.5232 9.3852 18.5463 9.0563 18.5348C8.05808 18.4886 7.04833 18.6675 6.06165 18.3386C5.75584 18.2347 5.34616 18.5752 5.35193 18.8983C5.35193 19.0195 5.53081 19.2272 5.6289 19.233C7.15796 19.2964 8.69856 19.0714 10.3142 19.4522L10.3199 19.458ZM13.9205 18.7829C13.9205 18.7829 13.9147 18.731 13.9089 18.7079C13.3838 18.6733 12.853 18.6386 12.3279 18.6098C12.0336 18.5925 11.6701 18.8637 11.7105 19.0714C11.7798 19.4118 12.0683 19.3945 12.3279 19.3887C12.8415 19.3772 13.355 19.331 13.8685 19.331C14.9014 19.331 15.9284 19.3541 16.9613 19.3599C17.0709 19.3599 17.2325 19.3195 17.2786 19.2387C17.319 19.1753 17.244 19.0195 17.1863 18.9271C16.9786 18.5694 16.667 18.4655 16.2573 18.5232C15.4841 18.6329 14.7052 18.7021 13.9262 18.7944L13.9205 18.7829ZM37.4045 19.2503C37.4045 19.2503 37.4161 19.3022 37.4218 19.3253C37.5372 19.2733 37.693 19.2445 37.7565 19.1522C37.7969 19.1002 37.7219 18.9329 37.6642 18.8348C37.4276 18.4482 37.0872 18.3559 36.6487 18.4598C36.2967 18.5463 35.9274 18.6156 35.5639 18.6156C34.6811 18.6156 33.7983 18.5636 32.9154 18.5521C32.7481 18.5521 32.5519 18.5752 32.425 18.6675C32.3096 18.754 32.2057 18.9502 32.2173 19.0887C32.223 19.1695 32.4596 19.2849 32.5981 19.2964C32.8231 19.3137 33.0539 19.2445 33.2847 19.2445C34.658 19.2387 36.0255 19.2445 37.3988 19.2445L37.4045 19.2503ZM27.8205 19.1233C27.8205 19.0887 27.8263 19.0541 27.832 19.0137C28.7322 19.106 29.6265 19.2156 30.5324 19.2791C30.7113 19.2907 30.9075 19.1349 31.0921 19.0598C30.9998 18.9098 30.9363 18.7194 30.8036 18.6271C30.6709 18.5405 30.4747 18.5348 30.3016 18.5232C29.0207 18.4425 27.7282 18.6963 26.4588 18.3271C26.1876 18.2463 25.8298 18.5521 25.8471 18.8348C25.8529 18.9387 26.0202 19.106 26.1183 19.1118C26.6838 19.1406 27.255 19.1233 27.8263 19.1233H27.8205ZM31.0979 19.9657C31.0921 20.3985 31.3806 20.7562 31.7499 20.762C32.0672 20.7736 32.3788 20.4389 32.3788 20.0811C32.3788 19.7811 31.9634 19.2503 31.7153 19.2387C31.3748 19.2272 31.1036 19.5445 31.0979 19.96V19.9657ZM21.7966 40.2186C21.8081 39.7108 21.5831 39.3762 21.2369 39.3762C20.9426 39.3762 20.6772 39.7166 20.6656 40.1032C20.6541 40.634 20.9022 40.9514 21.3234 40.9514C21.6812 40.9514 21.7793 40.7956 21.7908 40.2244L21.7966 40.2186ZM11.9067 20.1158C11.9009 19.8042 11.5086 19.3195 11.272 19.3195C10.9085 19.3253 10.6258 19.6772 10.6258 20.1158C10.6258 20.4966 10.92 20.8197 11.2605 20.8313C11.572 20.8313 11.9182 20.4562 11.9067 20.1158ZM21.2138 31.1077C20.5791 31.5001 20.6483 32.0944 20.5387 32.5964C20.5041 32.7522 20.6599 32.9772 20.9368 32.9483C21.0695 32.931 21.2253 32.983 21.335 32.9368C21.4561 32.8849 21.6408 32.7233 21.6292 32.6483C21.5196 32.1463 21.3638 31.6501 21.2138 31.1135V31.1077Z" fill="white"/>
<path d="M60.8944 16.1748C60.8886 16.3306 60.8771 16.4633 60.8771 16.596C60.8771 18.6906 60.8771 20.7851 60.8771 22.8738C60.8771 23.8836 61.1483 24.276 62.1119 24.576C62.4234 24.6741 62.4465 24.8357 62.3715 25.1184H56.4111C56.2957 24.8414 56.3476 24.6683 56.6996 24.5529C57.5881 24.2644 57.8651 23.8605 57.8651 22.9258C57.8651 18.1424 57.8651 13.3533 57.8651 8.56991C57.8651 7.68709 57.5824 7.25434 56.7457 6.98892C56.3591 6.86775 56.2957 6.67156 56.4053 6.33113H62.36C62.4811 6.63694 62.3888 6.79274 62.0542 6.90237C61.1771 7.1851 60.8828 7.61785 60.8771 8.53529C60.8771 10.4106 60.8771 12.2858 60.8771 14.1611C60.8771 14.2823 60.8886 14.4034 60.8944 14.5534H71.8402C71.8459 14.4092 71.8632 14.2534 71.8632 14.0976C71.8632 12.4012 71.8632 10.6991 71.8632 9.00266C71.8632 7.50822 71.7478 7.33512 70.3573 6.82736V6.33113H76.4216C76.5485 6.66002 76.4216 6.80428 76.0984 6.90814C75.2387 7.19087 74.9502 7.60054 74.9502 8.51221C74.9502 13.2956 74.9502 18.0847 74.9502 22.8681C74.9502 23.7855 75.256 24.2125 76.1331 24.4895C76.4677 24.5933 76.5197 24.7607 76.4273 25.0549H70.3861C70.2765 24.7953 70.3573 24.6626 70.6458 24.5702C71.5805 24.2644 71.8632 23.8605 71.869 22.8912C71.869 20.7851 71.869 18.679 71.869 16.573C71.869 16.4518 71.8575 16.3306 71.8459 16.1806H60.8944V16.1748Z" fill="white"/>
<path d="M120.303 24.928C120.447 25.1069 120.395 25.2742 120.066 25.2857C119.212 25.3203 118.352 25.4473 117.504 25.3838C116.039 25.2684 114.954 24.4145 114.1 23.2893C112.888 21.6968 111.7 20.0927 110.551 18.4598C109.599 17.098 108.29 16.4806 106.628 16.4114C106.622 16.5441 106.605 16.6826 106.605 16.8211C106.605 18.7771 106.605 20.7389 106.605 22.695C106.605 23.722 106.986 24.2356 107.966 24.5587C108.22 24.6433 108.332 24.8299 108.301 25.1184H101.891V24.6914C101.891 24.6914 101.925 24.651 101.948 24.6453C103.241 24.2702 103.518 23.9009 103.518 22.5565C103.518 17.9866 103.518 13.4225 103.518 8.85264C103.518 7.64093 103.258 7.28896 102.092 6.90814C101.833 6.82159 101.827 6.81582 101.914 6.29074C102.012 6.29074 102.121 6.29074 102.225 6.29074C104.591 6.26766 106.957 6.24458 109.322 6.2215C110.771 6.20996 112.207 6.31959 113.575 6.85044C116.316 7.91212 117.504 10.7741 116.229 13.2552C115.623 14.4438 114.59 15.1535 113.402 15.6555C112.957 15.8459 112.49 15.9902 112.011 16.1633C113.413 17.1846 114.238 18.6675 115.266 19.9773C116.091 21.039 116.893 22.1237 117.735 23.1681C118.029 23.5374 118.387 23.8778 118.774 24.1375C119.247 24.4491 119.789 24.6626 120.303 24.9222V24.928ZM106.605 11.4722C106.605 12.6263 106.605 13.7803 106.605 14.9343C106.605 15.1247 106.576 15.3266 106.87 15.3266C108.024 15.3266 109.184 15.4305 110.326 15.3036C112.23 15.0901 113.454 13.7687 113.61 11.9685C113.777 10.024 112.802 8.45451 111.001 7.83134C109.64 7.3582 108.243 7.45629 106.847 7.66401C106.605 7.69863 106.599 7.85442 106.599 8.04484C106.599 9.1873 106.599 10.3298 106.599 11.4665L106.605 11.4722Z" fill="white"/>
<path d="M182.735 25.1242V24.6972C182.775 24.6741 182.792 24.651 182.815 24.6453C184.171 24.3106 184.443 23.9702 184.443 22.5911C184.443 18.0097 184.443 13.4283 184.443 8.84687C184.443 7.51399 184.2 7.20818 182.885 6.88506C182.833 6.87352 182.787 6.84467 182.729 6.82159V6.31959C182.804 6.30805 182.873 6.29651 182.937 6.29074C185.614 6.24458 188.291 6.20419 190.974 6.15226C193.063 6.11764 195.111 6.34844 197.021 7.2428C200.581 8.90457 202.243 11.7781 202.237 15.644C202.226 20.0638 199.485 23.5028 195.071 24.703C193.721 25.0722 192.348 25.228 190.957 25.2165C188.28 25.1934 185.597 25.1703 182.919 25.1415C182.867 25.1415 182.815 25.1299 182.735 25.1184V25.1242ZM187.46 23.699C187.616 23.7394 187.72 23.774 187.824 23.7855C189.48 23.9644 191.136 24.0567 192.78 23.7163C195.365 23.1797 197.327 21.8237 198.366 19.331C199.064 17.6404 199.145 15.8806 198.891 14.0861C198.435 10.901 196.265 8.4949 193.138 7.72171C191.361 7.28319 189.572 7.42744 187.783 7.58323C187.449 7.61208 187.455 7.8198 187.455 8.06215C187.455 13.1456 187.455 18.2232 187.455 23.3066C187.455 23.4278 187.455 23.5489 187.455 23.699H187.46Z" fill="white"/>
<path d="M167.911 24.6741V25.1184H161.559C161.466 24.8299 161.495 24.6683 161.83 24.5702C162.834 24.2817 163.186 23.7913 163.186 22.7642C163.186 18.0732 163.186 13.3821 163.186 8.69108C163.186 7.72748 162.816 7.19087 161.905 6.9543C161.489 6.85044 161.455 6.65425 161.564 6.28497C161.668 6.28497 161.778 6.28497 161.882 6.28497C164.236 6.26189 166.59 6.23304 168.938 6.21573C170.444 6.20419 171.927 6.32536 173.335 6.91968C176.111 8.091 177.172 11.2934 175.562 13.6706C174.737 14.8881 173.503 15.5286 172.141 15.9671C171.968 16.0248 171.789 16.0767 171.598 16.1402C173.306 17.525 174.328 19.4118 175.649 21.0621C176.336 21.9218 177.011 22.7931 177.744 23.6124C178.315 24.2471 179.013 24.7203 179.913 24.8068C180.011 25.0838 179.982 25.2626 179.642 25.28C178.788 25.3146 177.928 25.4415 177.08 25.378C175.632 25.2626 174.558 24.4202 173.699 23.3124C172.81 22.1641 171.968 20.9755 171.108 19.8042C170.785 19.3657 170.45 18.9387 170.144 18.4886C169.215 17.098 167.883 16.4691 166.192 16.4056C166.192 16.5383 166.192 16.6826 166.192 16.8268C166.192 18.6906 166.232 20.5543 166.18 22.4122C166.134 23.9471 166.775 24.3452 167.906 24.6626L167.911 24.6741ZM166.198 15.2978C167.484 15.4247 168.702 15.517 169.925 15.3266C171.737 15.0381 173.006 13.7976 173.162 12.1531C173.364 10.0586 172.47 8.51798 170.635 7.85442C169.314 7.37551 167.963 7.45629 166.602 7.63516C166.267 7.68132 166.186 7.80826 166.186 8.12562C166.198 10.3702 166.192 12.6147 166.192 14.8535C166.192 14.9862 166.192 15.1189 166.192 15.292L166.198 15.2978Z" fill="white"/>
<path d="M92.5892 25.1184C92.5027 24.801 92.5892 24.651 92.8893 24.5472C93.6798 24.276 93.9625 23.7855 93.6971 22.995C93.4086 22.1353 93.0162 21.3102 92.6585 20.4735C92.4623 20.0119 92.3469 19.4003 91.9892 19.1579C91.6487 18.9271 91.0429 19.0887 90.5524 19.0887C88.8214 19.0887 87.0962 19.0887 85.3651 19.0829C85.0766 19.0829 84.9324 19.1637 84.8343 19.4464C84.4881 20.387 84.113 21.3217 83.7553 22.2622C83.6803 22.4642 83.6111 22.6719 83.5591 22.8854C83.3225 23.8432 83.536 24.2875 84.4592 24.6279C84.7651 24.7433 84.817 24.9049 84.7189 25.1934H79.3585C79.3181 25.0261 79.272 24.8645 79.2258 24.6683C80.5645 24.3452 81.2049 23.3816 81.6781 22.2276C83.663 17.4327 85.6652 12.6493 87.6501 7.86019C87.8693 7.33512 88.0136 6.78697 88.1982 6.2215C88.6829 6.2215 89.1734 6.20996 89.6638 6.22727C89.7561 6.22727 89.9004 6.32536 89.9235 6.41191C90.9159 9.67199 92.5546 12.6666 93.8644 15.794C94.8396 18.1251 95.9012 20.4158 96.911 22.7296C97.3091 23.647 97.8977 24.3452 98.8959 24.6337C99.0171 24.6683 99.0748 24.9049 99.2132 25.1242H92.5892V25.1184ZM88.2271 10.5894C87.2635 12.9898 86.3403 15.2747 85.4171 17.5769H91.2564C90.2524 15.2632 89.2657 12.9898 88.2271 10.5894Z" fill="white"/>
<path d="M159.181 25.1184H152.615C152.505 24.8357 152.563 24.6626 152.909 24.5472C153.677 24.276 153.907 23.8144 153.723 23.0181C153.677 22.8219 153.619 22.6257 153.538 22.4353C153.094 21.414 152.632 20.3985 152.194 19.3772C152.107 19.181 152.009 19.0829 151.778 19.0829C149.615 19.0887 147.451 19.0887 145.287 19.0829C145.056 19.0829 144.958 19.1637 144.877 19.3772C144.497 20.3927 144.098 21.4025 143.706 22.418C143.648 22.568 143.608 22.7296 143.568 22.8854C143.331 23.8144 143.556 24.2587 144.433 24.6164C144.656 24.7087 144.754 24.8953 144.727 25.1761H139.39V24.6164C140.648 24.2702 141.242 23.2893 141.715 22.1526C143.689 17.3865 145.679 12.632 147.659 7.86596C147.837 7.43898 147.964 6.99469 148.08 6.55039C148.143 6.29651 148.241 6.18688 148.518 6.20419C148.882 6.22727 149.251 6.19265 149.62 6.2215C149.736 6.22727 149.92 6.33113 149.943 6.42345C150.474 8.50644 151.519 10.3817 152.355 12.332C153.804 15.6959 155.315 19.0368 156.781 22.3949C157.231 23.4278 157.773 24.3279 158.968 24.6337C159.066 24.6568 159.106 24.9164 159.193 25.1126L159.181 25.1184ZM151.201 17.5943C150.186 15.2574 149.199 12.9782 148.166 10.5894C147.203 12.9898 146.285 15.2747 145.351 17.5943H151.207H151.201Z" fill="white"/>
<path d="M126.575 6.3946C126.592 6.61386 126.69 6.81582 126.327 6.93699C125.282 7.28896 125.069 7.73902 125.507 8.76609C126.356 10.751 127.244 12.7186 128.115 14.6919C129.004 16.7057 129.893 18.7136 130.781 20.7274C130.839 20.8601 130.908 20.987 130.989 21.1544C131.047 21.0563 131.081 21.0044 131.11 20.9409C132.726 17.0403 134.347 13.1456 135.957 9.245C136.078 8.9565 136.17 8.65646 136.228 8.35065C136.361 7.66978 136.055 7.22549 135.299 6.94276C135.072 6.85813 134.972 6.67541 134.999 6.3946H140.394C140.504 6.69465 140.423 6.86198 140.1 6.96584C139.096 7.29473 138.49 8.06215 138.086 8.97958C137.099 11.2299 136.147 13.4918 135.184 15.7536C133.891 18.8002 132.593 21.8526 131.312 24.9049C131.185 25.2049 131.018 25.2511 130.718 25.303C129.852 25.4415 129.489 25.0549 129.142 24.2933C126.829 19.1579 124.457 14.0457 122.115 8.92188C121.688 7.98714 121.134 7.20241 120.084 6.88506C119.968 6.85044 119.922 6.59078 119.824 6.3946H126.575Z" fill="white"/>
<path d="M136.401 39.3704C136.401 40.5706 136.395 41.7246 136.401 42.8786C136.401 43.3056 136.684 43.5306 137.053 43.6749C137.169 43.721 137.255 43.8249 137.359 43.9057C137.336 43.9345 137.313 43.9634 137.29 43.9864H133.868C134.007 43.848 134.07 43.7268 134.168 43.6979C134.659 43.5306 134.832 43.1844 134.832 42.694C134.832 40.2301 134.832 37.7721 134.832 35.3083C134.832 34.7197 134.693 34.5466 134.157 34.3274C134.07 34.2928 134.007 34.1947 133.862 34.062C134.982 34.062 135.974 34.062 136.961 34.062C137.624 34.062 138.294 34.0273 138.957 34.0966C139.419 34.1427 139.898 34.2755 140.325 34.4716C142.05 35.2794 142.252 37.4951 140.7 38.603C140.29 38.8973 139.794 39.0761 139.332 39.3185C140.492 40.2878 141.213 41.6669 142.2 42.8267C142.564 43.2536 142.973 43.6287 143.562 43.7441C143.608 43.7499 143.643 43.8018 143.787 43.9172C143.493 43.9749 143.296 44.0153 143.094 44.0499C141.981 44.2461 141.075 43.871 140.388 43.0055C139.73 42.1746 139.13 41.2976 138.496 40.4494C138.005 39.7916 137.359 39.4166 136.401 39.3646V39.3704ZM136.418 38.8107C137.296 38.8396 138.161 38.9723 138.992 38.5914C139.684 38.2683 140.048 37.7144 140.082 36.9585C140.123 36.1276 139.881 35.4122 139.102 35.0025C138.242 34.5524 137.336 34.587 136.418 34.8294V38.8107Z" fill="white"/>
<path d="M102.127 41.6265C102.139 41.4188 102.15 41.2861 102.15 41.1591C102.15 39.2723 102.139 37.3797 102.156 35.4929C102.156 34.939 102.012 34.5409 101.452 34.3505C101.371 34.3216 101.319 34.2062 101.187 34.0562C101.417 34.0562 101.539 34.0562 101.654 34.0562C102.346 34.0562 103.039 34.0447 103.731 34.0562C103.818 34.0562 103.899 34.1312 103.985 34.1716C103.933 34.2351 103.887 34.3332 103.824 34.3562C103.2 34.5351 103.056 34.9621 103.062 35.5679C103.085 38.2741 103.073 40.9802 103.073 43.6864C103.073 43.8364 103.073 43.9807 103.073 44.2403C102.808 44.1595 102.548 44.148 102.381 44.0211C101.931 43.6749 101.475 43.3171 101.106 42.8901C99.3113 40.8475 97.5457 38.7761 95.7685 36.7162C95.682 36.6181 95.5897 36.5258 95.4454 36.3758C95.4339 36.5662 95.4166 36.6816 95.4166 36.797C95.4166 38.7703 95.4223 40.7379 95.4108 42.7113C95.4108 43.2536 95.5666 43.6345 96.1147 43.8018C96.1955 43.8249 96.2532 43.9403 96.3802 44.0788H93.5067C93.6509 43.9172 93.7259 43.7614 93.8413 43.721C94.3145 43.5479 94.5049 43.2248 94.5049 42.7228C94.4934 40.3455 94.4934 37.9625 94.5049 35.5853C94.5049 35.0083 94.3376 34.5755 93.7548 34.3735C93.674 34.3447 93.6278 34.2351 93.5701 34.1601C93.6567 34.1197 93.7432 34.0447 93.8298 34.0447C94.3606 34.0331 94.8915 34.0158 95.4223 34.0562C95.5897 34.0677 95.7801 34.2235 95.9012 34.362C97.8746 36.6643 99.8364 38.978 101.798 41.2861C101.885 41.3899 101.977 41.4822 102.121 41.6438L102.127 41.6265Z" fill="white"/>
<path d="M88.4694 34.0793H91.2564C91.1063 34.2178 91.0371 34.3332 90.9448 34.3678C90.4716 34.5293 90.3043 34.8467 90.3101 35.3314C90.3216 36.9354 90.3216 38.5395 90.3101 40.1436C90.3101 40.5475 90.2928 40.9629 90.2235 41.3611C89.9754 42.7517 89.133 43.6056 87.777 43.9518C86.4845 44.2865 85.1863 44.2865 83.9169 43.8537C82.6417 43.421 81.8973 42.4978 81.8512 41.1533C81.7877 39.3185 81.805 37.4836 81.8166 35.6487C81.8166 35.0429 81.7589 34.5293 81.078 34.3332C81.0261 34.3158 80.9972 34.2178 80.9568 34.1601C81.0261 34.1197 81.0953 34.0447 81.1645 34.0447C82.0878 34.0389 83.011 34.0389 83.9399 34.0447C84.015 34.0447 84.09 34.1139 84.1707 34.1485C84.1246 34.2178 84.09 34.3274 84.0265 34.3562C83.4956 34.564 83.3745 34.9679 83.386 35.4987C83.4091 37.1432 83.386 38.7876 83.3976 40.4321C83.3976 40.7033 83.3976 40.9803 83.4495 41.2457C83.6457 42.3362 84.2515 42.9478 85.3363 43.1613C86.1614 43.3229 86.9865 43.3113 87.7886 42.9998C88.7349 42.6305 89.2715 41.9265 89.2888 40.9225C89.3234 38.9954 89.3061 37.0624 89.3119 35.1294C89.3119 34.7371 89.0984 34.5005 88.7637 34.3447C88.6541 34.2928 88.5502 34.2351 88.4406 34.1831L88.4752 34.085L88.4694 34.0793Z" fill="white"/>
<path d="M130.181 37.3913V40.0628C130.025 39.9416 129.887 39.8897 129.852 39.7974C129.673 39.3242 129.287 39.1742 128.854 39.1569C128 39.1281 127.14 39.1511 126.257 39.1511V43.2133C126.332 43.2248 126.407 43.2536 126.482 43.2536C127.463 43.2536 128.439 43.2536 129.419 43.2536C130.181 43.2536 130.752 42.9421 131.058 42.2035C131.099 42.0996 131.22 42.0304 131.306 41.9438C131.341 41.9669 131.381 41.99 131.416 42.0131C131.324 42.6766 131.231 43.3402 131.145 44.0095H123.661C123.788 43.8768 123.846 43.7499 123.938 43.7153C124.423 43.5421 124.59 43.2075 124.584 42.7113C124.573 40.2532 124.573 37.7894 124.584 35.3314C124.584 34.8294 124.411 34.5005 123.915 34.3505C123.834 34.3274 123.776 34.2062 123.707 34.1312C123.73 34.085 123.753 34.0389 123.776 33.9927H130.868V35.868C130.833 35.8911 130.793 35.9141 130.758 35.9372C130.672 35.8564 130.539 35.793 130.498 35.6891C130.233 35.0083 129.702 34.7601 129.021 34.7544C128.11 34.7486 127.198 34.7544 126.257 34.7544V38.3029C127.21 38.3029 128.15 38.3203 129.096 38.2972C129.448 38.2856 129.679 38.0433 129.835 37.7259C129.887 37.6279 130.008 37.5586 130.181 37.4086V37.3913Z" fill="white"/>
<path d="M117.424 41.8573C117.504 41.7015 117.556 41.6092 117.602 41.5111C118.404 39.5954 119.206 37.6798 120.008 35.7641C120.072 35.6141 120.13 35.4641 120.176 35.3083C120.326 34.8352 120.234 34.6563 119.778 34.437C119.662 34.3793 119.587 34.2466 119.495 34.1543C119.524 34.1139 119.547 34.0793 119.576 34.0389C120.453 34.0389 121.336 34.0389 122.213 34.0389C122.276 34.0389 122.38 34.1024 122.386 34.1485C122.397 34.2004 122.334 34.3101 122.282 34.3274C121.538 34.5755 121.266 35.2102 120.989 35.8564C119.882 38.4703 118.756 41.0726 117.649 43.6864C117.55 43.923 117.452 44.0615 117.158 44.0441C116.887 44.0268 116.696 44.0153 116.558 43.7095C115.317 40.9168 114.054 38.1356 112.802 35.3487C112.588 34.8698 112.3 34.4832 111.769 34.3274C111.7 34.3101 111.653 34.212 111.602 34.1543C111.677 34.1139 111.746 34.0389 111.821 34.0389C112.842 34.0331 113.858 34.0331 114.879 34.0389C114.954 34.0389 115.029 34.1081 115.104 34.1485C115.04 34.2235 114.994 34.3216 114.919 34.362C114.377 34.639 114.285 34.8063 114.527 35.3545C115.473 37.5009 116.437 39.6416 117.424 41.8573Z" fill="white"/>
<path d="M151.259 34.3101C151.259 34.8755 151.259 35.4525 151.253 36.0353C151.253 36.1046 151.172 36.1738 151.126 36.243C151.057 36.1911 150.965 36.1507 150.93 36.0873C150.249 34.8986 149.141 34.4255 147.71 34.7313C146.545 34.9794 146.083 36.2661 146.874 37.1605C147.203 37.524 147.641 37.8067 148.074 38.0548C148.639 38.378 149.251 38.6145 149.828 38.9146C150.601 39.3242 151.276 39.8493 151.559 40.7206C151.992 42.0304 151.369 43.3864 150.059 43.946C148.841 44.4654 147.589 44.3846 146.331 44.0903C146.095 44.0326 145.858 43.923 145.622 43.9172C145.183 43.9057 145.097 43.6633 145.085 43.294C145.074 42.792 145.027 42.2958 144.993 41.7938C145.027 41.7707 145.062 41.7477 145.097 41.7246C145.172 41.8054 145.293 41.8804 145.322 41.9785C145.835 43.6864 148.305 43.9634 149.424 43.2652C150.284 42.7343 150.451 41.638 149.736 40.9283C149.413 40.611 149.009 40.3571 148.616 40.1263C147.935 39.7281 147.22 39.3935 146.545 38.9896C145.72 38.4934 145.102 37.824 145.062 36.7912C144.999 35.3256 146.049 34.1774 147.653 34.0331C148.293 33.9754 148.951 34.0331 149.603 34.085C150.14 34.1254 150.67 34.2351 151.253 34.3158L151.259 34.3101Z" fill="white"/>
<path d="M178.274 34.0389C178.182 34.1947 178.147 34.3043 178.072 34.3793C177.697 34.7601 177.224 35.0833 176.942 35.5218C176.093 36.8489 175.314 38.2222 174.518 39.5781C174.443 39.7108 174.408 39.8839 174.403 40.0397C174.391 40.911 174.403 41.7765 174.397 42.6478C174.391 43.1671 174.582 43.5364 175.095 43.7153C175.176 43.7441 175.234 43.8537 175.355 43.9864H171.887C172.02 43.8422 172.083 43.7268 172.181 43.6864C172.643 43.4787 172.856 43.1498 172.839 42.6305C172.81 41.7765 172.839 40.9168 172.827 40.0628C172.827 39.8724 172.77 39.6589 172.672 39.4973C171.818 38.1125 170.964 36.722 170.064 35.3602C169.81 34.9794 169.412 34.6909 169.088 34.3505C169.031 34.2928 168.99 34.212 168.944 34.137C169.019 34.1024 169.094 34.0331 169.175 34.0331C170.179 34.0273 171.183 34.0331 172.302 34.0331C172.21 34.1716 172.17 34.2985 172.089 34.3332C171.708 34.5005 171.697 34.7832 171.812 35.1121C171.881 35.3025 171.968 35.4929 172.066 35.666C172.649 36.6469 173.237 37.6221 173.826 38.603C173.866 38.6722 173.918 38.7299 174.01 38.8453C174.703 37.6105 175.389 36.4277 176.036 35.2275C176.197 34.9332 176.336 34.5351 175.805 34.3678C175.759 34.3562 175.707 34.212 175.736 34.1658C175.77 34.1024 175.868 34.0447 175.943 34.0447C176.688 34.0331 177.432 34.0447 178.28 34.0447L178.274 34.0389Z" fill="white"/>
<path d="M168.154 35.9949C168.073 35.9026 167.963 35.8276 167.917 35.718C167.646 35.0717 167.173 34.7832 166.475 34.8063C165.823 34.8236 165.171 34.8063 164.478 34.8063C164.467 34.9736 164.455 35.1179 164.455 35.2621C164.455 37.6567 164.467 40.0455 164.444 42.4401C164.444 43.0344 164.622 43.4383 165.205 43.6345C165.292 43.6633 165.344 43.796 165.448 43.9114H161.98C161.957 43.8826 161.939 43.8537 161.916 43.8249C162.02 43.7499 162.113 43.646 162.228 43.5998C162.632 43.4325 162.874 43.1786 162.874 42.7113C162.874 40.1551 162.874 37.599 162.874 35.0429C162.874 34.9794 162.863 34.9159 162.857 34.8294C162.009 34.8294 161.184 34.7948 160.358 34.8409C159.851 34.8698 159.556 35.2506 159.354 35.6949C159.308 35.7987 159.187 35.8622 159.106 35.9488C159.066 35.8449 159.002 35.741 158.997 35.6372C158.985 35.1006 158.997 34.5582 158.997 34.0966C160.589 34.0966 162.124 34.0966 163.659 34.0966C165.194 34.0966 166.7 34.0966 168.252 34.0966V35.9315L168.165 35.9949H168.154Z" fill="white"/>
<path d="M157.485 43.9922H154.115C154.115 43.9922 154.075 43.9403 154.052 43.9114C154.144 43.8364 154.219 43.7326 154.323 43.6979C154.779 43.5479 154.952 43.2363 154.946 42.769C154.94 40.2994 154.94 37.824 154.946 35.3545C154.946 34.8755 154.761 34.5524 154.306 34.3735C154.213 34.3389 154.156 34.2178 154.086 34.1427C154.19 34.1081 154.294 34.0447 154.398 34.0447C155.333 34.0389 156.273 34.0389 157.208 34.0447C157.312 34.0447 157.421 34.1024 157.525 34.137C157.439 34.2235 157.37 34.3447 157.271 34.3851C156.839 34.5409 156.66 34.8525 156.66 35.291C156.66 37.7779 156.66 40.259 156.66 42.7459C156.66 43.2075 156.868 43.5133 157.295 43.6864C157.398 43.7326 157.479 43.8364 157.571 43.9172C157.543 43.9403 157.508 43.9691 157.479 43.9922H157.485Z" fill="white"/>
<path d="M110.39 43.9922H106.928C107.049 43.8653 107.107 43.7499 107.199 43.7095C107.845 43.4267 107.92 43.3229 107.914 42.6016C107.891 40.2359 107.863 37.8702 107.851 35.5045C107.851 34.9563 107.713 34.5466 107.159 34.3505C107.089 34.3274 107.055 34.2235 107.003 34.1601C107.072 34.1197 107.141 34.0389 107.216 34.0389C108.272 34.0331 109.334 34.0389 110.39 34.0389C110.413 34.0735 110.436 34.1024 110.465 34.137C110.384 34.2178 110.315 34.3332 110.222 34.3678C109.68 34.5351 109.495 34.9044 109.501 35.4468C109.513 37.8413 109.513 40.2301 109.501 42.6247C109.501 43.1729 109.697 43.5364 110.228 43.7095C110.326 43.7383 110.396 43.848 110.476 43.923C110.453 43.9461 110.424 43.9749 110.401 43.998L110.39 43.9922Z" fill="white"/>
<path d="M24.1911 34.8698C24.1911 34.6159 24.1738 34.2639 24.2027 33.9235C24.2084 33.8139 24.3181 33.71 24.3815 33.6004C24.4739 33.6869 24.6239 33.7619 24.6527 33.8658C24.7912 34.3505 25.1836 34.4889 25.599 34.587C25.9048 34.6563 26.1645 34.5582 26.3318 34.2755C26.5049 33.987 26.5799 33.6638 26.326 33.41C26.0375 33.1272 25.6856 32.9195 25.3682 32.6714C25.0393 32.4175 24.6527 32.204 24.4104 31.8809C23.8622 31.1481 24.2431 30.0633 25.0682 29.8787C25.1951 29.8498 25.3336 29.8671 25.4721 29.8614C25.7202 29.8498 25.9798 29.8787 26.2106 29.8094C26.4991 29.7229 26.6261 29.7806 26.6492 30.0749C26.678 30.4038 26.8338 30.7442 26.5049 31.0846C26.3549 30.9577 26.2106 30.8307 26.0491 30.7153C25.9106 30.6115 25.7664 30.5018 25.6048 30.4499C25.2874 30.3461 25.0624 30.5018 24.8778 30.7557C24.6989 31.0096 24.7739 31.2346 24.9643 31.4077C25.2355 31.6443 25.5529 31.8347 25.8298 32.0655C26.1991 32.3713 26.6088 32.6598 26.9031 33.0349C27.3012 33.5427 27.2089 34.1601 26.753 34.6678C26.2972 35.1814 25.801 35.2679 25.172 35.0198C24.8893 34.9102 24.5604 34.9217 24.1854 34.8698H24.1911Z" fill="white"/>
<path d="M15.9977 30.9231C15.7784 30.6519 15.8707 29.8094 16.1304 29.6594C16.1938 29.6248 16.315 29.6479 16.39 29.6825C17.2382 30.0576 18.0864 30.046 18.9404 29.6825C18.9865 29.6594 19.0442 29.6594 19.1423 29.6363C19.252 30.0056 19.252 30.3634 19.05 30.6807C19.0039 30.75 18.7731 30.7615 18.6577 30.7153C18.5653 30.6807 18.5192 30.5249 18.4384 30.4326C18.3692 30.3576 18.2422 30.2422 18.2076 30.2595C18.1153 30.3114 18.0576 30.4268 17.9941 30.5192C17.9826 30.5365 17.9883 30.5711 17.9883 30.5999C17.9883 31.7828 17.971 32.9657 17.9883 34.1485C17.9883 34.3274 18.1787 34.4947 18.2538 34.6794C18.2999 34.7948 18.3403 34.9448 18.3057 35.0544C18.2884 35.1121 18.1095 35.1525 17.9999 35.1525C17.6248 35.164 17.244 35.1525 16.8112 35.1525C16.8459 34.9909 16.8632 34.8929 16.8863 34.7948C16.9786 34.4082 17.1344 34.0273 17.1574 33.635C17.2209 32.6598 17.2267 31.6789 17.2382 30.7038C17.2382 30.5422 17.1574 30.2653 17.0536 30.2364C16.8978 30.1903 16.6612 30.2653 16.5112 30.3691C16.315 30.5018 16.1765 30.7153 15.9861 30.9173L15.9977 30.9231Z" fill="white"/>
<path d="M33.8444 15.3613C33.804 15.3613 33.7636 15.3613 33.7232 15.3613C32.9501 15.3613 32.9674 15.367 33.3078 14.7265C33.4232 14.5073 33.4694 14.2361 33.4809 13.988C33.504 13.2033 33.4809 12.4128 33.4924 11.628C33.4924 11.1664 33.5098 10.7106 33.2039 10.3125C33.0539 10.1163 33.152 9.94895 33.3713 9.94318C33.7463 9.94318 34.1214 9.9778 34.4907 10.0413C34.5368 10.047 34.5714 10.3355 34.5426 10.474C34.4733 10.8087 34.2945 11.1318 34.2829 11.4607C34.2483 12.3954 34.2541 13.3302 34.2829 14.2649C34.2829 14.49 34.4156 14.715 34.4849 14.94C34.5195 15.0439 34.5541 15.1535 34.5945 15.2574C34.4849 15.292 34.3753 15.3382 34.2599 15.3555C34.1271 15.3728 33.9887 15.3555 33.856 15.3555L33.8444 15.3613Z" fill="white"/>
<path d="M14.9591 14.0861C15.3745 14.9516 15.086 15.3786 14.2782 15.3555C13.707 15.3382 13.1357 15.3266 12.5703 15.2632C12.149 15.217 12.1202 15.0958 12.276 14.7208C12.3625 14.5131 12.4145 14.2823 12.4145 14.0572C12.4318 13.0821 12.4145 12.1012 12.4202 11.126C12.4202 10.8145 12.4491 10.5029 12.1202 10.3009C12.051 10.2605 12.051 10.1163 11.9933 9.95472C12.3683 9.93741 12.6914 9.91433 13.0088 9.90279C13.3896 9.89125 13.7647 9.88548 14.1455 9.90279C14.2955 9.90856 14.5205 9.96626 14.5667 10.0701C14.659 10.2721 14.8552 10.5375 14.6013 10.7048C14.2667 10.5433 13.9897 10.3529 13.6896 10.2778C13.5569 10.2432 13.2569 10.4048 13.228 10.526C13.1357 10.9125 13.0838 11.328 13.1126 11.7261C13.1473 12.1416 13.5396 12.2512 13.9031 12.0262C14.0359 11.9396 14.2205 11.9396 14.3821 11.8992C14.3705 12.1589 14.3532 12.4185 14.3417 12.6782C14.2032 12.6666 14.0474 12.684 13.932 12.632C13.2973 12.3493 13.0665 12.4935 13.0665 13.1975C13.0665 13.5668 13.0665 13.9303 13.0665 14.2996C13.0723 14.6688 13.2627 14.8766 13.6377 14.8996C14.1224 14.9285 14.5725 14.8996 14.7975 14.3688C14.8379 14.2707 14.9014 14.1784 14.9475 14.0861H14.9591Z" fill="white"/>
<path d="M8.98706 13.7918C9.12554 13.359 9.2294 13.0302 9.33326 12.6955C9.43713 12.3608 9.51214 12.0089 9.63908 11.6857C9.81218 11.2472 9.80064 10.826 9.63331 10.3875C9.47752 9.98357 9.54099 9.90856 9.97374 9.95472C10.1411 9.97203 10.2969 10.0413 10.4238 10.0759C10.0718 11.3742 9.74294 12.6147 9.39674 13.8553C9.29864 14.2072 9.14285 14.5419 9.00437 14.8766C8.87166 15.1997 8.64663 15.2343 8.43314 14.9573C8.35236 14.8535 8.31197 14.715 8.27158 14.5881C7.88498 13.4283 7.50416 12.2743 7.11757 11.1145C7.01948 10.8202 6.92716 10.526 6.6098 10.3702C6.52325 10.3298 6.4367 10.1624 6.45978 10.0817C6.48286 10.0009 6.63288 9.89702 6.73097 9.89125C7.12334 9.86817 7.52147 9.85663 7.91383 9.87971C8.1908 9.89702 8.2485 10.1798 8.06963 10.4452C8.00038 10.5433 7.90806 10.6875 7.93114 10.7798C8.19657 11.6915 8.4793 12.5974 8.7678 13.4975C8.79088 13.5668 8.86012 13.6187 8.99283 13.786L8.98706 13.7918Z" fill="white"/>
<path d="M28.484 9.81047C28.9226 9.87971 29.3842 9.88548 29.7881 10.0355C30.9017 10.4567 30.8094 12.0089 29.9727 12.5224C29.54 12.7878 29.4823 13.1052 29.7535 13.5264C30.042 13.9822 30.342 14.438 30.6305 14.8996C30.6824 14.9804 30.7228 15.1535 30.6824 15.1824C30.6016 15.2459 30.4459 15.3036 30.3651 15.2632C30.192 15.1824 30.0016 15.0728 29.8977 14.9227C29.5515 14.4207 29.2399 13.8899 28.911 13.3821C28.8591 13.3013 28.761 13.2494 28.6802 13.1859C28.6225 13.284 28.5244 13.3706 28.5129 13.4744C28.4494 13.9707 28.3686 14.4554 28.7033 14.917C28.8995 15.1882 28.7322 15.4132 28.386 15.3959C28.1552 15.3843 27.9301 15.3439 27.6993 15.3093C27.3877 15.2632 27.2896 15.0958 27.4974 14.8823C27.7801 14.5938 27.7916 14.2592 27.7859 13.9072C27.7859 12.984 27.8089 12.0608 27.7686 11.1376C27.757 10.8664 27.5839 10.5952 27.4858 10.3298C27.4454 10.2144 27.3589 10.0817 27.382 9.9778C27.3935 9.9201 27.5839 9.86817 27.6935 9.8624C27.9532 9.84509 28.2071 9.8624 28.4667 9.8624C28.4667 9.84509 28.4725 9.82778 28.4783 9.81047H28.484ZM28.5071 11.4203C28.5071 11.6396 28.484 11.8588 28.5129 12.0723C28.536 12.2281 28.6052 12.4878 28.686 12.4993C28.8879 12.5339 29.1707 12.5224 29.3149 12.407C30.0131 11.8415 30.0362 11.2588 29.488 10.5375C29.263 10.249 28.986 10.2432 28.7322 10.3702C28.6052 10.4336 28.5475 10.6817 28.5129 10.8548C28.4783 11.0395 28.5071 11.2357 28.5071 11.4203Z" fill="white"/>
</svg>
