<svg width="101" height="43" viewBox="0 0 101 43" fill="none" xmlns="http://www.w3.org/2000/svg">
<path d="M57.7902 0C59.9291 0.136696 62.068 0.273392 64.2069 0.402047C65.0672 0.458333 65.9196 0.498538 66.8363 0.546784V8.53947C66.2091 8.5636 65.614 8.59576 64.9386 8.62792V30.0811C66.2466 30.3116 66.9006 31.1291 66.9006 32.5336V38.1944C64.6652 38.0979 62.5263 37.9934 60.3955 37.905C58.345 37.8165 56.2946 37.7039 54.2441 37.6637C53.5607 37.6477 53.2712 37.4949 53.2873 36.7551C53.3275 34.4876 53.3034 32.22 53.3034 29.8801H55.2573V18.7917C52.7325 22.9649 50.3443 26.921 47.8516 31.038C45.375 26.9532 42.9627 22.973 40.5504 18.9927C40.4941 19.0168 40.4459 19.0409 40.3896 19.057V29.864H42.3194V37.5914C37.8165 37.8246 33.3458 38.0577 28.7544 38.299V32.8231C28.7544 32.7266 28.7544 32.6301 28.7544 32.5336C28.7544 31.2042 29.4245 30.4671 30.7646 30.3224V8.6038H28.8348V0.530702C31.3194 0.418129 33.78 0.305556 36.2405 0.176901C36.7551 0.152778 37.2537 0.0643275 37.7522 0C38.4598 0 39.1674 0 39.875 0C42.5124 4.67178 45.1498 9.34357 47.8516 14.136C50.5051 9.43202 53.0621 4.89693 55.6111 0.361842C55.6674 0.25731 55.6593 0.120614 55.6754 0C56.383 0 57.0906 0 57.7982 0H57.7902Z" fill="white"/>
<path d="M0 9.22295C1.64839 7.61477 3.2807 5.9905 4.96126 4.41447C5.30702 4.08479 5.80556 3.8114 6.27193 3.73903C10.7668 2.99123 15.2617 2.29167 19.7566 1.55994C20.4079 1.45541 20.8903 1.57602 21.3728 2.0826C22.7639 3.54605 24.2434 4.92909 25.6345 6.39254C25.924 6.6981 26.1491 7.20468 26.1572 7.62281C26.2134 9.41593 26.1813 11.201 26.1813 13.0987C23.0534 13.6133 19.9656 14.1199 16.701 14.6586C16.701 13.4927 16.701 12.4152 16.701 11.3458C16.701 10.3326 16.0015 9.67324 15.0044 9.79386C13.6374 9.96272 12.2705 10.1637 10.9115 10.3889C10.2039 10.5095 9.45614 11.4583 9.45614 12.182C9.4481 13.2354 9.45614 14.2968 9.45614 15.3501C9.45614 16.8297 10.22 17.5051 11.6674 17.28C14.3289 16.8618 16.9905 16.4437 19.644 16.0095C20.2873 15.905 20.7697 15.9854 21.2763 16.4839C22.7076 17.9072 24.2273 19.2339 25.6747 20.6491C25.9561 20.9225 26.1652 21.405 26.1732 21.7909C26.2054 25.731 26.2054 29.6711 26.1732 33.6031C26.1732 33.9971 25.9722 34.4795 25.7069 34.761C24.2193 36.3129 22.6996 37.8246 21.1477 39.3121C20.8501 39.6016 20.3999 39.8268 19.9898 39.8911C15.6637 40.6228 11.3216 41.3143 6.98757 42.038C6.36038 42.1425 5.92617 42.0219 5.47588 41.5234C3.68275 39.5694 1.84137 37.6557 0.0160819 35.7339C0.0160819 33.5548 0.0160819 31.3757 0.0160819 29.2047C3.12792 28.682 6.23172 28.1513 9.46418 27.6045C9.46418 28.867 9.45614 29.9766 9.46418 31.0863C9.48026 32.1075 10.3406 32.8311 11.3538 32.6623C12.6162 32.4452 13.8706 32.212 15.125 31.9547C16.0417 31.7617 16.5965 31.0782 16.6769 30.2339C16.8056 28.9393 16.7493 27.6126 16.701 26.3099C16.6689 25.3611 15.5994 24.5972 14.6506 24.742C12.0292 25.152 9.39985 25.5219 6.78655 26.0044C6.05482 26.1411 5.61257 25.9722 5.11403 25.4656C3.42544 23.8012 1.70468 22.193 0 20.5607C0 16.7814 0 13.0022 0 9.22295Z" fill="white"/>
<path d="M83.7544 2.09064V9.93055C83.1111 9.87427 82.5161 9.81798 81.8004 9.75365C81.7763 10.1477 81.7361 10.4854 81.7361 10.8231C81.7361 17.1594 81.7361 23.5037 81.7361 29.8399C81.7361 30.9415 82.3553 31.6974 83.4327 31.9225C84.6871 32.1798 85.9415 32.4452 87.2039 32.6784C88.0563 32.8392 88.981 32.1557 88.981 31.2953C88.9971 24.5409 88.989 17.7865 88.989 11.0563C88.8443 10.9759 88.7719 10.9196 88.6835 10.8874C87.4934 10.4907 86.8984 9.64376 86.8984 8.34649C86.8984 6.5212 86.8984 4.70395 86.8984 2.73392C91.4817 3.7712 95.9846 4.78436 100.504 5.79751V13.3801C99.8362 13.2836 99.2091 13.1952 98.4452 13.0906V14.2727C98.4452 21.3808 98.4371 28.489 98.4612 35.5972C98.4612 36.3048 98.2522 36.7792 97.7295 37.2456C96.2902 38.5161 94.9152 39.867 93.4678 41.1294C93.1864 41.3787 92.6637 41.5395 92.3019 41.4832C87.6784 40.7434 83.0709 39.9634 78.4554 39.1674C78.1659 39.1191 77.8604 38.9342 77.6593 38.7171C75.9627 36.924 74.2741 35.1228 72.6338 33.2814C72.3765 32.992 72.28 32.4773 72.28 32.0672C72.2558 24.6053 72.2639 17.1433 72.2639 9.68933C72.2639 9.3114 72.2639 8.92544 72.2639 8.49123C71.5804 8.3867 70.9612 8.28216 70.2617 8.17763V0.34576C74.7807 0.932748 79.2515 1.5117 83.7624 2.09064H83.7544Z" fill="white"/>
</svg>
