<svg width="172" height="38" viewBox="0 0 172 38" fill="none" xmlns="http://www.w3.org/2000/svg">
<path d="M73.3675 18.4375H70.7159C70.6497 18.4375 70.6055 18.3933 70.6055 18.327V0.871222C70.6055 0.804934 70.6497 0.760742 70.7159 0.760742H74.6932C74.7595 0.760742 74.8037 0.782838 74.8037 0.871222L75.4445 7.83145H75.8864L76.5272 0.871222C76.5272 0.782838 76.5714 0.760742 76.6377 0.760742H80.6149C80.6812 0.760742 80.7254 0.804934 80.7254 0.871222V18.327C80.7254 18.3933 80.6812 18.4375 80.6149 18.4375H77.9634C77.8971 18.4375 77.8529 18.3933 77.8529 18.327V8.71528H77.411L76.5493 18.327C76.5493 18.4154 76.5051 18.4375 76.4388 18.4375H74.8921C74.8258 18.4375 74.7816 18.4154 74.7816 18.327L73.9199 8.71528H73.4779V18.327C73.4779 18.3933 73.4338 18.4375 73.3675 18.4375Z" fill="white"/>
<path d="M86.5819 10.9249H84.4828V15.786H87.2448C87.311 15.786 87.3552 15.8302 87.3552 15.8965V18.327C87.3552 18.3933 87.311 18.4375 87.2448 18.4375H81.7208C81.6545 18.4375 81.6103 18.3933 81.6103 18.327V0.871222C81.6103 0.804934 81.6545 0.760742 81.7208 0.760742H87.0238C87.0901 0.760742 87.1343 0.804934 87.1343 0.871222V3.30178C87.1343 3.36806 87.0901 3.41226 87.0238 3.41226H84.4828V8.27337H86.5819C86.6482 8.27337 86.6924 8.31756 86.6924 8.38385V10.8144C86.6924 10.8807 86.6482 10.9249 86.5819 10.9249Z" fill="white"/>
<path d="M90.9968 18.4375H88.3452C88.279 18.4375 88.2348 18.3933 88.2348 18.327V0.871222C88.2348 0.804934 88.279 0.760742 88.3452 0.760742H90.9968C91.063 0.760742 91.1072 0.804934 91.1293 0.871222L92.6539 8.27337H93.0959V0.871222C93.0959 0.804934 93.1401 0.760742 93.2063 0.760742H96.0788C96.1451 0.760742 96.1893 0.804934 96.1893 0.871222V18.327C96.1893 18.3933 96.1451 18.4375 96.0788 18.4375H93.5157C93.4494 18.4375 93.4052 18.3933 93.3831 18.327L91.5492 10.041H91.1072V18.327C91.1072 18.3933 91.063 18.4375 90.9968 18.4375Z" fill="white"/>
<path d="M106.685 10.483H104.586V10.9249C106.353 10.9249 106.795 12.2506 106.795 14.4602V14.9022C106.795 17.1117 106.353 18.4375 104.586 18.4375H101.492C99.7247 18.4375 99.2827 17.1117 99.2827 14.9022V10.9691C99.2827 9.77589 99.9898 9.42236 100.321 9.37816V8.93624C99.9898 8.89205 99.2827 8.53852 99.2827 7.34534V4.29609C99.2827 2.0865 99.7247 0.760742 101.492 0.760742H104.144C105.912 0.760742 106.353 2.0865 106.353 4.29609V6.28473C106.353 6.35102 106.309 6.39521 106.243 6.39521H103.591C103.525 6.39521 103.481 6.35102 103.481 6.28473V3.41226H102.155V7.83145H106.685C106.751 7.83145 106.795 7.87564 106.795 7.94193V10.3725C106.795 10.4388 106.751 10.483 106.685 10.483ZM103.923 15.786V10.483H102.155V15.786H103.923Z" fill="white"/>
<path d="M110.872 18.327L109.657 0.871222C109.657 0.804934 109.701 0.760742 109.767 0.760742H112.419C112.485 0.760742 112.529 0.804934 112.529 0.871222L113.214 10.7039H113.656L114.23 0.871222C114.23 0.782838 114.275 0.760742 114.341 0.760742H116.33C116.396 0.760742 116.44 0.782838 116.44 0.871222L117.015 10.7039H117.456L118.141 0.871222C118.141 0.804934 118.186 0.760742 118.252 0.760742H120.903C120.97 0.760742 121.014 0.804934 121.014 0.871222L119.799 18.327C119.799 18.3933 119.754 18.4375 119.688 18.4375H116.087C116.02 18.4375 115.976 18.4154 115.976 18.327L115.556 11.3668H115.114L114.694 18.327C114.694 18.4154 114.65 18.4375 114.584 18.4375H110.982C110.916 18.4375 110.872 18.3933 110.872 18.327Z" fill="white"/>
<path d="M126.542 0.760742C128.31 0.760742 128.751 2.0865 128.751 4.29609V14.9022C128.751 17.1117 128.31 18.4375 126.542 18.4375H123.89C122.123 18.4375 121.681 17.1117 121.681 14.9022V4.29609C121.681 2.0865 122.123 0.760742 123.89 0.760742H126.542ZM125.879 15.786V3.41226H124.553V15.786H125.879Z" fill="white"/>
<path d="M132.405 18.4375H129.754C129.687 18.4375 129.643 18.3933 129.643 18.327V0.871222C129.643 0.804934 129.687 0.760742 129.754 0.760742H133.731C133.797 0.760742 133.841 0.782838 133.841 0.871222L134.482 7.83145H134.924L135.565 0.871222C135.565 0.782838 135.609 0.760742 135.675 0.760742H139.653C139.719 0.760742 139.763 0.804934 139.763 0.871222V18.327C139.763 18.3933 139.719 18.4375 139.653 18.4375H137.001C136.935 18.4375 136.891 18.3933 136.891 18.327V8.71528H136.449L135.587 18.327C135.587 18.4154 135.543 18.4375 135.476 18.4375H133.93C133.863 18.4375 133.819 18.4154 133.819 18.327L132.957 8.71528H132.516V18.327C132.516 18.3933 132.471 18.4375 132.405 18.4375Z" fill="white"/>
<path d="M145.619 10.9249H143.52V15.786H146.282C146.349 15.786 146.393 15.8302 146.393 15.8965V18.327C146.393 18.3933 146.349 18.4375 146.282 18.4375H140.758C140.692 18.4375 140.648 18.3933 140.648 18.327V0.871222C140.648 0.804934 140.692 0.760742 140.758 0.760742H146.061C146.128 0.760742 146.172 0.804934 146.172 0.871222V3.30178C146.172 3.36806 146.128 3.41226 146.061 3.41226H143.52V8.27337H145.619C145.686 8.27337 145.73 8.31756 145.73 8.38385V10.8144C145.73 10.8807 145.686 10.9249 145.619 10.9249Z" fill="white"/>
<path d="M150.034 18.4375H147.383C147.317 18.4375 147.272 18.3933 147.272 18.327V0.871222C147.272 0.804934 147.317 0.760742 147.383 0.760742H150.034C150.101 0.760742 150.145 0.804934 150.167 0.871222L151.692 8.27337H152.133V0.871222C152.133 0.804934 152.178 0.760742 152.244 0.760742H155.116C155.183 0.760742 155.227 0.804934 155.227 0.871222V18.327C155.227 18.3933 155.183 18.4375 155.116 18.4375H152.553C152.487 18.4375 152.443 18.3933 152.421 18.327L150.587 10.041H150.145V18.327C150.145 18.3933 150.101 18.4375 150.034 18.4375Z" fill="white"/>
<path d="M163.181 0.760742C164.949 0.760742 165.391 2.0865 165.391 4.29609V14.9022C165.391 17.1117 164.949 18.4375 163.181 18.4375H160.53C158.762 18.4375 158.32 17.1117 158.32 14.9022V4.29609C158.32 2.0865 158.762 0.760742 160.53 0.760742H163.181ZM162.519 15.786V3.41226H161.193V15.786H162.519Z" fill="white"/>
<path d="M166.393 0.760742H171.696C171.762 0.760742 171.807 0.804934 171.807 0.871222V3.30178C171.807 3.36806 171.762 3.41226 171.696 3.41226H169.155V8.27337H171.254C171.321 8.27337 171.365 8.31756 171.365 8.38385V10.8144C171.365 10.8807 171.321 10.9249 171.254 10.9249H169.155V18.327C169.155 18.3933 169.111 18.4375 169.045 18.4375H166.393C166.327 18.4375 166.283 18.3933 166.283 18.327V0.871222C166.283 0.804934 166.327 0.760742 166.393 0.760742Z" fill="white"/>
<path d="M75.4666 20.3072C77.2343 20.3072 77.6762 21.6329 77.6762 23.8425V34.4486C77.6762 36.6582 77.2343 37.9839 75.4666 37.9839H70.7159C70.6497 37.9839 70.6055 37.9397 70.6055 37.8734V20.4176C70.6055 20.3514 70.6497 20.3072 70.7159 20.3072H75.4666ZM74.8037 35.3324V22.9587H73.4779V35.3324H74.8037Z" fill="white"/>
<path d="M81.3298 37.9839H78.6783C78.612 37.9839 78.5678 37.9397 78.5678 37.8734V20.4176C78.5678 20.3514 78.612 20.3072 78.6783 20.3072H81.3298C81.3961 20.3072 81.4403 20.3514 81.4403 20.4176V37.8734C81.4403 37.9397 81.3961 37.9839 81.3298 37.9839Z" fill="white"/>
<path d="M86.5206 26.5161V22.9587H85.1948V26.1626C85.1948 26.4056 85.1727 26.8255 85.6368 27.0464L87.4044 27.9303C88.7523 28.5931 89.3931 29.3886 89.3931 31.1784V34.4486C89.3931 36.6582 88.9512 37.9839 87.1835 37.9839H84.532C82.7643 37.9839 82.3224 36.6582 82.3224 34.4486V30.8911C82.3224 30.8248 82.3666 30.7806 82.4328 30.7806H85.0844C85.1506 30.7806 85.1948 30.8248 85.1948 30.8911V35.3324H86.5206V31.2447C86.5206 31.0016 86.5427 30.5818 86.0787 30.3608L84.311 29.477C82.9631 28.8141 82.3224 28.0186 82.3224 26.2289V23.8425C82.3224 21.6329 82.7643 20.3072 84.532 20.3072H87.1835C88.9512 20.3072 89.3931 21.6329 89.3931 23.8425V26.5161C89.3931 26.5824 89.3489 26.6266 89.2826 26.6266H86.6311C86.5648 26.6266 86.5206 26.5824 86.5206 26.5161Z" fill="white"/>
<path d="M94.4829 27.8861V22.9587H93.1572V35.3324H94.4829V29.4328C94.4829 29.3665 94.5271 29.3223 94.5934 29.3223H97.2449C97.3112 29.3223 97.3554 29.3665 97.3554 29.4328V34.4486C97.3554 36.6582 96.9135 37.9839 95.1458 37.9839H92.4943C90.7266 37.9839 90.2847 36.6582 90.2847 34.4486V23.8425C90.2847 21.6329 90.7266 20.3072 92.4943 20.3072H95.1458C96.9135 20.3072 97.3554 21.6329 97.3554 23.8425V27.8861C97.3554 27.9524 97.3112 27.9966 97.2449 27.9966H94.5934C94.5271 27.9966 94.4829 27.9524 94.4829 27.8861Z" fill="white"/>
<path d="M103.108 20.3072C104.876 20.3072 105.318 21.6329 105.318 23.8425V34.4486C105.318 36.6582 104.876 37.9839 103.108 37.9839H100.457C98.6889 37.9839 98.247 36.6582 98.247 34.4486V23.8425C98.247 21.6329 98.6889 20.3072 100.457 20.3072H103.108ZM102.445 35.3324V22.9587H101.119V35.3324H102.445Z" fill="white"/>
<path d="M108.971 37.9839H106.32C106.253 37.9839 106.209 37.9397 106.209 37.8734V20.4176C106.209 20.3514 106.253 20.3072 106.32 20.3072H110.297C110.363 20.3072 110.408 20.3293 110.408 20.4176L111.048 27.3779H111.49L112.131 20.4176C112.131 20.3293 112.175 20.3072 112.241 20.3072H116.219C116.285 20.3072 116.329 20.3514 116.329 20.4176V37.8734C116.329 37.9397 116.285 37.9839 116.219 37.9839H113.567C113.501 37.9839 113.457 37.9397 113.457 37.8734V28.2617H113.015L112.153 37.8734C112.153 37.9618 112.109 37.9839 112.043 37.9839H110.496C110.43 37.9839 110.385 37.9618 110.385 37.8734L109.524 28.2617H109.082V37.8734C109.082 37.9397 109.038 37.9839 108.971 37.9839Z" fill="white"/>
<path d="M117.325 20.3072H122.628C122.694 20.3072 122.738 20.3514 122.738 20.4176V22.8482C122.738 22.9145 122.694 22.9587 122.628 22.9587H120.087V27.8198H122.186C122.252 27.8198 122.296 27.864 122.296 27.9303V30.3608C122.296 30.4271 122.252 30.4713 122.186 30.4713H120.087V37.8734C120.087 37.9397 120.042 37.9839 119.976 37.9839H117.325C117.258 37.9839 117.214 37.9397 117.214 37.8734V20.4176C117.214 20.3514 117.258 20.3072 117.325 20.3072Z" fill="white"/>
<path d="M128.268 20.3072C130.036 20.3072 130.478 21.6329 130.478 23.8425V34.4486C130.478 36.6582 130.036 37.9839 128.268 37.9839H125.617C123.849 37.9839 123.407 36.6582 123.407 34.4486V23.8425C123.407 21.6329 123.849 20.3072 125.617 20.3072H128.268ZM127.605 35.3324V22.9587H126.28V35.3324H127.605Z" fill="white"/>
<path d="M138.705 37.8514C138.749 37.9176 138.705 37.9839 138.639 37.9839H135.943C135.899 37.9839 135.833 37.9397 135.811 37.8955C135.523 37.4536 135.523 36.6803 135.523 36.2604L135.568 30.0294H134.242V37.8734C134.242 37.9397 134.198 37.9839 134.131 37.9839H131.48C131.414 37.9839 131.369 37.9397 131.369 37.8734V20.4176C131.369 20.3514 131.414 20.3072 131.48 20.3072H136.23C137.998 20.3072 138.44 21.6329 138.44 23.8425V26.8918C138.44 28.0849 137.755 28.4385 137.402 28.4827V28.9246C137.733 28.9688 138.44 29.3223 138.44 30.5155V36.2604C138.44 36.6361 138.44 37.4094 138.705 37.8514ZM134.242 27.3779H135.568V22.9587H134.242V27.3779Z" fill="white"/>
<path d="M139.248 20.3072H145.435C145.501 20.3072 145.545 20.3514 145.545 20.4176V22.8482C145.545 22.9145 145.501 22.9587 145.435 22.9587H143.778V37.8734C143.778 37.9397 143.733 37.9839 143.667 37.9839H141.016C140.949 37.9839 140.905 37.9397 140.905 37.8734V22.9587H139.248C139.182 22.9587 139.137 22.9145 139.137 22.8482V20.4176C139.137 20.3514 139.182 20.3072 139.248 20.3072Z" fill="white"/>
<path d="M60.6395 23.4527L58.897 24.7333C57.8683 23.3267 57.4065 21.5843 57.6374 19.8418L57.7004 19.3799L56.6507 17.2595C56.5667 17.0916 56.3988 16.9866 56.2308 16.9866H56.0839C56.1049 17.0496 56.1259 17.0916 56.1468 17.1546C56.5247 18.0573 56.6507 19.044 56.5457 20.0097L55.601 27.8404C56.8606 29.7928 57.5324 32.0392 57.5324 34.3905V37.7075H55.3701V34.3905C55.3701 32.3541 54.7613 30.4017 53.5856 28.7431L53.3547 28.4072L54.4044 19.7788C54.4673 19.191 54.3834 18.5821 54.1524 18.0153C53.2917 15.9579 51.5912 14.3624 49.4708 13.6696L27.7422 6.38472C28.414 7.62336 28.8339 8.96696 29.0018 10.4155L30.7653 26.0559H38.2601C40.6114 26.0559 42.8997 25.0902 44.5373 23.3897L45.461 22.424L52.179 32.2491C52.7458 33.0889 53.0608 34.0546 53.0608 35.0833V37.7075H50.8984V35.0833C50.8984 34.5164 50.7304 33.9496 50.3945 33.4877L49.8277 32.648L45.6079 37.7075H42.7738L48.5471 30.7795L45.1251 25.762C43.9074 26.7487 42.4589 27.4625 40.9473 27.8614L42.7738 30.0867C43.8235 31.3674 43.8235 33.2148 42.7528 34.4745L40.0866 37.7075H37.2734L41.0943 33.0889C41.4932 32.606 41.4932 31.9342 41.0943 31.4723L38.4071 28.2183C38.3651 28.2183 38.3021 28.2183 38.2601 28.2183H31.0172L32.0879 37.7285H29.9046L28.9389 29.205L26.1887 32.0182L26.8395 33.5087C27.2174 34.3905 27.4693 35.3142 27.5533 36.2589L27.7002 37.7285H25.5169L25.3909 36.4689C25.3279 35.7551 25.139 35.0413 24.8451 34.3905L24.5301 33.6977L20.6043 37.7075H17.5602L28.6239 26.3918L26.8395 10.6255C26.6295 8.75703 25.8528 7.03553 24.5721 5.64994C23.2915 4.26435 21.633 3.36161 19.7855 3.02571C17.1613 2.54285 14.4741 3.4036 12.6057 5.33503L8.67982 9.42883L7.16826 9.80672C5.55174 10.2056 4.20813 11.3183 3.49434 12.8298C3.15844 13.5436 2.96949 14.3624 2.96949 15.1601V20.8285H5.27882V22.9908H2.96949V24.5024H3.22142C4.20813 24.5024 5.11086 25.0272 5.61472 25.867L6.22354 26.8957C6.3495 27.1056 6.53844 27.2526 6.76938 27.3366L8.13398 27.7984L9.70851 23.9775L14.1382 24.7963C14.81 24.9223 15.4608 25.1742 16.0277 25.5311C17.7491 26.6228 18.7149 28.5542 18.5469 30.5906L18.4419 31.9132C18.337 33.2568 17.7491 34.5164 16.8044 35.4612L14.6421 37.7075H11.598L15.2299 34.0126C15.8177 33.4248 16.1746 32.627 16.2586 31.7872L16.3636 30.4646C16.4685 29.247 15.8807 28.0713 14.852 27.4205C14.4951 27.1896 14.1172 27.0426 13.7183 26.9797L11.0311 26.4758L9.35162 30.5486L6.07658 29.4149C5.36279 29.163 4.75397 28.6802 4.37608 28.0294L3.76726 27.0007C3.66229 26.8117 3.45235 26.7067 3.24241 26.7067H2.90651C1.75185 26.7067 0.828125 25.783 0.828125 24.6284V15.1811C0.828125 14.0685 1.08005 12.9348 1.54191 11.9271C2.52862 9.78572 4.39708 8.25317 6.64341 7.68634L7.54615 7.45541L11.0311 3.84447C13.4244 1.40919 16.8254 0.317508 20.1634 0.926329C22.0109 1.26223 23.6904 2.039 25.118 3.23565L50.1636 11.6122C52.0111 12.221 53.6066 13.3547 54.7822 14.8452H56.2308C57.2385 14.8452 58.1623 15.4121 58.6031 16.3148L59.9257 19.002L59.7788 20.1147C59.6318 21.3113 59.9257 22.487 60.6395 23.4527Z" fill="white"/>
<path d="M13.1095 10.3106V12.116C13.1095 13.5436 11.9549 14.6983 10.5273 14.6983H7.25224V12.5359H10.5273C10.7582 12.5359 10.9262 12.347 10.9262 12.137V10.3316L13.1095 10.3106Z" fill="white"/>
</svg>
