<svg width="151" height="49" viewBox="0 0 151 49" fill="none" xmlns="http://www.w3.org/2000/svg">
<path d="M8.54237 39.1283C7.11464 35.085 6.95867 30.9338 7.81051 26.7586C9.28623 19.548 13.1495 13.9211 19.2923 9.85386C19.9762 9.39794 20.696 9.01402 21.4039 8.60609C21.7878 8.37814 22.1838 8.13818 22.1358 7.63428C22.0878 7.07039 22.1358 6.51849 22.2557 5.9786C22.5077 4.70684 23.0116 3.54306 23.8994 2.57125C24.7873 1.59943 25.8671 0.963555 27.2108 0.867573C27.1508 0.843578 27.1028 0.819582 27.0548 0.819582C24.5233 0.507642 22.0038 0.591626 19.4963 1.07153C9.4542 2.99117 1.65568 11.1496 0.227956 21.2037C0.15597 21.6716 0.191963 22.1635 0 22.6074V23.1953C0.131975 23.3633 0.119977 23.5312 0 23.6992V25.7028C0.107979 25.9788 0.15597 26.2547 0 26.5427V26.7106C0.083984 26.7346 0.0719863 26.8066 0.083984 26.8786C0.167968 27.4785 0.215959 28.0904 0.323938 28.6903C1.73967 36.4048 5.93887 42.1397 12.7776 45.955C13.0415 46.0989 13.3055 46.2189 13.5694 46.3509C13.5694 46.2549 13.5454 46.2069 13.4974 46.1829C11.0619 44.3833 9.51418 41.9477 8.51837 39.1403L8.54237 39.1283Z" fill="white"/>
<path d="M0 25.7028V26.5427C0.0719863 26.2667 0.0719863 25.9908 0 25.7028Z" fill="white"/>
<path d="M0 25.7028C0.0719863 25.9788 0.0719863 26.2547 0 26.5427C0.15597 26.2667 0.107979 25.9908 0 25.7028Z" fill="white"/>
<path d="M0 23.1953V23.6992C0.0719863 23.5312 0.0719863 23.3633 0 23.1953Z" fill="white"/>
<path d="M0 23.6992C0.0719863 23.5312 0.0719863 23.3633 0 23.1953C0.131975 23.3633 0.119977 23.5312 0 23.6992Z" fill="white"/>
<path d="M34.1815 2.8352C32.4058 1.98336 30.5462 1.38347 28.6025 1.05954C28.5785 1.08353 28.5545 1.10753 28.5186 1.13152C30.3542 2.04335 31.398 4.03497 31.1341 6.06258C30.8701 8.0542 29.8743 9.58991 28.3146 10.8017C27.6067 11.3416 26.8149 11.6535 25.9031 11.4615C25.7231 11.4256 25.6631 11.4616 25.7111 11.6415C25.7231 11.7135 25.7231 11.7855 25.7231 11.8455C25.7231 12.9253 25.6031 13.9811 25.0872 14.9529C24.2834 16.4646 24.1754 18.1083 24.2354 19.776C24.4153 20.2199 24.4393 20.6998 24.6313 21.1557C25.4351 23.0273 26.9349 24.1191 28.7105 24.947C29.3584 25.2469 30.0423 25.4869 30.7501 25.6188C31.1461 23.7112 32.4058 22.6194 34.1815 22.0795C35.7532 21.5996 37.2769 22.2475 38.1407 23.7112C38.9446 25.0909 38.7286 26.3987 37.5048 27.6225C36.929 28.1984 36.2211 28.5343 35.5132 28.8942C34.9613 29.1702 34.9013 29.4341 35.2493 29.866C36.9649 31.9776 37.4808 34.4372 37.1689 37.0647C36.737 40.748 35.1893 43.9873 33.0657 47.0228C33.8215 46.7348 34.5294 46.3989 35.2253 46.0389C45.2554 40.8199 50.3424 29.2781 47.319 18.3962C45.3273 11.2456 40.8762 6.08658 34.1815 2.87119V2.8352Z" fill="white"/>
<path d="M17.7806 22.8474C16.6768 24.719 15.945 26.7226 15.573 28.8582C15.537 29.0622 15.585 29.2781 15.465 29.4581C15.465 29.6141 15.465 29.7821 15.465 29.938L15.3931 30.3699C15.3931 30.9218 15.3931 31.4737 15.3931 32.0256C15.573 35.145 16.7728 37.8565 18.7404 40.2441C19.4603 41.1199 20.2521 41.9117 21.2359 42.4876C23.1076 43.6034 25.0512 43.4354 26.7309 42.0557C28.7345 40.4 29.8623 38.1924 30.6182 35.7689C30.8821 34.9411 31.0981 34.0892 31.0381 33.2014C30.6182 32.6615 30.1143 32.1936 29.6223 31.7257C27.5467 29.7701 25.4351 27.8624 23.6115 25.6548C22.1358 23.8672 20.84 21.9715 20.2401 19.68C19.1843 20.5438 18.4765 21.6716 17.7926 22.8234L17.7806 22.8474Z" fill="white"/>
<path d="M88.6031 34.8691C88.5431 33.8973 88.4951 32.9255 88.4951 31.9536C88.4951 25.9908 88.4951 20.0279 88.4951 14.0531C88.4951 13.6811 88.3991 13.5851 88.0392 13.5971C86.8034 13.6211 85.5557 13.6211 84.3199 13.5971C83.96 13.5971 83.828 13.6691 83.828 14.0651C83.852 16.4286 83.828 18.7922 83.828 21.1557V21.6836C83.3481 21.0837 82.8202 20.6758 82.1963 20.4238C79.3409 19.2601 75.9575 20.3639 74.3978 23.1473C72.7181 26.1108 72.6941 29.2182 74.2178 32.2416C75.5376 34.8571 78.2491 36.0329 81.0205 35.373C82.3883 35.049 83.4801 34.3052 84.2719 32.9734C84.3319 33.6813 84.3919 34.2692 84.4279 34.8571C84.4399 35.121 84.5119 35.217 84.7998 35.217C85.9516 35.205 87.1154 35.205 88.2671 35.217C88.5431 35.217 88.6151 35.145 88.6031 34.8691ZM83.84 27.7184C83.816 28.1984 83.864 28.7622 83.792 29.3261C83.624 30.5499 82.8682 31.4737 81.7644 31.7617C80.6006 32.0736 79.3888 31.6297 78.669 30.6339C77.5772 29.1222 77.6372 26.1587 78.789 24.683C79.5328 23.7232 80.7686 23.3393 81.9204 23.6992C83.0002 24.0471 83.804 25.1269 83.828 26.3267C83.828 26.7586 83.828 27.1905 83.828 27.7064L83.84 27.7184Z" fill="white"/>
<path d="M52.226 35.217C53.5338 35.217 54.8415 35.205 56.1493 35.217C56.4492 35.217 56.5212 35.133 56.5092 34.8451C56.4972 33.5373 56.5092 32.2296 56.5092 30.9218C56.5092 30.7779 56.4852 30.6219 56.5932 30.4899C56.9411 30.046 57.2891 29.6021 57.649 29.1342C57.733 29.2661 57.793 29.3501 57.853 29.4461C58.9088 31.2218 59.9765 32.9974 61.0083 34.7971C61.2003 35.121 61.4043 35.217 61.7642 35.217C63.3479 35.193 64.9436 35.217 66.5273 35.217H66.9832C66.8512 35.025 66.7673 34.8811 66.6713 34.7491C64.8236 32.0616 62.976 29.3621 61.1043 26.6746C60.9364 26.4227 60.9484 26.2907 61.1403 26.0748C61.9322 25.2109 62.7 24.3351 63.4679 23.4593C64.3677 22.4395 65.2675 21.4196 66.1794 20.3878C66.0954 20.3638 66.0594 20.3399 66.0234 20.3399C64.2957 20.3399 62.5681 20.3399 60.8404 20.3399C60.6604 20.3399 60.5644 20.4118 60.4685 20.5438C59.1607 22.5474 57.745 24.4791 56.4852 26.6626V26.1108C56.4852 22.0795 56.4852 18.0363 56.4852 14.0051C56.4852 13.7051 56.4372 13.5971 56.1013 13.5971C54.8055 13.6211 53.5098 13.6091 52.214 13.5971C51.9261 13.5971 51.8301 13.6691 51.8301 13.9691C51.8301 20.9397 51.8301 27.9104 51.8301 34.8811C51.8301 35.169 51.9261 35.217 52.19 35.217H52.226Z" fill="white"/>
<path d="M31.0141 33.2134C31.182 33.4533 31.1461 33.7293 31.1101 33.9812C30.6302 36.9087 29.4544 39.5122 27.3548 41.6478C26.5629 42.4516 25.6151 43.0395 24.4873 43.2675C23.4075 43.4834 22.3757 43.2675 21.4279 42.7516C19.9162 41.9237 18.8124 40.652 17.8286 39.2602C16.4129 37.2566 15.561 35.025 15.2971 32.5775C15.2731 32.3736 15.2731 32.1576 15.2731 31.9536C15.2731 31.4497 15.2731 30.9338 15.2731 30.4299C15.2731 30.262 15.3211 30.106 15.3451 29.938C15.3691 29.7821 15.3451 29.6261 15.3811 29.4701C15.621 27.7424 16.0649 26.0628 16.8088 24.4911C17.5886 22.8474 18.4765 21.2637 19.7842 19.9439C19.9042 19.824 20.0122 19.644 20.2281 19.692C20.2521 19.428 20.0962 19.2121 20.0722 18.9601C20.0242 18.6482 19.8442 18.5642 19.5443 18.5642C18.9804 18.5762 18.7284 19.0081 18.4525 19.38C16.2449 22.2355 14.7212 25.4269 13.9293 28.9542C13.1975 32.2416 13.2335 35.505 14.3853 38.7203C15.633 42.2237 17.9126 44.9592 20.876 47.1427C22.0878 48.0426 23.4675 48.3305 24.9552 47.9346C26.191 47.5986 27.1748 46.8428 28.0027 45.907C29.4064 44.3233 30.4862 42.5236 31.338 40.592C31.9979 39.1163 32.4778 37.6046 32.3698 35.9609C32.2978 34.8691 31.9259 33.9093 31.0261 33.2014L31.0141 33.2134Z" fill="white"/>
<path d="M19.7722 19.9559C18.4765 21.2637 17.5766 22.8474 16.7968 24.5031C16.0409 26.0868 15.609 27.7544 15.3691 29.4821C15.3451 29.6381 15.3691 29.794 15.3331 29.95C15.3091 30.106 15.2611 30.274 15.2611 30.4419C15.2611 30.9458 15.2611 31.4617 15.2611 31.9656C15.2611 32.1696 15.2611 32.3856 15.2851 32.5895C15.537 35.037 16.4009 37.2566 17.8166 39.2722C18.7884 40.664 19.8922 41.9237 21.4159 42.7636C22.3757 43.2915 23.3955 43.4954 24.4753 43.2795C25.6031 43.0515 26.5509 42.4636 27.3428 41.6598C29.4424 39.5242 30.6182 36.9207 31.0981 33.9932C31.1461 33.7413 31.17 33.4653 31.0021 33.2254C31.0621 34.1132 30.8461 34.9651 30.5822 35.7929C29.8263 38.2164 28.6985 40.412 26.6949 42.0797C25.0152 43.4594 23.0716 43.6274 21.2 42.5116C20.2161 41.9237 19.4243 41.1439 18.7044 40.268C16.7368 37.8685 15.537 35.169 15.3571 32.0496C15.2371 31.4977 15.2371 30.9458 15.3571 30.3939L15.4291 29.962C15.3331 29.794 15.3211 29.6381 15.4291 29.4821C15.561 29.3021 15.501 29.0742 15.537 28.8822C15.909 26.7466 16.6408 24.731 17.7446 22.8714C18.4285 21.7196 19.1363 20.5918 20.1921 19.728C19.9762 19.68 19.8682 19.8599 19.7482 19.9799L19.7722 19.9559Z" fill="white"/>
<path d="M99.0411 27.3945C98.3692 26.8426 97.5774 26.4947 96.7615 26.2067C96.0297 25.9428 95.2738 25.7388 94.6379 25.2709C93.9661 24.767 94.038 23.8912 94.7819 23.4953C95.0219 23.3753 95.2738 23.3033 95.5378 23.2793C96.7255 23.1833 97.8293 23.4953 98.8971 23.9632C99.1251 24.0591 99.1971 24.0351 99.257 23.7832C99.461 22.9314 99.665 22.0795 99.9049 21.2397C99.9889 20.9397 99.8809 20.8318 99.629 20.7238C98.0933 20.1119 96.5096 19.9079 94.8779 20.0519C93.5101 20.1839 92.2504 20.6158 91.1946 21.5516C89.5389 23.0273 88.855 26.1587 91.3746 28.0544C92.1784 28.6543 93.0782 29.0502 94.0141 29.3621C94.5779 29.5541 95.1538 29.7461 95.6457 30.094C96.0537 30.3819 96.2096 30.7779 96.1376 31.2578C96.0777 31.7257 95.7657 31.9896 95.3338 32.1216C94.7819 32.3016 94.218 32.3136 93.6421 32.2536C92.4424 32.1216 91.3026 31.7737 90.1868 31.1978C89.9348 32.1816 89.7309 33.1294 89.4549 34.0652C89.3469 34.4492 89.4669 34.5811 89.7789 34.7131C91.5185 35.445 93.3422 35.6729 95.2138 35.517C96.4736 35.409 97.6854 35.121 98.7412 34.3892C101.117 32.7455 101.273 29.2062 99.0531 27.4065L99.0411 27.3945Z" fill="white"/>
<path d="M143.961 20.7598C141.525 19.5 137.338 19.8599 135.334 23.3873C134.026 25.6908 133.81 28.1504 134.506 30.6819C135.106 32.8535 136.498 34.3292 138.634 35.085C140.097 35.6009 141.609 35.6009 143.133 35.421C144.128 35.301 145.1 35.073 146.036 34.7131C146.288 34.6171 146.336 34.4972 146.264 34.2452C146.132 33.8253 146.036 33.3934 145.928 32.9614C145.88 32.7575 145.832 32.6615 145.568 32.7695C144.308 33.2614 142.989 33.4054 141.645 33.3934C138.813 33.3694 136.894 31.5457 136.762 28.7263C136.75 28.4143 136.834 28.3303 137.146 28.3303C138.73 28.3423 140.325 28.3303 141.909 28.3303V28.3543C143.505 28.3543 145.112 28.3543 146.708 28.3543C147.02 28.3543 147.116 28.2583 147.128 27.9584C147.176 26.8666 147.152 25.7868 146.864 24.731C146.408 23.0393 145.58 21.5996 143.949 20.7598H143.961ZM144.212 26.3867C143.025 26.3867 141.849 26.3867 140.661 26.3867C139.473 26.3867 138.322 26.3867 137.146 26.3867C136.87 26.3867 136.786 26.3267 136.846 26.0388C137.074 24.899 137.482 23.8432 138.358 23.0393C140.493 21.0957 143.661 22.0675 144.368 24.851C144.464 25.2469 144.524 25.6428 144.548 26.0388C144.572 26.3387 144.464 26.3747 144.2 26.3747L144.212 26.3867Z" fill="white"/>
<path d="M112.79 30.6939C112.79 29.1222 112.79 27.5505 112.79 25.9788C112.79 25.3549 112.73 24.731 112.598 24.1191C112.167 22.2235 111.075 20.9037 109.143 20.3878C108.195 20.1359 107.224 20.1119 106.252 20.1959C104.956 20.3159 103.708 20.6518 102.556 21.2757C102.34 21.3837 102.28 21.5036 102.376 21.7316C102.544 22.1395 102.676 22.5714 102.808 22.9913C102.88 23.2313 102.964 23.2193 103.156 23.1113C104.296 22.4395 105.544 22.1635 106.864 22.1635C108.939 22.1635 110.091 23.3273 110.115 25.4029C110.115 25.7628 110.055 25.8708 109.671 25.8708C108.087 25.8468 106.528 26.0268 105.028 26.5547C103.036 27.2505 101.597 28.4503 101.285 30.6939C100.997 32.8055 102.184 34.7731 104.212 35.349C106.084 35.8769 107.823 35.5409 109.383 34.3532C109.731 34.0892 110.019 33.7413 110.355 33.3334C110.427 33.9333 110.487 34.4252 110.559 34.9171C110.583 35.073 110.583 35.241 110.835 35.229C111.495 35.205 112.143 35.229 112.802 35.229C112.982 35.229 113.042 35.193 113.018 34.9891C112.826 33.5613 112.814 32.1336 112.814 30.7059L112.79 30.6939ZM110.163 29.1942C110.163 29.998 110.235 30.8019 109.839 31.5577C109.071 33.0214 107.26 33.8613 105.676 33.4533C104.908 33.2494 104.344 32.7815 104.116 32.0256C103.708 30.6699 104.02 29.2781 105.472 28.5103C106.3 28.0664 107.188 27.8864 108.111 27.7904C108.663 27.7304 109.227 27.7424 109.779 27.6944C110.127 27.6585 110.199 27.8024 110.175 28.1144C110.151 28.4743 110.175 28.8342 110.175 29.1942H110.163Z" fill="white"/>
<path d="M135.13 20.4598C134.434 20.4838 133.738 20.4718 133.043 20.4598C132.803 20.4598 132.671 20.5198 132.587 20.7598C131.483 23.9752 130.355 27.1785 129.251 30.3939C129.011 31.0778 128.807 31.7857 128.567 32.5055C128.519 32.4575 128.495 32.4455 128.495 32.4215C127.392 28.4743 125.856 24.683 124.56 20.7958C124.476 20.5438 124.356 20.4478 124.092 20.4598C123.36 20.4838 122.617 20.4838 121.873 20.4598C121.573 20.4598 121.561 20.5438 121.657 20.7838C123.456 25.4989 125.256 30.214 127.044 34.9291C127.128 35.157 127.236 35.217 127.464 35.217C128.076 35.205 128.687 35.193 129.299 35.217C129.635 35.229 129.779 35.121 129.899 34.8211C130.859 32.3496 131.831 29.89 132.803 27.4185C133.666 25.2229 134.518 23.0273 135.394 20.8438C135.526 20.5078 135.454 20.4598 135.118 20.4718L135.13 20.4598Z" fill="white"/>
<path d="M72.3342 34.8691C72.3342 30.142 72.3342 25.4149 72.3342 20.6878C72.3342 20.4118 72.2622 20.3399 71.9863 20.3399C70.6785 20.3519 69.3708 20.3519 68.063 20.3399C67.7391 20.3399 67.6791 20.4358 67.6791 20.7358C67.6911 23.0753 67.6791 25.4029 67.6791 27.7424C67.6791 30.082 67.6791 32.4455 67.6791 34.7971C67.6791 35.157 67.7751 35.229 68.123 35.229C69.4067 35.205 70.6905 35.217 71.9623 35.229C72.2382 35.229 72.3462 35.193 72.3462 34.8811L72.3342 34.8691Z" fill="white"/>
<path d="M116.246 35.229C116.618 35.253 116.702 35.145 116.702 34.7731C116.69 29.5661 116.702 24.3711 116.702 19.1641C116.702 17.4364 116.702 15.7087 116.702 13.9931C116.702 13.6811 116.618 13.5851 116.306 13.5971C115.682 13.6211 115.046 13.6331 114.422 13.5971C114.05 13.5731 113.966 13.6931 113.966 14.0651C113.978 17.5324 113.966 20.9877 113.966 24.4551C113.966 27.9224 113.966 31.3537 113.966 34.8091C113.966 35.169 114.062 35.253 114.41 35.241C115.022 35.217 115.634 35.205 116.246 35.241V35.229Z" fill="white"/>
<path d="M118.357 35.217C119.005 35.193 119.665 35.193 120.325 35.217C120.637 35.217 120.721 35.157 120.721 34.8331C120.709 32.5055 120.721 30.19 120.721 27.8624C120.721 25.5349 120.721 23.1953 120.721 20.8558C120.721 20.5438 120.649 20.4478 120.325 20.4598C119.689 20.4838 119.041 20.4838 118.405 20.4598C118.069 20.4478 117.985 20.5438 117.985 20.8798C117.997 23.6752 117.985 26.4707 117.985 29.2662C117.985 31.1258 117.985 32.9974 117.985 34.8571C117.985 35.157 118.069 35.229 118.357 35.229V35.217Z" fill="white"/>
<path d="M131.627 37.8925C131.315 37.8925 131.159 37.9165 131.159 38.3004C131.183 40.0521 131.171 41.8038 131.159 43.5554C131.159 43.6754 131.231 43.8314 131.087 43.9393C129.059 41.8277 127.044 39.7162 124.956 37.5326C124.956 40.256 124.956 42.8715 124.956 45.487C124.956 45.919 125.172 45.859 125.436 45.871C125.748 45.895 125.904 45.847 125.892 45.4631C125.868 43.7114 125.892 41.9597 125.892 40.2081C125.892 40.1001 125.832 39.9681 125.952 39.8481C127.968 41.9477 129.971 44.0473 132.071 46.2309V45.835C132.071 43.3155 132.071 40.7959 132.071 38.2764C132.071 37.8805 131.903 37.8805 131.603 37.8685L131.627 37.8925Z" fill="white"/>
<path d="M62.4961 37.9045C62.2681 37.9045 62.0282 37.8205 62.0402 38.2284C62.0641 39.6442 62.0402 41.0599 62.0402 42.4876V44.0233C59.9406 41.8277 57.9249 39.7162 55.8373 37.5446C55.8373 40.304 55.8373 42.9435 55.8373 45.583C55.8373 46.0509 56.1613 45.835 56.3652 45.871C56.6052 45.907 56.7732 45.895 56.7732 45.547C56.7492 43.7714 56.7732 41.9837 56.7732 40.2081C56.7732 40.1001 56.7132 39.9681 56.8451 39.8601C58.8608 41.9597 60.8764 44.0713 62.928 46.2069C62.952 46.0869 62.964 46.0509 62.964 46.015C62.964 43.4114 62.964 40.8079 62.964 38.2164C62.964 37.7965 62.7 37.9165 62.4961 37.9165V37.9045Z" fill="white"/>
<path d="M92.9702 37.8925C92.6103 37.8685 92.5383 37.9885 92.5383 38.3244C92.5623 40.0641 92.5383 41.8038 92.5383 43.5434V44.0233C90.4507 41.8397 88.4471 39.7401 86.3475 37.5566C86.3475 40.316 86.3475 42.9435 86.3475 45.571C86.3475 45.991 86.6115 45.871 86.8154 45.871C87.0434 45.871 87.2833 45.943 87.2713 45.547C87.2473 43.9873 87.2713 42.4276 87.2713 40.8799C87.2713 40.556 87.2713 40.2201 87.2713 39.8001C89.3589 41.9717 91.3746 44.0713 93.4622 46.2549C93.4622 43.5194 93.4502 40.9159 93.4742 38.3244C93.4742 37.8805 93.2582 37.9285 92.9702 37.9045V37.8925Z" fill="white"/>
<path d="M70.0066 18.4202C71.5303 18.4202 72.6461 17.3644 72.6341 15.9487C72.6341 14.473 71.5663 13.4652 70.0306 13.4652C68.4949 13.4652 67.4031 14.485 67.4031 15.9247C67.4031 17.3644 68.4949 18.4202 70.0066 18.4202Z" fill="white"/>
<path d="M118.237 37.7485C115.946 37.7725 114.086 39.6322 114.098 41.8997C114.098 44.3353 116.198 46.0629 118.393 46.003C120.589 45.931 122.425 44.1073 122.413 41.8757C122.389 39.5962 120.505 37.7365 118.249 37.7605L118.237 37.7485ZM118.273 45.1511C116.486 45.1511 115.022 43.6874 115.022 41.8757C115.022 40.0521 116.45 38.6244 118.273 38.6244C120.061 38.6244 121.477 40.0641 121.477 41.8757C121.477 43.6634 120.025 45.1391 118.261 45.1391L118.273 45.1511Z" fill="white"/>
<path d="M81.6444 42.2477C82.7122 41.9837 83.3121 41.2279 83.3241 40.1121C83.3241 38.9843 82.7962 38.3124 81.6804 38.0245C80.9845 37.8445 80.2767 37.9045 79.5688 37.8805C79.3049 37.8805 79.2449 37.9645 79.2449 38.2164C79.2449 40.652 79.2569 43.0755 79.2449 45.511C79.2449 45.883 79.4368 45.871 79.6768 45.859C79.9167 45.859 80.1807 45.931 80.1567 45.511C80.1327 44.5992 80.1447 43.6754 80.1567 42.7636C80.1567 42.6436 80.0727 42.4516 80.2407 42.4036C80.4086 42.3556 80.4566 42.5476 80.5286 42.6556C81.2125 43.6394 81.8844 44.6232 82.5682 45.607C82.6522 45.727 82.7122 45.883 82.9042 45.871C83.2041 45.871 83.5041 45.871 83.876 45.871C83.0122 44.6592 82.2083 43.5194 81.3685 42.3317C81.4884 42.2957 81.5724 42.2717 81.6444 42.2477ZM80.1447 40.544V40.1241C80.1447 39.7761 80.1567 39.4282 80.1447 39.0803C80.1327 38.8163 80.2047 38.6963 80.4926 38.7323C80.7686 38.7683 81.0445 38.7683 81.3205 38.8163C82.0283 38.9363 82.3883 39.3802 82.4243 40.1121C82.4483 40.7839 82.0763 41.2879 81.4285 41.4678C81.4165 41.4678 81.4045 41.4678 81.3925 41.4678C80.2527 41.7558 80.1567 41.6838 80.1567 40.532L80.1447 40.544Z" fill="white"/>
<path d="M100.325 39.6922C100.013 38.9843 99.713 38.2764 99.377 37.4966C98.9691 38.4324 98.5852 39.2962 98.2132 40.1481C97.4214 41.9357 96.6295 43.7234 95.8497 45.511C95.8017 45.607 95.6697 45.727 95.7897 45.847C95.9577 46.003 96.7135 45.811 96.8095 45.607C97.0615 45.0311 97.3134 44.4672 97.5414 43.8794C97.6254 43.6754 97.7213 43.6034 97.9373 43.6034C98.8731 43.6034 99.8089 43.6154 100.733 43.6034C100.973 43.6034 101.069 43.6994 101.153 43.9034C101.333 44.3833 101.573 44.8392 101.729 45.3311C101.861 45.763 102.089 45.907 102.544 45.883C102.904 45.859 102.976 45.811 102.82 45.4631C101.981 43.5434 101.153 41.6238 100.325 39.6922ZM98.0333 42.7396C98.4652 41.7198 98.8971 40.724 99.353 39.6442C99.7969 40.712 100.217 41.7078 100.649 42.7396H98.0333Z" fill="white"/>
<path d="M138.19 37.9045C138.142 37.7965 138.142 37.6525 137.974 37.5926C136.762 40.328 135.562 43.0635 134.326 45.871C134.542 45.871 134.674 45.859 134.818 45.871C135.214 45.931 135.418 45.775 135.55 45.3911C135.718 44.8752 135.982 44.3953 136.174 43.8914C136.258 43.6754 136.366 43.5914 136.594 43.6034C137.518 43.6154 138.43 43.6154 139.353 43.6034C139.605 43.6034 139.713 43.6994 139.797 43.9273C139.977 44.4073 140.217 44.8632 140.373 45.3551C140.505 45.763 140.709 45.919 141.153 45.883C141.609 45.835 141.621 45.871 141.429 45.4271C140.349 42.9195 139.269 40.412 138.19 37.9045ZM136.678 42.7396C137.11 41.7198 137.542 40.724 137.998 39.6442C138.442 40.712 138.861 41.7078 139.293 42.7396H136.678Z" fill="white"/>
<path d="M73.486 38.7323C74.3498 38.7443 75.2136 38.7323 76.0775 38.7443C76.4254 38.7443 76.4254 38.5764 76.4134 38.3364C76.4134 38.1085 76.4854 37.8805 76.0775 37.8805C74.9257 37.9045 73.7619 37.9045 72.6101 37.8805C72.3102 37.8805 72.2382 37.9645 72.2382 38.2524C72.2502 39.4642 72.2382 40.676 72.2382 41.8757C72.2382 43.0755 72.2382 44.2993 72.2382 45.499C72.2382 45.787 72.3222 45.847 72.5981 45.847C73.7499 45.847 74.9137 45.823 76.0655 45.847C76.4494 45.847 76.4014 45.643 76.4134 45.4031C76.4134 45.1391 76.4134 44.9592 76.0535 44.9711C75.2016 44.9951 74.3498 44.9712 73.51 44.9831C73.246 44.9831 73.15 44.9352 73.15 44.6472C73.174 43.8434 73.174 43.0395 73.15 42.2237C73.15 41.9117 73.258 41.8637 73.534 41.8637C74.3498 41.8757 75.1776 41.8517 75.9935 41.8757C76.3894 41.8877 76.3054 41.6478 76.3174 41.4198C76.3294 41.1679 76.3174 40.9999 75.9815 41.0119C75.1417 41.0359 74.3138 41.0119 73.474 41.0239C73.234 41.0239 73.126 40.9759 73.138 40.712C73.162 40.1481 73.162 39.5722 73.138 38.9963C73.138 38.7203 73.234 38.6724 73.474 38.6843L73.486 38.7323Z" fill="white"/>
<path d="M30.4382 25.6428C28.1226 25.031 26.131 23.9272 24.8473 21.8156C24.4633 21.1917 24.2354 20.5078 24.2354 19.764C24.1274 19.8719 24.1634 20.0039 24.1754 20.1239C24.2354 21.0117 24.3434 21.8876 24.6673 22.7274C25.6391 25.2349 27.5947 26.5787 30.0783 27.2745C30.3902 27.3585 30.7021 27.4905 31.0741 27.4305C30.8221 26.8306 30.6302 26.2427 30.7501 25.6068C30.6541 25.7028 30.5462 25.6668 30.4382 25.6428Z" fill="white"/>
<path d="M24.6433 21.1437C24.4513 20.6998 24.4273 20.2079 24.2474 19.764C24.2474 20.5078 24.4873 21.1917 24.8593 21.8156C26.143 23.9272 28.1346 25.031 30.4502 25.6428C30.5582 25.6668 30.6661 25.7028 30.7621 25.6068C30.0543 25.4749 29.3704 25.2469 28.7225 24.935C26.9589 24.1071 25.4471 23.0033 24.6433 21.1437Z" fill="white"/>
<path d="M69.7307 37.8925C68.327 37.9045 66.9232 37.9045 65.5195 37.8925C65.1476 37.8925 65.2555 38.1325 65.2555 38.3244C65.2555 38.5044 65.1596 38.7683 65.5195 38.7443C65.8674 38.7203 66.2154 38.7443 66.5633 38.7443C67.2592 38.7443 67.1632 38.6484 67.1752 39.3322C67.1752 41.3718 67.1752 43.4234 67.1752 45.4631C67.1752 45.835 67.3071 45.895 67.6311 45.895C67.931 45.895 68.111 45.883 68.099 45.487C68.063 44.4313 68.099 43.3755 68.099 42.3197C68.099 41.2639 68.111 40.2321 68.099 39.1883C68.099 38.8523 68.159 38.7083 68.5309 38.7443C68.9508 38.7803 69.3708 38.7443 69.7787 38.7563C70.1746 38.7803 70.0546 38.5044 70.0666 38.3004C70.0786 38.0965 70.1146 37.8925 69.7667 37.9045L69.7307 37.8925Z" fill="white"/>
<path d="M108.111 37.8925C106.708 37.9045 105.304 37.9045 103.9 37.8925C103.504 37.8925 103.636 38.1565 103.624 38.3484C103.6 38.5644 103.588 38.7683 103.924 38.7443C104.308 38.7203 104.704 38.7683 105.088 38.7323C105.46 38.6963 105.556 38.8283 105.544 39.1883C105.52 41.2879 105.544 43.3875 105.52 45.487C105.52 45.907 105.736 45.871 106.012 45.883C106.312 45.895 106.456 45.847 106.444 45.487C106.42 44.4313 106.444 43.3755 106.444 42.3197C106.444 41.2519 106.444 40.1841 106.444 39.1043C106.444 38.8043 106.528 38.7203 106.816 38.7323C107.248 38.7563 107.679 38.7203 108.111 38.7323C108.459 38.7563 108.411 38.5404 108.399 38.3364C108.387 38.1445 108.507 37.8805 108.111 37.8805V37.8925Z" fill="white"/>
<path d="M119.341 17.8203C120.373 17.7843 121.093 17.0525 121.069 16.0207C121.045 15.0129 120.313 14.317 119.293 14.341C118.309 14.365 117.602 15.0969 117.614 16.0807C117.614 17.1005 118.369 17.8443 119.341 17.8083V17.8203Z" fill="white"/>
<path d="M146.612 45.0071C146.084 45.0311 145.556 45.0071 145.028 45.0071C144.776 45.0071 144.704 44.9352 144.704 44.6832C144.716 43.6154 144.704 42.5476 144.704 41.4678C144.704 40.484 144.704 39.5002 144.704 38.5044C144.704 37.8565 144.704 37.8565 144.068 37.8685C143.853 37.8685 143.781 37.9285 143.781 38.1445C143.781 40.616 143.781 43.0875 143.781 45.559C143.781 45.775 143.853 45.847 144.068 45.835C144.92 45.835 145.772 45.823 146.612 45.835C147.008 45.835 146.876 45.571 146.888 45.3791C146.888 45.1871 146.96 44.9592 146.612 44.9711V45.0071Z" fill="white"/>
<path d="M111.579 41.8637C111.579 40.664 111.567 39.4762 111.579 38.2764C111.579 37.9045 111.423 37.8685 111.135 37.8925C110.895 37.9165 110.619 37.7965 110.619 38.2524C110.643 40.664 110.643 43.0875 110.619 45.511C110.619 45.967 110.883 45.859 111.123 45.883C111.399 45.895 111.579 45.883 111.579 45.499C111.555 44.2873 111.579 43.0875 111.579 41.8757V41.8637Z" fill="white"/>
<path d="M52.8499 41.8877C52.8499 40.676 52.8379 39.4642 52.8499 38.2524C52.8499 37.9045 52.7179 37.8565 52.43 37.8805C52.178 37.9045 51.9141 37.7965 51.9261 38.2404C51.9501 40.664 51.9501 43.0875 51.9261 45.499C51.9261 45.919 52.166 45.835 52.406 45.847C52.6579 45.847 52.8499 45.883 52.8499 45.499C52.8259 44.2873 52.8499 43.0755 52.8499 41.8637V41.8877Z" fill="white"/>
<path d="M148.76 20.0279C147.788 20.0279 147.032 20.7718 147.032 21.7316C147.032 22.7394 147.752 23.4593 148.772 23.4473C149.755 23.4473 150.475 22.7274 150.475 21.7436C150.475 20.7838 149.719 20.0279 148.76 20.0279ZM148.76 23.1713C148.004 23.1713 147.38 22.5114 147.392 21.7436C147.404 20.9517 148.028 20.3399 148.808 20.3639C149.551 20.3878 150.151 21.0237 150.139 21.7916C150.127 22.5594 149.503 23.1833 148.772 23.1833L148.76 23.1713Z" fill="white"/>
<path d="M15.3691 32.0376C15.3691 31.4857 15.3691 30.9338 15.3691 30.3819C15.3091 30.9338 15.3211 31.4857 15.3691 32.0376Z" fill="white"/>
<path d="M15.3691 30.3819C15.2491 30.9338 15.2491 31.4857 15.3691 32.0376C15.3211 31.4857 15.3091 30.9338 15.3691 30.3819Z" fill="white"/>
<path d="M15.453 29.4581C15.4051 29.6141 15.4171 29.7821 15.453 29.938C15.453 29.7821 15.453 29.6141 15.453 29.4581Z" fill="white"/>
<path d="M15.453 29.4581C15.3451 29.6141 15.3451 29.7821 15.453 29.938C15.4171 29.7821 15.4051 29.6141 15.453 29.4581Z" fill="white"/>
<path d="M149.563 21.3717C149.563 21.1677 149.527 20.9757 149.335 20.8678C148.976 20.6758 148.568 20.7838 148.184 20.7838C148.076 20.7838 148.088 20.9037 148.088 20.9757C148.088 21.4916 148.088 22.0075 148.088 22.5114C148.088 22.6194 148.076 22.7394 148.244 22.7514C148.448 22.7514 148.388 22.6074 148.412 22.4874C148.46 22.2955 148.256 21.9955 148.544 21.9116C148.856 21.8276 148.856 22.1875 149.012 22.3555C149.072 22.4155 149.108 22.4874 149.144 22.5714C149.228 22.7634 149.371 22.7994 149.587 22.7154C149.419 22.4514 149.264 22.1995 149.084 21.8996C149.359 21.8036 149.551 21.6596 149.563 21.3717ZM148.676 21.6236C148.484 21.6596 148.4 21.5756 148.4 21.3357C148.4 21.0357 148.544 21.0237 148.76 21.0477C148.964 21.0597 149.228 21.0597 149.216 21.3477C149.216 21.6596 148.928 21.6236 148.676 21.6356V21.6236Z" fill="white"/>
</svg>
