<svg width="112" height="48" viewBox="0 0 112 48" fill="none" xmlns="http://www.w3.org/2000/svg">
<path d="M16.1819 0.605355C21.1346 0.605355 26.0873 0.628074 31.0401 0.585476C31.9886 0.576956 32.3577 0.770067 32.3265 1.80378C32.2498 4.38521 32.2527 6.97233 32.3265 9.55377C32.3549 10.579 32.0028 10.9112 31.0457 10.7607C30.9066 10.738 30.7617 10.7607 30.6226 10.7579C29.5463 10.7266 28.1689 11.0845 27.4732 10.5562C26.7178 9.97974 27.2432 8.53993 27.229 7.48067C27.2204 6.75082 27.016 6.49239 26.2634 6.51511C24.6617 6.56339 23.0544 6.56623 21.4527 6.51511C20.6745 6.48955 20.3906 6.69686 20.3934 7.5261C20.4218 15.1369 20.4218 22.7478 20.3934 30.3614C20.3906 31.1964 20.6859 31.398 21.4555 31.3668C22.6795 31.3128 23.9092 31.3923 25.1331 31.3384C25.8942 31.3043 26.1186 31.5854 26.0845 32.3096C26.0163 33.7096 26.5218 35.4846 25.8403 36.4132C25.1729 37.3248 23.2901 36.6858 21.944 36.6972C17.1332 36.7369 12.3225 36.6887 7.51178 36.7341C6.55759 36.7426 6.14013 36.541 6.23384 35.5101C6.32472 34.5304 6.32472 33.5307 6.23384 32.5538C6.13729 31.5144 6.56611 31.273 7.51746 31.3384C8.64489 31.415 9.78367 31.3071 10.9111 31.3724C11.7403 31.4207 11.9334 31.1027 11.9306 30.3245C11.905 22.7137 11.9079 15.1029 11.9306 7.48919C11.9306 6.76218 11.7318 6.49523 10.9764 6.52079C9.46845 6.57191 7.9548 6.59463 6.44967 6.51511C5.50116 6.46399 5.37336 6.87293 5.3904 7.67094C5.43584 9.64464 5.37336 11.6183 5.42164 13.5892C5.44152 14.3957 5.29101 14.8018 4.35385 14.7337C3.22927 14.6513 2.09048 14.6712 0.960216 14.728C0.193453 14.7678 0.00886135 14.4667 0.0145411 13.7511C0.03726 9.70428 0.057139 5.66315 0.000341763 1.62203C-0.0138576 0.653633 0.414962 0.588316 1.18173 0.591156C6.18272 0.613875 11.1809 0.602515 16.1819 0.602515V0.605355Z" fill="white"/>
<path d="M46.1765 33.9624C44.785 34.786 43.6263 35.5783 42.303 36.0724C40.3037 36.8193 38.2476 37.001 36.183 36.5949C32.9115 35.9503 30.9151 33.3149 30.8924 29.7338C30.8668 25.8801 30.8498 22.0264 30.9123 18.1756C30.9293 17.1646 30.6112 16.9261 29.64 16.9403C26.9251 16.9743 26.9223 16.9317 26.9223 14.2566C26.9223 12.6776 27.7061 11.8881 29.2737 11.8881C31.679 11.8881 34.0872 11.9506 36.4898 11.8626C37.6314 11.82 38.0176 12.0784 37.9949 13.2995C37.9154 17.8575 37.9523 22.4155 37.9665 26.9735C37.9778 30.8897 40.0112 32.2216 43.649 30.7221C46.0686 29.7253 46.1737 29.5634 46.1737 26.8968C46.1737 23.9831 46.1453 21.0694 46.1907 18.1557C46.2049 17.2867 46.0289 16.9346 45.0463 16.9374C42.2092 16.9488 42.2092 16.9005 42.2092 14.0947C42.2092 12.6237 42.9533 11.8881 44.4414 11.8881C47.037 11.8881 49.6326 11.9393 52.2254 11.8626C53.2762 11.8313 53.5744 12.1068 53.563 13.1774C53.5062 18.8146 53.5715 24.4545 53.5091 30.0945C53.4949 31.2787 53.7135 31.895 55.0227 31.6337C56.1899 31.4008 56.4057 31.9745 56.3915 33.0281C56.3461 36.4246 56.3858 36.4274 52.9269 36.4274C51.1804 36.4274 49.431 36.3394 47.693 36.4558C46.4435 36.541 45.9408 36.1718 46.168 34.9223C46.2078 34.6979 46.1737 34.4565 46.1737 33.9652L46.1765 33.9624Z" fill="white"/>
<path d="M95.1727 35.4533C95.3204 36.4501 94.8915 36.8221 93.926 36.7142C92.5856 36.5665 90.7851 37.3021 90.0127 36.4104C89.3481 35.6464 89.8053 33.9084 89.7855 32.6021C89.7684 31.5684 89.8139 30.5347 89.7713 29.501C89.74 28.7768 89.9899 28.4587 90.7425 28.5184C91.3048 28.5638 91.8728 28.5326 92.4407 28.5241C93.8578 28.5099 95.0137 28.3565 95.8486 30.2166C97.0072 32.7952 102.562 33.3461 104.703 31.4463C105.978 30.3132 105.765 28.6604 104.186 27.8879C102.471 27.0502 100.56 26.9309 98.7168 26.5674C96.7261 26.1755 94.7637 25.6757 92.932 24.7896C90.1802 23.4606 88.6041 21.3761 88.8426 18.1926C89.0727 15.154 90.9072 13.3081 93.5795 12.2914C96.7914 11.0674 100.054 11.4054 103.283 12.3993C103.738 12.5385 104.345 13.2087 104.635 12.0528C104.735 11.6581 105.584 11.8768 106.083 11.8938C107.296 11.9393 108.849 11.3656 109.625 12.138C110.4 12.9105 109.858 14.4582 109.872 15.6652C109.909 18.6498 109.883 18.6215 106.879 18.664C105.598 18.6811 104.564 18.6271 103.596 17.4287C102.343 15.8781 97.7456 15.5516 95.9678 16.5682C95.3118 16.9431 94.9001 17.5054 94.9285 18.2835C94.9597 19.1582 95.5248 19.6097 96.3058 19.8596C98.6884 20.6264 101.205 20.7854 103.613 21.4301C104.385 21.6374 105.172 21.7907 105.936 22.0208C109.406 23.0658 111.411 25.4144 111.581 28.6092C111.775 32.2301 110 35.2375 106.569 36.4359C102.758 37.7678 98.9327 37.9013 95.1755 35.4533H95.1727Z" fill="white"/>
<path d="M64.789 36.4246C62.7131 36.4246 60.6371 36.399 58.5612 36.4388C57.783 36.453 57.4053 36.2314 57.4962 35.4079C57.536 35.0359 57.5019 34.6553 57.5019 34.2805C57.5019 31.7729 57.5019 31.7331 59.9953 31.6507C60.7876 31.6252 60.9154 31.3185 60.9097 30.6398C60.887 26.4112 60.8785 22.1798 60.9154 17.9512C60.9239 17.1135 60.6144 16.9516 59.8505 16.9431C57.4991 16.9175 57.4991 16.8863 57.4991 14.5917C57.4991 14.5434 57.4991 14.498 57.4991 14.4497C57.4991 11.9932 57.4991 11.962 59.9357 11.8995C60.6541 11.8825 60.9381 11.7121 60.9154 10.951C60.8813 9.83207 60.8955 8.72169 61.1142 7.5971C61.9406 3.3231 64.1585 1.11085 68.5348 0.514479C71.6558 0.0884998 74.649 0.432123 77.256 2.43423C77.9234 2.9454 78.2443 3.3373 77.2986 3.96775C76.1655 4.72032 75.1318 5.62623 74.0697 6.48103C73.5642 6.88713 73.2092 7.12284 72.8144 6.2936C72.2663 5.13778 71.3491 4.40225 69.9689 4.84527C68.6512 5.26841 68.2366 6.32484 68.2593 7.61414C68.265 7.89528 68.2536 8.17927 68.2593 8.46042C68.2849 9.53673 67.9384 10.8658 68.4496 11.6127C68.9579 12.3567 70.3778 11.8427 71.3917 11.8626C72.1215 11.8768 72.2493 12.1863 72.2323 12.8054C72.1982 13.8846 72.1783 14.9694 72.238 16.0457C72.2805 16.8295 71.9341 16.9545 71.2412 16.9743C68.2593 17.0624 68.2593 17.0851 68.2593 20.1095C68.2593 23.5884 68.2877 27.0644 68.2394 30.5432C68.2281 31.4179 68.4893 31.6451 69.3527 31.6479C72.2238 31.6621 72.1442 31.7019 72.255 34.6042C72.3089 36.0298 71.9767 36.5751 70.4432 36.4558C68.5688 36.3081 66.6718 36.4217 64.7833 36.4217L64.789 36.4246Z" fill="white"/>
<path d="M83.8331 2.76649C83.8331 5.65179 83.8672 8.17927 83.8161 10.7039C83.799 11.5899 84.0063 12.05 84.9719 11.8881C85.0173 11.8796 85.0656 11.8881 85.1139 11.8881C89.0045 11.9279 88.9875 11.9279 88.6666 15.8952C88.6155 16.5143 88.4167 16.7443 87.826 16.6818C87.6868 16.6676 87.542 16.6705 87.4028 16.6818C86.247 16.7897 84.7078 16.1564 84.0376 16.963C83.4725 17.6445 83.8473 19.1127 83.8416 20.2345C83.8303 23.1482 83.8303 26.059 83.8416 28.9727C83.8502 30.9209 84.8441 31.7643 86.8178 31.5315C88.0408 31.3857 88.6524 31.9347 88.6524 33.1786C88.6524 35.8594 88.6495 35.8395 86.0198 36.4501C84.6254 36.7739 83.2226 36.8193 81.8083 36.7398C78.6135 36.558 76.7903 34.6837 76.7675 31.486C76.7391 27.1155 76.7136 22.7449 76.7903 18.3772C76.813 17.1674 76.441 16.7755 75.2908 16.9516C74.9216 17.0084 74.5354 16.9317 74.1605 16.9658C73.5386 17.0198 73.3114 16.75 73.354 16.1479C73.3881 15.6794 73.3597 15.2079 73.3597 14.7394C73.3597 12.0841 73.3597 12.05 75.9298 11.9052C76.6568 11.8654 76.8811 11.5644 76.7477 10.9623C76.1683 8.36954 77.5315 6.91269 79.6102 5.71995C80.9847 4.93047 82.2229 3.90528 83.836 2.76365L83.8331 2.76649Z" fill="white"/>
<path d="M68.1713 47.4631C65.3882 48.3633 65.7375 45.4638 64.1898 44.8788C63.9172 45.8131 63.8064 46.685 64.593 47.5994C63.7098 47.7585 62.909 47.7471 62.1735 47.6221C62.9828 45.4866 62.4915 43.4021 62.5171 41.1842C63.1987 41.1842 64.2153 41.17 65.232 41.1898C66.0499 41.204 66.7201 41.5306 66.987 42.34C67.254 43.1465 67.0154 43.8735 66.2373 44.2512C65.5898 44.5636 65.8511 44.8334 66.1237 45.1912C66.7059 45.958 67.0637 46.8951 68.1713 47.4631Z" fill="white"/>
<path d="M20.1265 43.0017C19.9816 44.575 19.5272 46.0914 20.2173 47.5682C19.7601 47.7556 19.2063 47.6619 18.4708 47.5881C19.5755 46.6566 19.2859 45.4752 19.2489 44.3847C19.212 43.3055 19.8197 41.9907 18.2237 41.275C21.5464 40.5821 21.6827 44.0524 23.7814 45.1316C23.6166 43.7997 24.2925 42.4735 23.2673 41.275C23.7558 41.0677 24.338 41.1813 24.9258 41.2381C24.3976 42.8284 24.781 44.4415 24.6475 46.0261C24.6021 46.56 24.9542 47.3552 24.4345 47.5739C23.7615 47.855 23.4633 46.9888 23.0884 46.5714C22.0547 45.4212 21.1034 44.1973 20.1208 43.0017H20.1265Z" fill="white"/>
<path d="M97.9274 42.9477C97.561 42.5019 97.3849 42.2264 97.1521 42.0162C96.7147 41.6187 96.1524 41.7237 95.6782 41.8601C95.221 41.9935 95.4141 42.499 95.4056 42.8455C95.3828 43.8309 95.3942 44.8163 95.397 45.8018C95.397 46.4777 95.2834 47.2075 96.1354 47.5909H93.4262C94.0453 47.182 94.0566 46.6168 94.0311 46.0006C93.9913 45.0634 94.0595 44.1206 94.0055 43.1863C93.9799 42.7262 94.3321 42.0532 93.6732 41.843C93.0343 41.6385 92.3499 41.7039 92.0091 42.482C91.9608 42.5899 91.8018 42.6467 91.6797 42.7404C91.5945 40.9996 91.6598 40.9314 93.3041 40.9314C94.2923 40.9314 95.2834 40.9314 96.2717 40.9314C97.3641 40.9314 97.9151 41.6026 97.9245 42.9449L97.9274 42.9477Z" fill="white"/>
<path d="M9.41449 41.2154C8.46598 41.6499 8.50005 42.286 8.51425 42.9335C8.53697 43.8707 8.48869 44.8107 8.53981 45.745C8.57673 46.455 8.91183 47.0087 9.69564 47.128C10.3942 47.2359 11.0077 47.0882 11.4109 46.4436C11.9704 45.5519 11.7205 42.0901 10.9935 41.2324H13.0325C12.4503 41.6953 12.2572 42.181 12.2828 42.7944C12.3197 43.6832 12.2884 44.575 12.2288 45.4638C12.1266 46.9775 11.286 47.7357 9.76947 47.7414C8.14791 47.7471 7.45498 47.1223 7.33855 45.4894C7.28175 44.6971 7.28743 43.8962 7.28743 43.1011C7.28743 42.4252 7.38115 41.7294 6.38152 41.2154H9.41449Z" fill="white"/>
<path d="M51.5581 47.145C51.3877 45.1912 51.8988 43.1891 51.2144 41.1785C52.3277 41.1785 53.5091 41.2438 54.6762 41.1614C55.8917 41.0763 56.0848 41.7294 56.0706 42.712C55.3692 42.6552 55.1704 42.002 54.6762 41.7493C53.617 41.2069 52.9439 41.5363 52.9894 42.6694C53.0064 43.1181 52.6429 43.7542 53.333 44.0098C53.9578 44.2427 54.1849 43.5895 54.6024 43.2828C54.8949 43.8934 54.7444 44.4869 54.7188 45.2622C54.1991 44.893 53.5517 44.2313 53.2165 44.7028C52.7224 45.4042 52.8019 46.3584 53.2279 47.1905C52.5293 47.713 52.1601 47.7045 51.5552 47.1479L51.5581 47.145Z" fill="white"/>
<path d="M73.797 45.5632C74.0299 45.9949 74.1833 46.384 74.4275 46.702C74.7598 47.1337 75.2141 47.3467 75.7906 47.2018C76.2592 47.0854 76.5546 46.7815 76.6 46.3357C76.6596 45.7762 76.3756 45.3502 75.8645 45.0861C75.2823 44.7879 74.6462 44.5579 74.1378 44.1632C73.3483 43.5526 73.3228 42.6325 73.7914 41.8828C74.3849 40.9343 75.3561 40.9257 76.4239 41.1387C77.5258 41.3602 77.1907 42.0674 77.256 42.7177C76.6852 42.7007 76.7051 42.1952 76.458 41.9452C76.0945 41.5789 75.6884 41.4085 75.1886 41.542C74.7882 41.6471 74.5468 41.9197 74.5127 42.34C74.4673 42.8881 74.7938 43.2175 75.2397 43.4333C75.6174 43.6179 76.0292 43.7315 76.4154 43.8991C77.4434 44.3393 77.77 45.177 77.5627 46.1937C77.344 47.2558 76.6057 47.7443 75.518 47.7386C73.709 47.7244 73.337 47.2927 73.797 45.5604V45.5632Z" fill="white"/>
<path d="M33.6215 47.5852H30.7475C31.7017 46.614 31.7301 42.1668 30.8185 41.2239H33.4085C32.5026 42.286 32.602 46.6566 33.6215 47.5852Z" fill="white"/>
<path d="M83.3645 41.2296H85.9431C85.3496 42.2945 85.378 46.5458 86.0056 47.5795C85.1082 47.7073 84.2591 47.6988 83.3503 47.5795C84.4323 46.5487 84.4408 42.1866 83.3645 41.2268V41.2296Z" fill="white"/>
<path d="M107.339 44.3251C107.424 45.4042 107.072 46.5231 107.722 47.6079H105.16C106.22 46.5487 106.16 45.4127 105.507 44.2853C104.911 43.2544 104.476 42.1128 103.309 41.1756C103.948 41.1756 104.354 41.1756 104.76 41.1756C105.331 41.1756 105.819 40.9911 105.771 42.0333C105.743 42.6694 106.1 43.6889 107.035 44.0297C107.305 43.9587 107.43 44.0297 107.333 44.3251H107.339Z" fill="white"/>
<path d="M43.118 45.2622C42.9959 46.1511 42.7971 47.4035 42.0786 47.5227C41.3999 47.6363 41.4226 46.276 41.0733 45.5945C40.3605 44.1973 40.2469 42.5473 39.1819 41.2296H41.8145C41.2825 41.6859 41.4519 43.1957 42.3228 45.7592C42.8368 45.6286 42.6466 45.0038 43.0158 44.7709C43.1748 44.9101 43.2089 45.0719 43.118 45.2622Z" fill="white"/>
<path d="M51.5581 47.145C52.1033 47.5767 52.6628 47.5341 53.2307 47.1876C54.3497 47.1592 55.3909 46.7872 56.3546 46.0716C56.3035 47.6051 56.2524 47.6676 54.8722 47.6761C53.6965 47.6846 52.5179 47.6818 51.3422 47.6676C51.1434 47.6676 50.7856 47.6903 50.939 47.3381C50.9929 47.2104 51.3451 47.2075 51.5609 47.1479L51.5581 47.145Z" fill="white"/>
<path d="M107.944 42.641C107.969 42.553 108.026 42.4593 108.012 42.3769C107.716 40.6872 108.855 41.1984 109.767 41.312C108.997 41.6471 108.778 42.4564 108.208 42.9591C108.029 42.9278 108.006 42.7688 107.944 42.641Z" fill="white"/>
<path d="M43.6036 43.1465C43.5042 42.5842 44.0693 42.1156 43.8336 41.5335C44.2681 41.2779 44.6998 41.2722 45.1315 41.5392C44.4016 42.0929 44.1034 42.8938 43.8791 43.7344C43.3338 43.7486 43.5014 43.4333 43.6036 43.1465Z" fill="white"/>
<path d="M107.944 42.641C108.032 42.7461 108.12 42.854 108.208 42.9591C108.023 43.4816 107.714 43.9246 107.339 44.3279C107.239 44.2285 107.14 44.1319 107.04 44.0325C107.342 43.5697 107.643 43.1039 107.946 42.641H107.944Z" fill="white"/>
<path d="M43.6036 43.1465C43.6945 43.3425 43.7882 43.5384 43.8791 43.7344C43.6263 44.2427 43.3707 44.7539 43.118 45.2622C43.0839 45.0975 43.0498 44.9356 43.0186 44.7709C43.0243 44.1603 43.277 43.6378 43.6036 43.1437V43.1465Z" fill="white"/>
<path d="M45.1315 41.5392C44.6998 41.5392 44.2681 41.5363 43.8336 41.5335C43.7087 41.471 43.331 41.3972 43.5468 41.3034C44.129 41.0507 44.7935 41.1245 45.424 41.2694C45.4524 41.275 45.4637 41.3489 45.4836 41.3915C45.3643 41.4398 45.2451 41.4909 45.1286 41.5391L45.1315 41.5392Z" fill="white"/>
</svg>
