<svg width="101" height="44" viewBox="0 0 101 44" fill="none" xmlns="http://www.w3.org/2000/svg">
<path d="M1.08397 33.3051C1.75093 33.0312 2.39705 32.6411 3.0908 32.5072C4.48427 32.2362 5.22269 31.3995 5.23162 30.0716C5.27628 22.0859 5.27926 14.0973 5.23162 6.11167C5.23162 5.72459 4.64208 5.12016 4.21629 4.99809C3.32602 4.74798 2.35536 4.78668 1.43234 4.63185C1.09588 4.57528 0.792177 4.31028 0.476562 4.14057C0.789199 3.89641 1.07802 3.61653 1.42043 3.42299C1.61992 3.30985 1.8998 3.30091 2.14396 3.30091C7.38435 3.25327 12.6486 2.91384 17.8651 3.2503C24.3471 3.67012 29.8674 6.28436 32.4965 12.6562C37.6803 25.2272 28.8193 33.4123 19.1812 33.7398C13.4942 33.9334 7.8012 33.8947 2.11121 33.9512C1.8343 33.9512 1.55442 33.8738 1.27453 33.8321C1.212 33.6565 1.14948 33.4838 1.08695 33.3081L1.08397 33.3051ZM9.46264 16.9974C9.46264 20.2994 9.45668 23.6015 9.46264 26.9035C9.47157 30.0716 11.0824 31.9593 14.2088 32.4982C20.1012 33.5135 27.006 29.2944 28.7092 23.4824C30.2158 18.3432 29.3731 13.5316 25.6334 9.59831C21.6763 5.43578 16.692 3.78327 10.9425 4.65567C9.80207 4.82837 9.43286 5.53701 9.44477 6.64464C9.48646 10.0956 9.45966 13.5435 9.45966 16.9944L9.46264 16.9974Z" fill="white"/>
<path d="M83.4266 33.7637H73.3626C73.3299 33.6386 73.2971 33.5135 73.2674 33.3885C74.0713 33.0699 74.8752 32.7543 76.1049 32.269C72.9517 29.2944 70.0457 26.5522 66.7973 23.4883C66.7437 24.6823 66.6901 25.4297 66.6811 26.174C66.6662 27.6032 66.7466 29.0384 66.6573 30.4616C66.568 31.8968 66.958 32.8704 68.5212 33.1056C68.7297 33.1384 68.9172 33.3141 69.0572 33.7369H60.0086C59.9788 33.5969 59.949 33.46 59.9192 33.32C60.3361 33.1414 60.7381 32.8525 61.1698 32.7989C62.8521 32.5905 63.3136 31.6228 63.3017 30.0388C63.2451 23.137 63.2779 16.2351 63.2779 9.33629C63.2779 8.64552 63.2838 7.95474 63.2779 7.26694C63.254 5.36134 63.79 3.15799 60.4433 2.9853C60.5535 2.80367 60.6636 2.62502 60.7738 2.4434C62.4471 1.83896 64.1086 1.1988 65.8087 0.686675C65.9755 0.636057 66.5859 1.33875 66.6335 1.73475C66.7556 2.75603 66.6782 3.80113 66.6782 4.83432C66.6782 10.2087 66.6782 15.5801 66.6782 20.9545V22.9941C67.5714 22.6129 68.2205 22.4224 68.7743 22.0829C70.6233 20.9485 72.4813 19.8141 74.2589 18.5725C75.8072 17.4917 75.7565 17.0748 74.1725 16.0386C73.8956 15.857 73.5443 15.7945 73.2257 15.6784C73.3567 15.4938 73.4877 15.3062 73.6187 15.1216H82.4886C82.5452 15.2139 82.6018 15.3062 82.6613 15.3985C82.2892 15.6605 81.9348 15.9582 81.5388 16.1816C78.1445 18.0782 74.7412 19.963 71.3439 21.8537C70.3464 22.4075 70.4804 22.9583 71.2605 23.6521C74.107 26.174 76.8939 28.7615 79.7583 31.2655C80.4491 31.87 81.3364 32.2541 82.1492 32.7156C82.5929 32.9687 83.0693 33.1711 83.5308 33.3974C83.498 33.5225 83.4653 33.6446 83.4325 33.7696L83.4266 33.7637Z" fill="white"/>
<path d="M47.8812 14.9697C49.9982 14.9697 52.1152 14.9608 54.2322 14.9727C55.3458 14.9786 55.2773 15.8094 55.2684 16.5537C55.2297 20.8919 55.1791 25.2331 55.1433 29.5713C55.1195 32.1796 55.1285 32.1737 57.8171 32.3523C58.1953 32.3761 58.5675 32.4684 58.9397 32.528C58.9635 32.6977 58.9873 32.8674 59.0111 33.0371C56.647 33.4659 54.2829 33.8917 51.8056 34.3413C51.7043 33.3706 51.6269 32.6114 51.5227 31.5901C50.8677 31.9831 50.3645 32.2422 49.9119 32.5667C47.8872 34.0167 45.7315 34.9547 43.144 34.6182C39.9373 34.2013 38.3354 32.3017 38.2699 28.5084C38.2133 25.1557 38.2163 21.8001 38.3384 18.4504C38.389 17.0123 38.1657 16.0505 36.5281 15.8927C36.1767 15.86 35.8492 15.6039 35.5098 15.4521C35.5246 15.3002 35.5365 15.1513 35.5514 14.9995C37.4273 14.9995 39.3061 14.9578 41.1729 15.059C41.3814 15.0709 41.7 15.9195 41.697 16.3781C41.6851 20.3709 41.5958 24.3667 41.566 28.3595C41.5451 31.0988 42.7302 32.3404 45.4963 32.4119C46.4759 32.4387 47.4852 32.3374 48.438 32.1171C50.6503 31.608 51.5942 30.417 51.6448 28.1302C51.7192 24.7776 51.7043 21.4249 51.7996 18.0723C51.8294 17.0242 51.4304 16.5627 50.4359 16.3513C49.5189 16.1577 48.6405 15.7945 47.7443 15.5057C47.7889 15.327 47.8336 15.1454 47.8783 14.9667L47.8812 14.9697Z" fill="white"/>
<path d="M99.3472 30.7296C98.8708 31.343 98.4837 32.0576 97.9061 32.5548C95.1817 34.8981 92.0107 35.2554 88.7235 34.1507C85.6507 33.1175 84.2275 30.6194 83.6588 27.5854C82.6703 22.3122 84.3466 17.7031 88.0893 15.2972C92.5496 12.4299 98.5254 14.663 99.901 19.7099C100.455 21.7465 100.151 22.1485 98.0669 22.1514C94.7529 22.1514 91.439 22.1872 88.125 22.1306C87.1008 22.1127 86.6542 22.4254 86.7554 23.4645C86.8626 24.593 86.8388 25.7363 87.0234 26.8499C87.4194 29.2408 88.5925 31.1435 91.0162 31.8997C93.6007 32.7066 96.1792 32.9568 98.3438 30.7802C98.5046 30.6194 98.7249 30.5212 98.9185 30.3961C99.0614 30.5093 99.2043 30.6194 99.3472 30.7326V30.7296ZM87.4045 20.8771C90.108 20.7252 92.7818 20.6418 95.4407 20.3947C96.6407 20.2845 96.989 19.2752 96.9057 18.1973C96.7985 16.8366 96.0005 15.9463 94.747 15.467C91.6206 14.276 87.5772 17.0272 87.4045 20.8771Z" fill="white"/>
<path d="M15.4772 37.6731C16.299 38.9445 17.1208 40.2159 17.9425 41.4873C18.0527 41.4783 18.1599 41.4694 18.2701 41.4605V37.8845C18.4249 37.8845 18.5827 37.8786 18.7375 37.8756V43.0445C18.6512 43.1368 18.5648 43.2321 18.4755 43.3244C17.6001 42.0887 16.7247 40.8501 15.8494 39.6144C15.7541 39.6293 15.6558 39.6412 15.5605 39.6561V43.1279C15.4117 43.1249 15.2628 43.1189 15.1139 43.116V37.8875C15.236 37.816 15.3581 37.7446 15.4802 37.6731H15.4772Z" fill="white"/>
<path d="M57.8142 41.2223C58.097 41.8237 58.3769 42.4252 58.7044 43.1279C57.0638 43.2916 57.6474 40.4094 55.6644 41.2282C55.5751 41.8088 55.4768 42.4579 55.3786 43.1041C55.2803 43.1041 55.1791 43.107 55.0808 43.11V37.8786C56.3224 37.9977 57.9214 37.2533 58.6747 38.8373C58.9635 39.4447 58.4245 40.4422 58.2638 41.264C58.1149 41.2491 57.963 41.2372 57.8142 41.2223ZM55.6049 40.6863C56.5874 40.3826 57.3407 40.1861 58.0464 39.8854C58.1387 39.8467 58.0792 39.0279 57.963 38.9921C57.2276 38.7718 56.4564 38.6706 55.6019 38.5128V40.6863H55.6049Z" fill="white"/>
<path d="M45.3325 39.8526C45.9399 40.0075 46.4044 40.1236 46.8689 40.2427C46.857 40.3588 46.8481 40.4749 46.8361 40.591C46.3895 40.6655 45.9429 40.7399 45.4099 40.8292V42.452C46.2942 42.5175 47.1458 42.58 47.9944 42.6455C47.9944 42.7616 47.9944 42.8778 47.9974 42.9909H44.6566V38.0334H47.9944C48.0033 38.1882 48.0123 38.343 48.0212 38.4979C47.1637 38.5842 46.3061 38.6706 45.3861 38.7599C45.3682 39.1083 45.3534 39.4417 45.3325 39.8526Z" fill="white"/>
<path d="M65.7402 42.1632C66.2732 42.3031 66.8092 42.5592 67.3362 42.5413C67.7381 42.5264 68.1282 42.1602 68.5212 41.9518C68.2741 41.6391 68.0627 41.2789 67.7649 41.0258C67.5535 40.8501 67.1307 40.8977 66.958 40.7072C66.4846 40.1861 65.7105 39.5608 65.7492 39.0279C65.8206 37.9917 66.8002 37.6939 67.7739 37.8607C68.2175 37.9351 68.6225 38.2269 69.0453 38.4205C69.0066 38.5544 68.9679 38.6884 68.9291 38.8224C68.4795 38.7271 68.021 38.5366 67.5774 38.5664C67.1992 38.5902 66.8389 38.8671 66.4697 39.0338C66.696 39.3554 66.9104 39.6859 67.1605 39.9866C67.2409 40.0819 67.4285 40.0998 67.5714 40.1355C68.6641 40.4184 69.5902 40.856 69.2001 42.2406C68.9262 43.2172 67.5119 43.6162 66.303 43.0743C66.0261 42.9492 65.8087 42.6961 65.5646 42.5026C65.6241 42.3895 65.6807 42.2763 65.7402 42.1632Z" fill="white"/>
<path d="M4.64505 37.8786C4.64505 38.9237 4.51107 39.9955 4.69865 41.0049C4.80584 41.5796 5.3537 42.3746 5.85392 42.5086C6.85435 42.7765 7.19974 41.916 7.23845 41.0615C7.28609 40.0075 7.25036 38.9505 7.25036 37.5421C8.15552 38.8194 8.12574 41.8535 7.45581 42.6604C6.71143 43.5596 4.89219 43.5805 4.3473 42.58C3.51956 41.0645 3.89473 39.4507 3.93343 37.8756C4.17163 37.8756 4.40983 37.8786 4.64803 37.8815L4.64505 37.8786Z" fill="white"/>
<path d="M37.865 38.0006C37.3498 39.5162 36.8586 41.0407 36.3047 42.5413C36.2095 42.7974 35.8849 43.0505 35.614 43.1249C35.483 43.1606 35.1465 42.8033 35.0602 42.5681C34.5093 41.0615 34.0031 39.537 33.6607 37.9351C35.0095 38.9058 34.7862 40.6804 35.7212 42.0232C36.275 40.5464 36.802 39.138 37.329 37.7297C37.5077 37.819 37.6863 37.9083 37.865 37.9977V38.0006Z" fill="white"/>
<path d="M94.2497 37.6939C94.8452 38.5366 95.4437 39.3762 96.0541 40.2397C96.6288 39.409 97.2153 38.5574 97.8049 37.7088C97.8823 37.7743 97.9567 37.8398 98.0341 37.9053C97.3583 39.6115 96.6853 41.3176 96.0571 42.9075C95.4497 41.398 94.744 39.6502 94.0383 37.9053C94.1098 37.8369 94.1813 37.7654 94.2527 37.6969L94.2497 37.6939Z" fill="white"/>
<path d="M87.4491 38.48C86.9579 38.5812 86.4666 38.6825 85.7698 38.8284V43.0862C85.612 43.0921 85.4542 43.1011 85.2964 43.107V38.8671C84.564 38.6765 84.0905 38.5515 83.6201 38.4294C83.632 38.3073 83.6439 38.1823 83.6558 38.0602H87.4402C87.4432 38.2001 87.4462 38.3401 87.4491 38.48Z" fill="white"/>
<path d="M26.5624 37.8964V43.0773C26.4612 43.0832 26.3599 43.0862 26.2587 43.0921V37.9083L26.5624 37.8994V37.8964Z" fill="white"/>
<path d="M76.358 43.0743V37.8964C76.4682 37.8964 76.5783 37.8964 76.6885 37.8934V43.0713C76.5783 43.0713 76.4682 43.0713 76.358 43.0713V43.0743Z" fill="white"/>
</svg>
