<svg width="69" height="30" viewBox="0 0 69 30" fill="none" xmlns="http://www.w3.org/2000/svg">
<path d="M19.5442 28.2874V0.374668H24.0951V28.8494H15.0286L4.55091 0.936669V28.8494H0V0.374668H9.06655L19.5442 28.2874Z" fill="#0C0C0C"/>
<path d="M32.6827 28.8494H27.9201L39.7736 0.374668H44.5009L32.6827 28.8494Z" fill="#0C0C0C"/>
<path d="M52.1103 28.2125L52.075 28.3624C50.5228 27.613 49.2528 26.564 48.265 25.1777C47.2772 23.7914 46.6774 22.1803 46.4305 20.307H51.1578C51.3695 21.993 52.0398 23.2669 53.1687 24.1661C54.2976 25.0653 55.7087 25.5149 57.4021 25.5149C58.7779 25.5149 59.9774 25.3276 60.9652 24.9529C61.953 24.5782 62.7291 24.0537 63.2583 23.3793C63.7875 22.7049 64.0344 21.9181 64.0344 21.0563C64.0344 20.1946 63.8227 19.4827 63.3994 18.9582C62.9761 18.4337 62.3763 18.0215 61.5649 17.7218C60.7535 17.4221 59.6246 17.0849 58.1429 16.7477L54.5445 15.9234C52.2514 15.3989 50.4522 14.4997 49.1469 13.2258C47.8416 11.9519 47.2066 10.2659 47.2066 8.16776C47.2066 6.63162 47.6652 5.24535 48.5472 4.00895C49.4292 2.77254 50.6286 1.79841 52.1456 1.08654C53.6626 0.374668 55.3559 0 57.2257 0C59.2366 0 61.0005 0.337201 62.5174 1.0116C64.0344 1.68601 65.2339 2.62268 66.1511 3.82161C67.0684 5.02055 67.6681 6.40682 67.915 7.98043H63.1877C62.7997 6.59416 62.0941 5.58255 61.071 4.94562C60.048 4.30868 58.7779 3.97148 57.261 3.97148C56.2379 3.97148 55.3206 4.12135 54.474 4.42108C53.6273 4.72082 52.957 5.17042 52.4631 5.73242C51.9692 6.29442 51.7223 6.96882 51.7223 7.71816C51.7223 8.50496 51.8986 9.1419 52.2514 9.62897C52.6042 10.116 53.1687 10.5282 53.9448 10.8654C54.7209 11.2026 55.8145 11.5398 57.2257 11.877L60.7888 12.7012C62.588 13.1134 64.0344 13.6379 65.1633 14.3123C66.2922 14.9867 67.1389 15.811 67.7034 16.8226C68.2678 17.8342 68.55 19.0706 68.55 20.5318C68.55 22.2927 68.0914 23.8289 67.1742 25.1777C66.2569 26.5265 64.9516 27.5381 63.2583 28.25C61.5649 28.9618 59.5893 29.3365 57.3668 29.3365C55.4265 29.3365 53.6626 28.9618 52.1103 28.2125Z" fill="#0C0C0C"/>
</svg>
