<?xml version="1.0" encoding="utf-8"?>
<!-- Generator: Adobe Illustrator 27.0.0, SVG Export Plug-In . SVG Version: 6.00 Build 0)  -->
<svg version="1.1" id="Layer_1" xmlns="http://www.w3.org/2000/svg" xmlns:xlink="http://www.w3.org/1999/xlink" x="0px" y="0px"
	 viewBox="0 0 1920 496" style="enable-background:new 0 0 1920 496;" xml:space="preserve">
<style type="text/css">
	.st0{fill:#FFFFFF;}
</style>
<g>
	<path class="st0" d="M613.8,291c3.6,0,6.8,0.6,9.7,1.7c2.9,1.2,5.3,2.7,7.4,4.8c2.1,2,3.6,4.4,4.7,7c1.1,2.7,1.6,5.5,1.6,8.6
		c0,4.7-1,8.8-3,12.2c-2,3.4-5.2,6.1-9.7,7.9v0.2c2.2,0.6,4,1.5,5.4,2.7c1.4,1.2,2.6,2.7,3.5,4.4c0.9,1.7,1.6,3.5,2,5.6
		c0.4,2,0.7,4,0.8,6.1c0.1,1.3,0.1,2.8,0.2,4.5c0.1,1.7,0.2,3.5,0.4,5.3c0.2,1.8,0.5,3.5,0.9,5.1c0.4,1.6,1,3,1.9,4.1H622
		c-1-2.5-1.6-5.6-1.8-9.1c-0.2-3.5-0.6-6.9-1-10.1c-0.6-4.2-1.9-7.3-3.8-9.2c-1.9-1.9-5.1-2.9-9.5-2.9h-17.6v31.3h-17.6V291H613.8z
		 M607.5,327.3c4,0,7.1-0.9,9.1-2.7c2-1.8,3-4.7,3-8.8c0-3.9-1-6.7-3-8.5c-2-1.8-5-2.6-9.1-2.6h-19.3v22.5H607.5z"/>
	<path class="st0" d="M673.3,314.8c1.8-5.1,4.4-9.6,7.7-13.4c3.4-3.8,7.5-6.8,12.4-9c4.9-2.2,10.4-3.3,16.5-3.3
		c6.2,0,11.7,1.1,16.6,3.3c4.9,2.2,9,5.2,12.3,9c3.4,3.8,5.9,8.3,7.7,13.4c1.8,5.1,2.7,10.7,2.7,16.7c0,5.8-0.9,11.3-2.7,16.3
		c-1.8,5-4.4,9.4-7.7,13.2c-3.4,3.7-7.5,6.7-12.3,8.8c-4.9,2.1-10.4,3.2-16.6,3.2c-6.1,0-11.6-1.1-16.5-3.2c-4.9-2.1-9-5.1-12.4-8.8
		c-3.4-3.7-5.9-8.1-7.7-13.2c-1.8-5-2.7-10.5-2.7-16.3C670.6,325.4,671.5,319.9,673.3,314.8z M689.4,341.2c0.8,3.2,2,6,3.8,8.6
		c1.7,2.5,4,4.6,6.7,6.1c2.8,1.5,6.1,2.3,10.1,2.3c4,0,7.3-0.8,10.1-2.3c2.8-1.5,5-3.6,6.7-6.1c1.7-2.5,3-5.4,3.8-8.6
		c0.8-3.2,1.2-6.5,1.2-9.8c0-3.5-0.4-6.9-1.2-10.2c-0.8-3.3-2-6.2-3.8-8.8c-1.7-2.6-4-4.6-6.7-6.2c-2.8-1.5-6.1-2.3-10.1-2.3
		c-4,0-7.3,0.8-10.1,2.3c-2.8,1.5-5,3.6-6.7,6.2c-1.7,2.6-3,5.5-3.8,8.8c-0.8,3.3-1.2,6.7-1.2,10.2
		C688.2,334.8,688.6,338.1,689.4,341.2z"/>
	<path class="st0" d="M783,314.8c1.8-5.1,4.4-9.6,7.7-13.4c3.4-3.8,7.5-6.8,12.4-9c4.9-2.2,10.4-3.3,16.5-3.3
		c6.2,0,11.7,1.1,16.6,3.3c4.9,2.2,9,5.2,12.3,9c3.4,3.8,5.9,8.3,7.7,13.4c1.8,5.1,2.7,10.7,2.7,16.7c0,5.8-0.9,11.3-2.7,16.3
		c-1.8,5-4.4,9.4-7.7,13.2c-3.4,3.7-7.5,6.7-12.3,8.8c-4.9,2.1-10.4,3.2-16.6,3.2c-6.1,0-11.6-1.1-16.5-3.2c-4.9-2.1-9-5.1-12.4-8.8
		c-3.4-3.7-5.9-8.1-7.7-13.2c-1.8-5-2.7-10.5-2.7-16.3C780.3,325.4,781.2,319.9,783,314.8z M799.1,341.2c0.8,3.2,2,6,3.8,8.6
		c1.7,2.5,4,4.6,6.7,6.1c2.8,1.5,6.1,2.3,10.1,2.3c4,0,7.3-0.8,10.1-2.3c2.8-1.5,5-3.6,6.7-6.1c1.7-2.5,3-5.4,3.8-8.6
		c0.8-3.2,1.2-6.5,1.2-9.8c0-3.5-0.4-6.9-1.2-10.2c-0.8-3.3-2-6.2-3.8-8.8c-1.7-2.6-4-4.6-6.7-6.2c-2.8-1.5-6.1-2.3-10.1-2.3
		c-4,0-7.3,0.8-10.1,2.3c-2.8,1.5-5,3.6-6.7,6.2c-1.7,2.6-3,5.5-3.8,8.8c-0.8,3.3-1.2,6.7-1.2,10.2
		C797.9,334.8,798.3,338.1,799.1,341.2z"/>
	<path class="st0" d="M949.8,291v14.8h-38.7v18.5h33.5V338h-33.5v33.1h-17.6V291H949.8z"/>
	<path class="st0" d="M1000.1,291v80.1h-17.6V291H1000.1z"/>
	<path class="st0" d="M1055.5,291l33.4,53.7h0.2V291h16.5v80.1H1088l-33.3-53.6h-0.2v53.6H1038V291H1055.5z"/>
	<path class="st0" d="M1191,370.5c-3.8,1.6-7.7,2.4-11.6,2.4c-6.1,0-11.6-1.1-16.5-3.2c-4.9-2.1-9-5.1-12.4-8.8
		c-3.4-3.7-5.9-8.1-7.7-13.2c-1.8-5-2.7-10.5-2.7-16.3c0-6,0.9-11.5,2.7-16.7c1.8-5.1,4.4-9.6,7.7-13.4c3.4-3.8,7.5-6.8,12.4-9
		c4.9-2.2,10.4-3.3,16.5-3.3c4.1,0,8.1,0.6,11.9,1.9c3.9,1.2,7.3,3,10.4,5.4c3.1,2.4,5.7,5.3,7.7,8.9c2,3.5,3.3,7.6,3.7,12.1h-16.8
		c-1-4.5-3.1-7.9-6.1-10.1c-3-2.2-6.6-3.4-10.9-3.4c-4,0-7.3,0.8-10.1,2.3c-2.8,1.5-5,3.6-6.7,6.2s-3,5.5-3.8,8.8
		c-0.8,3.3-1.2,6.7-1.2,10.2c0,3.4,0.4,6.6,1.2,9.8c0.8,3.2,2,6,3.8,8.6c1.7,2.5,4,4.6,6.7,6.1c2.8,1.5,6.1,2.3,10.1,2.3
		c5.8,0,10.3-1.5,13.5-4.4c3.2-3,5-7.2,5.6-12.8h-17.7v-13.1h33.7v43.3h-11.2l-1.8-9.1C1198.3,366.1,1194.8,368.9,1191,370.5z"/>
	<path class="st0" d="M1338.8,370.2c-3.6,1.6-7.7,2.4-12.3,2.4c-3.6,0-7-0.5-10.2-1.6c-3.2-1-5.9-2.6-8.2-4.7
		c-2.3-2.1-4.2-4.6-5.5-7.5c-1.3-3-2-6.3-2-10.2c0-2.8,0.5-5.4,1.5-7.8c1-2.4,2.3-4.5,4-6.4c1.7-1.9,3.6-3.6,5.8-5.1
		c2.2-1.5,4.4-2.8,6.7-3.9c-2.2-2.6-4-5.2-5.4-7.9c-1.5-2.6-2.2-5.7-2.2-9.2c0-2.8,0.6-5.3,1.7-7.5c1.2-2.2,2.7-4.2,4.7-5.8
		c1.9-1.6,4.2-2.8,6.7-3.7c2.5-0.9,5.1-1.3,7.8-1.3c3.1,0,5.9,0.4,8.6,1.2c2.7,0.8,5,2,7,3.6c2,1.6,3.6,3.6,4.7,6
		c1.2,2.4,1.7,5.2,1.7,8.3c0,4.7-1.4,8.7-4.1,11.9c-2.7,3.2-6.1,5.9-10.2,8.1l10.3,12.7c0.8-1.5,1.5-3,1.9-4.7
		c0.4-1.6,0.8-3.2,1-4.9h13.8c-0.4,3.6-1.2,7.1-2.5,10.4c-1.3,3.4-3,6.5-5.3,9.3l16.3,19h-19.5l-6.5-8
		C1345.9,366.3,1342.4,368.7,1338.8,370.2z M1322.8,337.9c-1.3,0.8-2.5,1.8-3.6,2.9c-1,1.1-1.9,2.4-2.5,3.7c-0.6,1.3-1,2.8-1,4.5
		c0,1.4,0.3,2.8,1,4.1c0.6,1.3,1.5,2.4,2.5,3.4c1,0.9,2.3,1.7,3.6,2.2c1.4,0.6,2.8,0.8,4.3,0.8c2.8,0,5.3-0.7,7.5-2
		c2.1-1.3,4.1-3,6-5.1l-13.7-16.7C1325.6,336.4,1324.2,337.1,1322.8,337.9z M1337.7,303c-1.5-1.5-3.2-2.2-5.1-2.2
		c-1.9,0-3.6,0.7-5,2c-1.4,1.3-2.1,3-2.1,5.1c0,2.5,0.7,4.7,2,6.5c1.3,1.8,2.8,3.6,4.3,5.5c2.2-1.4,4.2-3,5.8-4.6
		c1.6-1.6,2.4-3.9,2.4-6.8C1339.9,306.3,1339.2,304.5,1337.7,303z"/>
	<path class="st0" d="M1471.1,351.4c1,1.9,2.3,3.4,3.9,4.5c1.6,1.2,3.5,2,5.7,2.6c2.2,0.6,4.4,0.8,6.7,0.8c1.6,0,3.3-0.1,5-0.4
		c1.8-0.3,3.5-0.8,5-1.5c1.6-0.7,2.9-1.8,3.9-3.1c1-1.3,1.6-3,1.6-5c0-2.2-0.7-3.9-2.1-5.3c-1.4-1.3-3.2-2.5-5.4-3.4
		c-2.2-0.9-4.8-1.7-7.6-2.4c-2.8-0.7-5.7-1.4-8.6-2.2c-3-0.7-5.9-1.7-8.8-2.7c-2.8-1.1-5.4-2.5-7.6-4.2c-2.2-1.7-4.1-3.9-5.4-6.5
		s-2.1-5.7-2.1-9.4c0-4.1,0.9-7.7,2.6-10.7c1.8-3,4.1-5.6,6.9-7.6c2.8-2,6.1-3.5,9.6-4.5c3.6-1,7.2-1.5,10.8-1.5
		c4.2,0,8.2,0.5,12.1,1.4c3.9,0.9,7.3,2.5,10.3,4.5c3,2.1,5.4,4.8,7.1,8c1.8,3.3,2.6,7.2,2.6,11.8h-17.1c-0.2-2.4-0.7-4.4-1.5-5.9
		c-0.9-1.6-2-2.8-3.4-3.7c-1.4-0.9-3-1.5-4.9-1.9c-1.8-0.4-3.8-0.6-6-0.6c-1.4,0-2.8,0.2-4.3,0.4c-1.4,0.3-2.7,0.8-3.9,1.6
		c-1.2,0.7-2.1,1.7-2.9,2.8c-0.8,1.1-1.1,2.5-1.1,4.3c0,1.6,0.3,2.8,0.9,3.8c0.6,1,1.8,1.9,3.5,2.7c1.8,0.8,4.2,1.6,7.3,2.5
		c3.1,0.8,7.2,1.9,12.2,3.1c1.5,0.3,3.6,0.8,6.2,1.6c2.7,0.8,5.3,2,7.9,3.8c2.6,1.7,4.9,4,6.8,6.9c1.9,2.9,2.9,6.6,2.9,11.1
		c0,3.7-0.7,7.1-2.1,10.2c-1.4,3.1-3.5,5.9-6.3,8.1c-2.8,2.3-6.3,4.1-10.4,5.3c-4.2,1.3-9,1.9-14.4,1.9c-4.4,0-8.7-0.5-12.8-1.6
		c-4.2-1.1-7.8-2.8-11-5.1c-3.2-2.3-5.7-5.3-7.6-8.9c-1.9-3.6-2.8-7.9-2.7-12.8h17.1C1469.7,347.2,1470.2,349.5,1471.1,351.4z"/>
	<path class="st0" d="M1552.1,314.8c1.8-5.1,4.4-9.6,7.7-13.4c3.4-3.8,7.5-6.8,12.4-9c4.9-2.2,10.4-3.3,16.5-3.3
		c6.2,0,11.7,1.1,16.6,3.3c4.9,2.2,9,5.2,12.3,9c3.4,3.8,5.9,8.3,7.7,13.4c1.8,5.1,2.7,10.7,2.7,16.7c0,5.8-0.9,11.3-2.7,16.3
		c-1.8,5-4.4,9.4-7.7,13.2c-3.4,3.7-7.5,6.7-12.3,8.8c-4.9,2.1-10.4,3.2-16.6,3.2c-6.1,0-11.6-1.1-16.5-3.2c-4.9-2.1-9-5.1-12.4-8.8
		c-3.4-3.7-5.9-8.1-7.7-13.2c-1.8-5-2.7-10.5-2.7-16.3C1549.4,325.4,1550.3,319.9,1552.1,314.8z M1568.2,341.2c0.8,3.2,2,6,3.8,8.6
		c1.7,2.5,4,4.6,6.7,6.1c2.8,1.5,6.1,2.3,10.1,2.3c4,0,7.3-0.8,10.1-2.3c2.8-1.5,5-3.6,6.7-6.1c1.7-2.5,3-5.4,3.8-8.6
		c0.8-3.2,1.2-6.5,1.2-9.8c0-3.5-0.4-6.9-1.2-10.2c-0.8-3.3-2-6.2-3.8-8.8c-1.7-2.6-4-4.6-6.7-6.2c-2.8-1.5-6.1-2.3-10.1-2.3
		c-4,0-7.3,0.8-10.1,2.3c-2.8,1.5-5,3.6-6.7,6.2s-3,5.5-3.8,8.8c-0.8,3.3-1.2,6.7-1.2,10.2C1567.1,334.8,1567.5,338.1,1568.2,341.2z
		"/>
	<path class="st0" d="M1680.3,291v65.3h39v14.8h-56.7V291H1680.3z"/>
	<path class="st0" d="M1791.5,291l30,80.1h-18.3l-6.1-17.8h-30l-6.3,17.8h-17.7l30.3-80.1H1791.5z M1792.6,340.2l-10.1-29.4h-0.2
		l-10.4,29.4H1792.6z"/>
	<path class="st0" d="M1894.1,291c3.6,0,6.8,0.6,9.7,1.7c2.9,1.2,5.3,2.7,7.4,4.8c2.1,2,3.6,4.4,4.7,7c1.1,2.7,1.6,5.5,1.6,8.6
		c0,4.7-1,8.8-3,12.2c-2,3.4-5.2,6.1-9.7,7.9v0.2c2.2,0.6,4,1.5,5.4,2.7c1.4,1.2,2.6,2.7,3.5,4.4c0.9,1.7,1.6,3.5,2,5.6
		c0.4,2,0.7,4,0.8,6.1c0.1,1.3,0.1,2.8,0.2,4.5c0.1,1.7,0.2,3.5,0.4,5.3c0.2,1.8,0.5,3.5,0.9,5.1c0.4,1.6,1,3,1.9,4.1h-17.6
		c-1-2.5-1.6-5.6-1.8-9.1c-0.2-3.5-0.6-6.9-1-10.1c-0.6-4.2-1.9-7.3-3.8-9.2c-1.9-1.9-5.1-2.9-9.5-2.9h-17.6v31.3h-17.6V291H1894.1z
		 M1887.8,327.3c4,0,7.1-0.9,9.1-2.7c2-1.8,3-4.7,3-8.8c0-3.9-1-6.7-3-8.5c-2-1.8-5-2.6-9.1-2.6h-19.3v22.5H1887.8z"/>
</g>
<path class="st0" d="M1249.3,256.9c0-21.4,0-60.4,0-68.7c45.6-24.6,91.3-49.2,136.9-73.7c45.6,24.6,91.3,49.2,136.9,73.7
	c0,8.3,0,47.3,0,68.7h79.2c0-28.4,0-77.9,0-92.3c0-13.6-7.5-27.7-19.6-34.2c-52.9-28.5-105.7-56.9-158.6-85.4
	c-6-3.2-11.9-6.7-18-9.7c-19.2-9.3-34.3-3.1-50.9,5.9c-29.9,16.1-59.8,32.2-89.7,48.3c-25.3,13.6-50.7,27.3-76,40.9
	c-12.2,6.6-19.6,20.6-19.6,34.2c0,14.4,0,63.9,0,92.3H1249.3z"/>
<g>
	<path class="st0" d="M570.9,248V65.4h171.6c44.9,0,70.6,23.3,70.6,63.8c0,24.9-10.4,46.8-28.7,59.7c-17.8,12.3-39.4,17.5-74.5,17.5
		h-45.2V248H570.9z M695.1,156.2c17.5,0,26.3-6.9,26.3-20.5c0-11.5-7.1-17.8-19.4-17.8h-37.2v38.3H695.1z"/>
	<path class="st0" d="M878.7,248V65.4h209.4v58.6H972.6v17h115.5v43.8H972.6V200h115.5V248H878.7z"/>
	<path class="st0" d="M1808.8,248l-44.9-58.3V248H1670V65.4h93.9v70.4l44.9-70.4H1920l-76.6,93.9L1915,248H1808.8z"/>
</g>
<path class="st0" d="M319.3,224.5c2.2,22-3,44.5-3.5,46.7c-15.7,62.1-51.9,108.6-108.5,139.2c-6.9,3.7-12.6,3.5-19.4-0.3
	c-50-27.7-84.3-68.4-103.4-122.4c-1.5-4.3-2.8-9.8-4.2-15.1c-5.6-22.9-6.3-31.7-5.9-47.4L0,264.7c0.1,8.7,5.1,23.3,7.7,32
	c26.8,93.9,87.1,159.7,181.1,197.5c6.5,2.6,12.4,2.6,18.8,0c24.7-9.8,48.3-21.8,69.9-37.6c49.9-36.6,84.5-82.9,104.3-138.5
	c0.1,0,0.2,0,0.4-0.4c0.4-0.9,1.4-4.5,2.8-9.4c2.2-6.8,7.1-24.4,9-44.8L319.3,224.5z"/>
<path class="st0" d="M72.6,193.5c0-19.6,0-41.9,0-49.4c41.8-22.5,83.6-45,125.4-67.5c41.8,22.5,83.6,45,125.4,67.5
	c0,7.6,0,29.9,0,49.4l72.5,40.3c0-26,0-98.2,0-111.4c0-12.4-6.8-25.3-18-31.3C329.5,65,281.1,39,232.7,12.9
	c-5.5-2.9-10.9-6.1-16.4-8.9c-17.5-8.5-31.4-2.8-46.6,5.4c-27.4,14.7-54.7,29.5-82.1,44.2C64.4,66.1,41.2,78.6,18,91.1
	C6.9,97.1,0,110,0,122.4c0,13.2,0,85.4,0,111.4L72.6,193.5z"/>
</svg>
