<?xml version="1.0" encoding="utf-8"?>
<!-- Generator: Adobe Illustrator 25.2.3, SVG Export Plug-In . SVG Version: 6.00 Build 0)  -->
<svg version="1.1" id="Layer_1" xmlns="http://www.w3.org/2000/svg" xmlns:xlink="http://www.w3.org/1999/xlink" x="0px" y="0px"
	 viewBox="0 0 206 150" style="enable-background:new 0 0 206 150;" xml:space="preserve">
<style type="text/css">
	.st0{fill:#FFFFFF;}
	.st1{enable-background:new    ;}
</style>
<g id="_7H42Hr.tif">
	<path class="st0" d="M123.7,12.2l0.3,0.3c5.5,8.2,11,16.3,16.6,24.4c2.3,3.4,4.6,6.7,6.9,10.1c6.6,9.6,13.1,19.3,19.7,28.9
		c0.3,0.4,0.6,0.9,0.8,1.4c0.1,0.4,0.1,0.7-0.4,0.7c-22.5,0-45,0-67.5,0c-2.2,0-2.3-0.1-1.5-2.2c3.6-9.6,7.3-19.1,10.9-28.7
		c4.1-10.8,8.3-21.7,12.5-32.5C122.2,13.7,122.3,12.4,123.7,12.2z"/>
	<path class="st0" d="M123.7,12.2c-0.9,0.5-1,1.6-1.3,2.4c-6.6,17.2-13.2,34.4-19.7,51.6c-1.3,3.4-2.5,6.9-3.9,10.3
		c-0.6,1.4-0.2,1.5,1,1.5c8.7,0,17.4,0,26.1,0h42.1c0.3-0.1,0.4,0,0.3,0.3c-0.7,0-1.4,0-2.1,0c-40.6,0-81.1,0-121.7,0
		c-0.8,0-1.7,0.2-2.4-0.3c0.8-1.2,2.1-1.9,3.2-2.8c8-6.6,16.1-13.2,24.1-19.8c4.9-4,9.8-8,14.7-12c6.4-5.3,12.9-10.6,19.4-15.9
		c0.7-0.6,1.2-1.3,1.9-1.8c2.2-0.6,3.5-2.4,5.1-3.7c3.9-3.1,7.7-6.4,11.6-9.5C122.6,12.3,123,11.3,123.7,12.2z"/>
	<path class="st0" d="M84.3,43.6C77.1,49.5,70,55.5,62.7,61.4c-5.7,4.6-11.4,9.2-17,13.8c-1.2,1-2.1,2.2-3.6,2.7
		c-0.5,0.3-1.2,0.4-1.8,0.3c-11.5,0-23,0-34.5,0c-0.5,0-1,0.2-1.4-0.3c9.4-7.9,19.4-15,29.1-22.4c7.6-5.9,15.3-11.7,23-17.4
		c0.7-0.5,1.1-1.6,2.2-1.5c0.8,0.4,1.6,0.6,2.5,0.8c6.9,1.7,13.9,3.5,20.8,5.2C82.9,42.8,83.8,42.9,84.3,43.6z"/>
	<path class="st0" d="M84.3,43.6c-7.9-1.9-15.7-3.9-23.6-5.9c-0.8-0.2-1.8,0-2.2-1.1c-0.5-0.5-0.3-1.2-0.2-1.7
		c1.8-11,3.8-21.9,5.7-32.8c0.1-0.6,0.5-1.1,0.5-1.7c0.4-0.7,0.7,0,1.1,0.1c6,3.8,12,7.5,18,11.3c6.9,4.3,13.7,8.6,20.6,13
		c0.5,0.3,0.9,0.7,1.3,1c0,0.7-0.5,1.1-1,1.5c-4.4,3.6-8.8,7.2-13.2,10.8C89,39.8,86.7,41.7,84.3,43.6z"/>
	<path class="st0" d="M168.3,78.2l-0.3-0.3c-5-7.4-10.1-14.9-15.1-22.3c-7.7-11.4-15.4-22.7-23.2-34.1c-1.8-2.6-3.5-5.2-5.2-7.8
		c-0.3-0.4-0.7-0.7-0.4-1.3l14.5,12.7c6.7,5.9,13.4,11.7,20.1,17.6c4.9,4.3,9.7,8.6,14.6,12.8c6.7,5.9,13.4,11.7,20.1,17.6
		c1.7,1.5,3.7,2.9,5.3,5H168.3z"/>
	<path class="st0" d="M64.6,0.3c0.3,2.2-0.5,4.2-0.8,6.3c-1.1,6.9-2.3,13.7-3.5,20.6c-0.5,3.1-1.1,6.2-1.7,9.3
		c-1.9,2.3-4.4,3.7-6.7,5.5C42,49.6,32.1,57.1,22.3,64.5c-5.8,4.4-11.5,8.8-17.2,13.2c-0.2,0.1-0.4,0.2-0.6,0.2
		c5.8-7.5,11.5-15,17.3-22.4c5.5-7.2,11.1-14.3,16.7-21.5C47.1,22.8,55.9,11.6,64.6,0.3z"/>
</g>
<g class="st1">
	<path class="st0" d="M3.5,129.4V92.7h6.9c7.6,0,10.8,7.8,10.8,18.3c0,10.7-3.1,18.3-10.7,18.3H3.5z M16.8,111.1
		c0-8.7-1.8-14.7-6.4-14.7H7.6v29.3h2.9C15.1,125.7,16.8,119.7,16.8,111.1z"/>
	<path class="st0" d="M26.9,129.4V92.7h13.6v3.7H31v12.4h9.1v3.7H31v13.2h9.5v3.7H26.9z"/>
	<path class="st0" d="M59.3,129.4l-9-26.7v26.7h-4.1V92.7h4.1l8.8,26.1V92.7h4.1v36.6H59.3z"/>
</g>
<g class="st1">
	<path class="st0" d="M77.2,129.4h-2.1l-6.9-36.6h1.8l6.1,34.1l6.1-34.1h1.8L77.2,129.4z"/>
	<path class="st0" d="M100.2,129.4H88.7V92.7h11.5v1.6h-9.8v15.3h9.4v1.6h-9.4v16.4h9.8V129.4z"/>
	<path class="st0" d="M120.1,129.4h-2l-5.4-15.9h-4.1v15.9h-1.8V92.7h5.5c2.2,0,4,0.9,5.4,2.7s2,4.4,2,7.6c0,3-0.5,5.4-1.6,7
		c-1.1,1.6-2.3,2.7-3.8,3.1L120.1,129.4z M112.3,111.8c1.8,0,3.2-0.8,4.1-2.4c0.9-1.6,1.4-3.7,1.4-6.3s-0.5-4.8-1.4-6.3
		c-0.9-1.6-2.3-2.4-4.1-2.4h-3.7v17.5H112.3z"/>
</g>
<g class="st1">
	<path class="st0" d="M2.7,144.7l0.5-0.6c0.3,0.5,0.9,0.8,1.4,0.8c0.8,0,1.4-0.7,1.4-1.7c0-2.5-3-2.7-3-5.5c0-1.4,0.9-2.3,2.1-2.3
		c0.6,0,1.2,0.2,1.6,0.7l-0.4,0.6c-0.3-0.4-0.7-0.6-1.2-0.6c-0.7,0-1.3,0.6-1.3,1.6c0,2.1,3,2.6,3,5.5c0,1.4-0.9,2.5-2.2,2.5
		C3.8,145.6,3.1,145.3,2.7,144.7z"/>
</g>
<g class="st1">
	<path class="st0" d="M13.5,145.4v-9.2h-1.6v-0.7h4v0.7h-1.6v9.2H13.5z"/>
</g>
<g class="st1">
	<path class="st0" d="M23.8,145.4l-0.4-2.5h-2.2l-0.4,2.5h-0.8l1.9-9.9h0.9l1.9,9.9H23.8z M22.3,136.6l-1,5.7h2L22.3,136.6z"/>
</g>
<g class="st1">
	<path class="st0" d="M34.3,145.4l-1.4-4.1h-1v4.1h-0.8v-9.9h1.8c1.3,0,2.2,1.1,2.2,2.9c0,1.8-0.8,2.5-1.4,2.7l1.5,4.3H34.3z
		 M34.2,138.4c0-1.3-0.4-2.2-1.4-2.2h-0.9v4.3h0.9C33.8,140.6,34.2,139.7,34.2,138.4z"/>
</g>
<g class="st1">
	<path class="st0" d="M41.4,145.4v-9.2h-1.6v-0.7h4v0.7h-1.6v9.2H41.4z"/>
	<path class="st0" d="M45.8,143v-7.5h0.8v7.5c0,1.4,0.5,1.9,1.3,1.9c0.8,0,1.3-0.5,1.3-1.9v-7.5H50v7.5c0,1.8-0.8,2.6-2.1,2.6
		C46.7,145.6,45.8,144.8,45.8,143z"/>
	<path class="st0" d="M52.7,145.4v-9.9h1.8c1.5,0,2.2,1.3,2.2,2.9c0,1.5-0.7,2.9-2.2,2.9h-1v4.1H52.7z M55.8,138.4
		c0-1.3-0.4-2.2-1.4-2.2h-0.9v4.3h0.9C55.4,140.6,55.8,139.7,55.8,138.4z"/>
	<path class="st0" d="M66.2,145.4l-1.1-8.2l-1.1,8.2h-0.9l-1.5-9.9h0.8l1.1,8.4l1.2-8.4h0.7l1.2,8.4l1.2-8.4h0.8l-1.5,9.9H66.2z"/>
	<path class="st0" d="M70.7,145.4v-9.9h3.4v0.7h-2.6v3.7H74v0.7h-2.5v4h2.6v0.7H70.7z"/>
	<path class="st0" d="M76.5,145.4v-9.9h3.4v0.7h-2.6v3.7h2.5v0.7h-2.5v4h2.6v0.7H76.5z"/>
	<path class="st0" d="M86,145.4l-2.2-4.5l-0.7,1.3v3.2h-0.8v-9.9h0.8v5.4l2.8-5.4h0.9l-2.6,4.7l2.7,5.2H86z"/>
</g>
</svg>
