<?xml version="1.0" encoding="utf-8"?>
<!-- Generator: Adobe Illustrator 25.2.3, SVG Export Plug-In . SVG Version: 6.00 Build 0)  -->
<svg version="1.1" id="Layer_1" xmlns="http://www.w3.org/2000/svg" xmlns:xlink="http://www.w3.org/1999/xlink" x="0px" y="0px"
	 viewBox="0 0 300 98" style="enable-background:new 0 0 300 98;" xml:space="preserve">
<style type="text/css">
	.st0{fill:#FFFFFF;}
</style>
<g id="Layer_2_1_">
	<g id="Layer_1-2">
		<g id="l4tvRo.tif">
			<path class="st0" d="M0,52.8v-5.7c0.1-2.4,0.4-4.8,0.8-7.1c2.1-11.6,8.3-22,17.4-29.4c4.9-4,10.6-7,16.7-8.7
				c2.7-0.8,5.5-1.3,8.3-1.5c0.2,0,0.4-0.1,0.5-0.2h210.5c0,0.1,0.1,0.1,0.2,0.1c0.9,0.2,1.7,0.3,2.6,0.3c4,0.5,7.9,1.6,11.6,3.2
				c7.8,3.3,14.7,8.7,19.7,15.5c8.1,11,11.4,24.8,9.1,38.2c-0.9,5.6-2.9,11-5.7,16c-3.3,5.8-7.7,10.8-13,14.8
				c-4.1,3.1-8.6,5.5-13.5,7.1c-3,1-6,1.7-9.2,2c-0.8,0-1.6,0.2-2.5,0.3H43.9c-0.1-0.2-0.2-0.1-0.3-0.1c-1.7-0.2-3.4-0.4-5-0.7
				c-8.2-1.6-15.9-5.4-22.2-11C11.8,81.9,8,76.9,5.3,71.4C2.6,66.2,1,60.5,0.3,54.8C0.3,54.1,0.2,53.4,0,52.8z M148.9,93.2h97.6
				c2,0,4.1,0,6.1-0.2c2.9-0.3,5.8-0.9,8.6-1.7c6.1-1.8,11.7-4.8,16.5-8.9c5.6-4.7,10-10.6,12.8-17.4c4.6-11.3,4.2-24-1.2-34.9
				c-2.6-5.3-6.1-10-10.5-13.8c-4.6-4-9.9-7.2-15.7-9.1c-4.4-1.6-9-2.4-13.7-2.5c-66.2,0-132.5,0-198.7,0c-2.4,0-4.8,0.1-7.2,0.5
				c-3.4,0.5-6.7,1.3-10,2.5c-7.7,2.8-14.4,7.6-19.6,14c-5.4,6.6-8.8,14.6-9.6,23.1C4.1,48.5,4.2,52.3,4.8,56
				c0.7,4.3,2.1,8.5,4,12.4c3.6,7.2,9.2,13.3,16,17.6c7.5,4.8,16.2,7.3,25.1,7.3H148.9z"/>
			<path class="st0" d="M300,82.6c-0.2,0.1-0.2,0.3-0.3,0.5c-0.9,2.1-3.3,3.1-5.5,2.2c-2.1-0.9-3.1-3.3-2.2-5.5
				c0.9-2.1,3.3-3.1,5.5-2.2c1,0.4,1.8,1.3,2.2,2.3c0.1,0.1,0,0.3,0.3,0.3L300,82.6z M295.9,78.2c-1.8,0-3.3,1.5-3.3,3.3
				s1.5,3.3,3.3,3.3c0,0,0,0,0,0c1.8,0,3.3-1.5,3.3-3.3S297.7,78.2,295.9,78.2z"/>
			<path class="st0" d="M290.2,52c-0.1,2.3-0.5,4.5-1.2,6.7c-1.8,6.3-5.1,12-9.6,16.7c-5.4,5.6-12.1,9.6-19.5,11.9
				c-4.8,1.5-9.9,2.2-14.9,2.2H54C46.9,89.5,39.8,88,33.3,85c-8.7-4-15.5-10-20.2-18.4C10,60.9,8.4,54.5,8.6,47.9
				c0.1-7.8,2.7-15.3,7.4-21.5c5.8-8,13.7-13.2,23.1-16.2c3-0.9,6-1.5,9.1-1.9C50.2,8.1,52.3,8,54.3,8C118,8,181.7,8,245.4,8
				c7.3,0,14.5,1.6,21.1,4.7c4.7,2.2,8.9,5.3,12.6,9c3.8,3.9,6.8,8.4,8.8,13.5c0.8,2.1,1.5,4.3,1.8,6.5c-0.1,0.2-0.1,0.3,0,0.5
				c0.3,1.3,0.4,2.6,0.5,3.8c0.1,1.6,0,3.3,0,4.9C290.2,51.3,289.9,51.7,290.2,52z M100.4,55.5c0.1,0,0.1,0.1,0.2,0.1
				c4.5,0,8.9,0,13.4,0c0.4,0,0.5-0.1,0.5-0.5c0-2.5,0-5,0-7.4c0-0.4-0.1-0.5-0.6-0.5c-4.4,0-8.7,0-13.1,0c-0.2,0-0.3,0-0.4,0.1
				c-0.1,0.1-0.1,0.3-0.1,0.5c0,2.4,0,4.9,0,7.3C100.3,55.2,100.3,55.4,100.4,55.5z M143.5,41.9l0.1,1c0.1-0.6,0.1-1.2,0.1-1.9
				c0-0.9,0-0.9,0.9-0.9h31.2c0.2,0,0.4,0.1,0.5-0.1c0.2,0,0.4-0.1,0.4-0.4c0.2-4.1,0.4-8.3,0.6-12.4c0-0.5-0.1-0.6-0.6-0.6
				c-3.8,0-7.7,0-11.5,0h-43.3c-0.3,0-0.5,0-0.5,0.4c0.1,2.6,0.1,5.2,0.2,7.8c0.2,6.5,0.3,12.9,0.5,19.4c0.1,2.5,0.1,5,0.2,7.5
				c0.1,2.5,0.1,4.8,0.2,7.3c-0.2,0.7-0.2,1.4,0,2.1l0.1,0.3c0.2,0.2,0.4,0.1,0.7,0.1h50.6c0.2,0,0.5,0.1,0.7-0.1
				c0.2-0.2,0.6,0.1,0.8-0.1c0.3-0.2,0.1-0.3,0.1-0.5c0-2.4,0-4.8,0-7.1c0-0.2,0-0.4-0.1-0.5s-0.4-0.1-0.6-0.1
				c-10.4,0-20.7,0-31.1,0c-0.6,0-0.7-0.2-0.7-0.7c0.1-2,0.1-3.9,0.2-5.9c0-0.5,0.1-0.6,0.6-0.6c7.6,0,15.2,0,22.7,0
				c0.2,0,0.4,0.1,0.5-0.2s0.1-0.4,0.1-0.6c0-2.7,0-5.3,0-8c0-0.2,0.1-0.4-0.1-0.6l-0.3-0.1c-0.2-0.2-0.4-0.1-0.6-0.1
				c-7.2,0-14.4,0-21.6,0c-0.2,0-0.4-0.1-0.6,0.1c-0.3,0.1-0.4,0-0.4-0.3c0-0.5,0-1,0-1.6C143.4,43.8,143.4,42.9,143.5,41.9z
				 M59.4,63.7c-0.1-1.2,0-2.3,0.1-3.5c0-1,0-2,0.1-3c0-0.1,0-0.1,0.1-0.2c0.1-0.9,0.1-0.9,1-0.9h10.6c0.8,0,0.8,0,0.8,0.8
				c0,4.6,0,9.2,0,13.8c0,0.2,0,0.5,0.1,0.7c0.2,0.3,0.5,0.1,0.7,0.1c6.1,0,12.3,0,18.4,0c0.5,0,0.7-0.1,0.7-0.7
				c0.2-5.5,0.5-11.1,0.7-16.6c0.2-4.4,0.4-8.7,0.6-13.1l0.3-7.7c0.1-2.2,0.2-4.3,0.3-6.5c0-0.3-0.1-0.5-0.4-0.4c-0.2,0-0.4,0-0.6,0
				H83c-0.2-0.1-0.4-0.1-0.6-0.1h-9.6c-0.2,0-0.4,0-0.5,0.1c-0.4,0.1-0.2,0.4-0.2,0.6c0,6.2,0,12.3,0.1,18.5c0,0.6-0.1,0.7-0.7,0.7
				c-3.3,0-6.6,0-9.9,0c-0.6,0-1.3,0.3-1.7-0.1c-0.3-0.4,0-1.1,0-1.6c0.1-5.9,0.2-11.8,0.4-17.7c0-0.3-0.1-0.4-0.4-0.4
				c-0.5,0-1,0-1.5,0c-6.7,0-13.4,0-20.2,0c-0.4,0-0.5,0.1-0.5,0.5c0.1,1.7,0.1,3.4,0.1,5.2l0.3,17c0.1,7.2,0.3,14.4,0.4,21.6
				c0,0.5,0.2,0.6,0.6,0.6c0.2,0.2,0.4,0.1,0.6,0.1h18.9c0.2,0,0.4,0.1,0.6-0.1c0.1-0.5,0.2-1.1,0.1-1.7c0-1.2,0-2.3,0.1-3.5
				C59.6,65.5,59.6,64.6,59.4,63.7L59.4,63.7z M203.9,26.4c-0.1,1-0.1,1.9,0,2.9h0.1c0.1,1,0.1,2,0.1,3.1c-0.1,0.7-0.2,1.4-0.1,2.1
				c0,0.3-0.1,0.7,0.1,1c0,0.1,0,0.2,0,0.3c-0.1,2.5,0,5.1,0.1,7.6c0,0.1,0,0.1,0.1,0.2c0.1,5.2,0.3,10.4,0.3,15.6l0,0
				c0.1,0.3,0.1,0.6,0,0.9c0,1.3,0,2.6,0,3.9c0,0.2-0.1,0.5,0.1,0.7c0.2,1.9,0.1,3.9,0.1,5.8c0,0.4,0.1,0.6,0.5,0.6
				c10.3,0,20.5,0,30.8,0h4c0.1,0,0.2,0.1,0.3,0.1h4.6c0.1,0,0.1-0.1,0-0.1c-0.1,0-0.1,0-0.2,0c0.3-0.1,0.6-0.1,0.9-0.1
				c2.5,0.2,5-0.5,7.1-1.9c2.2-1.5,4-3.4,4.6-6.2c0.2-1.2,0.2-2.4,0.1-3.6c0-2.5-1.2-4.8-3.2-6.2c-1.1-0.7-2.2-1.2-3.5-1.5l0.5-0.2
				c2.3-0.7,4.3-2.1,5.8-3.9c2.2-2.6,2.8-5.7,2.5-9c-0.3-4-2-7.2-5.3-9.4c-3-1.9-6.4-3-10-2.9c-13.2,0-26.5,0-39.7,0h-0.5
				C203.9,26.1,203.9,26.3,203.9,26.4z M190,55.5h6.6c0.3,0,0.4-0.1,0.4-0.4c0-2.5,0-5,0-7.6c0-0.4-0.1-0.5-0.5-0.5
				c-4.4,0-8.7,0-13.1,0c-0.4,0-0.5,0.1-0.5,0.5c0,2.5,0,5,0,7.4c0,0.4,0.1,0.5,0.5,0.5C185.6,55.5,187.8,55.6,190,55.5L190,55.5z"
				/>
			<path class="st0" d="M290.2,52c-0.3-0.3,0-0.6,0-0.9c0-1.6,0.1-3.3,0-4.9c-0.1-1.3-0.2-2.6-0.5-3.8c0-0.2-0.1-0.3,0-0.5
				c0.6,3.2,0.8,6.5,0.6,9.7C290.2,51.7,290.2,51.8,290.2,52z"/>
			<path class="st0" d="M297.9,83.7c-1.3,0-1,0.2-1.5-0.8c-0.1-0.3-0.3-0.5-0.4-0.8c-0.2-0.4-0.5-0.3-0.8-0.3
				c-0.3,0-0.1,0.3-0.2,0.5c0,0.3,0,0.6,0,0.9c0,0.4,0,0.5-0.5,0.5s-0.5-0.2-0.5-0.5c0-1.2,0-2.4,0-3.6c0-0.3,0-0.5,0.4-0.4
				c0.8,0,1.6,0,2.4,0c0.7,0,1.2,0.5,1.2,1.2c0,0,0,0,0,0c0.1,0.6-0.2,1.2-0.8,1.3c0,0-0.1,0-0.1,0c-0.3,0.1-0.2,0.2-0.1,0.4
				L297.9,83.7z M295.9,81.2L295.9,81.2c0.2,0,0.5,0,0.7,0c0.3,0,0.5-0.2,0.5-0.5c0.1-0.2,0-0.4-0.2-0.5c-0.6-0.2-1.2-0.2-1.7-0.1
				c0,0-0.1,0.1-0.1,0.1c-0.1,0.3-0.1,0.7,0,1c0.1,0.2,0.4,0.1,0.6,0.1L295.9,81.2z"/>
			<path class="st0" d="M122.6,71.5h1.5h49.8h0.6c-0.2,0.2-0.5,0.1-0.7,0.1h-50.5C123,71.7,122.8,71.8,122.6,71.5z"/>
			<path class="st0" d="M143.5,41.9c0-0.6,0-1.1,0-1.7c0-0.4,0.2-0.3,0.4-0.2h0.4c0.2,0,0.3,0,0.5,0h29.9c0.2,0,0.3,0,0.5,0.1h0.7
				c0.1,0,0.2,0,0.3,0c-0.1,0.3-0.3,0.1-0.5,0.1h-31.2c-0.9,0-0.9,0-0.9,0.9c0,0.6,0,1.2-0.1,1.9L143.5,41.9z"/>
			<path class="st0" d="M59.6,57.2C59.5,56,59.5,56,60.7,56c3.6,0,7.3,0,10.9,0c0.4,0,0.6,0,0.6,0.5c0,4.9,0,9.8,0,14.8
				c0,0.1,0,0.2,0,0.2C72,71.2,72,71,72.1,70.7c0-4.6,0-9.2,0-13.8c0-0.8,0-0.8-0.8-0.8H60.7c-0.9,0-0.9,0-1,0.9
				C59.6,57.1,59.6,57.2,59.6,57.2z"/>
			<path class="st0" d="M166.6,46.6h-0.3h-22.1c-0.1,0-0.3,0-0.4,0c0.2-0.2,0.4-0.1,0.6-0.1c7.2,0,14.4,0,21.6,0
				C166.2,46.5,166.5,46.4,166.6,46.6z"/>
			<path class="st0" d="M39,71.5h0.9h18.6h0.6c-0.2,0.2-0.4,0.1-0.6,0.1H39.6C39.4,71.7,39.2,71.7,39,71.5z"/>
			<path class="st0" d="M83,26.7H72.3c0.2-0.2,0.4-0.1,0.5-0.1h9.6C82.6,26.5,82.8,26.6,83,26.7z"/>
			<path class="st0" d="M167,55.9c0-3,0-6.1,0-9.1c0.2,0.2,0.1,0.4,0.1,0.6c0,2.7,0,5.4,0,8C167.1,55.5,167.2,55.7,167,55.9z"/>
			<path class="st0" d="M100.5,47.2c0,2.8,0,5.5,0,8.3c-0.2-0.1-0.1-0.3-0.1-0.5c0-2.4,0-4.9,0-7.3
				C100.3,47.5,100.3,47.3,100.5,47.2z"/>
			<path class="st0" d="M175.3,71.5c0-2.7,0-5.4,0-8.1c0.1,0.1,0.1,0.3,0.1,0.5c0,2.4,0,4.8,0,7.1C175.4,71.1,175.5,71.3,175.3,71.5
				z"/>
			<path class="st0" d="M204.1,35.8c0.1,1.6,0.1,3.2,0.1,4.8l0.1,3c0,0-0.1-0.1-0.1-0.2C204.1,40.9,203.9,38.4,204.1,35.8z"/>
			<path class="st0" d="M240,71l4.8,0c0.1,0,0.1,0,0.2,0c0.1,0,0.1,0.1,0,0.1h-4.6C240.2,71,240.1,71,240,71z"/>
			<path class="st0" d="M204.5,60.1c0.1,1.5,0.1,3,0.1,4.6c-0.2-0.2-0.1-0.4-0.1-0.7C204.5,62.7,204.5,61.4,204.5,60.1z"/>
			<path class="st0" d="M204,32.4c0,1,0,2.1,0,3.1c-0.2-0.3-0.1-0.7-0.1-1C203.8,33.8,203.9,33.1,204,32.4z"/>
			<path class="st0" d="M203.9,26.4c0,1,0,1.9,0,2.9h-0.1C203.7,28.4,203.7,27.4,203.9,26.4z"/>
			<path class="st0" d="M59.4,66.4v-2.7C59.6,64.6,59.6,65.5,59.4,66.4z"/>
			<path class="st0" d="M122.4,69.1c0,0.7,0,1.4,0,2.1C122.3,70.5,122.3,69.8,122.4,69.1z"/>
			<polygon class="st0" points="204.5,59.2 204.5,59.2 204.5,59.2 			"/>
			<path class="st0" d="M230.6,47.5c-1.3,0-2.7,0-4,0c-0.5,0-0.6-0.1-0.6-0.6c0.1-2.8,0.1-5.6,0.2-8.4c0-0.3,0.1-0.4,0.4-0.4
				c2.7,0,5.5,0,8.2,0c2.2,0,4.6,2.4,4.6,4.4c-0.1,2.9-2.1,5-4.8,4.9C233.2,47.4,231.9,47.4,230.6,47.5L230.6,47.5z"/>
			<path class="st0" d="M230.3,63c-1.4,0-2.8,0-4.3,0c-0.3,0-0.4,0-0.4-0.4c0.1-2.4,0.1-4.8,0.2-7.1c0-0.4,0.1-0.5,0.5-0.5
				c2.6,0,5.1,0.1,7.7,0c1.8,0,3.4,1.3,3.7,3.1c0.5,1.9-0.5,3.9-2.3,4.7c-0.3,0.1-0.6,0.2-0.9,0.2L230.3,63L230.3,63z"/>
			<path class="st0" d="M176,40h-0.7C175.5,39.9,175.7,39.9,176,40z"/>
			<path class="st0" d="M144.3,40H144C144.1,39.9,144.2,39.9,144.3,40z"/>
		</g>
	</g>
</g>
</svg>
