<?xml version="1.0" encoding="UTF-8"?>
<svg id="Layer_1" xmlns="http://www.w3.org/2000/svg" version="1.1" viewBox="0 0 1202.9 352.6">
  <!-- Generator: Adobe Illustrator 29.0.0, SVG Export Plug-In . SVG Version: 2.1.0 Build 186)  -->
  <defs>
    <style>
      .st0 {
        fill: #fff;
      }
    </style>
  </defs>
  <path class="st0" d="M143.5,255.4L.5,228.4,20.2,73.6c2.5-5.4,24.3-8.4,30.1-11.4C53.3,38.1,79.3-6.8,108.5.9c5.1,1.3,6.1,6,8,7s6.5,1,9.2,1.8c10.9,3.4,14.9,12.9,19.7,22.2l6-1.1,2,1.2-9.9,223.4ZM106.5,10.4c-26.1-2.5-40.1,27.8-45,49l18-6.5c2.8-8.4,4.9-16.8,9.6-24.4,4.3-7.1,9-10.7,15.5-15.5,1.1-.8,2.5,0,1.9-2.6ZM113.5,18.4c-12.3,4.5-19.1,18.8-22,31,4.4-1.5,22.5-5.7,24.5-9s-1.5-17.3-2.5-22ZM136.5,37.4c-.8-7.6-6-19.3-15-19,2.3,6.4,3.4,13.2,3,20l12-1ZM114.4,90.5c-35.9-10.1-76.1,10.1-68.5,52,3.4,18.5,29.4,22.9,27.6,39.5-1.7,15.6-25.7,3.7-32.5-2.5-1.4,0-6.8,19.1-6.5,21.4.5,3.7,13.3,10.5,17,12,43.3,16.9,74.8-27.8,48-60-7.4-8.9-34.3-20.2-23.5-33.4s24.1-2.8,32.5-.5l5.9-28.5Z"/>
  <path class="st0" d="M223.5,239.4l-74.9,15.6-2.1-1.1,10-221.5c1.3-1.5,13.3,12.6,15.8,13.7,5.6,2.5,16.3.9,22.6,2.4l1.5,1.5,27.2,189.3Z"/>
  <path class="st0" d="M578.5,105.4l-1,16,9.1-9.4c22.4-17,48.2-6.8,50.9,21.9,3.8,41-27.4,88.5-73,72.5l-8,43h-29l26-144h25ZM592.2,127.6c-17.6,3.7-20.5,41.3-23.4,55.3,15.5,12,28.3-2.7,33.8-16.9,4.6-11.7,11.1-42.9-10.5-38.4Z"/>
  <path class="st0" d="M387.5,62.4l-10,55c14.1-16.5,46.2-22.8,52.7,3.7,1.4,29.4-8.4,58.4-12.8,87.3h-29l12-65.5c1.4-9.9-2.5-20.3-13.9-14.9-21.1,9.9-19.9,61.4-27.6,80.4h-28.5l28-146h29Z"/>
  <path class="st0" d="M795.5,105.4l7.5,69,25.5-69h30c-11,24.1-21.4,48.6-33.1,72.4-14.8,29.9-32.8,65.8-67.3,75.7l-8.6-25c13.7-3.7,27.5-14.1,33-27.6l-18-95.5h31Z"/>
  <path class="st0" d="M493.3,102.7c66.9-2.3,47.3,111.3-19.3,106.7-59.2-4-40.3-104.6,19.3-106.7ZM492.1,182c12-11.9,22.9-63.5-4.7-56.2-16.4,4.3-28.4,53-11.7,59.8,5.8,2.4,12.1.6,16.4-3.6Z"/>
  <path class="st0" d="M691.5,208.4l15-81h-13s4-22,4-22h14c2.1-32.8,28-55,61-45l-5,23c-17-5.5-26.5,6.1-27,22h19l-3.9,21.6-19.6,1.4-16,80h-28.5Z"/>
  <path class="st0" d="M331.5,107.4l-7,20.6c-7.8-2.3-25.1-7.2-29.9,2-5.4,10.2,11.6,15.8,17.9,20.9,29.5,24,5.3,57-27.5,58.5-6.3.3-27.1-2.4-31.5-6.5s-1-1.5-.8-2.8,6-17.7,6.8-18.3c8.4,3.8,34.6,11.8,36-3,1-9.9-13.7-14.5-20-19.9-19.9-17-10.8-43.6,11.8-52.3s30.4-4.3,44.3.8Z"/>
  <path class="st0" d="M887.5,196.4l-9.2,49.3c-2.8,5.4-11.4,4.3-9.8-2.8l25.3-131.8c1.3-4.7,6.3-7.7,10.2-3.8l-.5,10c17.9-16.9,57.8-20.2,68.5,6,7.9,19.4-.9,54.5-15,70-15.3,16.9-46.3,22.8-64.4,7.4-1.7-1.5-2.3-4.8-5.1-4.4ZM928.2,114.7c-21.2,2.9-30.6,26-33.5,44.5-4.4,27.9,3.7,44.6,34.8,39.8,20.1-3.2,29.5-23.3,32.7-41.3,5-28-1.5-47.3-33.9-42.9Z"/>
  <polygon class="st0" points="686.5 105.4 667.5 208.4 638.5 208.4 657.5 105.4 686.5 105.4"/>
  <path class="st0" d="M1164.2,104.7c11.2-1.3,23.8.4,32.7,7.7,6.3,5.2,8.6,10.8-.8,13.8-4.3-2.5-6.4-6.4-11.1-8.8-11.2-5.7-34-4.8-39.7,8.3-8.7,19.9,20.8,23.9,33.2,30.2,14.8,7.4,20.5,18,12.8,33.9s-42.9,24.3-61.9,15.1c-4.7-2.3-19.1-13.6-10-18,6.1-2.9,7.7,3.2,11.5,6.5,15,12.5,58.1,7.3,52.3-18.3-3.5-15.2-50.3-14-50.6-40.2-.2-17.2,15.9-28.4,31.6-30.2Z"/>
  <path class="st0" d="M1043.2,105.5c2.7-.4,4.8,2.4,4.8,5l-12.5,67.4c-.5,14.1,5.7,20.5,19.5,21.6,17.4,1.3,31.2-1.4,38.4-18.7,3.8-9.1,2.1-23.1,11.7-26.3,7.4.2,1.7,18.1.4,22.4-5.4,18.4-17.9,30.4-37.5,32.5-70.1,7.3-33.8-59.5-30.4-98.4.5-2.2,3.6-5.1,5.7-5.4Z"/>
  <path class="st0" d="M1006.2,199.6c2.3,2.2.9,6.7-2,8-10.7,5-22.1-7.1-20.8-17.7l25.3-131.8c1.5-6.3,11.4-6.9,10.7.6l-24.9,128.2c-1.1,16.2,7.6,8.7,11.7,12.7Z"/>
  <path class="st0" d="M859.5,324.4c-1.4-.3-.8.4-1.1,1.3-1.9,6-2.6,20.9-5,25s-5.7,2.2-5.8-.7l14.4-72.6,4.5-1v6c10.1-10.4,34.9-10.2,37.8,6.7s-5.5,40.1-24.3,42.3c-6.8.8-17.9.3-20.5-7ZM883.1,280.8c-22.4.4-29.2,41.2-12.7,45.2s23.5-6.1,26.6-18.6,3.2-26.9-13.8-26.6Z"/>
  <path class="st0" d="M1088.5,305.4c-4.3,17.2,8.4,24.8,24,19.5s7.8-4.9,9.5-4.5l1.6,2.5c-4.5,8.3-17.9,9.5-26.4,8.4-25-3.3-16-44.7,1.7-53.1s29.9-4.1,31.7,10.7,0,16.5-4.5,16.5h-37.5ZM1124.5,299.4c4.8-28.4-31.4-21.6-35,0h35Z"/>
  <path class="st0" d="M948.5,298.4c5.5-14.3-5.7-20.3-18.3-16.8s-8,8.3-13.7,7.8c-.2-7.6,10.9-13.1,17.6-13.9,13.5-1.6,22.4,4,21.3,18.3-.3,3.8-6,34.9-7.1,36.3s-2.6,1.4-3.2,1.2c-2.5-.5-.4-6-3.1-5s-2,1.9-3.5,2.5c-9.4,3.9-29.1,5.4-30.9-8.1-1.1-8.3,2.8-15.9,10.2-19.6s6.8-2.8,7.2-2.8h23.5ZM947.5,303.4h-20.5c-4.3,0-11.3,5-12.7,9.3-4.7,14.2,10.9,15.9,20.9,11.9,9.3-3.6,11.6-12,12.3-21.2Z"/>
  <path class="st0" d="M674.2,62.6c24.1-5,24.6,31.6,2.7,32.8s-19.1-29.4-2.7-32.8Z"/>
  <path class="st0" d="M1031.3,330.2c-2.4,1.7-5.1,1.2-5.5-2,2.9-7.4,6.7-47.2,10.2-50.8s2.9-1,4.5-1l.5,5c7.3-5.9,20-8.6,28.5-3.5s6.5,10.1,6.1,17-5.9,33.6-7,35c-2.1,2.7-5.1,1.7-5.1-2,0-10,10.1-35.7,4.5-43.5s-19.7-3.1-25,2c-8.5,8.1-7.9,32.5-11.7,43.8Z"/>
  <path class="st0" d="M1116.5,121.4c23.2-3,17.2,13.9-1.9,11.1-1.8,5.4-1.6,17.8-10.5,14.7s-.2-11.2-.7-14.8c-23,2.4-16.1-15,3-11,0-5,.6-14.9,6.7-15.8,10-1.5,2.2,14.9,3.3,15.8Z"/>
  <path class="st0" d="M1014.5,277.4l9.3.2c5.8,6.2-5.6,4.9-9.7,4.8l-1,1.2c-.7,11-6.3,24.8-6.7,35.3,0,1.8.2,3.7,1.3,5.2l7.8,2.2c-1.4,10-13.7,3.2-14.8-4.8-1.3-9.4,6.3-28.3,6.8-38.7l-6.4-.7c-6.3-6.7,6.3-4.1,7.2-4.9,1.3-3.1,1.4-15.9,5.6-15.9l2.4,1.7-1.9,14.3Z"/>
  <path class="st0" d="M1143.6,276.5l4.5.8.4,5.1c2.7-.9,4.4-3.4,7-4.5s15.8-5.2,13.9.9c-.9,2.9-7.8,2.4-10.7,3.4-18,6-13.8,33.8-19.5,46.5-2,4.5-6.5,3.5-5.7-1.6l10-50.6Z"/>
  <path class="st0" d="M966.3,330.2c-2.4,1.7-5.1,1.2-5.5-2l9.8-50.2,4.9-1.6.5,7c2.5-2.9,5.9-5.2,9.5-6.5s12.3-3.7,10.8,1.8c-2.9,4.2-8.3,1.9-13.2,4.8-14.3,8.4-12.7,32.5-16.9,46.6Z"/>
</svg>