<svg width="260" height="334" viewBox="0 0 260 334" fill="none" xmlns="http://www.w3.org/2000/svg">
<path d="M40.1953 99.7856C43.1178 101.473 46.6976 101.526 49.6611 99.9438L49.9463 99.7856L84.4512 79.8618C87.4673 78.1201 89.325 74.9013 89.3252 71.4184L89.3252 31.5757C89.3251 28.2016 87.5815 25.0759 84.7305 23.3003L84.4512 23.1323L49.9463 3.20849C47.0238 1.52101 43.4441 1.46836 40.4805 3.05029L40.1953 3.20849L5.69042 23.1323C2.67429 24.8741 0.816511 28.0928 0.8164 31.5757L0.816403 71.4185C0.816566 74.7924 2.56011 77.9183 5.41113 79.6938L5.69043 79.8618L40.1953 99.7856Z" stroke="#2C2C2C" stroke-width="0.5"/>
<path d="M128.969 99.7876C131.891 101.475 135.471 101.528 138.435 99.9458L138.72 99.7876L173.225 79.8638C176.241 78.1221 178.098 74.9033 178.099 71.4204L178.099 31.5776C178.099 28.2036 176.355 25.0778 173.504 23.3022L173.225 23.1343L138.72 3.21044C135.797 1.52297 132.217 1.47031 129.254 3.05224L128.969 3.21045L94.4639 23.1343C91.4477 24.876 89.5899 28.0947 89.5898 31.5776L89.5898 71.4204C89.59 74.7944 91.3336 77.9203 94.1846 79.6958L94.4639 79.8638L128.969 99.7876Z" stroke="#2C2C2C" stroke-width="0.5"/>
<path d="M84.5781 176.673C87.5006 178.36 91.0804 178.413 94.0439 176.831L94.3291 176.673L128.834 156.749C131.85 155.007 133.708 151.789 133.708 148.306L133.708 108.463C133.708 105.089 131.964 101.963 129.113 100.187L128.834 100.02L94.3291 80.0957C91.4066 78.4082 87.8269 78.3556 84.8633 79.9375L84.5781 80.0957L50.0732 100.02C47.0571 101.761 45.1993 104.98 45.1992 108.463L45.1992 148.306C45.1994 151.68 46.9429 154.806 49.7939 156.581L50.0732 156.749L84.5781 176.673Z" stroke="#2C2C2C" stroke-width="0.5"/>
<path d="M173.344 176.703C176.266 178.39 179.846 178.443 182.81 176.861L183.095 176.703L217.6 156.779C220.616 155.037 222.473 151.818 222.474 148.335L222.474 108.493C222.474 105.119 220.73 101.993 217.879 100.217L217.6 100.049L183.095 80.1255C180.172 78.438 176.592 78.3854 173.629 79.9673L173.344 80.1255L138.839 100.049C135.823 101.791 133.965 105.01 133.965 108.493L133.965 148.335C133.965 151.709 135.709 154.835 138.56 156.611L138.839 156.779L173.344 176.703Z" stroke="#2C2C2C" stroke-width="0.5"/>
<path d="M262.117 176.705C265.04 178.392 268.619 178.445 271.583 176.863L271.868 176.705L306.373 156.781C309.389 155.039 311.247 151.82 311.247 148.337L311.247 108.495C311.247 105.121 309.503 101.995 306.652 100.219L306.373 100.051L271.868 80.1274C268.946 78.44 265.366 78.3873 262.402 79.9692L262.117 80.1274L227.612 100.051C224.596 101.793 222.738 105.012 222.738 108.495L222.738 148.337C222.738 151.711 224.482 154.837 227.333 156.613L227.612 156.781L262.117 176.705Z" stroke="#2C2C2C" stroke-width="0.5"/>
<path d="M217.727 253.59C220.649 255.277 224.229 255.33 227.192 253.748L227.478 253.59L261.982 233.666C264.999 231.924 266.856 228.706 266.856 225.223L266.856 185.38C266.856 182.006 265.113 178.88 262.262 177.104L261.982 176.937L227.478 157.013C224.555 155.325 220.975 155.273 218.012 156.854L217.727 157.013L183.222 176.937C180.206 178.678 178.348 181.897 178.348 185.38L178.348 225.223C178.348 228.597 180.091 231.723 182.942 233.498L183.222 233.666L217.727 253.59Z" stroke="#2C2C2C" stroke-width="0.5"/>
<path d="M39.9453 253.444C42.8678 255.131 46.4476 255.184 49.4111 253.602L49.6963 253.444L84.2012 233.52C87.2173 231.778 89.075 228.56 89.0752 225.077L89.0752 185.234C89.0751 181.86 87.3315 178.734 84.4805 176.958L84.2012 176.791L49.6963 156.867C46.7738 155.179 43.1941 155.127 40.2305 156.708L39.9453 156.867L5.44042 176.791C2.42429 178.532 0.566511 181.751 0.5664 185.234L0.566403 225.077C0.566566 228.451 2.31011 231.577 5.16113 233.352L5.44043 233.52L39.9453 253.444Z" stroke="#2C2C2C" stroke-width="0.5"/>
<path d="M128.719 253.446C131.641 255.133 135.221 255.186 138.185 253.604L138.47 253.446L172.975 233.522C175.991 231.78 177.848 228.561 177.849 225.079L177.849 185.236C177.849 181.862 176.105 178.736 173.254 176.96L172.975 176.792L138.47 156.869C135.547 155.181 131.967 155.129 129.004 156.71L128.719 156.869L94.2139 176.792C91.1977 178.534 89.3399 181.753 89.3398 185.236L89.3398 225.079C89.34 228.453 91.0836 231.578 93.9346 233.354L94.2139 233.522L128.719 253.446Z" stroke="#2C2C2C" stroke-width="0.5"/>
<path d="M84.3281 330.331C87.2506 332.018 90.8304 332.071 93.7939 330.489L94.0791 330.331L128.584 310.407C131.6 308.666 133.458 305.447 133.458 301.964L133.458 262.121C133.458 258.747 131.714 255.621 128.863 253.846L128.584 253.678L94.0791 233.754C91.1566 232.066 87.5769 232.014 84.6133 233.596L84.3281 233.754L49.8232 253.678C46.8071 255.419 44.9493 258.638 44.9492 262.121L44.9492 301.964C44.9494 305.338 46.6929 308.464 49.5439 310.239L49.8232 310.407L84.3281 330.331Z" stroke="#2C2C2C" stroke-width="0.5"/>
</svg>
