<svg width="257" height="490" viewBox="0 0 257 490" fill="none" xmlns="http://www.w3.org/2000/svg">
<path d="M99.8184 40.3994C101.56 43.4162 101.56 47.1336 99.8184 50.1504L79.8945 84.6553C78.1528 87.6714 74.9341 89.5291 71.4512 89.5293L31.6084 89.5293C28.1255 89.5292 24.9068 87.6714 23.165 84.6553L3.24121 50.1504C1.49925 47.1335 1.49924 43.4163 3.24121 40.3994L23.165 5.89453C24.9068 2.8784 28.1255 1.02062 31.6084 1.02051L71.4512 1.02051L71.7764 1.02637C75.1334 1.13819 78.2072 2.97251 79.8945 5.89453L99.8184 40.3994Z" stroke="#D2D2D2" stroke-width="0.5"/>
<path d="M99.8262 129.174C101.568 132.191 101.568 135.908 99.8262 138.925L79.9023 173.43C78.1607 176.446 74.9419 178.304 71.459 178.304L31.6162 178.304C28.1333 178.304 24.9146 176.446 23.1729 173.43L3.24902 138.925C1.50706 135.908 1.50706 132.191 3.24902 129.174L23.1729 94.6692C24.9146 91.6531 28.1333 89.7953 31.6162 89.7952L71.459 89.7952L71.7842 89.801C75.1412 89.9128 78.215 91.7472 79.9023 94.6692L99.8262 129.174Z" stroke="#D2D2D2" stroke-width="0.5"/>
<path d="M176.709 84.7815C178.451 87.7983 178.451 91.5157 176.709 94.5325L156.785 129.037C155.043 132.053 151.825 133.911 148.342 133.911L108.499 133.911C105.016 133.911 101.797 132.053 100.056 129.037L80.1318 94.5325C78.3899 91.5156 78.3899 87.7983 80.1318 84.7815L100.056 50.2766C101.797 47.2605 105.016 45.4027 108.499 45.4026L148.342 45.4026L148.667 45.4084C152.024 45.5203 155.098 47.3546 156.785 50.2766L176.709 84.7815Z" stroke="#D2D2D2" stroke-width="0.5"/>
<path d="M176.74 351.339C178.482 354.356 178.482 358.073 176.74 361.09L156.816 395.595C155.075 398.611 151.856 400.469 148.373 400.469L108.53 400.469C105.047 400.469 101.829 398.611 100.087 395.595L80.1631 361.09C78.4211 358.073 78.4211 354.356 80.1631 351.339L100.087 316.834C101.829 313.818 105.047 311.96 108.53 311.96L148.373 311.96L148.698 311.966C152.055 312.078 155.129 313.912 156.816 316.834L176.74 351.339Z" stroke="#D2D2D2" stroke-width="0.5"/>
<path d="M176.748 440.114C178.49 443.131 178.49 446.848 176.748 449.865L156.824 484.37C155.083 487.386 151.864 489.244 148.381 489.244L108.538 489.244C105.055 489.244 101.836 487.386 100.095 484.37L80.1709 449.865C78.4289 446.848 78.4289 443.131 80.1709 440.114L100.095 405.609C101.836 402.593 105.055 400.735 108.538 400.735L148.381 400.735L148.706 400.741C152.063 400.853 155.137 402.687 156.824 405.609L176.748 440.114Z" stroke="#D2D2D2" stroke-width="0.5"/>
<path d="M253.631 395.721C255.373 398.738 255.373 402.455 253.631 405.472L233.707 439.977C231.965 442.993 228.747 444.851 225.264 444.851L185.421 444.851C181.938 444.851 178.719 442.993 176.978 439.977L157.054 405.472C155.312 402.455 155.312 398.738 157.054 395.721L176.978 361.216C178.719 358.2 181.938 356.342 185.421 356.342L225.264 356.342L225.589 356.348C228.946 356.46 232.02 358.294 233.707 361.216L253.631 395.721Z" stroke="#D2D2D2" stroke-width="0.5"/>
<path d="M176.74 173.555C178.482 176.572 178.482 180.289 176.74 183.306L156.816 217.811C155.075 220.827 151.856 222.685 148.373 222.685L108.53 222.685C105.047 222.685 101.829 220.827 100.087 217.811L80.1631 183.306C78.4211 180.289 78.4211 176.572 80.1631 173.555L100.087 139.05C101.829 136.034 105.047 134.176 108.53 134.176L148.373 134.176L148.698 134.182C152.055 134.294 155.129 136.128 156.816 139.05L176.74 173.555Z" stroke="#D2D2D2" stroke-width="0.5"/>
<path d="M176.748 262.33C178.49 265.346 178.49 269.064 176.748 272.081L156.824 306.585C155.083 309.602 151.864 311.459 148.381 311.459L108.538 311.459C105.055 311.459 101.836 309.602 100.095 306.585L80.1709 272.081C78.4289 269.064 78.4289 265.346 80.1709 262.33L100.095 227.825C101.836 224.809 105.055 222.951 108.538 222.951L148.381 222.951L148.706 222.957C152.063 223.068 155.137 224.903 156.824 227.825L176.748 262.33Z" stroke="#D2D2D2" stroke-width="0.5"/>
<path d="M253.631 217.937C255.373 220.954 255.373 224.671 253.631 227.688L233.707 262.193C231.965 265.209 228.747 267.067 225.264 267.067L185.421 267.067C181.938 267.067 178.719 265.209 176.978 262.193L157.054 227.688C155.312 224.671 155.312 220.954 157.054 217.937L176.978 183.432C178.719 180.416 181.938 178.558 185.421 178.558L225.264 178.558L225.589 178.564C228.946 178.676 232.02 180.51 233.707 183.432L253.631 217.937Z" stroke="#D2D2D2" stroke-width="0.5"/>
</svg>
