<svg width="179" height="180" viewBox="0 0 179 180" fill="none" xmlns="http://www.w3.org/2000/svg">
<path d="M138.809 99.7249C135.792 101.467 132.074 101.467 129.058 99.7248L94.5527 79.801C91.5366 78.0593 89.6789 74.8405 89.6787 71.3577L89.6787 31.5149C89.6788 28.032 91.5366 24.8133 94.5527 23.0715L129.058 3.1477C132.074 1.40574 135.792 1.40573 138.809 3.1477L173.313 23.0715C176.33 24.8133 178.187 28.032 178.188 31.5149L178.188 71.3577L178.182 71.6829C178.07 75.0399 176.235 78.1137 173.313 79.801L138.809 99.7249Z" stroke="#D2D2D2" stroke-width="0.5"/>
<path d="M50.0352 99.7266C47.0183 101.468 43.301 101.468 40.2842 99.7266L5.7793 79.8027C2.76317 78.061 0.905445 74.8422 0.905276 71.3594L0.90528 31.5166C0.905389 28.0337 2.76316 24.815 5.7793 23.0732L40.2842 3.14941C43.301 1.40745 47.0183 1.40744 50.0352 3.14941L84.54 23.0732C87.5562 24.815 89.414 28.0337 89.4141 31.5166L89.4141 71.3594L89.4082 71.6846C89.2964 75.0416 87.4621 78.1154 84.54 79.8027L50.0352 99.7266Z" stroke="#D2D2D2" stroke-width="0.5"/>
<path d="M94.4258 176.612C91.409 178.354 87.6916 178.354 84.6748 176.612L50.1699 156.688C47.1538 154.947 45.2961 151.728 45.2959 148.245L45.2959 108.402C45.296 104.919 47.1538 101.701 50.1699 99.959L84.6748 80.0352C87.6917 78.2932 91.4089 78.2932 94.4258 80.0352L128.931 99.959C131.947 101.701 133.805 104.919 133.805 108.402L133.805 148.245L133.799 148.57C133.687 151.927 131.853 155.001 128.931 156.688L94.4258 176.612Z" stroke="#D2D2D2" stroke-width="0.5"/>
</svg>
