<svg width="312" height="258" viewBox="0 0 312 258" fill="none" xmlns="http://www.w3.org/2000/svg">
<path d="M272.039 100.211C269.022 101.953 265.305 101.953 262.288 100.211L227.783 80.2876C224.767 78.5459 222.909 75.3271 222.909 71.8442L222.909 32.0015C222.909 28.5185 224.767 25.2998 227.783 23.5581L262.288 3.63427C265.305 1.89231 269.022 1.89231 272.039 3.63427L306.544 23.5581C309.56 25.2998 311.418 28.5186 311.418 32.0015L311.418 71.8442L311.412 72.1694C311.3 75.5265 309.466 78.6002 306.544 80.2876L272.039 100.211Z" stroke="#D2D2D2" stroke-width="0.5"/>
<path d="M183.266 100.213C180.249 101.955 176.531 101.955 173.515 100.213L139.01 80.2893C135.994 78.5476 134.136 75.3288 134.136 71.8459L134.136 32.0032C134.136 28.5202 135.994 25.3015 139.01 23.5598L173.515 3.63598C176.532 1.89402 180.249 1.89402 183.266 3.63598L217.771 23.5598C220.787 25.3015 222.644 28.5203 222.645 32.0032L222.645 71.8459L222.639 72.1711C222.527 75.5282 220.693 78.602 217.771 80.2893L183.266 100.213Z" stroke="#D2D2D2" stroke-width="0.5"/>
<path d="M227.656 177.099C224.639 178.841 220.922 178.841 217.905 177.099L183.4 157.175C180.384 155.433 178.527 152.215 178.526 148.732L178.526 108.889C178.526 105.406 180.384 102.187 183.4 100.446L217.905 80.5217C220.922 78.7798 224.639 78.7798 227.656 80.5217L262.161 100.446C265.177 102.187 267.035 105.406 267.035 108.889L267.035 148.732L267.029 149.057C266.917 152.414 265.083 155.488 262.161 157.175L227.656 177.099Z" stroke="#D2D2D2" stroke-width="0.5"/>
<path d="M138.883 177.128C135.866 178.87 132.149 178.87 129.132 177.128L94.627 157.205C91.6108 155.463 89.7531 152.244 89.7529 148.761L89.7529 108.918C89.753 105.436 91.6108 102.217 94.627 100.475L129.132 80.5513C132.149 78.8093 135.866 78.8093 138.883 80.5513L173.388 100.475C176.404 102.217 178.262 105.436 178.262 108.918L178.262 148.761L178.256 149.086C178.144 152.443 176.31 155.517 173.388 157.205L138.883 177.128Z" stroke="#D2D2D2" stroke-width="0.5"/>
<path d="M50.1094 177.13C47.0926 178.872 43.3752 178.872 40.3584 177.13L5.85352 157.206C2.83739 155.465 0.979663 152.246 0.979495 148.763L0.979498 108.92C0.979608 105.437 2.83738 102.219 5.85352 100.477L40.3584 80.553C43.3753 78.811 47.0925 78.811 50.1094 80.553L84.6143 100.477C87.6304 102.219 89.4882 105.437 89.4883 108.92L89.4883 148.763L89.4824 149.088C89.3706 152.445 87.5363 155.519 84.6143 157.206L50.1094 177.13Z" stroke="#D2D2D2" stroke-width="0.5"/>
<path d="M94.5 254.016C91.4832 255.758 87.7658 255.758 84.749 254.016L50.2441 234.092C47.228 232.35 45.3703 229.131 45.3701 225.648L45.3701 185.806C45.3702 182.323 47.228 179.104 50.2441 177.362L84.749 157.438C87.7659 155.697 91.4832 155.697 94.5 157.438L129.005 177.362C132.021 179.104 133.879 182.323 133.879 185.806L133.879 225.648L133.873 225.974C133.761 229.331 131.927 232.404 129.005 234.092L94.5 254.016Z" stroke="#D2D2D2" stroke-width="0.5"/>
</svg>
