<svg width="179" height="334" viewBox="0 0 179 334" fill="none" xmlns="http://www.w3.org/2000/svg">
<path d="M40.3359 100.211C43.2584 101.899 46.8382 101.952 49.8018 100.37L50.0869 100.211L84.5918 80.2876C87.6079 78.5459 89.4656 75.3271 89.4658 71.8442L89.4658 32.0015C89.4657 28.6274 87.7221 25.5016 84.8711 23.7261L84.5918 23.5581L50.0869 3.63427C47.1644 1.94679 43.5847 1.89414 40.6211 3.47607L40.3359 3.63427L5.83105 23.5581C2.81492 25.2998 0.957136 28.5186 0.957025 32.0015L0.957028 71.8442C0.957191 75.2182 2.70074 78.3441 5.55176 80.1196L5.83105 80.2876L40.3359 100.211Z" stroke="#2C2C2C" stroke-width="0.5"/>
<path d="M129.109 100.213C132.032 101.901 135.612 101.953 138.575 100.372L138.86 100.213L173.365 80.2895C176.381 78.5479 178.239 75.3291 178.239 71.8462L178.239 32.0034C178.239 28.6294 176.496 25.5036 173.645 23.728L173.365 23.5601L138.86 3.63623C135.938 1.94875 132.358 1.89609 129.395 3.47802L129.109 3.63623L94.6045 23.5601C91.5884 25.3018 89.7306 28.5205 89.7305 32.0034L89.7305 71.8462C89.7306 75.2202 91.4742 78.346 94.3252 80.1216L94.6045 80.2896L129.109 100.213Z" stroke="#2C2C2C" stroke-width="0.5"/>
<path d="M84.7187 177.099C87.6412 178.786 91.221 178.839 94.1846 177.257L94.4697 177.099L128.975 157.175C131.991 155.433 133.848 152.214 133.849 148.731L133.849 108.889C133.849 105.515 132.105 102.389 129.254 100.613L128.975 100.445L94.4697 80.5215C91.5472 78.834 87.9675 78.7813 85.0039 80.3633L84.7187 80.5215L50.2139 100.445C47.1977 102.187 45.3399 105.406 45.3398 108.889L45.3398 148.731C45.34 152.105 47.0836 155.231 49.9346 157.007L50.2139 157.175L84.7187 177.099Z" stroke="#2C2C2C" stroke-width="0.5"/>
<path d="M40.0898 253.87C43.0123 255.557 46.5921 255.61 49.5557 254.028L49.8408 253.87L84.3457 233.946C87.3618 232.204 89.2196 228.985 89.2197 225.502L89.2197 185.66C89.2196 182.286 87.476 179.16 84.625 177.384L84.3457 177.216L49.8408 157.292C46.9183 155.605 43.3386 155.552 40.375 157.134L40.0898 157.292L5.58495 177.216C2.56882 178.958 0.711042 182.177 0.710931 185.66L0.710935 225.502C0.711097 228.876 2.45464 232.002 5.30566 233.778L5.58496 233.946L40.0898 253.87Z" stroke="#2C2C2C" stroke-width="0.5"/>
<path d="M128.863 253.872C131.786 255.559 135.366 255.612 138.329 254.03L138.614 253.872L173.119 233.948C176.135 232.206 177.993 228.987 177.993 225.504L177.993 185.662C177.993 182.288 176.249 179.162 173.398 177.386L173.119 177.218L138.614 157.294C135.692 155.607 132.112 155.554 129.148 157.136L128.863 157.294L94.3584 177.218C91.3423 178.96 89.4845 182.179 89.4844 185.662L89.4844 225.504C89.4845 228.878 91.2281 232.004 94.0791 233.78L94.3584 233.948L128.863 253.872Z" stroke="#2C2C2C" stroke-width="0.5"/>
<path d="M84.4727 330.757C87.3951 332.444 90.9749 332.497 93.9385 330.915L94.2236 330.757L128.729 310.833C131.745 309.091 133.602 305.873 133.603 302.39L133.603 262.547C133.602 259.173 131.859 256.047 129.008 254.271L128.729 254.104L94.2236 234.18C91.3011 232.492 87.7214 232.44 84.7578 234.021L84.4726 234.18L49.9678 254.104C46.9516 255.845 45.0939 259.064 45.0937 262.547L45.0937 302.39C45.0939 305.764 46.8375 308.89 49.6885 310.665L49.9678 310.833L84.4727 330.757Z" stroke="#2C2C2C" stroke-width="0.5"/>
</svg>
