<?xml version="1.0" encoding="UTF-8"?>
<svg id="Layer_1" xmlns="http://www.w3.org/2000/svg" version="1.1" viewBox="0 0 88.4 36.3">
  <!-- Generator: Adobe Illustrator 29.0.0, SVG Export Plug-In . SVG Version: 2.1.0 Build 186)  -->
  <defs>
    <style>
      .st0 {
        fill: #fff;
      }

      .st1 {
        fill: #ff3d2e;
      }
    </style>
  </defs>
  <path class="st0" d="M23.1.4h4v25h-4V.4ZM41.1,17.4c0,3.8-3.2,4.1-4.2,4.1-2.4,0-2.8-2.2-2.8-3.6v-9.6h-4v9.5c0,2.4.7,4.3,2,5.6,1.2,1.2,2.9,1.8,4.7,1.8s3.2-.4,4.2-1.3v1.4h4V8.4h-4v9ZM53.1,2.4h-4v6h-3v4h3v13h4v-13h3v-4h-3V2.4ZM68.7,20.3c-.9.8-2,1.2-3.3,1.2-2.8,0-4.8-2-4.8-4.8s2-4.8,4.8-4.8,2.4.4,3.3,1.2l.6.5,2.7-2.7-.7-.6c-1.6-1.4-3.7-2.2-5.9-2.2-5,0-8.6,3.6-8.6,8.6s3.7,8.7,8.6,8.7,4.4-.8,6-2.3l.7-.6-2.7-2.7-.6.5ZM86.3,9.8c-1.2-1.2-2.5-1.8-4.4-1.8s-2.8.4-3.8,1.3V.4h-4v25h4v-9.4c0-3.8,2.7-4.1,3.7-4.1,2.4,0,2.3,2.2,2.3,3.6v9.9h4v-9.9c0-2.4-.5-4.3-1.8-5.6"/>
  <path class="st1" d="M65.3,13.8c1.6,0,2.9,1.3,2.9,2.9s-1.3,2.9-2.9,2.9-2.9-1.3-2.9-2.9,1.3-2.9,2.9-2.9"/>
  <path class="st0" d="M17.5,19.1c-1.5,1.6-3.6,2.4-5.8,2.4-4.5,0-7.7-3.5-7.7-8.3s3.2-8.3,7.7-8.3,4.2.8,5.7,2.4l.6.6,2.7-2.7-.6-.6c-2.2-2.3-5.2-3.5-8.4-3.5C5.2,1.1.2,6.3.2,13.2s5,12.1,11.5,12.1,6.2-1.3,8.5-3.5l.6-.6-2.7-2.7s-.6.6-.6.6Z"/>
  <g>
    <path class="st0" d="M5.1,30.4h-2v5.6h-.8v-5.6H.2v-.7h4.9v.7Z"/>
    <path class="st0" d="M10.7,33.1c0,.6-.1,1.2-.3,1.6-.2.5-.5.8-.9,1.1s-.8.4-1.3.4-.9-.1-1.3-.4c-.4-.2-.7-.6-.9-1s-.3-1-.3-1.6v-.5c0-.6.1-1.1.3-1.6.2-.5.5-.8.9-1.1.4-.2.8-.4,1.3-.4s.9.1,1.3.4c.4.2.7.6.9,1.1.2.5.3,1,.3,1.6v.4ZM9.9,32.7c0-.7-.1-1.3-.4-1.7-.3-.4-.7-.6-1.3-.6s-.9.2-1.2.6c-.3.4-.5,1-.5,1.7v.5c0,.7.2,1.3.5,1.7.3.4.7.6,1.3.6s1-.2,1.2-.6.4-1,.5-1.7v-.5Z"/>
    <path class="st0" d="M12.8,33.6v2.5h-.8v-6.3h2.3c.7,0,1.2.2,1.6.5.4.4.6.8.6,1.4s-.2,1.1-.6,1.4c-.4.3-.9.5-1.6.5h-1.5ZM12.8,32.9h1.5c.4,0,.8-.1,1-.3.2-.2.4-.5.4-.9s-.1-.7-.4-.9c-.2-.2-.6-.3-1-.4h-1.5v2.5Z"/>
    <path class="st0" d="M24.4,35.2c-.2.3-.5.5-.9.7s-.8.2-1.3.2-1-.1-1.4-.4c-.4-.2-.7-.6-.9-1-.2-.4-.3-1-.3-1.5v-.5c0-.9.2-1.7.7-2.2.4-.5,1.1-.8,1.9-.8s1.2.2,1.6.5c.4.3.6.8.7,1.4h-.8c-.2-.8-.7-1.3-1.5-1.3s-1,.2-1.3.6c-.3.4-.4,1-.4,1.7v.5c0,.7.2,1.3.5,1.7.3.4.8.6,1.3.6s.6,0,.8-.1c.2,0,.4-.2.6-.3v-1.4h-1.5v-.7h2.3v2.3Z"/>
    <path class="st0" d="M26.6,35.4h3v.7h-3.8v-6.3h.8v5.6Z"/>
    <path class="st0" d="M35.1,33.1c0,.6-.1,1.2-.3,1.6-.2.5-.5.8-.9,1.1s-.8.4-1.3.4-.9-.1-1.3-.4c-.4-.2-.7-.6-.9-1s-.3-1-.3-1.6v-.5c0-.6.1-1.1.3-1.6.2-.5.5-.8.9-1.1.4-.2.8-.4,1.3-.4s.9.1,1.3.4c.4.2.7.6.9,1.1.2.5.3,1,.3,1.6v.4ZM34.3,32.7c0-.7-.1-1.3-.4-1.7-.3-.4-.7-.6-1.3-.6s-.9.2-1.2.6c-.3.4-.5,1-.5,1.7v.5c0,.7.2,1.3.5,1.7.3.4.7.6,1.3.6s1-.2,1.2-.6.4-1,.5-1.7v-.5Z"/>
    <path class="st0" d="M36.4,36.1v-6.3h2.1c.7,0,1.2.1,1.5.4.3.3.5.7.5,1.3s0,.6-.3.8c-.2.2-.4.4-.7.5.3,0,.6.3.8.5s.3.6.3,1c0,.6-.2,1-.5,1.3-.4.3-.9.5-1.6.5h-2.2ZM37.2,32.5h1.3c.4,0,.7,0,.9-.3.2-.2.3-.4.3-.7s-.1-.6-.3-.8c-.2-.2-.5-.2-.9-.2h-1.2v2ZM37.2,33.1v2.3h1.4c.4,0,.7,0,.9-.3.2-.2.3-.5.3-.8,0-.8-.4-1.1-1.2-1.1h-1.4Z"/>
    <path class="st0" d="M45.4,34.4h-2.6l-.6,1.6h-.9l2.4-6.3h.7l2.4,6.3h-.9l-.6-1.6ZM43,33.7h2.1l-1.1-2.9-1.1,2.9Z"/>
    <path class="st0" d="M48.5,35.4h3v.7h-3.8v-6.3h.8v5.6Z"/>
    <path class="st0" d="M58.1,34.4h-2.6l-.6,1.6h-.9l2.4-6.3h.7l2.4,6.3h-.9l-.6-1.6ZM55.7,33.7h2.1l-1.1-2.9-1.1,2.9Z"/>
    <path class="st0" d="M65,35.2c-.2.3-.5.5-.9.7s-.8.2-1.3.2-1-.1-1.4-.4c-.4-.2-.7-.6-.9-1-.2-.4-.3-1-.3-1.5v-.5c0-.9.2-1.7.7-2.2s1.1-.8,1.9-.8,1.2.2,1.6.5c.4.3.6.8.7,1.4h-.8c-.2-.8-.7-1.3-1.5-1.3s-1,.2-1.3.6c-.3.4-.4,1-.4,1.7v.5c0,.7.2,1.3.5,1.7s.8.6,1.3.6.6,0,.8-.1c.2,0,.4-.2.6-.3v-1.4h-1.5v-.7h2.3v2.3Z"/>
    <path class="st0" d="M70,33.2h-2.7v2.2h3.2v.7h-4v-6.3h4v.7h-3.1v2h2.7v.7Z"/>
    <path class="st0" d="M76.3,36.1h-.8l-3.2-4.9v4.9h-.8v-6.3h.8l3.2,4.9v-4.9h.8v6.3Z"/>
    <path class="st0" d="M82.4,34.1c0,.7-.3,1.2-.7,1.5-.4.4-1,.5-1.6.5s-1.3-.3-1.8-.8-.7-1.2-.7-2.1v-.6c0-.6.1-1.1.3-1.5.2-.4.5-.8.9-1,.4-.2.8-.4,1.3-.4s1.2.2,1.6.6.6.9.7,1.5h-.8c0-.5-.2-.9-.5-1.1-.2-.2-.6-.3-1-.3s-.9.2-1.2.6c-.3.4-.5,1-.5,1.7v.6c0,.7.1,1.2.4,1.6.3.4.7.6,1.2.6s.8-.1,1.1-.3c.2-.2.4-.6.5-1.1h.8Z"/>
    <path class="st0" d="M85.4,32.9l1.6-3.2h.9l-2.2,3.9v2.3h-.8v-2.3l-2.2-3.9h1l1.6,3.2Z"/>
  </g>
</svg>