<svg width="652" height="172" viewBox="0 0 652 172" fill="none" xmlns="http://www.w3.org/2000/svg">
<path d="M0 110.779V25.8782H20.236V109.326C20.236 111.521 20.8539 113.19 22.0897 114.272C23.3255 115.385 24.8084 115.911 26.5385 115.911C27.7743 115.911 28.8247 115.726 29.6898 115.324L33.428 130.535C30.0914 132.267 26.2914 133.132 22.0897 133.132C18.4441 133.132 14.953 132.39 11.6164 130.906C8.27977 129.422 5.49925 127.041 3.30573 123.795C1.11221 120.549 0 116.189 0 110.717V110.779Z" fill="white"/>
<path d="M73.9 133.163C67.0105 133.163 60.8625 131.432 55.4559 127.907C50.0494 124.413 45.8168 119.59 42.7582 113.407C39.6997 107.223 38.1549 100.205 38.1549 92.3517C38.1549 84.4985 39.6997 77.3565 42.7582 71.2347C45.8168 65.113 50.0494 60.2898 55.4559 56.7961C60.8625 53.3024 67.0105 51.5401 73.9 51.5401C80.2026 51.5401 85.7327 53.1787 90.4905 56.4251C95.2174 59.6715 98.554 64.1855 100.469 69.9362V52.5604H120.86V132.143H111.375C108.039 132.143 105.382 131.154 103.404 129.206C101.427 127.258 100.469 124.692 100.469 121.507V114.767C98.4613 120.518 95.0938 125.001 90.4287 128.278C85.7327 131.525 80.2335 133.163 73.931 133.163H73.9ZM79.6465 115.509C83.3847 115.509 86.7831 114.613 89.9035 112.85C93.0239 111.088 95.5572 108.46 97.5036 104.935C99.4499 101.441 100.439 97.2367 100.439 92.3826C100.439 87.5285 99.4499 83.2309 97.5036 79.8299C95.5263 76.4289 92.993 73.8318 89.8108 72.0077C86.6596 70.1835 83.2611 69.2869 79.6156 69.2869C75.97 69.2869 72.5716 70.1835 69.4203 72.0077C66.2691 73.8318 63.7048 76.4289 61.7276 79.8299C59.7812 83.2309 58.7926 87.4357 58.7926 92.3826C58.7926 97.3294 59.7812 101.472 61.7276 104.935C63.6739 108.429 66.2691 111.057 69.4821 112.85C72.6952 114.613 76.0627 115.509 79.6156 115.509H79.6465Z" fill="white"/>
<path d="M138.223 110.779V25.8782H158.459V109.326C158.459 111.521 159.077 113.19 160.312 114.272C161.548 115.385 163.031 115.911 164.761 115.911C165.997 115.911 167.047 115.726 167.913 115.324L171.651 130.535C168.314 132.267 164.514 133.132 160.312 133.132C156.667 133.132 153.176 132.39 149.839 130.906C146.503 129.422 143.722 127.041 141.528 123.795C139.335 120.549 138.223 116.189 138.223 110.717V110.779Z" fill="white"/>
<path d="M212.123 133.163C205.233 133.163 199.085 131.432 193.679 127.907C188.272 124.413 184.04 119.59 180.981 113.407C177.922 107.223 176.378 100.205 176.378 92.3517C176.378 84.4985 177.922 77.3565 180.981 71.2347C184.04 65.113 188.272 60.2898 193.679 56.7961C199.085 53.3024 205.233 51.5401 212.123 51.5401C218.425 51.5401 223.955 53.1787 228.713 56.4251C233.44 59.6715 236.777 64.1855 238.692 69.9362V52.5604H259.083V132.143H249.598C246.261 132.143 243.604 131.154 241.627 129.206C239.65 127.258 238.692 124.692 238.692 121.507V114.767C236.684 120.518 233.317 125.001 228.651 128.278C223.955 131.525 218.456 133.163 212.154 133.163H212.123ZM217.869 115.509C221.607 115.509 225.006 114.613 228.126 112.85C231.247 111.088 233.78 108.46 235.726 104.935C237.673 101.441 238.661 97.2367 238.661 92.3826C238.661 87.5285 237.673 83.2309 235.726 79.8299C233.749 76.4289 231.216 73.8318 228.034 72.0077C224.882 70.1835 221.484 69.2869 217.838 69.2869C214.193 69.2869 210.794 70.1835 207.643 72.0077C204.492 73.8318 201.928 76.4289 199.95 79.8299C198.004 83.2309 197.015 87.4357 197.015 92.3826C197.015 97.3294 198.004 101.472 199.95 104.935C201.897 108.429 204.492 111.057 207.705 112.85C210.918 114.613 214.285 115.509 217.838 115.509H217.869Z" fill="white"/>
<path d="M307 133.163C300.111 133.163 293.963 131.432 288.556 127.907C283.15 124.413 278.917 119.59 275.859 113.407C272.8 107.223 271.255 100.205 271.255 92.3516C271.255 84.4985 272.8 77.3565 275.859 71.2347C278.917 65.113 283.15 60.2898 288.556 56.7961C293.963 53.3024 300.111 51.5401 307 51.5401C313.303 51.5401 318.833 53.1787 323.591 56.4251C328.318 59.6715 331.654 64.1855 333.57 69.9362V25.8473H353.96V132.143H344.476C341.139 132.143 338.482 131.154 336.505 129.206C334.527 127.258 333.57 124.692 333.57 121.507V114.767C331.654 120.518 328.318 125.001 323.591 128.278C318.864 131.525 313.334 133.163 307 133.163ZM312.747 115.509C316.485 115.509 319.883 114.612 323.004 112.85C326.124 111.088 328.657 108.46 330.604 104.935C332.55 101.441 333.539 97.2367 333.539 92.3826C333.539 87.5285 332.55 83.2309 330.604 79.8299C328.627 76.4289 326.093 73.8318 322.911 72.0077C319.76 70.1835 316.361 69.2869 312.716 69.2869C309.07 69.2869 305.672 70.1835 302.521 72.0077C299.369 73.8318 296.805 76.4289 294.828 79.8299C292.881 83.2309 291.893 87.4357 291.893 92.3826C291.893 97.3294 292.881 101.472 294.828 104.935C296.774 108.429 299.369 111.057 302.582 112.85C305.795 114.612 309.163 115.509 312.716 115.509H312.747Z" fill="white"/>
<path d="M401.878 133.163C394.988 133.163 388.84 131.432 383.434 127.907C378.027 124.413 373.795 119.59 370.736 113.407C367.677 107.223 366.133 100.205 366.133 92.3517C366.133 84.4985 367.677 77.3565 370.736 71.2347C373.795 65.113 378.027 60.2898 383.434 56.7961C388.84 53.3024 394.988 51.5401 401.878 51.5401C408.18 51.5401 413.711 53.1787 418.468 56.4251C423.195 59.6715 426.532 64.1855 428.447 69.9362V52.5604H448.838V132.143H439.353C436.017 132.143 433.36 131.154 431.382 129.206C429.405 127.258 428.447 124.692 428.447 121.507V114.767C426.439 120.518 423.072 125.001 418.407 128.278C413.711 131.525 408.211 133.163 401.909 133.163H401.878ZM407.593 115.509C411.332 115.509 414.73 114.613 417.85 112.85C420.971 111.088 423.504 108.46 425.451 104.935C427.397 101.441 428.386 97.2367 428.386 92.3826C428.386 87.5285 427.397 83.2309 425.451 79.8299C423.473 76.4289 420.94 73.8318 417.758 72.0077C414.606 70.1835 411.208 69.2869 407.562 69.2869C403.917 69.2869 400.518 70.1835 397.367 72.0077C394.216 73.8318 391.652 76.4289 389.674 79.8299C387.728 83.2309 386.74 87.4357 386.74 92.3826C386.74 97.3294 387.728 101.472 389.674 104.935C391.621 108.429 394.216 111.057 397.429 112.85C400.642 114.613 404.01 115.509 407.562 115.509H407.593Z" fill="white"/>
<path d="M486.406 52.5913H466.015V132.174H486.406V52.5913Z" fill="white"/>
<path d="M498.146 21.9517C498.146 18.6744 495.983 15.9227 492.986 14.9952C494.438 12.2435 494.037 8.74975 491.72 6.43091C489.402 4.11208 485.911 3.71014 483.162 5.16328C482.235 2.19517 479.485 0 476.21 0C472.936 0 470.186 2.16425 469.259 5.16328C466.51 3.71014 463.018 4.11208 460.701 6.43091C458.384 8.74975 457.983 12.2435 459.435 14.9952C456.469 15.9227 454.275 18.6744 454.275 21.9517C454.275 25.229 456.438 27.9807 459.435 28.9082C457.983 31.6599 458.384 35.1536 460.701 37.4724C463.018 39.7913 466.51 40.1932 469.259 38.7401C470.186 41.7082 472.936 43.9034 476.21 43.9034C479.485 43.9034 482.235 41.7391 483.162 38.7401C485.911 40.1932 489.402 39.7913 491.72 37.4724C494.037 35.1536 494.438 31.6599 492.986 28.9082C495.952 27.9807 498.146 25.229 498.146 21.9517ZM476.21 29.2792C474.202 29.2792 472.349 28.4753 471.051 27.1459C469.723 25.8164 468.919 23.9923 468.919 21.9826C468.919 19.9729 469.723 18.1179 471.051 16.8193C472.38 15.5208 474.202 14.686 476.21 14.686C478.219 14.686 480.072 15.5208 481.37 16.8193C482.698 18.1488 483.502 19.9729 483.502 21.9826C483.502 23.9923 482.667 25.8473 481.37 27.1459C480.072 28.4444 478.219 29.2792 476.21 29.2792Z" fill="#F1CDEF"/>
<path d="M533.057 133.163C527.31 133.163 522.151 132.205 517.548 130.288C512.944 128.371 509.113 125.774 506.055 122.466C502.996 119.157 500.834 115.447 499.598 111.335L518.536 107.038C519.401 110.191 521.131 112.696 523.696 114.582C526.291 116.437 529.287 117.395 532.748 117.395C536.764 117.395 539.792 116.622 541.862 115.107C543.932 113.561 544.951 111.675 544.951 109.356C544.951 107.038 543.901 105.121 541.8 103.822C539.699 102.524 536.918 101.472 533.489 100.669C530.029 99.8647 526.383 98.9371 522.522 97.9478C518.66 96.9584 515.014 95.598 511.616 93.9284C508.217 92.2589 505.437 89.971 503.274 87.0338C501.112 84.1275 500.061 80.2009 500.061 75.3159C500.061 71.0183 501.328 67.0299 503.861 63.3816C506.395 59.7333 509.978 56.8579 514.613 54.7555C519.247 52.6531 524.931 51.6019 531.635 51.6019C537.197 51.6019 542.109 52.4676 546.434 54.199C550.728 55.9304 554.281 58.3729 557.062 61.5265C559.842 64.6802 561.758 68.483 562.808 72.8734L544.426 77.7584C543.561 74.4193 542.047 71.884 539.915 70.1526C537.753 68.4212 534.756 67.5555 530.956 67.5555C527.156 67.5555 524.437 68.2357 522.552 69.5652C520.699 70.8946 519.741 72.7188 519.741 75.0376C519.741 77.3565 520.822 79.1497 522.985 80.5101C525.148 81.8396 527.897 82.9835 531.296 83.8801C534.694 84.7768 538.309 85.7352 542.14 86.7555C545.971 87.7758 549.554 89.1362 552.891 90.8367C556.228 92.5371 559.008 94.9178 561.202 97.9478C563.395 100.978 564.507 104.812 564.507 109.511C564.507 113.932 563.241 117.921 560.707 121.507C558.174 125.094 554.528 127.938 549.802 130.041C545.075 132.143 539.483 133.194 533.088 133.194L533.057 133.163Z" fill="white"/>
<path d="M630.653 131.463V52.6222H651.043V131.463C651.043 136.935 650.178 142.037 648.448 146.829C646.718 151.621 644.185 155.795 640.848 159.382C637.512 162.968 633.31 165.812 628.305 167.915C623.269 170.017 617.368 171.069 610.571 171.069C604.269 171.069 598.522 170.048 593.332 167.977C588.173 165.905 583.755 162.813 580.14 158.701C576.495 154.589 573.683 149.612 571.675 143.768L589.748 137.584C591.571 142.377 594.135 146.211 597.441 149.148C600.747 152.085 604.918 153.538 609.984 153.538C616.41 153.538 621.446 151.59 625.123 147.726C628.799 143.861 630.653 138.419 630.653 131.432V131.463ZM633.959 95.969C633.773 103.451 632.816 109.511 631.085 114.149C629.355 118.786 627.131 122.373 624.412 124.908C621.693 127.443 618.759 129.206 615.669 130.164C612.549 131.123 609.459 131.586 606.401 131.586C600.283 131.586 594.877 130.257 590.181 127.567C585.485 124.877 581.839 121.012 579.213 115.942C576.587 110.871 575.259 104.688 575.259 97.4222V52.6222H595.34V93.9903C595.34 100.421 596.978 105.399 600.222 108.924C603.466 112.479 607.729 114.241 612.981 114.241C616.627 114.241 619.778 113.314 622.466 111.428C625.154 109.542 627.193 107.038 628.552 103.822C629.942 100.607 630.622 96.8966 630.622 92.6917L633.928 95.9999L633.959 95.969Z" fill="white"/>
</svg>
