<svg width="454" height="59" viewBox="0 0 454 59" fill="none" xmlns="http://www.w3.org/2000/svg">
<path d="M116.392 21.5346C116.229 22.1264 115.875 23.3326 115.875 24.6071V34.7119C115.875 35.9864 116.229 37.1926 116.392 37.7843V37.8526H113.017V37.7843C113.18 37.1926 113.534 35.9864 113.534 34.7119V23.8105L107.028 37.8526H105.912V37.8298L105.504 37.8526L99.0524 23.8788C99.0524 24.1291 99.0252 24.3795 99.0252 24.6298V33.6195C99.0252 35.3491 99.6785 36.9878 99.978 37.7616V37.8754H97.0109V37.7616C97.3103 36.9878 97.9636 35.3491 97.9636 33.6195V24.6298C97.9636 23.3553 97.4464 22.1491 97.2014 21.5574V21.4891H100.414L106.947 35.645L113.534 21.4664H116.392V21.5346Z" fill="white"/>
<path d="M134.464 38.1257C129.646 38.1257 125.563 34.4388 125.563 29.5684C125.563 24.7208 129.646 21.2388 134.464 21.2388C139.283 21.2388 143.393 24.7208 143.393 29.5684C143.393 34.4388 139.283 38.1257 134.464 38.1257ZM134.464 37.3064C138.248 37.3064 140.671 33.6195 140.671 29.5684C140.671 25.5629 138.248 22.0353 134.464 22.0353C130.681 22.0353 128.285 25.5857 128.285 29.5912C128.285 33.6422 130.681 37.3064 134.464 37.3064Z" fill="white"/>
<path d="M158.852 21.4664C163.643 21.4664 167.971 24.7436 167.971 29.5457C167.971 34.5754 163.643 37.8526 158.852 37.8526H152.428V37.7843C152.591 37.1926 152.945 35.9864 152.945 34.7119V24.6071C152.945 23.3326 152.591 22.1264 152.428 21.5346V21.4664H158.852ZM158.335 37.0561C162.581 37.0561 165.304 33.9154 165.276 29.5457C165.222 25.3126 162.581 22.2402 158.335 22.2402H155.341V37.0561H158.335Z" fill="white"/>
<path d="M189.736 35.5085H189.845V37.8526H177.024V37.7843C177.187 37.1926 177.541 35.9864 177.541 34.7119V24.6071C177.541 23.3326 177.187 22.1264 177.024 21.5346V21.4664H189.763V23.8105H189.654C188.783 23.3098 187.014 22.2402 185.163 22.2402H179.936V29.045H183.366C185.108 29.045 186.769 28.5671 187.586 28.3395H187.694V30.4788H187.586C186.769 30.2512 185.108 29.7733 183.366 29.7733H179.936V37.0788H185.245C187.096 37.0788 188.865 36.0092 189.736 35.5085Z" fill="white"/>
<path d="M210.801 32.3222C212.543 35.3264 212.924 36.4416 214.422 37.7616V37.8526H211.509C210.828 37.2154 209.658 35.0533 208.814 33.4374C208.025 31.9126 206.827 30.6836 205.085 30.3195H202.907H201.927V34.7119C201.927 35.9864 202.281 37.1926 202.444 37.7843V37.8526H199.014V37.7843C199.178 37.1926 199.532 35.9864 199.532 34.7119V24.6071C199.532 23.3326 199.178 22.1264 199.014 21.5346V21.4664H206.419C210.202 21.4664 212.679 23.0595 212.679 25.7905C212.679 28.294 210.583 29.7733 207.78 30.0919C209.086 30.4333 210.093 31.116 210.801 32.3222ZM201.927 29.5457H205.52C208.215 29.5457 210.093 28.4078 210.093 25.8588C210.093 23.4236 208.406 22.2174 205.738 22.2174H201.927V29.5457Z" fill="white"/>
<path d="M239.005 21.4664V21.5574C238.706 22.3539 238.053 23.9926 238.053 25.6995V37.8526H236.447L225.014 23.8333V33.6195C225.014 35.3264 225.667 36.965 225.967 37.7616V37.8526H222.972V37.7616C223.272 36.965 223.925 35.3264 223.925 33.6195V25.3126C223.925 23.765 223.326 22.2857 223.027 21.5574V21.4664H225.994L236.964 34.9167V25.6995C236.964 23.9926 236.311 22.3539 236.011 21.5574V21.4664H239.005Z" fill="white"/>
<path d="M277.579 21.5346C277.416 22.1264 277.062 23.3326 277.062 24.6071V34.7119C277.062 35.9864 277.416 37.1926 277.579 37.7843V37.8526H274.177V37.7843C274.34 37.1926 274.694 35.9864 274.694 34.7119V29.9781H264.922V34.7119C264.922 35.9864 265.276 37.1926 265.439 37.7843V37.8526H262.009V37.7843C262.172 37.1926 262.526 35.9864 262.526 34.7119V24.6071C262.526 23.3326 262.172 22.1264 262.009 21.5346V21.4664H265.439V21.5346C265.276 22.1264 264.922 23.3326 264.922 24.6071V29.1133H274.694V24.6071C274.694 23.3326 274.34 22.1264 274.177 21.5346V21.4664H277.579V21.5346Z" fill="white"/>
<path d="M294.785 38.1257C291.246 38.1257 287.653 36.0774 287.653 31.7078V24.6071C287.653 23.3326 287.299 22.1264 287.136 21.5346V21.4664H290.566V21.5346C290.402 22.1264 290.048 23.3326 290.048 24.6071V31.7533C290.048 35.0533 292.063 37.0333 295.166 37.0333C297.806 37.0333 300.556 35.5767 300.556 31.9126V25.6995C300.556 23.9926 299.957 22.3539 299.685 21.5574V21.4664H302.516V21.5574C302.244 22.3539 301.645 23.9926 301.645 25.6995V32.0719C301.645 36.1229 298.378 38.1257 294.785 38.1257Z" fill="white"/>
<path d="M327.978 21.4664V21.5574C327.679 22.3539 327.025 23.9926 327.025 25.6995V37.8526H325.419L313.986 23.8333V33.6195C313.986 35.3264 314.64 36.965 314.939 37.7616V37.8526H311.945V37.7616C312.244 36.965 312.898 35.3264 312.898 33.6195V25.3126C312.898 23.765 312.299 22.2857 311.999 21.5574V21.4664H314.966L325.937 34.9167V25.6995C325.937 23.9926 325.283 22.3539 324.984 21.5574V21.4664H327.978Z" fill="white"/>
<path d="M352.576 21.4664V24.425H352.467C351.678 23.8788 349.963 22.2629 348.194 22.2629H345.934V34.7119C345.934 35.9864 346.288 37.1926 346.451 37.7843V37.8526H343.022V37.7843C343.185 37.1926 343.539 35.9864 343.539 34.7119V22.2629H341.252C339.483 22.2629 337.768 23.8788 336.979 24.425H336.87V21.4664H352.576Z" fill="white"/>
<path d="M368.155 38.1029C365.651 38.1029 363.391 37.3064 361.268 36.396V33.574H361.377C363.174 35.3947 365.215 37.2609 368.209 37.2609C370.714 37.2609 372.538 36.0547 372.538 34.1885C372.538 32.1629 370.387 31.1388 367.229 30.2967C363.146 29.2271 361.214 27.5884 361.214 25.5629C361.214 23.2643 363.582 21.2388 367.692 21.2388C370.278 21.2388 372.538 22.0581 374.116 22.7636V25.3808H374.008C372.238 23.6057 369.897 22.0808 367.447 22.0808C365.079 22.0808 363.337 23.2643 363.337 24.7891C363.337 26.4733 365.569 27.5884 368.999 28.4988C372.81 29.5912 374.688 31.1388 374.688 33.5285C374.688 36.6464 371.667 38.1029 368.155 38.1029Z" fill="white"/>
<path d="M403.035 21.5346C402.872 22.1264 402.518 23.3326 402.518 24.6071V34.7119C402.518 35.9864 402.872 37.1926 403.035 37.7843V37.8526H399.66V37.7843C399.823 37.1926 400.177 35.9864 400.177 34.7119V23.8105L393.671 37.8526H392.555V37.8298L392.147 37.8526L385.695 23.8788C385.695 24.1291 385.668 24.3795 385.668 24.6298V33.6195C385.668 35.3491 386.321 36.9878 386.621 37.7616V37.8754H383.654V37.7616C383.953 36.9878 384.606 35.3491 384.606 33.6195V24.6298C384.606 23.3553 384.089 22.1491 383.844 21.5574V21.4891H387.056L393.589 35.645L400.177 21.4664H403.035V21.5346Z" fill="white"/>
<path d="M427.041 34.6209C427.612 35.9409 428.13 36.9423 428.81 37.7843V37.8526H424.945V37.7616C425.135 37.1243 424.999 35.8726 424.4 34.5754L423.366 32.254H415.553L414.818 33.9609C414.138 35.5085 414.138 36.9878 414.437 37.7616V37.8526H411.688V37.7843C412.232 37.1016 412.94 35.7133 413.566 34.234L418.276 23.4919C418.629 22.6726 418.412 21.9215 418.167 21.5119V21.4664H421.052L427.041 34.6209ZM415.934 31.4119H422.985L419.392 23.4236L415.934 31.4119Z" fill="white"/>
<path d="M453.323 21.4664V21.5574C453.023 22.3539 452.37 23.9926 452.37 25.6995V37.8526H450.764L439.331 23.8333V33.6195C439.331 35.3264 439.985 36.965 440.284 37.7616V37.8526H437.29V37.7616C437.589 36.965 438.242 35.3264 438.242 33.6195V25.3126C438.242 23.765 437.644 22.2857 437.344 21.5574V21.4664H440.311L451.281 34.9167V25.6995C451.281 23.9926 450.628 22.3539 450.329 21.5574V21.4664H453.323Z" fill="white"/>
<path d="M44.0807 16.5159C44.0807 13.5571 44.0562 10.5983 44.0905 7.63942C44.1101 5.51827 43.5663 3.67145 41.8371 2.3047C41.6803 2.18223 41.5481 2.01568 41.4305 1.85402C41.0288 1.28087 41.2541 0.722412 41.94 0.595045C42.0281 0.580348 42.1212 0.57545 42.2094 0.57545C45.7071 0.61464 49.2097 0.65383 52.7074 0.717514C52.9719 0.722413 53.403 0.913461 53.4569 1.10451C53.5255 1.35925 53.3883 1.78054 53.1924 1.97649C52.3939 2.77988 51.517 3.51959 51.228 4.67079C51.0565 5.36641 50.8753 6.08162 50.8753 6.79194C50.8557 21.9437 50.8753 37.1004 50.8361 52.2522C50.8312 54.2851 51.4778 55.8968 53.0454 57.1558C53.1336 57.2244 53.2609 57.288 53.2903 57.3811C53.3883 57.6799 53.5549 58.0131 53.4912 58.2825C53.4471 58.4588 53.0503 58.6499 52.8054 58.6548C49.5526 58.7283 46.3047 58.7724 43.052 58.8116C42.6258 58.8116 42.1849 58.7871 41.7832 58.6597C41.4942 58.5666 41.1023 58.3315 41.0435 58.0914C40.9847 57.8563 41.2101 57.4252 41.4403 57.2587C43.2528 55.9262 43.9534 54.1088 43.9631 51.9141C43.9778 47.3289 44.0464 42.7486 44.0807 38.1634C44.0807 37.894 44.0317 37.6245 43.9827 37.36C43.8211 36.4978 43.1793 36.1353 42.3809 36.5321C41.8175 36.8114 41.3031 37.1886 40.7839 37.5462C39.6474 38.3251 38.506 39.0942 37.394 39.9074C36.2917 40.7107 35.214 40.7695 34.0824 39.9955C32.7402 39.0795 31.3881 38.1781 30.041 37.2718C29.8744 37.1592 29.7127 37.0318 29.5413 36.9191C28.4048 36.1745 27.6063 36.5223 27.6014 37.8597C27.5818 42.8711 27.6847 47.8825 27.6063 52.8939C27.5769 54.7603 28.4195 55.9997 29.7176 57.1215C30.5161 57.8122 30.5553 58.1453 29.9577 58.6303C29.8058 58.7528 29.556 58.8067 29.3453 58.8067C25.8672 58.8165 22.3891 58.8165 18.911 58.8067C18.7102 58.8067 18.4995 58.792 18.3134 58.7234C17.7011 58.4931 17.5786 58.018 17.9852 57.5134C18.0979 57.3713 18.2203 57.2293 18.3624 57.1264C20.0965 55.9164 20.5521 54.1088 20.6354 52.1591C20.7089 50.4886 20.7432 48.8181 20.7432 47.1477C20.753 34.3424 20.753 21.5371 20.7334 8.73184C20.7334 7.74229 20.6501 6.74785 20.4884 5.773C20.2582 4.40136 19.5871 3.24036 18.5338 2.3047C18.1664 1.97649 17.5737 1.65317 17.8235 1.04573C18.0734 0.438285 18.7249 0.560754 19.254 0.555855C22.4381 0.546058 25.6223 0.550957 28.8114 0.550957C28.8555 0.550957 28.8996 0.550957 28.9485 0.550957C29.4433 0.590146 30.0948 0.550957 30.1879 1.11921C30.2467 1.47682 29.8695 1.9422 29.6197 2.3096C29.4188 2.60352 29.1004 2.81417 28.8653 3.0836C28.2333 3.80861 27.7679 4.57281 27.7679 5.61135C27.7581 10.804 27.6994 15.9967 27.6602 21.1893C27.6504 22.8402 27.6945 24.4862 27.6455 26.1321C27.621 26.9208 27.91 27.5283 28.4195 28.0671C28.635 28.2974 28.8653 28.5227 29.12 28.704C30.9423 29.9629 32.7696 31.2023 34.5968 32.4515C35.2826 32.9218 35.988 32.9659 36.6836 32.4956C38.6431 31.168 40.6075 29.8356 42.5523 28.4835C43.6447 27.7193 44.1395 26.6906 44.1101 25.3042C44.0366 22.3699 44.0905 19.4356 44.0905 16.4963L44.0807 16.5159Z" fill="white"/>
<path d="M66.316 14.6593C67.673 14.6593 69.0299 14.6348 70.382 14.6789C70.6955 14.6887 71.1707 14.865 71.2638 15.0904C71.3617 15.3206 71.1021 15.7223 70.9649 16.026C70.9062 16.1583 70.7494 16.2514 70.6269 16.3543C69.2259 17.4908 68.6381 18.9996 68.6185 20.7582C68.5646 25.6129 68.5107 30.4675 68.496 35.3221C68.496 36.5125 68.5842 37.7127 68.7213 38.8982C68.8683 40.1915 69.4218 41.3084 70.4261 42.1853C70.6808 42.4057 70.9258 42.6506 71.1168 42.925C71.254 43.1258 71.4401 43.4785 71.3568 43.6059C71.1952 43.8557 70.8719 44.0076 70.5975 44.1741C70.5143 44.2231 70.3771 44.1839 70.2644 44.1839C66.9039 44.1839 63.5385 44.1839 60.1779 44.1839C59.9134 44.1839 59.6342 44.1595 59.3795 44.0811C58.6985 43.8704 58.5565 43.4002 58.9973 42.8564C59.1639 42.6457 59.3647 42.4547 59.5803 42.2979C60.9323 41.328 61.5643 40.0053 61.579 38.3594C61.6133 34.2934 61.6623 30.2275 61.6965 26.1615C61.6965 25.6667 61.6476 25.1671 61.5888 24.6772C61.4712 23.6485 60.6482 23.2321 59.786 23.8199C59.1933 24.2216 58.6789 24.7458 58.1303 25.2112C57.6355 25.6374 57.1652 26.0978 56.6362 26.4848C55.774 27.1217 55.289 26.9012 55.24 25.8382C55.1861 24.6429 55.2596 23.4427 55.1763 22.2474C55.0735 20.7876 55.5976 19.6952 56.7243 18.7742C57.9833 17.7504 59.1492 16.6041 60.3837 15.546C60.9862 15.0267 61.6721 14.6691 62.5195 14.6887C63.7834 14.7181 65.0473 14.6936 66.316 14.6936C66.316 14.6789 66.316 14.6691 66.316 14.6544V14.6593Z" fill="white"/>
<path d="M9.20666 32.0155C9.20666 34.2248 9.20666 36.439 9.20666 38.6484C9.20666 40.0396 9.73082 41.1859 10.7938 42.0922C11.0878 42.342 11.367 42.6017 11.6315 42.8809C12.1606 43.4442 11.9891 44.0615 11.2445 44.2574C10.9457 44.3358 10.6175 44.3113 10.304 44.3064C7.32554 44.2721 4.34712 44.228 1.36869 44.1888C1.18743 44.1888 0.986586 44.2378 0.829827 44.1692C0.535903 44.0419 0.153803 43.9145 0.026436 43.6696C-0.0715386 43.4834 0.12441 43.1013 0.261575 42.8417C0.359549 42.6506 0.555498 42.4988 0.731852 42.3616C2.24066 41.23 2.76483 39.6575 2.76483 37.8548C2.76973 32.2359 2.78442 26.6122 2.75503 20.9934C2.74523 19.1759 2.32884 17.4908 0.673068 16.3935C0.619182 16.3543 0.550601 16.3151 0.526107 16.2563C0.349753 15.8938 0.178296 15.5264 0.00684005 15.159C0.398738 14.9924 0.785738 14.6838 1.17764 14.6789C3.56822 14.6348 5.96369 14.6593 8.35917 14.6544C9.20175 14.6544 9.99045 14.8308 10.6322 15.3843C12.3222 16.8441 14.0368 18.2844 15.6289 19.8422C16.0894 20.2928 16.3343 21.1158 16.3931 21.787C16.5107 23.1292 16.4617 24.4959 16.4029 25.848C16.3882 26.2252 16.1678 26.7053 15.8836 26.9208C15.7122 27.0482 15.1586 26.8424 14.8892 26.6367C13.8017 25.799 12.7631 24.8927 11.6903 24.0306C11.4111 23.8052 11.1025 23.5995 10.7694 23.477C9.97086 23.1782 9.432 23.4868 9.34872 24.3637C9.22625 25.6863 9.18216 27.0188 9.14297 28.3512C9.10868 29.571 9.13807 30.7908 9.13807 32.0057C9.16257 32.0057 9.18706 32.0057 9.21155 32.0057L9.20666 32.0155Z" fill="white"/>
</svg>
