<svg width="247" height="57" viewBox="0 0 247 57" fill="none" xmlns="http://www.w3.org/2000/svg">
<path d="M29.9688 27.2291H34.712V56.507H29.9688V27.2291ZM51.2063 47.2283C51.2063 51.7649 47.4946 52.1773 46.2573 52.1773C43.3705 52.1773 42.958 49.496 42.958 48.0531V36.7135H38.2159V47.8475C38.2159 50.5276 39.0407 53.001 40.6903 54.445C42.1343 55.8879 43.9896 56.507 46.2573 56.507C47.907 56.507 49.9679 56.0935 51.2063 54.8574V56.507H55.9485V36.7135H51.2063V47.2283ZM65.226 29.4969H60.485V36.7135H56.9778V41.2489H60.4839V56.5081H65.226V41.2489H68.731V36.7146H65.226V29.4969ZM83.5767 50.5276C82.5462 51.3524 81.1022 51.9705 79.6593 51.9705C76.3601 51.9705 74.0923 49.496 74.0923 46.1979C74.0923 42.8986 76.3612 40.6309 79.6582 40.6309C81.1022 40.6309 82.5462 41.0433 83.5767 42.0737L84.1948 42.6929L87.494 39.5993L86.6692 38.9812C84.739 37.2606 82.2451 36.3071 79.6593 36.3011C73.8867 36.3011 69.5558 40.6309 69.5558 46.4046C69.5558 52.1773 73.8867 56.507 79.6593 56.507C82.2451 56.5009 84.7389 55.5474 86.6692 53.8269L87.494 53.2077L84.1948 49.9084L83.5767 50.5276ZM104.195 38.3631C102.752 36.9191 101.308 36.3011 99.0405 36.3011C97.3908 36.3011 95.7412 36.7135 94.5051 37.9507V27.228H89.7629V56.5081H94.5051V45.5776C94.5051 41.0421 97.5976 40.6297 98.8348 40.6297C101.721 40.6297 101.515 43.3099 101.515 44.7539V56.2991H106.257V44.9606C106.257 42.2805 105.638 39.8071 104.195 38.3631Z" fill="white"/>
<path d="M79.4516 49.7018C79.8899 49.7099 80.3255 49.6305 80.7328 49.4683C81.14 49.3062 81.5109 49.0645 81.8237 48.7574C82.1366 48.4503 82.385 48.0839 82.5547 47.6796C82.7243 47.2754 82.8117 46.8414 82.8117 46.4031C82.8117 45.9647 82.7243 45.5307 82.5547 45.1265C82.385 44.7222 82.1366 44.3558 81.8237 44.0487C81.5109 43.7416 81.14 43.4999 80.7328 43.3378C80.3255 43.1756 79.8899 43.0963 79.4516 43.1043C78.5766 43.1043 77.7374 43.4519 77.1187 44.0707C76.5 44.6894 76.1523 45.5286 76.1523 46.4036C76.1523 47.2786 76.5 48.1178 77.1187 48.7366C77.7374 49.3553 78.5766 49.7018 79.4516 49.7018Z" fill="url(#paint0_linear_3455_3341)"/>
<path d="M23.37 49.2904C21.7204 50.94 19.2459 51.9705 16.5658 51.9705C11.4112 51.9705 7.70059 47.8464 7.70059 42.2805C7.70059 36.7135 11.4112 32.5905 16.7725 32.5905C19.2459 32.5905 21.7204 33.6199 23.5768 35.4763L24.1948 36.0943L27.2874 33.0018L26.6693 32.3837C23.9892 29.7025 20.4831 28.2596 16.7725 28.2596C8.93783 28.054 3.16406 34.239 3.16406 42.2805C3.16406 50.3209 8.93671 56.507 16.5658 56.507C20.2764 56.507 23.9892 55.063 26.4625 52.3829L27.0817 51.7649L23.9892 48.6712L23.37 49.2904Z" fill="white"/>
<path d="M106.806 3.12932V14.6936H105.266L99.4444 5.77479V14.6936H97.9121V3.13043H99.4444L105.29 12.0727V3.13043H106.806V3.12932ZM95.3069 8.54655V9.27749C95.3069 10.1459 95.1985 10.9238 94.9816 11.6134C94.7897 12.2549 94.4713 12.8516 94.045 13.3681C93.6371 13.8487 93.1476 14.2175 92.5753 14.4712C91.9741 14.7324 91.3241 14.8624 90.6686 14.8523C90.0215 14.86 89.38 14.7305 88.7865 14.4723C88.2188 14.2174 87.7143 13.8403 87.309 13.3681C86.8768 12.8518 86.5502 12.2556 86.3478 11.6134C86.1209 10.9238 86.0069 10.1459 86.0069 9.27749V8.54655C86.0069 7.67814 86.1187 6.90361 86.3411 6.21961C86.568 5.53114 86.8887 4.94549 87.3023 4.46491C87.7147 3.97761 88.2042 3.60655 88.7709 3.35285C89.3643 3.0943 90.0057 2.96441 90.653 2.97173C91.3571 2.97173 91.993 3.09802 92.5597 3.35173C93.1308 3.60655 93.6215 3.97761 94.0283 4.46491C94.4418 4.94549 94.757 5.53114 94.9738 6.21961C95.1962 6.90249 95.3069 7.67814 95.3069 8.54655ZM93.7902 9.27749V8.53091C93.7902 7.84243 93.7187 7.23444 93.5756 6.70467C93.4382 6.17491 93.2347 5.73008 92.9643 5.3702C92.706 5.01978 92.3651 4.73871 91.9718 4.55208C91.5589 4.36088 91.108 4.26574 90.653 4.27379C90.1769 4.27379 89.7455 4.36655 89.3587 4.55208C88.9776 4.73761 88.649 5.01032 88.3741 5.3702C88.1036 5.73008 87.8946 6.17491 87.746 6.70467C87.5894 7.30052 87.5146 7.91489 87.5236 8.53091V9.27749C87.5236 9.97044 87.5985 10.5851 87.7471 11.1205C87.8946 11.6491 88.107 12.0973 88.3819 12.4617C88.6613 12.8227 88.9933 13.0954 89.3744 13.2798C89.7611 13.4653 90.1925 13.5592 90.6686 13.5592C91.1671 13.5592 91.6086 13.4653 91.9953 13.2798C92.382 13.0954 92.7072 12.8216 92.9721 12.4617C93.2426 12.0973 93.446 11.6491 93.5835 11.1205C93.7291 10.5172 93.7986 9.89805 93.7902 9.27749ZM74.2057 14.6936H71.7916L71.8072 13.4474H74.2068C75.0328 13.4474 75.7201 13.2753 76.2711 12.9311C76.8228 12.5806 77.2551 12.0708 77.5106 11.4692C77.79 10.8388 77.9308 10.1034 77.9308 9.26185V8.55438C77.9308 7.89273 77.8526 7.30485 77.6927 6.79185C77.5545 6.31067 77.3165 5.86399 76.9942 5.48085C76.6886 5.12195 76.3016 4.84143 75.8654 4.66273C75.4273 4.4772 74.921 4.38555 74.3488 4.38555H71.7446V3.12932H74.3488C75.1065 3.12932 75.7972 3.25561 76.422 3.50932C77.0479 3.75967 77.5843 4.12179 78.0347 4.5979C78.4896 5.06955 78.8395 5.64179 79.0831 6.31349C79.3268 6.98073 79.4486 7.73291 79.4486 8.56891V9.26073C79.4486 10.0967 79.3256 10.8511 79.0831 11.524C78.8629 12.1592 78.5064 12.7386 78.0386 13.2214C77.5708 13.7043 77.003 14.079 76.375 14.3192C75.7335 14.5684 75.0115 14.6925 74.2068 14.6925L74.2057 14.6936ZM72.6108 3.13043V14.6936H71.0785V3.13043H72.6108ZM68.87 13.4474V14.6936H62.7464V13.4474H68.87ZM63.056 3.12932V14.6925H61.5237V3.13043H63.056V3.12932ZM68.0597 8.10061V9.34791H62.7464V8.10173L68.0597 8.10061ZM68.7907 3.12932V4.38443H62.7464V3.12932H68.7907ZM49.8164 11.1987L52.112 3.12932H53.2241L52.5803 6.26767L50.1103 14.6947H49.0061L49.8164 11.1987ZM47.4414 3.12932L49.2687 11.0411L49.8164 14.6936H48.7211L45.9169 3.13043H47.4414V3.12932ZM56.1937 11.0322L57.9819 3.13043H59.5131L56.719 14.6936H55.6226L56.1937 11.0322ZM53.3906 3.13043L55.6226 11.1998L56.4317 14.6936H55.3286L52.9458 6.26655L52.2942 3.13043H53.3906ZM44.5679 13.4474V14.6936H38.4443V13.4474H44.5679ZM38.7539 3.12932V14.6925H37.2216V3.13043H38.7539V3.12932ZM43.7576 8.10061V9.34791H38.4443V8.10173L43.7576 8.10061ZM44.4886 3.12932V4.38443H38.4443V3.12932H44.4886ZM34.1246 3.12932V14.6936H32.5901V3.13043H34.1235L34.1246 3.12932ZM25.5489 12.9389L28.9544 3.12932H30.6141L26.3335 14.6925H25.1488L25.5467 12.9378L25.5489 12.9389ZM22.3636 3.12932L25.7389 12.9378L26.1592 14.6925H24.9767L20.7017 3.13043H22.3625L22.3636 3.12932ZM19.6075 13.4474V14.6936H13.4839V13.4474H19.6075ZM13.7935 3.12932V14.6925H12.2612V3.13043H13.7935V3.12932ZM18.7972 8.10061V9.34791H13.4839V8.10173L18.7972 8.10061ZM19.5282 3.12932V4.38443H13.4839V3.12932H19.5282ZM1.92969 3.12932H5.75763C6.62604 3.12932 7.35922 3.26343 7.95716 3.5272C8.56069 3.79208 9.01892 4.18438 9.33186 4.70296C9.64928 5.21708 9.80798 5.84855 9.80798 6.60073C9.80798 7.13049 9.69957 7.61443 9.48275 8.05367C9.27039 8.48955 8.96304 8.85838 8.56069 9.16573C8.16392 9.46749 7.68781 9.69326 7.13122 9.84079L6.70204 10.0084H3.10433L3.08869 8.76114H5.80457C6.35557 8.76114 6.8138 8.66614 7.17928 8.47502C7.54475 8.27944 7.81969 8.01679 8.00522 7.68932C8.19075 7.36073 8.28239 6.99749 8.28239 6.60073C8.29165 6.19628 8.20186 5.79571 8.02086 5.43391C7.8381 5.09241 7.54723 4.82119 7.19381 4.66273C6.82498 4.4772 6.34439 4.38555 5.75763 4.38555H3.46198V14.6936H1.92969V3.13043V3.12932ZM8.6881 14.6936L5.8761 9.45185L7.47322 9.44402L10.3232 14.5986V14.6936H8.68922H8.6881ZM238.044 44.8958V49.7251C237.881 49.9666 237.621 50.2393 237.265 50.541C236.908 50.8372 236.415 51.0965 235.787 51.32C235.166 51.538 234.362 51.6464 233.378 51.6464C232.618 51.6546 231.863 51.5129 231.158 51.2295C230.493 50.9494 229.896 50.5289 229.409 49.9967C228.901 49.421 228.513 48.7495 228.268 48.0219C228.002 47.2429 227.869 46.361 227.869 45.3764V44.3526C227.869 43.368 227.983 42.4884 228.213 41.715C228.449 40.9427 228.793 40.2866 229.246 39.749C229.694 39.2095 230.266 38.7868 230.913 38.5174C231.572 38.2335 232.326 38.0916 233.179 38.0916C234.187 38.0916 235.03 38.267 235.706 38.6168C236.36 38.9355 236.913 39.4311 237.301 40.0474C237.696 40.6805 237.949 41.3916 238.044 42.1319H236.295C236.222 41.6711 236.063 41.2283 235.824 40.8276C235.588 40.4287 235.246 40.1027 234.836 39.8854C234.407 39.644 233.855 39.5233 233.179 39.5233C232.568 39.5233 232.04 39.635 231.593 39.8586C231.146 40.0821 230.777 40.4017 230.487 40.8186C230.197 41.2355 229.98 41.7396 229.835 42.3319C229.689 42.989 229.619 43.6606 229.627 44.3336V45.3764C229.627 46.1364 229.714 46.817 229.889 47.415C230.07 48.0129 230.328 48.5237 230.66 48.9461C230.991 49.363 231.387 49.6804 231.846 49.8973C232.329 50.1187 232.855 50.2302 233.387 50.2236C234.009 50.2236 234.513 50.1722 234.9 50.0694C235.287 49.961 235.588 49.8347 235.806 49.6894C235.989 49.5684 236.156 49.4254 236.304 49.2636V46.3096H233.25V44.8958H238.044ZM223.526 38.2726V51.4653H221.768L215.126 41.2891V51.4653H213.377V38.2726H215.126L221.794 48.4745V38.2726H223.526ZM208.527 38.2726V51.4653H206.779V38.2726H208.527ZM198.784 38.2726V51.4653H197.062V38.2726H198.784ZM203.025 38.2726V39.7032H192.831V38.2726H203.025ZM186.195 39.4417L181.828 51.4653H180.044L185.072 38.2726H186.223L186.195 39.4417ZM189.856 51.4653L185.48 39.4417L185.453 38.2726H186.603L191.65 51.4653H189.856ZM189.63 46.5812V48.0118H182.217V46.5812H189.63ZM168.207 38.2726H172.574C173.564 38.2726 174.401 38.4235 175.083 38.7253C175.772 39.027 176.295 39.4741 176.651 40.0664C177.014 40.6521 177.195 41.3741 177.195 42.2324C177.201 42.8062 177.074 43.3737 176.824 43.8899C176.582 44.385 176.231 44.8086 175.772 45.1584C175.284 45.52 174.73 45.782 174.141 45.9296L173.652 46.1196H169.548L169.53 44.6969H172.628C173.256 44.6969 173.779 44.5884 174.196 44.3705C174.613 44.147 174.927 43.8474 175.138 43.473C175.349 43.0986 175.456 42.6851 175.456 42.2324C175.456 41.725 175.355 41.2802 175.156 40.9002C174.948 40.5111 174.617 40.2021 174.214 40.0217C173.791 39.8094 173.244 39.7043 172.574 39.7043H169.956V51.4653H168.207V38.2726ZM175.917 51.4653L172.71 45.4859L174.531 45.4758L177.784 51.3558V51.4653H175.917ZM157.673 43.8173V45.829C157.673 46.9109 157.575 47.8229 157.382 48.565C157.189 49.3083 156.912 49.9062 156.548 50.36C156.186 50.8126 155.748 51.1423 155.235 51.3469C154.685 51.5538 154.101 51.6554 153.514 51.6464C153.039 51.6509 152.566 51.5869 152.109 51.4564C151.686 51.3324 151.292 51.1258 150.949 50.8484C150.591 50.5391 150.296 50.1638 150.079 49.743C149.838 49.2904 149.654 48.7405 149.526 48.0945C149.391 47.3471 149.327 46.5885 149.336 45.829V43.8173C149.336 42.7365 149.433 41.8301 149.627 41.0991C149.826 40.3682 150.106 39.7826 150.469 39.3422C150.832 38.8951 151.266 38.5744 151.774 38.381C152.287 38.1877 152.861 38.0904 153.495 38.0904C154.009 38.0904 154.48 38.1541 154.909 38.2816C155.344 38.4023 155.73 38.599 156.069 38.8706C156.406 39.1366 156.694 39.4931 156.929 39.9401C157.171 40.3805 157.355 40.9214 157.482 41.5607C157.609 42.2023 157.673 42.9533 157.673 43.8173ZM155.987 46.1006V43.5367C155.987 42.9444 155.95 42.4258 155.878 41.9787C155.826 41.5812 155.726 41.1916 155.579 40.8186C155.465 40.527 155.292 40.2619 155.072 40.0396C154.876 39.8422 154.638 39.693 154.375 39.6037C154.092 39.5033 153.794 39.454 153.495 39.4584C153.097 39.4584 152.743 39.5356 152.435 39.6864C152.116 39.8415 151.846 40.0831 151.656 40.3839C151.451 40.7035 151.293 41.1237 151.185 41.6434C151.076 42.1631 151.022 42.7946 151.022 43.5367V46.1006C151.022 46.693 151.055 47.216 151.121 47.6687C151.194 48.1213 151.3 48.5147 151.438 48.8467C151.577 49.173 151.747 49.4413 151.946 49.6525C152.145 49.8648 152.375 50.0213 152.634 50.1241C152.9 50.2203 153.193 50.2694 153.514 50.2694C153.924 50.2694 154.284 50.1912 154.591 50.0336C154.9 49.8771 155.157 49.6313 155.361 49.2993C155.574 48.9607 155.73 48.5293 155.833 48.0029C155.944 47.375 155.996 46.7381 155.987 46.1006ZM143.036 50.5768C143.036 50.2929 143.124 50.0549 143.3 49.8615C143.481 49.6614 143.74 49.562 144.079 49.562C144.416 49.562 144.673 49.6626 144.849 49.8615C145.03 50.055 145.127 50.3119 145.12 50.5768C145.127 50.8392 145.029 51.0935 144.849 51.2843C144.673 51.4765 144.416 51.5737 144.079 51.5737C143.74 51.5737 143.481 51.4765 143.3 51.2831C143.124 51.0904 143.03 50.8374 143.036 50.5768ZM132.84 45.1864L131.499 44.841L132.16 38.2726H138.929V39.8217H133.583L133.184 43.4093C133.425 43.2707 133.73 43.1411 134.099 43.0204C134.516 42.8935 134.95 42.8324 135.386 42.8393C135.996 42.8393 136.542 42.9444 137.025 43.1567C137.509 43.3613 137.919 43.6574 138.258 44.0441C138.602 44.4309 138.865 44.8958 139.046 45.439C139.227 45.9833 139.319 46.5901 139.319 47.2607C139.319 47.8944 139.23 48.479 139.055 49.0099C138.896 49.5225 138.634 49.9972 138.285 50.4047C137.927 50.807 137.481 51.1204 136.981 51.32C136.461 51.538 135.848 51.6464 135.141 51.6464C134.61 51.6464 134.105 51.5737 133.628 51.4284C133.166 51.2826 132.736 51.0521 132.359 50.7489C131.984 50.4327 131.677 50.0447 131.454 49.6078C131.224 49.1484 131.079 48.6109 131.019 47.995H132.613C132.685 48.4901 132.831 48.907 133.049 49.2457C133.256 49.5757 133.551 49.8421 133.9 50.0157C134.29 50.1919 134.714 50.2786 135.141 50.2694C135.54 50.2694 135.893 50.199 136.202 50.0604C136.505 49.9251 136.771 49.7202 136.981 49.4625C137.192 49.2032 137.352 48.8891 137.461 48.5203C137.575 48.1515 137.633 47.738 137.633 47.2797C137.633 46.8617 137.575 46.475 137.461 46.1196C137.354 45.7769 137.178 45.4595 136.945 45.1864C136.721 44.92 136.439 44.7089 136.12 44.5694C135.767 44.4131 135.383 44.336 134.997 44.3437C134.435 44.3437 134.009 44.4186 133.718 44.5694C133.403 44.7421 133.109 44.949 132.84 45.1864Z" fill="white"/>
<path d="M142.05 8.99036L134.756 7.92971L131.495 1.31994C131.392 1.14561 131.225 1.01879 131.029 0.966747C130.833 0.914704 130.624 0.9416 130.448 1.04165C130.332 1.10872 130.235 1.20502 130.167 1.32106L126.906 7.92971L119.608 8.99036C119.506 9.00534 119.408 9.04147 119.32 9.09644C119.233 9.15141 119.158 9.22402 119.1 9.30963C119.042 9.39524 119.003 9.49196 118.984 9.59363C118.966 9.69531 118.969 9.79969 118.993 9.90012C119.027 10.0342 119.096 10.1572 119.196 10.2533L124.474 15.3989L123.229 22.6659C123.207 22.8018 123.223 22.9412 123.276 23.0686C123.328 23.1959 123.415 23.3061 123.527 23.3868C123.638 23.4675 123.77 23.5156 123.907 23.5257C124.045 23.5357 124.182 23.5074 124.304 23.4438L130.829 20.0137L137.353 23.4449C137.475 23.509 137.613 23.5378 137.751 23.5279C137.888 23.518 138.02 23.4698 138.132 23.3889C138.244 23.3079 138.331 23.1973 138.383 23.0695C138.435 22.9418 138.451 22.802 138.428 22.6659L137.182 15.4045L142.462 10.2533C142.56 10.1567 142.63 10.0344 142.663 9.9003C142.696 9.76616 142.691 9.62549 142.648 9.49415C142.605 9.36282 142.527 9.24605 142.421 9.15703C142.316 9.06801 142.187 9.01028 142.05 8.99036ZM167.996 8.99036L160.702 7.92971L157.442 1.31994C157.338 1.14561 157.171 1.01879 156.975 0.966747C156.779 0.914704 156.571 0.9416 156.394 1.04165C156.278 1.10872 156.181 1.20502 156.113 1.32106L152.853 7.92971L145.553 8.99036C145.451 9.00564 145.353 9.04197 145.266 9.09705C145.179 9.15212 145.104 9.22474 145.046 9.31029C144.989 9.39584 144.949 9.49245 144.931 9.59399C144.913 9.69553 144.916 9.79978 144.94 9.90012C144.973 10.0342 145.042 10.1572 145.142 10.2533L150.421 15.3989L149.175 22.6659C149.153 22.8018 149.169 22.9412 149.222 23.0686C149.274 23.1959 149.361 23.3061 149.473 23.3868C149.584 23.4675 149.716 23.5156 149.854 23.5257C149.991 23.5357 150.128 23.5074 150.251 23.4438L156.774 20.0137L163.299 23.4449C163.421 23.5095 163.559 23.5386 163.697 23.5289C163.835 23.5192 163.967 23.4711 164.079 23.39C164.191 23.3089 164.278 23.1981 164.33 23.0701C164.382 22.9421 164.398 22.8021 164.374 22.6659L163.128 15.4045L168.408 10.2533C168.507 10.1567 168.576 10.0344 168.609 9.9003C168.642 9.76616 168.637 9.62549 168.594 9.49415C168.552 9.36282 168.473 9.24605 168.367 9.15703C168.262 9.06801 168.132 9.01028 167.996 8.99036ZM193.943 8.99036L186.649 7.92971L183.389 1.31994C183.286 1.14561 183.118 1.01879 182.922 0.966747C182.726 0.914704 182.518 0.9416 182.342 1.04165C182.225 1.10842 182.128 1.2048 182.06 1.32106L178.799 7.92971L171.5 8.99036C171.398 9.00564 171.301 9.04197 171.213 9.09705C171.126 9.15212 171.051 9.22474 170.994 9.31029C170.936 9.39584 170.897 9.49245 170.878 9.59399C170.86 9.69553 170.863 9.79978 170.887 9.90012C170.92 10.0342 170.99 10.1572 171.089 10.2533L176.368 15.3989L175.123 22.6659C175.101 22.8018 175.117 22.9412 175.169 23.0686C175.222 23.1959 175.309 23.3061 175.42 23.3868C175.532 23.4675 175.664 23.5156 175.801 23.5257C175.938 23.5357 176.076 23.5074 176.198 23.4438L182.722 20.0137L189.246 23.4449C189.369 23.5095 189.506 23.5386 189.644 23.5289C189.782 23.5192 189.915 23.4711 190.026 23.39C190.138 23.3089 190.225 23.1981 190.278 23.0701C190.33 22.9421 190.345 22.8021 190.322 22.6659L189.075 15.4045L194.355 10.2533C194.429 10.1813 194.488 10.0944 194.526 9.99847C194.565 9.90249 194.583 9.7995 194.579 9.69615C194.575 9.59279 194.55 9.49139 194.504 9.3985C194.459 9.30561 194.394 9.22329 194.315 9.15689C194.209 9.0676 194.081 9.00955 193.944 8.98924L193.943 8.99036ZM219.889 8.99036L212.595 7.92971L209.335 1.31994C209.267 1.2046 209.169 1.10905 209.053 1.04268C208.936 0.976322 208.804 0.941426 208.67 0.941426C208.536 0.941426 208.404 0.976322 208.287 1.04268C208.171 1.10905 208.074 1.2046 208.005 1.31994L204.745 7.92971L197.447 8.99036C197.345 9.00564 197.247 9.04197 197.16 9.09705C197.072 9.15212 196.997 9.22474 196.94 9.31029C196.882 9.39584 196.843 9.49245 196.824 9.59399C196.806 9.69553 196.809 9.79978 196.833 9.90012C196.865 10.0342 196.936 10.1572 197.034 10.2533L202.313 15.3989L201.069 22.6659C201.045 22.8019 201.06 22.9419 201.113 23.0696C201.165 23.1974 201.253 23.3077 201.365 23.3879C201.477 23.4689 201.609 23.5171 201.747 23.527C201.884 23.5369 202.022 23.508 202.144 23.4438L208.668 20.0137L215.193 23.4449C215.315 23.5095 215.453 23.5386 215.59 23.5289C215.728 23.5192 215.861 23.4711 215.973 23.39C216.085 23.3089 216.172 23.1981 216.224 23.0701C216.276 22.9421 216.291 22.8021 216.268 22.6659L215.021 15.4045L220.301 10.2533C220.376 10.1813 220.434 10.0944 220.472 9.99847C220.511 9.90249 220.529 9.7995 220.525 9.69615C220.521 9.59279 220.496 9.49139 220.45 9.3985C220.405 9.30561 220.34 9.22329 220.261 9.15689C220.155 9.0676 220.027 9.00955 219.89 8.98924L219.889 8.99036ZM245.836 8.99036L238.543 7.92971L235.282 1.31994C235.214 1.20394 235.117 1.10779 235.001 1.04111C234.884 0.974423 234.752 0.939539 234.617 0.939945C234.483 0.940318 234.351 0.97553 234.235 1.04214C234.118 1.10875 234.021 1.20447 233.952 1.31994L230.692 7.92971L223.394 8.99036C223.257 9.00934 223.128 9.06661 223.022 9.15558C222.916 9.24454 222.837 9.3616 222.795 9.4933C222.752 9.62476 222.746 9.76566 222.779 9.89999C222.812 10.0343 222.882 10.1567 222.982 10.2533L228.26 15.3989L227.015 22.6659C226.993 22.8018 227.009 22.9412 227.061 23.0686C227.114 23.1959 227.201 23.3061 227.313 23.3868C227.424 23.4675 227.556 23.5156 227.693 23.5257C227.831 23.5357 227.968 23.5074 228.09 23.4438L234.615 20.0137L241.139 23.4449C241.261 23.5085 241.399 23.537 241.536 23.5271C241.674 23.5173 241.806 23.4694 241.918 23.389C242.03 23.3079 242.116 23.1973 242.169 23.0696C242.221 22.9418 242.237 22.802 242.214 22.6659L240.968 15.4045L246.249 10.2533C246.323 10.1813 246.381 10.0944 246.42 9.99847C246.458 9.90249 246.476 9.7995 246.472 9.69615C246.469 9.59279 246.443 9.49139 246.398 9.3985C246.352 9.30561 246.288 9.22329 246.208 9.15689C246.103 9.0676 245.974 9.00955 245.837 8.98924L245.836 8.99036Z" fill="url(#paint1_linear_3455_3341)"/>
<defs>
<linearGradient id="paint0_linear_3455_3341" x1="75.3409" y1="33.2388" x2="77.7966" y2="32.6322" gradientUnits="userSpaceOnUse">
<stop offset="0.0553703" stop-color="#B58153"/>
<stop offset="1" stop-color="#FFEBBF"/>
</linearGradient>
<linearGradient id="paint1_linear_3455_3341" x1="103.437" y1="-32.8308" x2="120.587" y2="-56.5251" gradientUnits="userSpaceOnUse">
<stop offset="0.0553703" stop-color="#B58153"/>
<stop offset="1" stop-color="#FFEBBF"/>
</linearGradient>
</defs>
</svg>
